<?xml version="1.0" encoding="UTF-8" standalone="no"?>
<!DOCTYPE svg PUBLIC "-//W3C//DTD SVG 1.1//EN"
 "http://www.w3.org/Graphics/SVG/1.1/DTD/svg11.dtd">
<!-- Generated by graphviz version 2.40.1 (0)
 -->
<!-- Title: Tapp Pages: 1 -->
<svg width="812pt" height="791pt"
 viewBox="0.00 0.00 811.60 791.10" xmlns="http://www.w3.org/2000/svg" xmlns:xlink="http://www.w3.org/1999/xlink">
<g id="graph0" class="graph" transform="scale(1 1) rotate(0) translate(28.8 762.3)">
<title>Tapp</title>
<polygon fill="#ffffff" stroke="transparent" points="-28.8,28.8 -28.8,-762.3 782.8,-762.3 782.8,28.8 -28.8,28.8"/>
<text text-anchor="middle" x="377" y="-719.1" font-family="Arial Bold" font-size="13.00" fill="#000000">ER Diagram</text>
<!-- m_ActiveRecord::InternalMetadata -->
<g id="node1" class="node">
<title>m_ActiveRecord::InternalMetadata</title>
<path fill="none" stroke="#000000" d="M14.5,-99C14.5,-99 166.5,-99 166.5,-99 172.5,-99 178.5,-105 178.5,-111 178.5,-111 178.5,-130 178.5,-130 178.5,-136 172.5,-142 166.5,-142 166.5,-142 14.5,-142 14.5,-142 8.5,-142 2.5,-136 2.5,-130 2.5,-130 2.5,-111 2.5,-111 2.5,-105 8.5,-99 14.5,-99"/>
<text text-anchor="start" x="7.5" y="-129.2" font-family="Arial Bold" font-size="11.00" fill="#000000">ActiveRecord::InternalMetadata</text>
<polyline fill="none" stroke="#000000" points="2.5,-122 178.5,-122 "/>
<text text-anchor="start" x="25.5" y="-108.5" font-family="Arial" font-size="10.00" fill="#000000">value </text>
<text text-anchor="start" x="52.5" y="-108.5" font-family="Arial Italic" font-size="10.00" fill="#999999">string</text>
</g>
<!-- m_ActiveRecord::SchemaMigration -->
<g id="node2" class="node">
<title>m_ActiveRecord::SchemaMigration</title>
<path fill="none" stroke="#000000" d="M12,-172.5C12,-172.5 169,-172.5 169,-172.5 175,-172.5 181,-178.5 181,-184.5 181,-184.5 181,-196.5 181,-196.5 181,-202.5 175,-208.5 169,-208.5 169,-208.5 12,-208.5 12,-208.5 6,-208.5 0,-202.5 0,-196.5 0,-196.5 0,-184.5 0,-184.5 0,-178.5 6,-172.5 12,-172.5"/>
<text text-anchor="start" x="5.5" y="-187.7" font-family="Arial Bold" font-size="11.00" fill="#000000">ActiveRecord::SchemaMigration</text>
</g>
<!-- m_Applicant -->
<g id="node3" class="node">
<title>m_Applicant</title>
<path fill="none" stroke="#000000" d="M234,-469.5C234,-469.5 354,-469.5 354,-469.5 360,-469.5 366,-475.5 366,-481.5 366,-481.5 366,-565.5 366,-565.5 366,-571.5 360,-577.5 354,-577.5 354,-577.5 234,-577.5 234,-577.5 228,-577.5 222,-571.5 222,-565.5 222,-565.5 222,-481.5 222,-481.5 222,-475.5 228,-469.5 234,-469.5"/>
<text text-anchor="start" x="266.5" y="-564.7" font-family="Arial Bold" font-size="11.00" fill="#000000">Applicant</text>
<polyline fill="none" stroke="#000000" points="222,-557.5 366,-557.5 "/>
<text text-anchor="start" x="229" y="-544.5" font-family="Arial" font-size="10.00" fill="#000000">utorid </text>
<text text-anchor="start" x="257" y="-544.5" font-family="Arial Italic" font-size="10.00" fill="#999999">string ∗ U</text>
<text text-anchor="start" x="229" y="-531.5" font-family="Arial" font-size="10.00" fill="#000000">student_number </text>
<text text-anchor="start" x="302" y="-531.5" font-family="Arial Italic" font-size="10.00" fill="#999999">string ∗ U</text>
<text text-anchor="start" x="229" y="-518.5" font-family="Arial" font-size="10.00" fill="#000000">first_name </text>
<text text-anchor="start" x="278" y="-518.5" font-family="Arial Italic" font-size="10.00" fill="#999999">string ∗</text>
<text text-anchor="start" x="229" y="-505.5" font-family="Arial" font-size="10.00" fill="#000000">last_name </text>
<text text-anchor="start" x="278" y="-505.5" font-family="Arial Italic" font-size="10.00" fill="#999999">string ∗</text>
<text text-anchor="start" x="229" y="-492.5" font-family="Arial" font-size="10.00" fill="#000000">email </text>
<text text-anchor="start" x="256" y="-492.5" font-family="Arial Italic" font-size="10.00" fill="#999999">string ∗</text>
<text text-anchor="start" x="229" y="-479.5" font-family="Arial" font-size="10.00" fill="#000000">phone </text>
<text text-anchor="start" x="259" y="-479.5" font-family="Arial Italic" font-size="10.00" fill="#999999">string</text>
</g>
<!-- m_ApplicantDataForMatching -->
<g id="node4" class="node">
<title>m_ApplicantDataForMatching</title>
<path fill="none" stroke="#000000" d="M421.5,-575C421.5,-575 556.5,-575 556.5,-575 562.5,-575 568.5,-581 568.5,-587 568.5,-587 568.5,-684 568.5,-684 568.5,-690 562.5,-696 556.5,-696 556.5,-696 421.5,-696 421.5,-696 415.5,-696 409.5,-690 409.5,-684 409.5,-684 409.5,-587 409.5,-587 409.5,-581 415.5,-575 421.5,-575"/>
<text text-anchor="start" x="419" y="-683.2" font-family="Arial Bold" font-size="11.00" fill="#000000">ApplicantDataForMatching</text>
<polyline fill="none" stroke="#000000" points="409.5,-676 568.5,-676 "/>
<text text-anchor="start" x="417" y="-662.5" font-family="Arial" font-size="10.00" fill="#000000">program </text>
<text text-anchor="start" x="456" y="-662.5" font-family="Arial Italic" font-size="10.00" fill="#999999">string</text>
<text text-anchor="start" x="417" y="-649.5" font-family="Arial" font-size="10.00" fill="#000000">department </text>
<text text-anchor="start" x="469" y="-649.5" font-family="Arial Italic" font-size="10.00" fill="#999999">string</text>
<text text-anchor="start" x="417" y="-636.5" font-family="Arial" font-size="10.00" fill="#000000">previous_uoft_ta_experience </text>
<text text-anchor="start" x="545" y="-636.5" font-family="Arial Italic" font-size="10.00" fill="#999999">text</text>
<text text-anchor="start" x="417" y="-623.5" font-family="Arial" font-size="10.00" fill="#000000">yip </text>
<text text-anchor="start" x="433" y="-623.5" font-family="Arial Italic" font-size="10.00" fill="#999999">integer</text>
<text text-anchor="start" x="417" y="-610.5" font-family="Arial" font-size="10.00" fill="#000000">annotation </text>
<text text-anchor="start" x="466" y="-610.5" font-family="Arial Italic" font-size="10.00" fill="#999999">string</text>
<text text-anchor="start" x="417" y="-597.5" font-family="Arial" font-size="10.00" fill="#000000">applicant_id </text>
<text text-anchor="start" x="472" y="-597.5" font-family="Arial Italic" font-size="10.00" fill="#999999">integer (8) FK</text>
<text text-anchor="start" x="417" y="-584.5" font-family="Arial" font-size="10.00" fill="#000000">application_id </text>
<text text-anchor="start" x="480" y="-584.5" font-family="Arial Italic" font-size="10.00" fill="#999999">integer (8) FK</text>
</g>
<!-- m_Applicant&#45;&gt;m_ApplicantDataForMatching -->
<g id="edge12" class="edge">
<title>m_Applicant&#45;&gt;m_ApplicantDataForMatching</title>
<path fill="none" stroke="#000000" d="M366.0568,-564.8865C377.5163,-571.4683 389.48,-578.3398 401.2522,-585.1013"/>
<polygon fill="#000000" stroke="#000000" points="399.9898,-588.0088 409.363,-589.7598 403.1276,-582.5457 399.9898,-588.0088"/>
</g>
<!-- m_Assignment -->
<g id="node6" class="node">
<title>m_Assignment</title>
<path fill="none" stroke="#000000" d="M429,-337.5C429,-337.5 549,-337.5 549,-337.5 555,-337.5 561,-343.5 561,-349.5 561,-349.5 561,-433.5 561,-433.5 561,-439.5 555,-445.5 549,-445.5 549,-445.5 429,-445.5 429,-445.5 423,-445.5 417,-439.5 417,-433.5 417,-433.5 417,-349.5 417,-349.5 417,-343.5 423,-337.5 429,-337.5"/>
<text text-anchor="start" x="455" y="-432.7" font-family="Arial Bold" font-size="11.00" fill="#000000">Assignment</text>
<polyline fill="none" stroke="#000000" points="417,-425.5 561,-425.5 "/>
<text text-anchor="start" x="424" y="-412.5" font-family="Arial" font-size="10.00" fill="#000000">contract_start </text>
<text text-anchor="start" x="488" y="-412.5" font-family="Arial Italic" font-size="10.00" fill="#999999">datetime</text>
<text text-anchor="start" x="424" y="-399.5" font-family="Arial" font-size="10.00" fill="#000000">contract_end </text>
<text text-anchor="start" x="484" y="-399.5" font-family="Arial Italic" font-size="10.00" fill="#999999">datetime</text>
<text text-anchor="start" x="424" y="-386.5" font-family="Arial" font-size="10.00" fill="#000000">note </text>
<text text-anchor="start" x="446" y="-386.5" font-family="Arial Italic" font-size="10.00" fill="#999999">text</text>
<text text-anchor="start" x="424" y="-373.5" font-family="Arial" font-size="10.00" fill="#000000">offer_override_pdf </text>
<text text-anchor="start" x="506" y="-373.5" font-family="Arial Italic" font-size="10.00" fill="#999999">string</text>
<text text-anchor="start" x="424" y="-360.5" font-family="Arial" font-size="10.00" fill="#000000">position_id </text>
<text text-anchor="start" x="474" y="-360.5" font-family="Arial Italic" font-size="10.00" fill="#999999">integer (8) FK</text>
<text text-anchor="start" x="424" y="-347.5" font-family="Arial" font-size="10.00" fill="#000000">applicant_id </text>
<text text-anchor="start" x="479" y="-347.5" font-family="Arial Italic" font-size="10.00" fill="#999999">integer (8) FK</text>
</g>
<!-- m_Applicant&#45;&gt;m_Assignment -->
<g id="edge10" class="edge">
<title>m_Applicant&#45;&gt;m_Assignment</title>
<path fill="none" stroke="#000000" d="M366.0568,-474.7231C380.1922,-465.1545 395.0947,-455.0666 409.4586,-445.3434"/>
<polygon fill="#000000" stroke="#000000" points="411.2268,-447.9504 416.914,-440.2967 407.6952,-442.7332 411.2268,-447.9504"/>
</g>
<!-- m_Application -->
<g id="node5" class="node">
<title>m_Application</title>
<path fill="none" stroke="#000000" d="M234,-607.5C234,-607.5 354,-607.5 354,-607.5 360,-607.5 366,-613.5 366,-619.5 366,-619.5 366,-651.5 366,-651.5 366,-657.5 360,-663.5 354,-663.5 354,-663.5 234,-663.5 234,-663.5 228,-663.5 222,-657.5 222,-651.5 222,-651.5 222,-619.5 222,-619.5 222,-613.5 228,-607.5 234,-607.5"/>
<text text-anchor="start" x="261.5" y="-650.7" font-family="Arial Bold" font-size="11.00" fill="#000000">Application</text>
<polyline fill="none" stroke="#000000" points="222,-643.5 366,-643.5 "/>
<text text-anchor="start" x="229" y="-630.5" font-family="Arial" font-size="10.00" fill="#000000">comments </text>
<text text-anchor="start" x="278" y="-630.5" font-family="Arial Italic" font-size="10.00" fill="#999999">text</text>
<text text-anchor="start" x="229" y="-617.5" font-family="Arial" font-size="10.00" fill="#000000">session_id </text>
<text text-anchor="start" x="279" y="-617.5" font-family="Arial Italic" font-size="10.00" fill="#999999">integer (8) FK</text>
</g>
<!-- m_Application&#45;&gt;m_ApplicantDataForMatching -->
<g id="edge15" class="edge">
<title>m_Application&#45;&gt;m_ApplicantDataForMatching</title>
<path fill="none" stroke="#000000" d="M366.0568,-635.5C380.1608,-635.5 395.0286,-635.5 409.363,-635.5"/>
</g>
<!-- m_PositionPreference -->
<g id="node12" class="node">
<title>m_PositionPreference</title>
<path fill="none" stroke="#000000" d="M429,-476C429,-476 549,-476 549,-476 555,-476 561,-482 561,-488 561,-488 561,-533 561,-533 561,-539 555,-545 549,-545 549,-545 429,-545 429,-545 423,-545 417,-539 417,-533 417,-533 417,-488 417,-488 417,-482 423,-476 429,-476"/>
<text text-anchor="start" x="436.5" y="-532.2" font-family="Arial Bold" font-size="11.00" fill="#000000">PositionPreference</text>
<polyline fill="none" stroke="#000000" points="417,-525 561,-525 "/>
<text text-anchor="start" x="424" y="-511.5" font-family="Arial" font-size="10.00" fill="#000000">position_id </text>
<text text-anchor="start" x="474" y="-511.5" font-family="Arial Italic" font-size="10.00" fill="#999999">integer (8) FK</text>
<text text-anchor="start" x="424" y="-498.5" font-family="Arial" font-size="10.00" fill="#000000">application_id </text>
<text text-anchor="start" x="487" y="-498.5" font-family="Arial Italic" font-size="10.00" fill="#999999">integer (8) FK</text>
<text text-anchor="start" x="424" y="-485.5" font-family="Arial" font-size="10.00" fill="#000000">preference_level </text>
<text text-anchor="start" x="499" y="-485.5" font-family="Arial Italic" font-size="10.00" fill="#999999">integer</text>
</g>
<!-- m_Application&#45;&gt;m_PositionPreference -->
<g id="edge17" class="edge">
<title>m_Application&#45;&gt;m_PositionPreference</title>
<path fill="none" stroke="#000000" d="M348.015,-607.4544C355.9123,-602.7517 363.8015,-597.7005 371,-592.5 388.5941,-579.7894 389.5941,-572.4672 407,-559.5 411.1747,-556.3899 415.5586,-553.3057 420.0375,-550.288"/>
<polygon fill="#000000" stroke="#000000" points="421.8601,-552.8594 427.6447,-545.2791 418.3955,-547.5976 421.8601,-552.8594"/>
</g>
<!-- m_Offer -->
<g id="node8" class="node">
<title>m_Offer</title>
<path fill="none" stroke="#000000" d="M619,-363.5C619,-363.5 742,-363.5 742,-363.5 748,-363.5 754,-369.5 754,-375.5 754,-375.5 754,-667.5 754,-667.5 754,-673.5 748,-679.5 742,-679.5 742,-679.5 619,-679.5 619,-679.5 613,-679.5 607,-673.5 607,-667.5 607,-667.5 607,-375.5 607,-375.5 607,-369.5 613,-363.5 619,-363.5"/>
<text text-anchor="start" x="665" y="-666.7" font-family="Arial Bold" font-size="11.00" fill="#000000">Offer</text>
<polyline fill="none" stroke="#000000" points="607,-659.5 754,-659.5 "/>
<text text-anchor="start" x="614.5" y="-646.5" font-family="Arial" font-size="10.00" fill="#000000">assignment_id </text>
<text text-anchor="start" x="681.5" y="-646.5" font-family="Arial Italic" font-size="10.00" fill="#999999">integer (8) FK</text>
<text text-anchor="start" x="614.5" y="-633.5" font-family="Arial" font-size="10.00" fill="#000000">offer_template </text>
<text text-anchor="start" x="680.5" y="-633.5" font-family="Arial Italic" font-size="10.00" fill="#999999">string</text>
<text text-anchor="start" x="614.5" y="-620.5" font-family="Arial" font-size="10.00" fill="#000000">offer_override_pdf </text>
<text text-anchor="start" x="696.5" y="-620.5" font-family="Arial Italic" font-size="10.00" fill="#999999">string</text>
<text text-anchor="start" x="614.5" y="-607.5" font-family="Arial" font-size="10.00" fill="#000000">first_name </text>
<text text-anchor="start" x="663.5" y="-607.5" font-family="Arial Italic" font-size="10.00" fill="#999999">string</text>
<text text-anchor="start" x="614.5" y="-594.5" font-family="Arial" font-size="10.00" fill="#000000">last_name </text>
<text text-anchor="start" x="663.5" y="-594.5" font-family="Arial Italic" font-size="10.00" fill="#999999">string</text>
<text text-anchor="start" x="614.5" y="-581.5" font-family="Arial" font-size="10.00" fill="#000000">email </text>
<text text-anchor="start" x="641.5" y="-581.5" font-family="Arial Italic" font-size="10.00" fill="#999999">string</text>
<text text-anchor="start" x="614.5" y="-568.5" font-family="Arial" font-size="10.00" fill="#000000">position_code </text>
<text text-anchor="start" x="678.5" y="-568.5" font-family="Arial Italic" font-size="10.00" fill="#999999">string</text>
<text text-anchor="start" x="614.5" y="-555.5" font-family="Arial" font-size="10.00" fill="#000000">position_title </text>
<text text-anchor="start" x="672.5" y="-555.5" font-family="Arial Italic" font-size="10.00" fill="#999999">string</text>
<text text-anchor="start" x="614.5" y="-542.5" font-family="Arial" font-size="10.00" fill="#000000">position_start_date </text>
<text text-anchor="start" x="700.5" y="-542.5" font-family="Arial Italic" font-size="10.00" fill="#999999">datetime</text>
<text text-anchor="start" x="614.5" y="-529.5" font-family="Arial" font-size="10.00" fill="#000000">position_end_date </text>
<text text-anchor="start" x="696.5" y="-529.5" font-family="Arial Italic" font-size="10.00" fill="#999999">datetime</text>
<text text-anchor="start" x="614.5" y="-516.5" font-family="Arial" font-size="10.00" fill="#000000">first_time_ta </text>
<text text-anchor="start" x="672.5" y="-516.5" font-family="Arial Italic" font-size="10.00" fill="#999999">boolean</text>
<text text-anchor="start" x="614.5" y="-503.5" font-family="Arial" font-size="10.00" fill="#000000">instructor_contact_desc </text>
<text text-anchor="start" x="722.5" y="-503.5" font-family="Arial Italic" font-size="10.00" fill="#999999">string</text>
<text text-anchor="start" x="614.5" y="-490.5" font-family="Arial" font-size="10.00" fill="#000000">pay_period_desc </text>
<text text-anchor="start" x="691.5" y="-490.5" font-family="Arial Italic" font-size="10.00" fill="#999999">string</text>
<text text-anchor="start" x="614.5" y="-477.5" font-family="Arial" font-size="10.00" fill="#000000">installments </text>
<text text-anchor="start" x="670.5" y="-477.5" font-family="Arial Italic" font-size="10.00" fill="#999999">integer</text>
<text text-anchor="start" x="614.5" y="-464.5" font-family="Arial" font-size="10.00" fill="#000000">ta_coordinator_name </text>
<text text-anchor="start" x="708.5" y="-464.5" font-family="Arial Italic" font-size="10.00" fill="#999999">string</text>
<text text-anchor="start" x="614.5" y="-451.5" font-family="Arial" font-size="10.00" fill="#000000">ta_coordinator_email </text>
<text text-anchor="start" x="708.5" y="-451.5" font-family="Arial Italic" font-size="10.00" fill="#999999">string</text>
<text text-anchor="start" x="614.5" y="-438.5" font-family="Arial" font-size="10.00" fill="#000000">emailed_date </text>
<text text-anchor="start" x="675.5" y="-438.5" font-family="Arial Italic" font-size="10.00" fill="#999999">datetime</text>
<text text-anchor="start" x="614.5" y="-425.5" font-family="Arial" font-size="10.00" fill="#000000">signature </text>
<text text-anchor="start" x="657.5" y="-425.5" font-family="Arial Italic" font-size="10.00" fill="#999999">string</text>
<text text-anchor="start" x="614.5" y="-412.5" font-family="Arial" font-size="10.00" fill="#000000">accepted_date </text>
<text text-anchor="start" x="681.5" y="-412.5" font-family="Arial Italic" font-size="10.00" fill="#999999">datetime</text>
<text text-anchor="start" x="614.5" y="-399.5" font-family="Arial" font-size="10.00" fill="#000000">rejected_date </text>
<text text-anchor="start" x="676.5" y="-399.5" font-family="Arial Italic" font-size="10.00" fill="#999999">datetime</text>
<text text-anchor="start" x="614.5" y="-386.5" font-family="Arial" font-size="10.00" fill="#000000">withdrawn_date </text>
<text text-anchor="start" x="686.5" y="-386.5" font-family="Arial Italic" font-size="10.00" fill="#999999">datetime</text>
<text text-anchor="start" x="614.5" y="-373.5" font-family="Arial" font-size="10.00" fill="#000000">nag_count </text>
<text text-anchor="start" x="663.5" y="-373.5" font-family="Arial Italic" font-size="10.00" fill="#999999">integer</text>
</g>
<!-- m_Assignment&#45;&gt;m_Offer -->
<g id="edge9" class="edge">
<title>m_Assignment&#45;&gt;m_Offer</title>
<path fill="none" stroke="#000000" d="M561.1251,-440.4622C573.5051,-448.8664 586.4471,-457.6521 599.0509,-466.2082"/>
<polygon fill="#000000" stroke="#000000" points="597.6312,-469.0517 606.8468,-471.5004 601.1697,-463.8392 597.6312,-469.0517"/>
</g>
<!-- m_WageChunk -->
<g id="node17" class="node">
<title>m_WageChunk</title>
<path fill="none" stroke="#000000" d="M620.5,-238C620.5,-238 740.5,-238 740.5,-238 746.5,-238 752.5,-244 752.5,-250 752.5,-250 752.5,-321 752.5,-321 752.5,-327 746.5,-333 740.5,-333 740.5,-333 620.5,-333 620.5,-333 614.5,-333 608.5,-327 608.5,-321 608.5,-321 608.5,-250 608.5,-250 608.5,-244 614.5,-238 620.5,-238"/>
<text text-anchor="start" x="646.5" y="-320.2" font-family="Arial Bold" font-size="11.00" fill="#000000">WageChunk</text>
<polyline fill="none" stroke="#000000" points="608.5,-313 752.5,-313 "/>
<text text-anchor="start" x="615.5" y="-299.5" font-family="Arial" font-size="10.00" fill="#000000">hours </text>
<text text-anchor="start" x="643.5" y="-299.5" font-family="Arial Italic" font-size="10.00" fill="#999999">float</text>
<text text-anchor="start" x="615.5" y="-286.5" font-family="Arial" font-size="10.00" fill="#000000">rate </text>
<text text-anchor="start" x="635.5" y="-286.5" font-family="Arial Italic" font-size="10.00" fill="#999999">float</text>
<text text-anchor="start" x="615.5" y="-273.5" font-family="Arial" font-size="10.00" fill="#000000">start_date </text>
<text text-anchor="start" x="662.5" y="-273.5" font-family="Arial Italic" font-size="10.00" fill="#999999">datetime</text>
<text text-anchor="start" x="615.5" y="-260.5" font-family="Arial" font-size="10.00" fill="#000000">end_date </text>
<text text-anchor="start" x="658.5" y="-260.5" font-family="Arial Italic" font-size="10.00" fill="#999999">datetime</text>
<text text-anchor="start" x="615.5" y="-247.5" font-family="Arial" font-size="10.00" fill="#000000">assignment_id </text>
<text text-anchor="start" x="682.5" y="-247.5" font-family="Arial Italic" font-size="10.00" fill="#999999">integer (8) FK</text>
</g>
<!-- m_Assignment&#45;&gt;m_WageChunk -->
<g id="edge11" class="edge">
<title>m_Assignment&#45;&gt;m_WageChunk</title>
<path fill="none" stroke="#000000" d="M561.1251,-351.577C573.9441,-344.4814 587.3657,-337.0522 600.3904,-329.8426"/>
<polygon fill="#000000" stroke="#000000" points="602.0912,-332.5016 608.4399,-325.387 599.0402,-326.9897 602.0912,-332.5016"/>
</g>
<!-- m_Instructor -->
<g id="node7" class="node">
<title>m_Instructor</title>
<path fill="none" stroke="#000000" d="M30.5,-238.5C30.5,-238.5 150.5,-238.5 150.5,-238.5 156.5,-238.5 162.5,-244.5 162.5,-250.5 162.5,-250.5 162.5,-308.5 162.5,-308.5 162.5,-314.5 156.5,-320.5 150.5,-320.5 150.5,-320.5 30.5,-320.5 30.5,-320.5 24.5,-320.5 18.5,-314.5 18.5,-308.5 18.5,-308.5 18.5,-250.5 18.5,-250.5 18.5,-244.5 24.5,-238.5 30.5,-238.5"/>
<text text-anchor="start" x="62.5" y="-307.7" font-family="Arial Bold" font-size="11.00" fill="#000000">Instructor</text>
<polyline fill="none" stroke="#000000" points="18.5,-300.5 162.5,-300.5 "/>
<text text-anchor="start" x="25.5" y="-287.5" font-family="Arial" font-size="10.00" fill="#000000">last_name </text>
<text text-anchor="start" x="74.5" y="-287.5" font-family="Arial Italic" font-size="10.00" fill="#999999">string ∗</text>
<text text-anchor="start" x="25.5" y="-274.5" font-family="Arial" font-size="10.00" fill="#000000">first_name </text>
<text text-anchor="start" x="74.5" y="-274.5" font-family="Arial Italic" font-size="10.00" fill="#999999">string ∗</text>
<text text-anchor="start" x="25.5" y="-261.5" font-family="Arial" font-size="10.00" fill="#000000">email </text>
<text text-anchor="start" x="52.5" y="-261.5" font-family="Arial Italic" font-size="10.00" fill="#999999">string ∗</text>
<text text-anchor="start" x="25.5" y="-248.5" font-family="Arial" font-size="10.00" fill="#000000">utorid </text>
<text text-anchor="start" x="53.5" y="-248.5" font-family="Arial Italic" font-size="10.00" fill="#999999">string ∗ U</text>
</g>
<!-- m_Position -->
<g id="node9" class="node">
<title>m_Position</title>
<path fill="none" stroke="#000000" d="M229,-219C229,-219 359,-219 359,-219 365,-219 371,-225 371,-231 371,-231 371,-328 371,-328 371,-334 365,-340 359,-340 359,-340 229,-340 229,-340 223,-340 217,-334 217,-328 217,-328 217,-231 217,-231 217,-225 223,-219 229,-219"/>
<text text-anchor="start" x="270" y="-327.2" font-family="Arial Bold" font-size="11.00" fill="#000000">Position</text>
<polyline fill="none" stroke="#000000" points="217,-320 371,-320 "/>
<text text-anchor="start" x="224" y="-306.5" font-family="Arial" font-size="10.00" fill="#000000">session_id </text>
<text text-anchor="start" x="274" y="-306.5" font-family="Arial Italic" font-size="10.00" fill="#999999">integer (8) FK</text>
<text text-anchor="start" x="224" y="-293.5" font-family="Arial" font-size="10.00" fill="#000000">position_code </text>
<text text-anchor="start" x="288" y="-293.5" font-family="Arial Italic" font-size="10.00" fill="#999999">string ∗ U</text>
<text text-anchor="start" x="224" y="-280.5" font-family="Arial" font-size="10.00" fill="#000000">position_title </text>
<text text-anchor="start" x="282" y="-280.5" font-family="Arial Italic" font-size="10.00" fill="#999999">string</text>
<text text-anchor="start" x="224" y="-267.5" font-family="Arial" font-size="10.00" fill="#000000">est_hours_per_assignment </text>
<text text-anchor="start" x="345" y="-267.5" font-family="Arial Italic" font-size="10.00" fill="#999999">float</text>
<text text-anchor="start" x="224" y="-254.5" font-family="Arial" font-size="10.00" fill="#000000">est_start_date </text>
<text text-anchor="start" x="290" y="-254.5" font-family="Arial Italic" font-size="10.00" fill="#999999">datetime</text>
<text text-anchor="start" x="224" y="-241.5" font-family="Arial" font-size="10.00" fill="#000000">est_end_date </text>
<text text-anchor="start" x="286" y="-241.5" font-family="Arial Italic" font-size="10.00" fill="#999999">datetime</text>
<text text-anchor="start" x="224" y="-228.5" font-family="Arial" font-size="10.00" fill="#000000">position_type </text>
<text text-anchor="start" x="285" y="-228.5" font-family="Arial Italic" font-size="10.00" fill="#999999">string</text>
</g>
<!-- m_Instructor&#45;&gt;m_Position -->
<g id="edge1" class="edge">
<title>m_Instructor&#45;&gt;m_Position</title>
<path fill="none" stroke="#000000" d="M171.7152,-279.5C183.5838,-279.5 195.8414,-279.5 207.8051,-279.5"/>
<polygon fill="#000000" stroke="#000000" points="171.5329,-276.3501 162.5329,-279.5 171.5328,-282.6501 171.5329,-276.3501"/>
<polygon fill="#000000" stroke="#000000" points="207.8852,-282.6501 216.8852,-279.5 207.8851,-276.3501 207.8852,-282.6501"/>
</g>
<!-- m_Position&#45;&gt;m_Application -->
<g id="edge6" class="edge">
<title>m_Position&#45;&gt;m_Application</title>
<path fill="none" stroke="#000000" stroke-dasharray="1,5" d="M216.9612,-340.1545C209.725,-349.0409 203.4463,-358.7024 199,-369 180.5891,-411.6395 178.9515,-536.1055 199,-578 203.3964,-587.1869 210.0238,-595.0308 217.7742,-601.6947"/>
<polygon fill="#000000" stroke="#000000" points="216.1471,-604.4213 225.1759,-607.4876 220.0299,-599.4601 216.1471,-604.4213"/>
</g>
<!-- m_Position&#45;&gt;m_Assignment -->
<g id="edge4" class="edge">
<title>m_Position&#45;&gt;m_Assignment</title>
<path fill="none" stroke="#000000" d="M371.0692,-323.7654C383.4697,-330.8877 396.3319,-338.2753 408.8039,-345.4386"/>
<polygon fill="#000000" stroke="#000000" points="407.5614,-348.3576 416.9346,-350.1086 410.6991,-342.8945 407.5614,-348.3576"/>
</g>
<!-- m_PositionDataForAd -->
<g id="node10" class="node">
<title>m_PositionDataForAd</title>
<path fill="none" stroke="#000000" d="M425.5,-113C425.5,-113 552.5,-113 552.5,-113 558.5,-113 564.5,-119 564.5,-125 564.5,-125 564.5,-222 564.5,-222 564.5,-228 558.5,-234 552.5,-234 552.5,-234 425.5,-234 425.5,-234 419.5,-234 413.5,-228 413.5,-222 413.5,-222 413.5,-125 413.5,-125 413.5,-119 419.5,-113 425.5,-113"/>
<text text-anchor="start" x="436.5" y="-221.2" font-family="Arial Bold" font-size="11.00" fill="#000000">PositionDataForAd</text>
<polyline fill="none" stroke="#000000" points="413.5,-214 564.5,-214 "/>
<text text-anchor="start" x="421" y="-200.5" font-family="Arial" font-size="10.00" fill="#000000">duties </text>
<text text-anchor="start" x="451" y="-200.5" font-family="Arial Italic" font-size="10.00" fill="#999999">text</text>
<text text-anchor="start" x="421" y="-187.5" font-family="Arial" font-size="10.00" fill="#000000">qualifications </text>
<text text-anchor="start" x="482" y="-187.5" font-family="Arial Italic" font-size="10.00" fill="#999999">text</text>
<text text-anchor="start" x="421" y="-174.5" font-family="Arial" font-size="10.00" fill="#000000">ad_hours_per_assignment </text>
<text text-anchor="start" x="539" y="-174.5" font-family="Arial Italic" font-size="10.00" fill="#999999">float</text>
<text text-anchor="start" x="421" y="-161.5" font-family="Arial" font-size="10.00" fill="#000000">ad_num_assignments </text>
<text text-anchor="start" x="520" y="-161.5" font-family="Arial Italic" font-size="10.00" fill="#999999">integer</text>
<text text-anchor="start" x="421" y="-148.5" font-family="Arial" font-size="10.00" fill="#000000">ad_open_date </text>
<text text-anchor="start" x="485" y="-148.5" font-family="Arial Italic" font-size="10.00" fill="#999999">datetime</text>
<text text-anchor="start" x="421" y="-135.5" font-family="Arial" font-size="10.00" fill="#000000">ad_close_date </text>
<text text-anchor="start" x="488" y="-135.5" font-family="Arial Italic" font-size="10.00" fill="#999999">datetime</text>
<text text-anchor="start" x="421" y="-122.5" font-family="Arial" font-size="10.00" fill="#000000">position_id </text>
<text text-anchor="start" x="471" y="-122.5" font-family="Arial Italic" font-size="10.00" fill="#999999">integer (8) FK</text>
</g>
<!-- m_Position&#45;&gt;m_PositionDataForAd -->
<g id="edge7" class="edge">
<title>m_Position&#45;&gt;m_PositionDataForAd</title>
<path fill="none" stroke="#000000" d="M371.0692,-237.606C385.015,-230.0252 399.5447,-222.127 413.4466,-214.5701"/>
</g>
<!-- m_PositionDataForMatching -->
<g id="node11" class="node">
<title>m_PositionDataForMatching</title>
<path fill="none" stroke="#000000" d="M419,-.5C419,-.5 559,-.5 559,-.5 565,-.5 571,-6.5 571,-12.5 571,-12.5 571,-70.5 571,-70.5 571,-76.5 565,-82.5 559,-82.5 559,-82.5 419,-82.5 419,-82.5 413,-82.5 407,-76.5 407,-70.5 407,-70.5 407,-12.5 407,-12.5 407,-6.5 413,-.5 419,-.5"/>
<text text-anchor="start" x="422" y="-69.7" font-family="Arial Bold" font-size="11.00" fill="#000000">PositionDataForMatching</text>
<polyline fill="none" stroke="#000000" points="407,-62.5 571,-62.5 "/>
<text text-anchor="start" x="414" y="-49.5" font-family="Arial" font-size="10.00" fill="#000000">desired_num_assignments </text>
<text text-anchor="start" x="534" y="-49.5" font-family="Arial Italic" font-size="10.00" fill="#999999">integer</text>
<text text-anchor="start" x="414" y="-36.5" font-family="Arial" font-size="10.00" fill="#000000">current_enrollment </text>
<text text-anchor="start" x="498" y="-36.5" font-family="Arial Italic" font-size="10.00" fill="#999999">integer</text>
<text text-anchor="start" x="414" y="-23.5" font-family="Arial" font-size="10.00" fill="#000000">current_waitlisted </text>
<text text-anchor="start" x="494" y="-23.5" font-family="Arial Italic" font-size="10.00" fill="#999999">integer</text>
<text text-anchor="start" x="414" y="-10.5" font-family="Arial" font-size="10.00" fill="#000000">position_id </text>
<text text-anchor="start" x="464" y="-10.5" font-family="Arial Italic" font-size="10.00" fill="#999999">integer (8) FK</text>
</g>
<!-- m_Position&#45;&gt;m_PositionDataForMatching -->
<g id="edge8" class="edge">
<title>m_Position&#45;&gt;m_PositionDataForMatching</title>
<path fill="none" stroke="#000000" d="M323.274,-218.9984C343.4093,-181.318 372.6638,-133.3649 407,-97.5 412.0071,-92.27 417.5784,-87.2487 423.394,-82.5085"/>
</g>
<!-- m_Position&#45;&gt;m_PositionPreference -->
<g id="edge5" class="edge">
<title>m_Position&#45;&gt;m_PositionPreference</title>
<path fill="none" stroke="#000000" d="M360.7311,-340.1296C364.4436,-344.8006 367.9125,-349.6078 371,-354.5 397.554,-396.5754 375.8966,-421.6666 407,-460.5 409.5212,-463.6478 412.298,-466.6471 415.2596,-469.4979"/>
<polygon fill="#000000" stroke="#000000" points="413.6445,-472.2749 422.472,-475.8802 417.8195,-467.5569 413.6445,-472.2749"/>
</g>
<!-- m_ReportingTag -->
<g id="node14" class="node">
<title>m_ReportingTag</title>
<path fill="none" stroke="#000000" d="M429,-264C429,-264 549,-264 549,-264 555,-264 561,-270 561,-276 561,-276 561,-295 561,-295 561,-301 555,-307 549,-307 549,-307 429,-307 429,-307 423,-307 417,-301 417,-295 417,-295 417,-276 417,-276 417,-270 423,-264 429,-264"/>
<text text-anchor="start" x="451" y="-294.2" font-family="Arial Bold" font-size="11.00" fill="#000000">ReportingTag</text>
<polyline fill="none" stroke="#000000" points="417,-287 561,-287 "/>
<text text-anchor="start" x="424" y="-273.5" font-family="Arial" font-size="10.00" fill="#000000">name </text>
<text text-anchor="start" x="452" y="-273.5" font-family="Arial Italic" font-size="10.00" fill="#999999">string</text>
</g>
<!-- m_Position&#45;&gt;m_ReportingTag -->
<g id="edge2" class="edge">
<title>m_Position&#45;&gt;m_ReportingTag</title>
<path fill="none" stroke="#000000" d="M380.353,-282.157C389.5162,-282.439 398.8125,-282.725 407.9123,-283.005"/>
<polygon fill="#000000" stroke="#000000" points="380.1618,-278.9997 371.0692,-281.8714 379.968,-285.2968 380.1618,-278.9997"/>
<polygon fill="#000000" stroke="#000000" points="407.8419,-286.1542 416.9346,-283.2826 408.0357,-279.8572 407.8419,-286.1542"/>
</g>
<!-- m_PositionTemplate -->
<g id="node13" class="node">
<title>m_PositionTemplate</title>
<path fill="none" stroke="#000000" d="M234,-370C234,-370 354,-370 354,-370 360,-370 366,-376 366,-382 366,-382 366,-427 366,-427 366,-433 360,-439 354,-439 354,-439 234,-439 234,-439 228,-439 222,-433 222,-427 222,-427 222,-382 222,-382 222,-376 228,-370 234,-370"/>
<text text-anchor="start" x="246.5" y="-426.2" font-family="Arial Bold" font-size="11.00" fill="#000000">PositionTemplate</text>
<polyline fill="none" stroke="#000000" points="222,-419 366,-419 "/>
<text text-anchor="start" x="229" y="-405.5" font-family="Arial" font-size="10.00" fill="#000000">position_type </text>
<text text-anchor="start" x="290" y="-405.5" font-family="Arial Italic" font-size="10.00" fill="#999999">string</text>
<text text-anchor="start" x="229" y="-392.5" font-family="Arial" font-size="10.00" fill="#000000">offer_template </text>
<text text-anchor="start" x="295" y="-392.5" font-family="Arial Italic" font-size="10.00" fill="#999999">string</text>
<text text-anchor="start" x="229" y="-379.5" font-family="Arial" font-size="10.00" fill="#000000">session_id </text>
<text text-anchor="start" x="279" y="-379.5" font-family="Arial Italic" font-size="10.00" fill="#999999">integer (8) FK</text>
</g>
<!-- m_ReportingTag&#45;&gt;m_WageChunk -->
<g id="edge13" class="edge">
<title>m_ReportingTag&#45;&gt;m_WageChunk</title>
<path fill="none" stroke="#000000" d="M570.2826,-285.5C579.8904,-285.5 589.6972,-285.5 599.3038,-285.5"/>
<polygon fill="#000000" stroke="#000000" points="570.1251,-282.3501 561.1251,-285.5 570.125,-288.6501 570.1251,-282.3501"/>
<polygon fill="#000000" stroke="#000000" points="599.44,-288.6501 608.4399,-285.5 599.4399,-282.3501 599.44,-288.6501"/>
</g>
<!-- m_Session -->
<g id="node15" class="node">
<title>m_Session</title>
<path fill="none" stroke="#000000" d="M30.5,-357C30.5,-357 150.5,-357 150.5,-357 156.5,-357 162.5,-363 162.5,-369 162.5,-369 162.5,-440 162.5,-440 162.5,-446 156.5,-452 150.5,-452 150.5,-452 30.5,-452 30.5,-452 24.5,-452 18.5,-446 18.5,-440 18.5,-440 18.5,-369 18.5,-369 18.5,-363 24.5,-357 30.5,-357"/>
<text text-anchor="start" x="67" y="-439.2" font-family="Arial Bold" font-size="11.00" fill="#000000">Session</text>
<polyline fill="none" stroke="#000000" points="18.5,-432 162.5,-432 "/>
<text text-anchor="start" x="25.5" y="-418.5" font-family="Arial" font-size="10.00" fill="#000000">start_date </text>
<text text-anchor="start" x="72.5" y="-418.5" font-family="Arial Italic" font-size="10.00" fill="#999999">datetime</text>
<text text-anchor="start" x="25.5" y="-405.5" font-family="Arial" font-size="10.00" fill="#000000">end_date </text>
<text text-anchor="start" x="68.5" y="-405.5" font-family="Arial Italic" font-size="10.00" fill="#999999">datetime</text>
<text text-anchor="start" x="25.5" y="-392.5" font-family="Arial" font-size="10.00" fill="#000000">name </text>
<text text-anchor="start" x="53.5" y="-392.5" font-family="Arial Italic" font-size="10.00" fill="#999999">string U</text>
<text text-anchor="start" x="25.5" y="-379.5" font-family="Arial" font-size="10.00" fill="#000000">rate1 </text>
<text text-anchor="start" x="50.5" y="-379.5" font-family="Arial Italic" font-size="10.00" fill="#999999">float</text>
<text text-anchor="start" x="25.5" y="-366.5" font-family="Arial" font-size="10.00" fill="#000000">rate2 </text>
<text text-anchor="start" x="50.5" y="-366.5" font-family="Arial Italic" font-size="10.00" fill="#999999">float</text>
</g>
<!-- m_Session&#45;&gt;m_Application -->
<g id="edge14" class="edge">
<title>m_Session&#45;&gt;m_Application</title>
<path fill="none" stroke="#000000" d="M162.9324,-447.6759C169.6653,-453.7202 175.8722,-460.3407 181,-467.5 214.6642,-514.5015 181.0553,-547.2186 217,-592.5 219.4632,-595.603 222.2151,-598.518 225.1721,-601.2513"/>
<polygon fill="#000000" stroke="#000000" points="223.4808,-603.9434 232.405,-607.3024 227.5233,-599.1114 223.4808,-603.9434"/>
</g>
<!-- m_Session&#45;&gt;m_Position -->
<g id="edge3" class="edge">
<title>m_Session&#45;&gt;m_Position</title>
<path fill="none" stroke="#000000" d="M162.5329,-360.2538C177.5271,-351.0435 193.4651,-341.2536 208.8798,-331.7851"/>
<polygon fill="#000000" stroke="#000000" points="210.8651,-334.2625 216.8852,-326.8678 207.5676,-328.8944 210.8651,-334.2625"/>
</g>
<!-- m_Session&#45;&gt;m_PositionTemplate -->
<g id="edge18" class="edge">
<title>m_Session&#45;&gt;m_PositionTemplate</title>
<path fill="none" stroke="#000000" d="M162.5329,-404.5C178.7402,-404.5 196.0501,-404.5 212.6099,-404.5"/>
<polygon fill="#000000" stroke="#000000" points="212.7209,-407.6501 221.7208,-404.5 212.7208,-401.3501 212.7209,-407.6501"/>
</g>
<!-- m_User -->
<g id="node16" class="node">
<title>m_User</title>
<path fill="none" stroke="#000000" d="M30.5,-482.5C30.5,-482.5 150.5,-482.5 150.5,-482.5 156.5,-482.5 162.5,-488.5 162.5,-494.5 162.5,-494.5 162.5,-526.5 162.5,-526.5 162.5,-532.5 156.5,-538.5 150.5,-538.5 150.5,-538.5 30.5,-538.5 30.5,-538.5 24.5,-538.5 18.5,-532.5 18.5,-526.5 18.5,-526.5 18.5,-494.5 18.5,-494.5 18.5,-488.5 24.5,-482.5 30.5,-482.5"/>
<text text-anchor="start" x="76" y="-525.7" font-family="Arial Bold" font-size="11.00" fill="#000000">User</text>
<polyline fill="none" stroke="#000000" points="18.5,-518.5 162.5,-518.5 "/>
<text text-anchor="start" x="25.5" y="-505.5" font-family="Arial" font-size="10.00" fill="#000000">utorid </text>
<text text-anchor="start" x="53.5" y="-505.5" font-family="Arial Italic" font-size="10.00" fill="#999999">string ∗ U</text>
<text text-anchor="start" x="25.5" y="-492.5" font-family="Arial" font-size="10.00" fill="#000000">role </text>
<text text-anchor="start" x="44.5" y="-492.5" font-family="Arial Italic" font-size="10.00" fill="#999999">integer</text>
</g>
</g>
</svg>
