<?xml version="1.0" encoding="UTF-8" standalone="no"?>
<!DOCTYPE svg PUBLIC "-//W3C//DTD SVG 1.1//EN"
 "http://www.w3.org/Graphics/SVG/1.1/DTD/svg11.dtd">
<!-- Generated by graphviz version 2.43.0 (0)
 -->
<!-- Title: Tapp Pages: 1 -->
<svg width="1003pt" height="836pt"
 viewBox="0.00 0.00 1002.60 836.10" xmlns="http://www.w3.org/2000/svg" xmlns:xlink="http://www.w3.org/1999/xlink">
<g id="graph0" class="graph" transform="scale(1 1) rotate(0) translate(28.8 807.3)">
<title>Tapp</title>
<polygon fill="white" stroke="transparent" points="-28.8,28.8 -28.8,-807.3 973.8,-807.3 973.8,28.8 -28.8,28.8"/>
<text text-anchor="middle" x="472.5" y="-764.1" font-family="Arial BoldMT" font-size="13.00">ER Diagram</text>
<!-- m_ActiveRecord::InternalMetadata -->
<g id="node1" class="node">
<title>m_ActiveRecord::InternalMetadata</title>
<path fill="none" stroke="black" d="M13.5,-190C13.5,-190 153.5,-190 153.5,-190 159.5,-190 165.5,-196 165.5,-202 165.5,-202 165.5,-220 165.5,-220 165.5,-226 159.5,-232 153.5,-232 153.5,-232 13.5,-232 13.5,-232 7.5,-232 1.5,-226 1.5,-220 1.5,-220 1.5,-202 1.5,-202 1.5,-196 7.5,-190 13.5,-190"/>
<text text-anchor="start" x="6.46" y="-218.7" font-family="Arial BoldMT" font-size="11.00">ActiveRecord::InternalMetadata</text>
<polyline fill="none" stroke="black" points="1.5,-213 165.5,-213 "/>
<text text-anchor="start" x="18.5" y="-199.5" font-family="ArialMT" font-size="10.00">value </text>
<text text-anchor="start" x="45.18" y="-199.5" font-family="Arial ItalicMT" font-size="10.00" fill="#999999">string</text>
</g>
<!-- m_ActiveRecord::SchemaMigration -->
<g id="node2" class="node">
<title>m_ActiveRecord::SchemaMigration</title>
<path fill="none" stroke="black" d="M12,-262C12,-262 155,-262 155,-262 161,-262 167,-268 167,-274 167,-274 167,-286 167,-286 167,-292 161,-298 155,-298 155,-298 12,-298 12,-298 6,-298 0,-292 0,-286 0,-286 0,-274 0,-274 0,-268 6,-262 12,-262"/>
<text text-anchor="start" x="5.44" y="-276.2" font-family="Arial BoldMT" font-size="11.00">ActiveRecord::SchemaMigration</text>
</g>
<!-- m_Applicant -->
<g id="node3" class="node">
<title>m_Applicant</title>
<path fill="none" stroke="black" d="M215,-517.5C215,-517.5 335,-517.5 335,-517.5 341,-517.5 347,-523.5 347,-529.5 347,-529.5 347,-612.5 347,-612.5 347,-618.5 341,-624.5 335,-624.5 335,-624.5 215,-624.5 215,-624.5 209,-624.5 203,-618.5 203,-612.5 203,-612.5 203,-529.5 203,-529.5 203,-523.5 209,-517.5 215,-517.5"/>
<text text-anchor="start" x="250.37" y="-611.2" font-family="Arial BoldMT" font-size="11.00">Applicant</text>
<polyline fill="none" stroke="black" points="203,-605.5 347,-605.5 "/>
<text text-anchor="start" x="210" y="-592.5" font-family="ArialMT" font-size="10.00">utorid </text>
<text text-anchor="start" x="237.79" y="-592.5" font-family="Arial ItalicMT" font-size="10.00" fill="#999999">string ∗ U</text>
<text text-anchor="start" x="210" y="-579.5" font-family="ArialMT" font-size="10.00">student_number </text>
<text text-anchor="start" x="285.05" y="-579.5" font-family="Arial ItalicMT" font-size="10.00" fill="#999999">string ∗ U</text>
<text text-anchor="start" x="210" y="-566.5" font-family="ArialMT" font-size="10.00">first_name </text>
<text text-anchor="start" x="259.46" y="-566.5" font-family="Arial ItalicMT" font-size="10.00" fill="#999999">string ∗</text>
<text text-anchor="start" x="210" y="-553.5" font-family="ArialMT" font-size="10.00">last_name </text>
<text text-anchor="start" x="258.92" y="-553.5" font-family="Arial ItalicMT" font-size="10.00" fill="#999999">string ∗</text>
<text text-anchor="start" x="210" y="-540.5" font-family="ArialMT" font-size="10.00">email </text>
<text text-anchor="start" x="236.67" y="-540.5" font-family="Arial ItalicMT" font-size="10.00" fill="#999999">string ∗</text>
<text text-anchor="start" x="210" y="-527.5" font-family="ArialMT" font-size="10.00">phone </text>
<text text-anchor="start" x="240.59" y="-527.5" font-family="Arial ItalicMT" font-size="10.00" fill="#999999">string</text>
</g>
<!-- m_ApplicantDataForMatching -->
<g id="node4" class="node">
<title>m_ApplicantDataForMatching</title>
<path fill="none" stroke="black" d="M616.5,-622C616.5,-622 739.5,-622 739.5,-622 745.5,-622 751.5,-628 751.5,-634 751.5,-634 751.5,-730 751.5,-730 751.5,-736 745.5,-742 739.5,-742 739.5,-742 616.5,-742 616.5,-742 610.5,-742 604.5,-736 604.5,-730 604.5,-730 604.5,-634 604.5,-634 604.5,-628 610.5,-622 616.5,-622"/>
<text text-anchor="start" x="611.19" y="-728.7" font-family="Arial BoldMT" font-size="11.00">ApplicantDataForMatching</text>
<polyline fill="none" stroke="black" points="604.5,-723 751.5,-723 "/>
<text text-anchor="start" x="612" y="-709.5" font-family="ArialMT" font-size="10.00">applicant_id </text>
<text text-anchor="start" x="668.15" y="-709.5" font-family="Arial ItalicMT" font-size="10.00" fill="#999999">integer (8) ∗ FK</text>
<text text-anchor="start" x="612" y="-696.5" font-family="ArialMT" font-size="10.00">application_id </text>
<text text-anchor="start" x="675.94" y="-696.5" font-family="Arial ItalicMT" font-size="10.00" fill="#999999">integer (8) ∗ FK</text>
<text text-anchor="start" x="612" y="-683.5" font-family="ArialMT" font-size="10.00">program </text>
<text text-anchor="start" x="652.01" y="-683.5" font-family="Arial ItalicMT" font-size="10.00" fill="#999999">string</text>
<text text-anchor="start" x="612" y="-670.5" font-family="ArialMT" font-size="10.00">department </text>
<text text-anchor="start" x="665.36" y="-670.5" font-family="Arial ItalicMT" font-size="10.00" fill="#999999">string</text>
<text text-anchor="start" x="611.79" y="-657.5" font-family="ArialMT" font-size="10.00">previous_uoft_experience </text>
<text text-anchor="start" x="729.09" y="-657.5" font-family="Arial ItalicMT" font-size="10.00" fill="#999999">text</text>
<text text-anchor="start" x="612" y="-644.5" font-family="ArialMT" font-size="10.00">yip </text>
<text text-anchor="start" x="627.56" y="-644.5" font-family="Arial ItalicMT" font-size="10.00" fill="#999999">integer</text>
<text text-anchor="start" x="612" y="-631.5" font-family="ArialMT" font-size="10.00">annotation </text>
<text text-anchor="start" x="661.49" y="-631.5" font-family="Arial ItalicMT" font-size="10.00" fill="#999999">string</text>
</g>
<!-- m_Applicant&#45;&gt;m_ApplicantDataForMatching -->
<g id="edge19" class="edge">
<title>m_Applicant&#45;&gt;m_ApplicantDataForMatching</title>
<path fill="none" stroke="black" d="M472,-573C519.62,-576.73 567.08,-600.37 604.32,-624.68"/>
</g>
<!-- m_Application -->
<g id="node5" class="node">
<title>m_Application</title>
<path fill="none" stroke="black" d="M411,-436C411,-436 531,-436 531,-436 537,-436 543,-442 543,-448 543,-448 543,-492 543,-492 543,-498 537,-504 531,-504 531,-504 411,-504 411,-504 405,-504 399,-498 399,-492 399,-492 399,-448 399,-448 399,-442 405,-436 411,-436"/>
<text text-anchor="start" x="442.09" y="-490.7" font-family="Arial BoldMT" font-size="11.00">Application</text>
<polyline fill="none" stroke="black" points="399,-485 543,-485 "/>
<text text-anchor="start" x="406" y="-471.5" font-family="ArialMT" font-size="10.00">session_id </text>
<text text-anchor="start" x="456.03" y="-471.5" font-family="Arial ItalicMT" font-size="10.00" fill="#999999">integer (8) ∗ FK</text>
<text text-anchor="start" x="406" y="-458.5" font-family="ArialMT" font-size="10.00">applicant_id </text>
<text text-anchor="start" x="462.15" y="-458.5" font-family="Arial ItalicMT" font-size="10.00" fill="#999999">integer (8) ∗ FK</text>
<text text-anchor="start" x="406" y="-445.5" font-family="ArialMT" font-size="10.00">comments </text>
<text text-anchor="start" x="454.9" y="-445.5" font-family="Arial ItalicMT" font-size="10.00" fill="#999999">text</text>
</g>
<!-- m_Applicant&#45;&gt;m_Application -->
<g id="edge16" class="edge">
<title>m_Applicant&#45;&gt;m_Application</title>
<path fill="none" stroke="black" d="M347.14,-533.96C363.16,-525.62 380.2,-516.75 396.32,-508.36"/>
<polygon fill="black" stroke="black" points="398.13,-510.97 404.66,-504.02 395.23,-505.38 398.13,-510.97"/>
</g>
<!-- m_Assignment -->
<g id="node6" class="node">
<title>m_Assignment</title>
<path fill="none" stroke="black" d="M618,-458.5C618,-458.5 738,-458.5 738,-458.5 744,-458.5 750,-464.5 750,-470.5 750,-470.5 750,-579.5 750,-579.5 750,-585.5 744,-591.5 738,-591.5 738,-591.5 618,-591.5 618,-591.5 612,-591.5 606,-585.5 606,-579.5 606,-579.5 606,-470.5 606,-470.5 606,-464.5 612,-458.5 618,-458.5"/>
<text text-anchor="start" x="647.26" y="-578.2" font-family="Arial BoldMT" font-size="11.00">Assignment</text>
<polyline fill="none" stroke="black" points="606,-572.5 750,-572.5 "/>
<text text-anchor="start" x="613" y="-559.5" font-family="ArialMT" font-size="10.00">position_id </text>
<text text-anchor="start" x="663.59" y="-559.5" font-family="Arial ItalicMT" font-size="10.00" fill="#999999">integer (8) ∗ FK</text>
<text text-anchor="start" x="613" y="-546.5" font-family="ArialMT" font-size="10.00">applicant_id </text>
<text text-anchor="start" x="669.15" y="-546.5" font-family="Arial ItalicMT" font-size="10.00" fill="#999999">integer (8) ∗ FK</text>
<text text-anchor="start" x="613" y="-533.5" font-family="ArialMT" font-size="10.00">start_date </text>
<text text-anchor="start" x="660.25" y="-533.5" font-family="Arial ItalicMT" font-size="10.00" fill="#999999">datetime</text>
<text text-anchor="start" x="613" y="-520.5" font-family="ArialMT" font-size="10.00">end_date </text>
<text text-anchor="start" x="657.49" y="-520.5" font-family="Arial ItalicMT" font-size="10.00" fill="#999999">datetime</text>
<text text-anchor="start" x="613" y="-507.5" font-family="ArialMT" font-size="10.00">note </text>
<text text-anchor="start" x="635.24" y="-507.5" font-family="Arial ItalicMT" font-size="10.00" fill="#999999">text</text>
<text text-anchor="start" x="613" y="-494.5" font-family="ArialMT" font-size="10.00">offer_override_pdf </text>
<text text-anchor="start" x="696.76" y="-494.5" font-family="Arial ItalicMT" font-size="10.00" fill="#999999">string</text>
<text text-anchor="start" x="613" y="-481.5" font-family="ArialMT" font-size="10.00">active_offer_status </text>
<text text-anchor="start" x="699.53" y="-481.5" font-family="Arial ItalicMT" font-size="10.00" fill="#999999">integer ∗</text>
<text text-anchor="start" x="613" y="-468.5" font-family="ArialMT" font-size="10.00">active_offer_id </text>
<text text-anchor="start" x="680.64" y="-468.5" font-family="Arial ItalicMT" font-size="10.00" fill="#999999">integer (8) FK</text>
</g>
<!-- m_Applicant&#45;&gt;m_Assignment -->
<g id="edge13" class="edge">
<title>m_Applicant&#45;&gt;m_Assignment</title>
<path fill="none" stroke="black" d="M472,-573C513.83,-576.28 559.37,-566.97 596.88,-555.69"/>
<polygon fill="black" stroke="black" points="598.07,-558.62 605.74,-552.95 596.21,-552.6 598.07,-558.62"/>
<path fill="none" stroke="black" d="M347.05,-569.42C383.81,-569.19 429.37,-569.81 470,-573"/>
</g>
<!-- m_Application&#45;&gt;m_ApplicantDataForMatching -->
<g id="edge15" class="edge">
<title>m_Application&#45;&gt;m_ApplicantDataForMatching</title>
<path fill="none" stroke="black" d="M513.03,-504.34C528.3,-518.08 545.24,-534.53 559,-551 577.98,-573.7 575.92,-584.38 595,-607 599.23,-612.01 603.78,-617.02 608.5,-621.93"/>
</g>
<!-- m_PositionPreference -->
<g id="node13" class="node">
<title>m_PositionPreference</title>
<path fill="none" stroke="black" d="M617.5,-360C617.5,-360 738.5,-360 738.5,-360 744.5,-360 750.5,-366 750.5,-372 750.5,-372 750.5,-416 750.5,-416 750.5,-422 744.5,-428 738.5,-428 738.5,-428 617.5,-428 617.5,-428 611.5,-428 605.5,-422 605.5,-416 605.5,-416 605.5,-372 605.5,-372 605.5,-366 611.5,-360 617.5,-360"/>
<text text-anchor="start" x="629.53" y="-414.7" font-family="Arial BoldMT" font-size="11.00">PositionPreference</text>
<polyline fill="none" stroke="black" points="605.5,-409 750.5,-409 "/>
<text text-anchor="start" x="613" y="-395.5" font-family="ArialMT" font-size="10.00">position_id </text>
<text text-anchor="start" x="663.59" y="-395.5" font-family="Arial ItalicMT" font-size="10.00" fill="#999999">integer (8) ∗ FK</text>
<text text-anchor="start" x="613" y="-382.5" font-family="ArialMT" font-size="10.00">application_id </text>
<text text-anchor="start" x="676.94" y="-382.5" font-family="Arial ItalicMT" font-size="10.00" fill="#999999">integer (8) ∗ FK</text>
<text text-anchor="start" x="613" y="-369.5" font-family="ArialMT" font-size="10.00">preference_level </text>
<text text-anchor="start" x="689.71" y="-369.5" font-family="Arial ItalicMT" font-size="10.00" fill="#999999">integer</text>
</g>
<!-- m_Application&#45;&gt;m_PositionPreference -->
<g id="edge14" class="edge">
<title>m_Application&#45;&gt;m_PositionPreference</title>
<path fill="none" stroke="black" d="M543.12,-443.63C560.42,-437.22 579.03,-430.32 596.71,-423.77"/>
<polygon fill="black" stroke="black" points="597.96,-426.66 605.31,-420.58 595.77,-420.75 597.96,-426.66"/>
</g>
<!-- m_Offer -->
<g id="node9" class="node">
<title>m_Offer</title>
<path fill="none" stroke="black" d="M809,-373.5C809,-373.5 933,-373.5 933,-373.5 939,-373.5 945,-379.5 945,-385.5 945,-385.5 945,-702.5 945,-702.5 945,-708.5 939,-714.5 933,-714.5 933,-714.5 809,-714.5 809,-714.5 803,-714.5 797,-708.5 797,-702.5 797,-702.5 797,-385.5 797,-385.5 797,-379.5 803,-373.5 809,-373.5"/>
<text text-anchor="start" x="856.87" y="-701.2" font-family="Arial BoldMT" font-size="11.00">Offer</text>
<polyline fill="none" stroke="black" points="797,-695.5 945,-695.5 "/>
<text text-anchor="start" x="803.84" y="-682.5" font-family="ArialMT" font-size="10.00">assignment_id </text>
<text text-anchor="start" x="871.1" y="-682.5" font-family="Arial ItalicMT" font-size="10.00" fill="#999999">integer (8) ∗ FK</text>
<text text-anchor="start" x="804" y="-669.5" font-family="ArialMT" font-size="10.00">offer_template </text>
<text text-anchor="start" x="870.52" y="-669.5" font-family="Arial ItalicMT" font-size="10.00" fill="#999999">string</text>
<text text-anchor="start" x="804" y="-656.5" font-family="ArialMT" font-size="10.00">offer_override_pdf </text>
<text text-anchor="start" x="887.76" y="-656.5" font-family="Arial ItalicMT" font-size="10.00" fill="#999999">string</text>
<text text-anchor="start" x="804" y="-643.5" font-family="ArialMT" font-size="10.00">first_name </text>
<text text-anchor="start" x="853.46" y="-643.5" font-family="Arial ItalicMT" font-size="10.00" fill="#999999">string</text>
<text text-anchor="start" x="804" y="-630.5" font-family="ArialMT" font-size="10.00">last_name </text>
<text text-anchor="start" x="852.92" y="-630.5" font-family="Arial ItalicMT" font-size="10.00" fill="#999999">string</text>
<text text-anchor="start" x="804" y="-617.5" font-family="ArialMT" font-size="10.00">email </text>
<text text-anchor="start" x="830.67" y="-617.5" font-family="Arial ItalicMT" font-size="10.00" fill="#999999">string</text>
<text text-anchor="start" x="804" y="-604.5" font-family="ArialMT" font-size="10.00">position_code </text>
<text text-anchor="start" x="868.49" y="-604.5" font-family="Arial ItalicMT" font-size="10.00" fill="#999999">string</text>
<text text-anchor="start" x="804" y="-591.5" font-family="ArialMT" font-size="10.00">position_title </text>
<text text-anchor="start" x="862.37" y="-591.5" font-family="Arial ItalicMT" font-size="10.00" fill="#999999">string</text>
<text text-anchor="start" x="804" y="-578.5" font-family="ArialMT" font-size="10.00">position_start_date </text>
<text text-anchor="start" x="891.28" y="-578.5" font-family="Arial ItalicMT" font-size="10.00" fill="#999999">datetime</text>
<text text-anchor="start" x="804" y="-565.5" font-family="ArialMT" font-size="10.00">position_end_date </text>
<text text-anchor="start" x="888.52" y="-565.5" font-family="Arial ItalicMT" font-size="10.00" fill="#999999">datetime</text>
<text text-anchor="start" x="804" y="-552.5" font-family="ArialMT" font-size="10.00">first_time_ta </text>
<text text-anchor="start" x="861.24" y="-552.5" font-family="Arial ItalicMT" font-size="10.00" fill="#999999">boolean</text>
<text text-anchor="start" x="804" y="-539.5" font-family="ArialMT" font-size="10.00">instructor_contact_desc </text>
<text text-anchor="start" x="912.39" y="-539.5" font-family="Arial ItalicMT" font-size="10.00" fill="#999999">string</text>
<text text-anchor="start" x="804" y="-526.5" font-family="ArialMT" font-size="10.00">pay_period_desc </text>
<text text-anchor="start" x="882.95" y="-526.5" font-family="Arial ItalicMT" font-size="10.00" fill="#999999">string</text>
<text text-anchor="start" x="804" y="-513.5" font-family="ArialMT" font-size="10.00">installments </text>
<text text-anchor="start" x="859.58" y="-513.5" font-family="Arial ItalicMT" font-size="10.00" fill="#999999">integer</text>
<text text-anchor="start" x="804" y="-500.5" font-family="ArialMT" font-size="10.00">ta_coordinator_name </text>
<text text-anchor="start" x="901.29" y="-500.5" font-family="Arial ItalicMT" font-size="10.00" fill="#999999">string</text>
<text text-anchor="start" x="804" y="-487.5" font-family="ArialMT" font-size="10.00">ta_coordinator_email </text>
<text text-anchor="start" x="900.17" y="-487.5" font-family="Arial ItalicMT" font-size="10.00" fill="#999999">string</text>
<text text-anchor="start" x="804" y="-474.5" font-family="ArialMT" font-size="10.00">emailed_date </text>
<text text-anchor="start" x="866.82" y="-474.5" font-family="Arial ItalicMT" font-size="10.00" fill="#999999">datetime</text>
<text text-anchor="start" x="804" y="-461.5" font-family="ArialMT" font-size="10.00">signature </text>
<text text-anchor="start" x="847.92" y="-461.5" font-family="Arial ItalicMT" font-size="10.00" fill="#999999">string</text>
<text text-anchor="start" x="804" y="-448.5" font-family="ArialMT" font-size="10.00">accepted_date </text>
<text text-anchor="start" x="872.39" y="-448.5" font-family="Arial ItalicMT" font-size="10.00" fill="#999999">datetime</text>
<text text-anchor="start" x="804" y="-435.5" font-family="ArialMT" font-size="10.00">rejected_date </text>
<text text-anchor="start" x="867.38" y="-435.5" font-family="Arial ItalicMT" font-size="10.00" fill="#999999">datetime</text>
<text text-anchor="start" x="804" y="-422.5" font-family="ArialMT" font-size="10.00">withdrawn_date </text>
<text text-anchor="start" x="876.82" y="-422.5" font-family="Arial ItalicMT" font-size="10.00" fill="#999999">datetime</text>
<text text-anchor="start" x="804" y="-409.5" font-family="ArialMT" font-size="10.00">nag_count </text>
<text text-anchor="start" x="853.49" y="-409.5" font-family="Arial ItalicMT" font-size="10.00" fill="#999999">integer</text>
<text text-anchor="start" x="804" y="-396.5" font-family="ArialMT" font-size="10.00">url_token </text>
<text text-anchor="start" x="847.92" y="-396.5" font-family="Arial ItalicMT" font-size="10.00" fill="#999999">string</text>
<text text-anchor="start" x="804" y="-383.5" font-family="ArialMT" font-size="10.00">status </text>
<text text-anchor="start" x="833.46" y="-383.5" font-family="Arial ItalicMT" font-size="10.00" fill="#999999">integer ∗</text>
</g>
<!-- m_Assignment&#45;&gt;m_Offer -->
<g id="edge12" class="edge">
<title>m_Assignment&#45;&gt;m_Offer</title>
<path fill="none" stroke="black" d="M750.12,-532.07C762.41,-533.3 775.28,-534.58 787.83,-535.83"/>
<polygon fill="black" stroke="black" points="787.64,-538.97 796.91,-536.73 788.26,-532.7 787.64,-538.97"/>
</g>
<!-- m_WageChunk -->
<g id="node17" class="node">
<title>m_WageChunk</title>
<path fill="none" stroke="black" d="M809,-249C809,-249 933,-249 933,-249 939,-249 945,-255 945,-261 945,-261 945,-331 945,-331 945,-337 939,-343 933,-343 933,-343 809,-343 809,-343 803,-343 797,-337 797,-331 797,-331 797,-261 797,-261 797,-255 803,-249 809,-249"/>
<text text-anchor="start" x="838.94" y="-329.7" font-family="Arial BoldMT" font-size="11.00">WageChunk</text>
<polyline fill="none" stroke="black" points="797,-324 945,-324 "/>
<text text-anchor="start" x="803.84" y="-310.5" font-family="ArialMT" font-size="10.00">assignment_id </text>
<text text-anchor="start" x="871.1" y="-310.5" font-family="Arial ItalicMT" font-size="10.00" fill="#999999">integer (8) ∗ FK</text>
<text text-anchor="start" x="804" y="-297.5" font-family="ArialMT" font-size="10.00">hours </text>
<text text-anchor="start" x="831.79" y="-297.5" font-family="Arial ItalicMT" font-size="10.00" fill="#999999">float</text>
<text text-anchor="start" x="804" y="-284.5" font-family="ArialMT" font-size="10.00">rate </text>
<text text-anchor="start" x="824.01" y="-284.5" font-family="Arial ItalicMT" font-size="10.00" fill="#999999">float</text>
<text text-anchor="start" x="804" y="-271.5" font-family="ArialMT" font-size="10.00">start_date </text>
<text text-anchor="start" x="851.25" y="-271.5" font-family="Arial ItalicMT" font-size="10.00" fill="#999999">datetime</text>
<text text-anchor="start" x="804" y="-258.5" font-family="ArialMT" font-size="10.00">end_date </text>
<text text-anchor="start" x="848.49" y="-258.5" font-family="Arial ItalicMT" font-size="10.00" fill="#999999">datetime</text>
</g>
<!-- m_Assignment&#45;&gt;m_WageChunk -->
<g id="edge3" class="edge">
<title>m_Assignment&#45;&gt;m_WageChunk</title>
<path fill="none" stroke="black" d="M749.6,-458.31C753.67,-453.3 757.51,-448.18 761,-443 783.93,-408.98 772.71,-391.06 797,-358 798.99,-355.29 801.12,-352.63 803.35,-350.02"/>
<polygon fill="black" stroke="black" points="805.79,-352.02 809.49,-343.23 801.11,-347.79 805.79,-352.02"/>
</g>
<!-- m_ContractTemplate -->
<g id="node7" class="node">
<title>m_ContractTemplate</title>
<path fill="none" stroke="black" d="M215,-246C215,-246 335,-246 335,-246 341,-246 347,-252 347,-258 347,-258 347,-302 347,-302 347,-308 341,-314 335,-314 335,-314 215,-314 215,-314 209,-314 203,-308 203,-302 203,-302 203,-258 203,-258 203,-252 209,-246 215,-246"/>
<text text-anchor="start" x="229.9" y="-300.7" font-family="Arial BoldMT" font-size="11.00">ContractTemplate</text>
<polyline fill="none" stroke="black" points="203,-295 347,-295 "/>
<text text-anchor="start" x="210" y="-281.5" font-family="ArialMT" font-size="10.00">session_id </text>
<text text-anchor="start" x="260.03" y="-281.5" font-family="Arial ItalicMT" font-size="10.00" fill="#999999">integer (8) ∗ FK</text>
<text text-anchor="start" x="210" y="-268.5" font-family="ArialMT" font-size="10.00">template_name </text>
<text text-anchor="start" x="281.71" y="-268.5" font-family="Arial ItalicMT" font-size="10.00" fill="#999999">string</text>
<text text-anchor="start" x="210" y="-255.5" font-family="ArialMT" font-size="10.00">template_file </text>
<text text-anchor="start" x="269.48" y="-255.5" font-family="Arial ItalicMT" font-size="10.00" fill="#999999">string</text>
</g>
<!-- m_Position -->
<g id="node10" class="node">
<title>m_Position</title>
<path fill="none" stroke="black" d="M395,-286C395,-286 547,-286 547,-286 553,-286 559,-292 559,-298 559,-298 559,-394 559,-394 559,-400 553,-406 547,-406 547,-406 395,-406 395,-406 389,-406 383,-400 383,-394 383,-394 383,-298 383,-298 383,-292 389,-286 395,-286"/>
<text text-anchor="start" x="449.43" y="-392.7" font-family="Arial BoldMT" font-size="11.00">Position</text>
<polyline fill="none" stroke="black" points="383,-387 559,-387 "/>
<text text-anchor="start" x="390" y="-373.5" font-family="ArialMT" font-size="10.00">session_id </text>
<text text-anchor="start" x="440.03" y="-373.5" font-family="Arial ItalicMT" font-size="10.00" fill="#999999">integer (8) ∗ FK</text>
<text text-anchor="start" x="390" y="-360.5" font-family="ArialMT" font-size="10.00">position_code </text>
<text text-anchor="start" x="454.49" y="-360.5" font-family="Arial ItalicMT" font-size="10.00" fill="#999999">string ∗ U</text>
<text text-anchor="start" x="390" y="-347.5" font-family="ArialMT" font-size="10.00">position_title </text>
<text text-anchor="start" x="448.37" y="-347.5" font-family="Arial ItalicMT" font-size="10.00" fill="#999999">string</text>
<text text-anchor="start" x="390" y="-334.5" font-family="ArialMT" font-size="10.00">hours_per_assignment </text>
<text text-anchor="start" x="494.51" y="-334.5" font-family="Arial ItalicMT" font-size="10.00" fill="#999999">float</text>
<text text-anchor="start" x="390" y="-321.5" font-family="ArialMT" font-size="10.00">start_date </text>
<text text-anchor="start" x="437.25" y="-321.5" font-family="Arial ItalicMT" font-size="10.00" fill="#999999">datetime ∗</text>
<text text-anchor="start" x="390" y="-308.5" font-family="ArialMT" font-size="10.00">end_date </text>
<text text-anchor="start" x="434.49" y="-308.5" font-family="Arial ItalicMT" font-size="10.00" fill="#999999">datetime ∗</text>
<text text-anchor="start" x="389.66" y="-295.5" font-family="ArialMT" font-size="10.00">contract_template_id </text>
<text text-anchor="start" x="485.27" y="-295.5" font-family="Arial ItalicMT" font-size="10.00" fill="#999999">integer (8) ∗ FK</text>
</g>
<!-- m_ContractTemplate&#45;&gt;m_Position -->
<g id="edge11" class="edge">
<title>m_ContractTemplate&#45;&gt;m_Position</title>
<path fill="none" stroke="black" d="M347.14,-304.2C355.91,-307.18 364.98,-310.27 374.04,-313.35"/>
<polygon fill="black" stroke="black" points="373.18,-316.39 382.71,-316.3 375.21,-310.42 373.18,-316.39"/>
</g>
<!-- m_Instructor -->
<g id="node8" class="node">
<title>m_Instructor</title>
<path fill="none" stroke="black" d="M215,-344.5C215,-344.5 335,-344.5 335,-344.5 341,-344.5 347,-350.5 347,-356.5 347,-356.5 347,-413.5 347,-413.5 347,-419.5 341,-425.5 335,-425.5 335,-425.5 215,-425.5 215,-425.5 209,-425.5 203,-419.5 203,-413.5 203,-413.5 203,-356.5 203,-356.5 203,-350.5 209,-344.5 215,-344.5"/>
<text text-anchor="start" x="250.08" y="-412.2" font-family="Arial BoldMT" font-size="11.00">Instructor</text>
<polyline fill="none" stroke="black" points="203,-406.5 347,-406.5 "/>
<text text-anchor="start" x="210" y="-393.5" font-family="ArialMT" font-size="10.00">first_name </text>
<text text-anchor="start" x="259.46" y="-393.5" font-family="Arial ItalicMT" font-size="10.00" fill="#999999">string ∗</text>
<text text-anchor="start" x="210" y="-380.5" font-family="ArialMT" font-size="10.00">last_name </text>
<text text-anchor="start" x="258.92" y="-380.5" font-family="Arial ItalicMT" font-size="10.00" fill="#999999">string ∗</text>
<text text-anchor="start" x="210" y="-367.5" font-family="ArialMT" font-size="10.00">email </text>
<text text-anchor="start" x="236.67" y="-367.5" font-family="Arial ItalicMT" font-size="10.00" fill="#999999">string ∗</text>
<text text-anchor="start" x="210" y="-354.5" font-family="ArialMT" font-size="10.00">utorid </text>
<text text-anchor="start" x="237.79" y="-354.5" font-family="Arial ItalicMT" font-size="10.00" fill="#999999">string ∗ U</text>
</g>
<!-- m_Instructor&#45;&gt;m_Position -->
<g id="edge4" class="edge">
<title>m_Instructor&#45;&gt;m_Position</title>
<path fill="none" stroke="black" d="M356.18,-368.88C361.92,-367.73 367.75,-366.56 373.57,-365.38"/>
<polygon fill="black" stroke="black" points="355.34,-365.84 347.14,-370.7 356.58,-372.01 355.34,-365.84"/>
<polygon fill="black" stroke="black" points="374.51,-368.41 382.71,-363.55 373.27,-362.23 374.51,-368.41"/>
</g>
<!-- m_Position&#45;&gt;m_Assignment -->
<g id="edge6" class="edge">
<title>m_Position&#45;&gt;m_Assignment</title>
<path fill="none" stroke="black" d="M541.86,-406.11C547.67,-411.14 553.44,-416.15 559,-421 571.97,-432.31 585.71,-444.35 599.04,-456.08"/>
<polygon fill="black" stroke="black" points="597.14,-458.6 605.98,-462.18 601.3,-453.87 597.14,-458.6"/>
</g>
<!-- m_PositionDataForAd -->
<g id="node11" class="node">
<title>m_PositionDataForAd</title>
<path fill="none" stroke="black" d="M613,-112C613,-112 743,-112 743,-112 749,-112 755,-118 755,-124 755,-124 755,-220 755,-220 755,-226 749,-232 743,-232 743,-232 613,-232 613,-232 607,-232 601,-226 601,-220 601,-220 601,-124 601,-124 601,-118 607,-112 613,-112"/>
<text text-anchor="start" x="629.84" y="-218.7" font-family="Arial BoldMT" font-size="11.00">PositionDataForAd</text>
<polyline fill="none" stroke="black" points="601,-213 755,-213 "/>
<text text-anchor="start" x="608" y="-199.5" font-family="ArialMT" font-size="10.00">position_id </text>
<text text-anchor="start" x="658.59" y="-199.5" font-family="Arial ItalicMT" font-size="10.00" fill="#999999">integer (8) ∗ FK</text>
<text text-anchor="start" x="608" y="-186.5" font-family="ArialMT" font-size="10.00">duties </text>
<text text-anchor="start" x="637.46" y="-186.5" font-family="Arial ItalicMT" font-size="10.00" fill="#999999">text</text>
<text text-anchor="start" x="608" y="-173.5" font-family="ArialMT" font-size="10.00">qualifications </text>
<text text-anchor="start" x="668.59" y="-173.5" font-family="Arial ItalicMT" font-size="10.00" fill="#999999">text</text>
<text text-anchor="start" x="607.95" y="-160.5" font-family="ArialMT" font-size="10.00">ad_hours_per_assignment </text>
<text text-anchor="start" x="729.15" y="-160.5" font-family="Arial ItalicMT" font-size="10.00" fill="#999999">float</text>
<text text-anchor="start" x="608" y="-147.5" font-family="ArialMT" font-size="10.00">ad_num_assignments </text>
<text text-anchor="start" x="708.62" y="-147.5" font-family="Arial ItalicMT" font-size="10.00" fill="#999999">integer</text>
<text text-anchor="start" x="608" y="-134.5" font-family="ArialMT" font-size="10.00">ad_open_date </text>
<text text-anchor="start" x="674.73" y="-134.5" font-family="Arial ItalicMT" font-size="10.00" fill="#999999">datetime</text>
<text text-anchor="start" x="608" y="-121.5" font-family="ArialMT" font-size="10.00">ad_close_date </text>
<text text-anchor="start" x="675.83" y="-121.5" font-family="Arial ItalicMT" font-size="10.00" fill="#999999">datetime</text>
</g>
<!-- m_Position&#45;&gt;m_PositionDataForAd -->
<g id="edge1" class="edge">
<title>m_Position&#45;&gt;m_PositionDataForAd</title>
<path fill="none" stroke="black" d="M542.84,-285.88C563.32,-268.49 585.68,-249.51 606.16,-232.13"/>
</g>
<!-- m_PositionDataForMatching -->
<g id="node12" class="node">
<title>m_PositionDataForMatching</title>
<path fill="none" stroke="black" d="M607,-0.5C607,-0.5 749,-0.5 749,-0.5 755,-0.5 761,-6.5 761,-12.5 761,-12.5 761,-69.5 761,-69.5 761,-75.5 755,-81.5 749,-81.5 749,-81.5 607,-81.5 607,-81.5 601,-81.5 595,-75.5 595,-69.5 595,-69.5 595,-12.5 595,-12.5 595,-6.5 601,-0.5 607,-0.5"/>
<text text-anchor="start" x="614.25" y="-68.2" font-family="Arial BoldMT" font-size="11.00">PositionDataForMatching</text>
<polyline fill="none" stroke="black" points="595,-62.5 761,-62.5 "/>
<text text-anchor="start" x="602" y="-49.5" font-family="ArialMT" font-size="10.00">position_id </text>
<text text-anchor="start" x="652.59" y="-49.5" font-family="Arial ItalicMT" font-size="10.00" fill="#999999">integer (8) ∗ FK</text>
<text text-anchor="start" x="601.57" y="-36.5" font-family="ArialMT" font-size="10.00">desired_num_assignments </text>
<text text-anchor="start" x="723.86" y="-36.5" font-family="Arial ItalicMT" font-size="10.00" fill="#999999">integer</text>
<text text-anchor="start" x="602" y="-23.5" font-family="ArialMT" font-size="10.00">current_enrollment </text>
<text text-anchor="start" x="688.15" y="-23.5" font-family="Arial ItalicMT" font-size="10.00" fill="#999999">integer</text>
<text text-anchor="start" x="602" y="-10.5" font-family="ArialMT" font-size="10.00">current_waitlisted </text>
<text text-anchor="start" x="682.59" y="-10.5" font-family="Arial ItalicMT" font-size="10.00" fill="#999999">integer</text>
</g>
<!-- m_Position&#45;&gt;m_PositionDataForMatching -->
<g id="edge9" class="edge">
<title>m_Position&#45;&gt;m_PositionDataForMatching</title>
<path fill="none" stroke="black" d="M491.73,-285.87C511.57,-232.03 546.23,-153.15 595,-97 599.75,-91.53 605.15,-86.35 610.85,-81.51"/>
</g>
<!-- m_Position&#45;&gt;m_PositionPreference -->
<g id="edge7" class="edge">
<title>m_Position&#45;&gt;m_PositionPreference</title>
<path fill="none" stroke="black" d="M559.24,-366.43C571.6,-369.32 584.27,-372.29 596.5,-375.15"/>
<polygon fill="black" stroke="black" points="595.83,-378.23 605.31,-377.21 597.27,-372.1 595.83,-378.23"/>
</g>
<!-- m_ReportingTag -->
<g id="node14" class="node">
<title>m_ReportingTag</title>
<path fill="none" stroke="black" d="M613.5,-262C613.5,-262 742.5,-262 742.5,-262 748.5,-262 754.5,-268 754.5,-274 754.5,-274 754.5,-318 754.5,-318 754.5,-324 748.5,-330 742.5,-330 742.5,-330 613.5,-330 613.5,-330 607.5,-330 601.5,-324 601.5,-318 601.5,-318 601.5,-274 601.5,-274 601.5,-268 607.5,-262 613.5,-262"/>
<text text-anchor="start" x="643.28" y="-316.7" font-family="Arial BoldMT" font-size="11.00">ReportingTag</text>
<polyline fill="none" stroke="black" points="601.5,-311 754.5,-311 "/>
<text text-anchor="start" x="609" y="-297.5" font-family="ArialMT" font-size="10.00">position_id </text>
<text text-anchor="start" x="659.59" y="-297.5" font-family="Arial ItalicMT" font-size="10.00" fill="#999999">integer (8) ∗ FK</text>
<text text-anchor="start" x="608.83" y="-284.5" font-family="ArialMT" font-size="10.00">wage_chunk_id </text>
<text text-anchor="start" x="681.1" y="-284.5" font-family="Arial ItalicMT" font-size="10.00" fill="#999999">integer (8) ∗ FK</text>
<text text-anchor="start" x="609" y="-271.5" font-family="ArialMT" font-size="10.00">name </text>
<text text-anchor="start" x="636.79" y="-271.5" font-family="Arial ItalicMT" font-size="10.00" fill="#999999">string</text>
</g>
<!-- m_Position&#45;&gt;m_ReportingTag -->
<g id="edge5" class="edge">
<title>m_Position&#45;&gt;m_ReportingTag</title>
<path fill="none" stroke="black" d="M568.17,-322.54C576.3,-320.56 584.48,-318.57 592.51,-316.61"/>
<polygon fill="black" stroke="black" points="567.23,-319.53 559.24,-324.72 568.73,-325.65 567.23,-319.53"/>
<polygon fill="black" stroke="black" points="593.5,-319.61 601.5,-314.42 592.01,-313.49 593.5,-319.61"/>
</g>
<!-- m_ReportingTag&#45;&gt;m_WageChunk -->
<g id="edge2" class="edge">
<title>m_ReportingTag&#45;&gt;m_WageChunk</title>
<path fill="none" stroke="black" d="M763.92,-296C771.81,-296 779.8,-296 787.66,-296"/>
<polygon fill="black" stroke="black" points="763.76,-292.85 754.76,-296 763.76,-299.15 763.76,-292.85"/>
<polygon fill="black" stroke="black" points="787.82,-299.15 796.82,-296 787.82,-292.85 787.82,-299.15"/>
</g>
<!-- m_Session -->
<g id="node15" class="node">
<title>m_Session</title>
<path fill="none" stroke="black" d="M23.5,-328C23.5,-328 143.5,-328 143.5,-328 149.5,-328 155.5,-334 155.5,-340 155.5,-340 155.5,-410 155.5,-410 155.5,-416 149.5,-422 143.5,-422 143.5,-422 23.5,-422 23.5,-422 17.5,-422 11.5,-416 11.5,-410 11.5,-410 11.5,-340 11.5,-340 11.5,-334 17.5,-328 23.5,-328"/>
<text text-anchor="start" x="61.93" y="-408.7" font-family="Arial BoldMT" font-size="11.00">Session</text>
<polyline fill="none" stroke="black" points="11.5,-403 155.5,-403 "/>
<text text-anchor="start" x="18.5" y="-389.5" font-family="ArialMT" font-size="10.00">start_date </text>
<text text-anchor="start" x="65.75" y="-389.5" font-family="Arial ItalicMT" font-size="10.00" fill="#999999">datetime</text>
<text text-anchor="start" x="18.5" y="-376.5" font-family="ArialMT" font-size="10.00">end_date </text>
<text text-anchor="start" x="62.99" y="-376.5" font-family="Arial ItalicMT" font-size="10.00" fill="#999999">datetime</text>
<text text-anchor="start" x="18.5" y="-363.5" font-family="ArialMT" font-size="10.00">name </text>
<text text-anchor="start" x="46.29" y="-363.5" font-family="Arial ItalicMT" font-size="10.00" fill="#999999">string U</text>
<text text-anchor="start" x="18.5" y="-350.5" font-family="ArialMT" font-size="10.00">rate1 </text>
<text text-anchor="start" x="44.07" y="-350.5" font-family="Arial ItalicMT" font-size="10.00" fill="#999999">float</text>
<text text-anchor="start" x="18.5" y="-337.5" font-family="ArialMT" font-size="10.00">rate2 </text>
<text text-anchor="start" x="44.07" y="-337.5" font-family="Arial ItalicMT" font-size="10.00" fill="#999999">float</text>
</g>
<!-- m_Session&#45;&gt;m_Application -->
<g id="edge17" class="edge">
<title>m_Session&#45;&gt;m_Application</title>
<path fill="none" stroke="black" d="M276,-470C313.3,-472.88 354.75,-473.26 389.73,-472.77"/>
<polygon fill="black" stroke="black" points="390,-475.92 398.95,-472.62 389.9,-469.62 390,-475.92"/>
</g>
<!-- m_Session&#45;&gt;m_ContractTemplate -->
<g id="edge18" class="edge">
<title>m_Session&#45;&gt;m_ContractTemplate</title>
<path fill="none" stroke="black" d="M155.6,-339.36C169.39,-332.45 183.88,-325.18 197.82,-318.19"/>
<polygon fill="black" stroke="black" points="199.32,-320.96 205.95,-314.11 196.5,-315.33 199.32,-320.96"/>
</g>
<!-- m_Session&#45;&gt;m_Position -->
<g id="edge10" class="edge">
<title>m_Session&#45;&gt;m_Position</title>
<path fill="none" stroke="black" d="M147.83,-422.19C182.99,-444.27 228.68,-466.5 274,-470"/>
<path fill="none" stroke="black" d="M276,-470C300.91,-471.92 347.74,-442.41 389.15,-411.69"/>
<polygon fill="black" stroke="black" points="391.23,-414.07 396.55,-406.16 387.46,-409.03 391.23,-414.07"/>
</g>
<!-- m_User -->
<g id="node16" class="node">
<title>m_User</title>
<path fill="none" stroke="black" d="M23.5,-452.5C23.5,-452.5 143.5,-452.5 143.5,-452.5 149.5,-452.5 155.5,-458.5 155.5,-464.5 155.5,-464.5 155.5,-495.5 155.5,-495.5 155.5,-501.5 149.5,-507.5 143.5,-507.5 143.5,-507.5 23.5,-507.5 23.5,-507.5 17.5,-507.5 11.5,-501.5 11.5,-495.5 11.5,-495.5 11.5,-464.5 11.5,-464.5 11.5,-458.5 17.5,-452.5 23.5,-452.5"/>
<text text-anchor="start" x="69.89" y="-494.2" font-family="Arial BoldMT" font-size="11.00">User</text>
<polyline fill="none" stroke="black" points="11.5,-488.5 155.5,-488.5 "/>
<text text-anchor="start" x="18.5" y="-475.5" font-family="ArialMT" font-size="10.00">utorid </text>
<text text-anchor="start" x="46.29" y="-475.5" font-family="Arial ItalicMT" font-size="10.00" fill="#999999">string ∗ U</text>
<text text-anchor="start" x="18.5" y="-462.5" font-family="ArialMT" font-size="10.00">role </text>
<text text-anchor="start" x="37.95" y="-462.5" font-family="Arial ItalicMT" font-size="10.00" fill="#999999">integer</text>
</g>
<!-- m_primary::SchemaMigration -->
<g id="node18" class="node">
<title>m_primary::SchemaMigration</title>
<path fill="none" stroke="black" d="M23.5,-538C23.5,-538 143.5,-538 143.5,-538 149.5,-538 155.5,-544 155.5,-550 155.5,-550 155.5,-562 155.5,-562 155.5,-568 149.5,-574 143.5,-574 143.5,-574 23.5,-574 23.5,-574 17.5,-574 11.5,-568 11.5,-562 11.5,-562 11.5,-550 11.5,-550 11.5,-544 17.5,-538 23.5,-538"/>
<text text-anchor="start" x="17.31" y="-552.2" font-family="Arial BoldMT" font-size="11.00">primary::SchemaMigration</text>
</g>
</g>
</svg>
