<?xml version="1.0" encoding="UTF-8" standalone="no"?>
<!DOCTYPE svg PUBLIC "-//W3C//DTD SVG 1.1//EN"
 "http://www.w3.org/Graphics/SVG/1.1/DTD/svg11.dtd">
<!-- Generated by graphviz version 2.40.1 (0)
 -->
<!-- Title: Tapp Pages: 1 -->
<svg width="1019pt" height="829pt"
 viewBox="0.00 0.00 1018.60 828.60" xmlns="http://www.w3.org/2000/svg" xmlns:xlink="http://www.w3.org/1999/xlink">
<g id="graph0" class="graph" transform="scale(1 1) rotate(0) translate(28.8 799.8)">
<title>Tapp</title>
<polygon fill="#ffffff" stroke="transparent" points="-28.8,28.8 -28.8,-799.8 989.8,-799.8 989.8,28.8 -28.8,28.8"/>
<text text-anchor="middle" x="480.5" y="-756.6" font-family="Arial Bold" font-size="13.00" fill="#000000">ER Diagram</text>
<!-- m_ActiveRecord::InternalMetadata -->
<g id="node1" class="node">
<title>m_ActiveRecord::InternalMetadata</title>
<path fill="none" stroke="#000000" d="M14.5,-67C14.5,-67 167.5,-67 167.5,-67 173.5,-67 179.5,-73 179.5,-79 179.5,-79 179.5,-98 179.5,-98 179.5,-104 173.5,-110 167.5,-110 167.5,-110 14.5,-110 14.5,-110 8.5,-110 2.5,-104 2.5,-98 2.5,-98 2.5,-79 2.5,-79 2.5,-73 8.5,-67 14.5,-67"/>
<text text-anchor="start" x="8" y="-97.2" font-family="Arial Bold" font-size="11.00" fill="#000000">ActiveRecord::InternalMetadata</text>
<polyline fill="none" stroke="#000000" points="2.5,-90 179.5,-90 "/>
<text text-anchor="start" x="26" y="-76.5" font-family="Arial" font-size="10.00" fill="#000000">value </text>
<text text-anchor="start" x="53" y="-76.5" font-family="Arial Italic" font-size="10.00" fill="#999999">string</text>
</g>
<!-- m_ActiveRecord::SchemaMigration -->
<g id="node2" class="node">
<title>m_ActiveRecord::SchemaMigration</title>
<path fill="none" stroke="#000000" d="M12,-140.5C12,-140.5 170,-140.5 170,-140.5 176,-140.5 182,-146.5 182,-152.5 182,-152.5 182,-164.5 182,-164.5 182,-170.5 176,-176.5 170,-176.5 170,-176.5 12,-176.5 12,-176.5 6,-176.5 0,-170.5 0,-164.5 0,-164.5 0,-152.5 0,-152.5 0,-146.5 6,-140.5 12,-140.5"/>
<text text-anchor="start" x="5" y="-155.7" font-family="Arial Bold" font-size="11.00" fill="#000000">ActiveRecord::SchemaMigration</text>
</g>
<!-- m_ActiveUser -->
<g id="node3" class="node">
<title>m_ActiveUser</title>
<path fill="none" stroke="#000000" d="M31,-207C31,-207 151,-207 151,-207 157,-207 163,-213 163,-219 163,-219 163,-238 163,-238 163,-244 157,-250 151,-250 151,-250 31,-250 31,-250 25,-250 19,-244 19,-238 19,-238 19,-219 19,-219 19,-213 25,-207 31,-207"/>
<text text-anchor="start" x="60" y="-237.2" font-family="Arial Bold" font-size="11.00" fill="#000000">ActiveUser</text>
<polyline fill="none" stroke="#000000" points="19,-230 163,-230 "/>
<text text-anchor="start" x="26" y="-216.5" font-family="Arial" font-size="10.00" fill="#000000">credentials </text>
<text text-anchor="start" x="77" y="-216.5" font-family="Arial Italic" font-size="10.00" fill="#999999">text</text>
</g>
<!-- m_Applicant -->
<g id="node4" class="node">
<title>m_Applicant</title>
<path fill="none" stroke="#000000" d="M230,-546.5C230,-546.5 350,-546.5 350,-546.5 356,-546.5 362,-552.5 362,-558.5 362,-558.5 362,-642.5 362,-642.5 362,-648.5 356,-654.5 350,-654.5 350,-654.5 230,-654.5 230,-654.5 224,-654.5 218,-648.5 218,-642.5 218,-642.5 218,-558.5 218,-558.5 218,-552.5 224,-546.5 230,-546.5"/>
<text text-anchor="start" x="262.5" y="-641.7" font-family="Arial Bold" font-size="11.00" fill="#000000">Applicant</text>
<polyline fill="none" stroke="#000000" points="218,-634.5 362,-634.5 "/>
<text text-anchor="start" x="225" y="-621.5" font-family="Arial" font-size="10.00" fill="#000000">utorid </text>
<text text-anchor="start" x="253" y="-621.5" font-family="Arial Italic" font-size="10.00" fill="#999999">string ∗ U</text>
<text text-anchor="start" x="225" y="-608.5" font-family="Arial" font-size="10.00" fill="#000000">student_number </text>
<text text-anchor="start" x="298" y="-608.5" font-family="Arial Italic" font-size="10.00" fill="#999999">string ∗ U</text>
<text text-anchor="start" x="225" y="-595.5" font-family="Arial" font-size="10.00" fill="#000000">first_name </text>
<text text-anchor="start" x="274" y="-595.5" font-family="Arial Italic" font-size="10.00" fill="#999999">string ∗</text>
<text text-anchor="start" x="225" y="-582.5" font-family="Arial" font-size="10.00" fill="#000000">last_name </text>
<text text-anchor="start" x="274" y="-582.5" font-family="Arial Italic" font-size="10.00" fill="#999999">string ∗</text>
<text text-anchor="start" x="225" y="-569.5" font-family="Arial" font-size="10.00" fill="#000000">email </text>
<text text-anchor="start" x="252" y="-569.5" font-family="Arial Italic" font-size="10.00" fill="#999999">string ∗</text>
<text text-anchor="start" x="225" y="-556.5" font-family="Arial" font-size="10.00" fill="#000000">phone </text>
<text text-anchor="start" x="255" y="-556.5" font-family="Arial Italic" font-size="10.00" fill="#999999">string</text>
</g>
<!-- m_ApplicantDataForMatching -->
<g id="node5" class="node">
<title>m_ApplicantDataForMatching</title>
<path fill="none" stroke="#000000" d="M629,-625.5C629,-625.5 757,-625.5 757,-625.5 763,-625.5 769,-631.5 769,-637.5 769,-637.5 769,-721.5 769,-721.5 769,-727.5 763,-733.5 757,-733.5 757,-733.5 629,-733.5 629,-733.5 623,-733.5 617,-727.5 617,-721.5 617,-721.5 617,-637.5 617,-637.5 617,-631.5 623,-625.5 629,-625.5"/>
<text text-anchor="start" x="622" y="-720.7" font-family="Arial Bold" font-size="11.00" fill="#000000">ApplicantDataForMatching</text>
<polyline fill="none" stroke="#000000" points="617,-713.5 769,-713.5 "/>
<text text-anchor="start" x="627" y="-700.5" font-family="Arial" font-size="10.00" fill="#000000">applicant_id </text>
<text text-anchor="start" x="682" y="-700.5" font-family="Arial Italic" font-size="10.00" fill="#999999">integer (8) ∗ FK</text>
<text text-anchor="start" x="627" y="-687.5" font-family="Arial" font-size="10.00" fill="#000000">program </text>
<text text-anchor="start" x="666" y="-687.5" font-family="Arial Italic" font-size="10.00" fill="#999999">string</text>
<text text-anchor="start" x="627" y="-674.5" font-family="Arial" font-size="10.00" fill="#000000">department </text>
<text text-anchor="start" x="679" y="-674.5" font-family="Arial Italic" font-size="10.00" fill="#999999">string</text>
<text text-anchor="start" x="627" y="-661.5" font-family="Arial" font-size="10.00" fill="#000000">previous_uoft_experience </text>
<text text-anchor="start" x="742" y="-661.5" font-family="Arial Italic" font-size="10.00" fill="#999999">text</text>
<text text-anchor="start" x="627" y="-648.5" font-family="Arial" font-size="10.00" fill="#000000">yip </text>
<text text-anchor="start" x="643" y="-648.5" font-family="Arial Italic" font-size="10.00" fill="#999999">integer</text>
<text text-anchor="start" x="627" y="-635.5" font-family="Arial" font-size="10.00" fill="#000000">annotation </text>
<text text-anchor="start" x="676" y="-635.5" font-family="Arial Italic" font-size="10.00" fill="#999999">string</text>
</g>
<!-- m_Applicant&#45;&gt;m_ApplicantDataForMatching -->
<g id="edge10" class="edge">
<title>m_Applicant&#45;&gt;m_ApplicantDataForMatching</title>
<path fill="none" stroke="#000000" d="M486.5,-603.5C531.5762,-603.8986 578.9714,-620.077 616.9708,-637.4035"/>
</g>
<!-- m_Application -->
<g id="node6" class="node">
<title>m_Application</title>
<path fill="none" stroke="#000000" d="M426.5,-389C426.5,-389 546.5,-389 546.5,-389 552.5,-389 558.5,-395 558.5,-401 558.5,-401 558.5,-446 558.5,-446 558.5,-452 552.5,-458 546.5,-458 546.5,-458 426.5,-458 426.5,-458 420.5,-458 414.5,-452 414.5,-446 414.5,-446 414.5,-401 414.5,-401 414.5,-395 420.5,-389 426.5,-389"/>
<text text-anchor="start" x="454" y="-445.2" font-family="Arial Bold" font-size="11.00" fill="#000000">Application</text>
<polyline fill="none" stroke="#000000" points="414.5,-438 558.5,-438 "/>
<text text-anchor="start" x="421.5" y="-424.5" font-family="Arial" font-size="10.00" fill="#000000">session_id </text>
<text text-anchor="start" x="471.5" y="-424.5" font-family="Arial Italic" font-size="10.00" fill="#999999">integer (8) ∗ FK</text>
<text text-anchor="start" x="421.5" y="-411.5" font-family="Arial" font-size="10.00" fill="#000000">applicant_id </text>
<text text-anchor="start" x="476.5" y="-411.5" font-family="Arial Italic" font-size="10.00" fill="#999999">integer (8) ∗ FK</text>
<text text-anchor="start" x="421.5" y="-398.5" font-family="Arial" font-size="10.00" fill="#000000">comments </text>
<text text-anchor="start" x="470.5" y="-398.5" font-family="Arial Italic" font-size="10.00" fill="#999999">text</text>
</g>
<!-- m_Applicant&#45;&gt;m_Application -->
<g id="edge19" class="edge">
<title>m_Applicant&#45;&gt;m_Application</title>
<path fill="none" stroke="#000000" d="M350.0242,-546.4324C379.4697,-519.909 414.3422,-488.4971 441.4657,-464.0653"/>
<polygon fill="#000000" stroke="#000000" points="443.6076,-466.3754 448.1865,-458.0114 439.3911,-461.6944 443.6076,-466.3754"/>
</g>
<!-- m_Assignment -->
<g id="node7" class="node">
<title>m_Assignment</title>
<path fill="none" stroke="#000000" d="M633,-461.5C633,-461.5 753,-461.5 753,-461.5 759,-461.5 765,-467.5 765,-473.5 765,-473.5 765,-583.5 765,-583.5 765,-589.5 759,-595.5 753,-595.5 753,-595.5 633,-595.5 633,-595.5 627,-595.5 621,-589.5 621,-583.5 621,-583.5 621,-473.5 621,-473.5 621,-467.5 627,-461.5 633,-461.5"/>
<text text-anchor="start" x="659" y="-582.7" font-family="Arial Bold" font-size="11.00" fill="#000000">Assignment</text>
<polyline fill="none" stroke="#000000" points="621,-575.5 765,-575.5 "/>
<text text-anchor="start" x="628" y="-562.5" font-family="Arial" font-size="10.00" fill="#000000">position_id </text>
<text text-anchor="start" x="678" y="-562.5" font-family="Arial Italic" font-size="10.00" fill="#999999">integer (8) ∗ FK</text>
<text text-anchor="start" x="628" y="-549.5" font-family="Arial" font-size="10.00" fill="#000000">applicant_id </text>
<text text-anchor="start" x="683" y="-549.5" font-family="Arial Italic" font-size="10.00" fill="#999999">integer (8) ∗ FK</text>
<text text-anchor="start" x="628" y="-536.5" font-family="Arial" font-size="10.00" fill="#000000">start_date </text>
<text text-anchor="start" x="675" y="-536.5" font-family="Arial Italic" font-size="10.00" fill="#999999">datetime</text>
<text text-anchor="start" x="628" y="-523.5" font-family="Arial" font-size="10.00" fill="#000000">end_date </text>
<text text-anchor="start" x="671" y="-523.5" font-family="Arial Italic" font-size="10.00" fill="#999999">datetime</text>
<text text-anchor="start" x="628" y="-510.5" font-family="Arial" font-size="10.00" fill="#000000">note </text>
<text text-anchor="start" x="650" y="-510.5" font-family="Arial Italic" font-size="10.00" fill="#999999">text</text>
<text text-anchor="start" x="628" y="-497.5" font-family="Arial" font-size="10.00" fill="#000000">offer_override_pdf </text>
<text text-anchor="start" x="710" y="-497.5" font-family="Arial Italic" font-size="10.00" fill="#999999">string</text>
<text text-anchor="start" x="628" y="-484.5" font-family="Arial" font-size="10.00" fill="#000000">active_offer_status </text>
<text text-anchor="start" x="715" y="-484.5" font-family="Arial Italic" font-size="10.00" fill="#999999">integer ∗</text>
<text text-anchor="start" x="628" y="-471.5" font-family="Arial" font-size="10.00" fill="#000000">active_offer_id </text>
<text text-anchor="start" x="695" y="-471.5" font-family="Arial Italic" font-size="10.00" fill="#999999">integer (8) FK</text>
</g>
<!-- m_Applicant&#45;&gt;m_Assignment -->
<g id="edge17" class="edge">
<title>m_Applicant&#45;&gt;m_Assignment</title>
<path fill="none" stroke="#000000" d="M362.3228,-601.8261C399.4431,-602.4504 445.3887,-603.1364 486.5,-603.5"/>
<path fill="none" stroke="#000000" d="M486.5,-603.5C529.7597,-603.8826 575.222,-589.2039 612.4433,-572.7347"/>
<polygon fill="#000000" stroke="#000000" points="613.8457,-575.5576 620.7426,-568.973 611.2449,-569.8195 613.8457,-575.5576"/>
</g>
<!-- m_Application&#45;&gt;m_ApplicantDataForMatching -->
<g id="edge11" class="edge">
<title>m_Application&#45;&gt;m_ApplicantDataForMatching</title>
<path fill="none" stroke="#000000" d="M505.644,-458.333C528.0779,-497.5415 567.7265,-562.0803 611,-610.5 613.5106,-613.3092 616.1372,-616.1057 618.8455,-618.874"/>
<polygon fill="#000000" stroke="#000000" points="616.6897,-621.1725 625.2976,-625.2747 621.1267,-616.6999 616.6897,-621.1725"/>
</g>
<!-- m_PositionPreference -->
<g id="node14" class="node">
<title>m_PositionPreference</title>
<path fill="none" stroke="#000000" d="M632,-363C632,-363 754,-363 754,-363 760,-363 766,-369 766,-375 766,-375 766,-420 766,-420 766,-426 760,-432 754,-432 754,-432 632,-432 632,-432 626,-432 620,-426 620,-420 620,-420 620,-375 620,-375 620,-369 626,-363 632,-363"/>
<text text-anchor="start" x="640.5" y="-419.2" font-family="Arial Bold" font-size="11.00" fill="#000000">PositionPreference</text>
<polyline fill="none" stroke="#000000" points="620,-412 766,-412 "/>
<text text-anchor="start" x="627" y="-398.5" font-family="Arial" font-size="10.00" fill="#000000">position_id </text>
<text text-anchor="start" x="677" y="-398.5" font-family="Arial Italic" font-size="10.00" fill="#999999">integer (8) ∗ FK</text>
<text text-anchor="start" x="627" y="-385.5" font-family="Arial" font-size="10.00" fill="#000000">application_id </text>
<text text-anchor="start" x="690" y="-385.5" font-family="Arial Italic" font-size="10.00" fill="#999999">integer (8) ∗ FK</text>
<text text-anchor="start" x="627" y="-372.5" font-family="Arial" font-size="10.00" fill="#000000">preference_level </text>
<text text-anchor="start" x="702" y="-372.5" font-family="Arial Italic" font-size="10.00" fill="#999999">integer</text>
</g>
<!-- m_Application&#45;&gt;m_PositionPreference -->
<g id="edge15" class="edge">
<title>m_Application&#45;&gt;m_PositionPreference</title>
<path fill="none" stroke="#000000" d="M558.7237,-414.4065C575.4063,-412.306 593.2803,-410.0555 610.3687,-407.9039"/>
<polygon fill="#000000" stroke="#000000" points="611.233,-410.9701 619.7689,-406.7204 610.4459,-404.7194 611.233,-410.9701"/>
</g>
<!-- m_Offer -->
<g id="node10" class="node">
<title>m_Offer</title>
<path fill="none" stroke="#000000" d="M823,-376.5C823,-376.5 949,-376.5 949,-376.5 955,-376.5 961,-382.5 961,-388.5 961,-388.5 961,-706.5 961,-706.5 961,-712.5 955,-718.5 949,-718.5 949,-718.5 823,-718.5 823,-718.5 817,-718.5 811,-712.5 811,-706.5 811,-706.5 811,-388.5 811,-388.5 811,-382.5 817,-376.5 823,-376.5"/>
<text text-anchor="start" x="870" y="-705.7" font-family="Arial Bold" font-size="11.00" fill="#000000">Offer</text>
<polyline fill="none" stroke="#000000" points="811,-698.5 961,-698.5 "/>
<text text-anchor="start" x="818" y="-685.5" font-family="Arial" font-size="10.00" fill="#000000">assignment_id </text>
<text text-anchor="start" x="885" y="-685.5" font-family="Arial Italic" font-size="10.00" fill="#999999">integer (8) ∗ FK</text>
<text text-anchor="start" x="818" y="-672.5" font-family="Arial" font-size="10.00" fill="#000000">offer_template </text>
<text text-anchor="start" x="884" y="-672.5" font-family="Arial Italic" font-size="10.00" fill="#999999">string</text>
<text text-anchor="start" x="818" y="-659.5" font-family="Arial" font-size="10.00" fill="#000000">offer_override_pdf </text>
<text text-anchor="start" x="900" y="-659.5" font-family="Arial Italic" font-size="10.00" fill="#999999">string</text>
<text text-anchor="start" x="818" y="-646.5" font-family="Arial" font-size="10.00" fill="#000000">first_name </text>
<text text-anchor="start" x="867" y="-646.5" font-family="Arial Italic" font-size="10.00" fill="#999999">string</text>
<text text-anchor="start" x="818" y="-633.5" font-family="Arial" font-size="10.00" fill="#000000">last_name </text>
<text text-anchor="start" x="867" y="-633.5" font-family="Arial Italic" font-size="10.00" fill="#999999">string</text>
<text text-anchor="start" x="818" y="-620.5" font-family="Arial" font-size="10.00" fill="#000000">email </text>
<text text-anchor="start" x="845" y="-620.5" font-family="Arial Italic" font-size="10.00" fill="#999999">string</text>
<text text-anchor="start" x="818" y="-607.5" font-family="Arial" font-size="10.00" fill="#000000">position_code </text>
<text text-anchor="start" x="882" y="-607.5" font-family="Arial Italic" font-size="10.00" fill="#999999">string</text>
<text text-anchor="start" x="818" y="-594.5" font-family="Arial" font-size="10.00" fill="#000000">position_title </text>
<text text-anchor="start" x="876" y="-594.5" font-family="Arial Italic" font-size="10.00" fill="#999999">string</text>
<text text-anchor="start" x="818" y="-581.5" font-family="Arial" font-size="10.00" fill="#000000">position_start_date </text>
<text text-anchor="start" x="904" y="-581.5" font-family="Arial Italic" font-size="10.00" fill="#999999">datetime</text>
<text text-anchor="start" x="818" y="-568.5" font-family="Arial" font-size="10.00" fill="#000000">position_end_date </text>
<text text-anchor="start" x="900" y="-568.5" font-family="Arial Italic" font-size="10.00" fill="#999999">datetime</text>
<text text-anchor="start" x="818" y="-555.5" font-family="Arial" font-size="10.00" fill="#000000">first_time_ta </text>
<text text-anchor="start" x="876" y="-555.5" font-family="Arial Italic" font-size="10.00" fill="#999999">boolean</text>
<text text-anchor="start" x="818" y="-542.5" font-family="Arial" font-size="10.00" fill="#000000">instructor_contact_desc </text>
<text text-anchor="start" x="926" y="-542.5" font-family="Arial Italic" font-size="10.00" fill="#999999">string</text>
<text text-anchor="start" x="818" y="-529.5" font-family="Arial" font-size="10.00" fill="#000000">pay_period_desc </text>
<text text-anchor="start" x="895" y="-529.5" font-family="Arial Italic" font-size="10.00" fill="#999999">string</text>
<text text-anchor="start" x="818" y="-516.5" font-family="Arial" font-size="10.00" fill="#000000">installments </text>
<text text-anchor="start" x="874" y="-516.5" font-family="Arial Italic" font-size="10.00" fill="#999999">integer</text>
<text text-anchor="start" x="818" y="-503.5" font-family="Arial" font-size="10.00" fill="#000000">ta_coordinator_name </text>
<text text-anchor="start" x="912" y="-503.5" font-family="Arial Italic" font-size="10.00" fill="#999999">string</text>
<text text-anchor="start" x="818" y="-490.5" font-family="Arial" font-size="10.00" fill="#000000">ta_coordinator_email </text>
<text text-anchor="start" x="912" y="-490.5" font-family="Arial Italic" font-size="10.00" fill="#999999">string</text>
<text text-anchor="start" x="818" y="-477.5" font-family="Arial" font-size="10.00" fill="#000000">emailed_date </text>
<text text-anchor="start" x="879" y="-477.5" font-family="Arial Italic" font-size="10.00" fill="#999999">datetime</text>
<text text-anchor="start" x="818" y="-464.5" font-family="Arial" font-size="10.00" fill="#000000">signature </text>
<text text-anchor="start" x="861" y="-464.5" font-family="Arial Italic" font-size="10.00" fill="#999999">string</text>
<text text-anchor="start" x="818" y="-451.5" font-family="Arial" font-size="10.00" fill="#000000">accepted_date </text>
<text text-anchor="start" x="885" y="-451.5" font-family="Arial Italic" font-size="10.00" fill="#999999">datetime</text>
<text text-anchor="start" x="818" y="-438.5" font-family="Arial" font-size="10.00" fill="#000000">rejected_date </text>
<text text-anchor="start" x="880" y="-438.5" font-family="Arial Italic" font-size="10.00" fill="#999999">datetime</text>
<text text-anchor="start" x="818" y="-425.5" font-family="Arial" font-size="10.00" fill="#000000">withdrawn_date </text>
<text text-anchor="start" x="888" y="-425.5" font-family="Arial Italic" font-size="10.00" fill="#999999">datetime</text>
<text text-anchor="start" x="818" y="-412.5" font-family="Arial" font-size="10.00" fill="#000000">nag_count </text>
<text text-anchor="start" x="867" y="-412.5" font-family="Arial Italic" font-size="10.00" fill="#999999">integer</text>
<text text-anchor="start" x="818" y="-399.5" font-family="Arial" font-size="10.00" fill="#000000">url_token </text>
<text text-anchor="start" x="861" y="-399.5" font-family="Arial Italic" font-size="10.00" fill="#999999">string</text>
<text text-anchor="start" x="818" y="-386.5" font-family="Arial" font-size="10.00" fill="#000000">status </text>
<text text-anchor="start" x="849" y="-386.5" font-family="Arial Italic" font-size="10.00" fill="#999999">integer ∗</text>
</g>
<!-- m_Assignment&#45;&gt;m_Offer -->
<g id="edge12" class="edge">
<title>m_Assignment&#45;&gt;m_Offer</title>
<path fill="none" stroke="#000000" d="M765.1405,-535.6019C777,-536.7694 789.3847,-537.9886 801.5122,-539.1826"/>
<polygon fill="#000000" stroke="#000000" points="801.4579,-542.3423 810.7232,-540.0893 802.0751,-536.0726 801.4579,-542.3423"/>
</g>
<!-- m_WageChunk -->
<g id="node18" class="node">
<title>m_WageChunk</title>
<path fill="none" stroke="#000000" d="M823,-251C823,-251 949,-251 949,-251 955,-251 961,-257 961,-263 961,-263 961,-334 961,-334 961,-340 955,-346 949,-346 949,-346 823,-346 823,-346 817,-346 811,-340 811,-334 811,-334 811,-263 811,-263 811,-257 817,-251 823,-251"/>
<text text-anchor="start" x="852" y="-333.2" font-family="Arial Bold" font-size="11.00" fill="#000000">WageChunk</text>
<polyline fill="none" stroke="#000000" points="811,-326 961,-326 "/>
<text text-anchor="start" x="818" y="-312.5" font-family="Arial" font-size="10.00" fill="#000000">assignment_id </text>
<text text-anchor="start" x="885" y="-312.5" font-family="Arial Italic" font-size="10.00" fill="#999999">integer (8) ∗ FK</text>
<text text-anchor="start" x="818" y="-299.5" font-family="Arial" font-size="10.00" fill="#000000">hours </text>
<text text-anchor="start" x="846" y="-299.5" font-family="Arial Italic" font-size="10.00" fill="#999999">float</text>
<text text-anchor="start" x="818" y="-286.5" font-family="Arial" font-size="10.00" fill="#000000">rate </text>
<text text-anchor="start" x="838" y="-286.5" font-family="Arial Italic" font-size="10.00" fill="#999999">float</text>
<text text-anchor="start" x="818" y="-273.5" font-family="Arial" font-size="10.00" fill="#000000">start_date </text>
<text text-anchor="start" x="865" y="-273.5" font-family="Arial Italic" font-size="10.00" fill="#999999">datetime</text>
<text text-anchor="start" x="818" y="-260.5" font-family="Arial" font-size="10.00" fill="#000000">end_date </text>
<text text-anchor="start" x="861" y="-260.5" font-family="Arial Italic" font-size="10.00" fill="#999999">datetime</text>
</g>
<!-- m_Assignment&#45;&gt;m_WageChunk -->
<g id="edge16" class="edge">
<title>m_Assignment&#45;&gt;m_WageChunk</title>
<path fill="none" stroke="#000000" d="M763.9936,-461.3249C767.9141,-456.4695 771.6246,-451.5086 775,-446.5 797.928,-412.4784 786.6185,-394.4955 811,-361.5 813.0938,-358.6664 815.34,-355.8789 817.7001,-353.1484"/>
<polygon fill="#000000" stroke="#000000" points="820.4338,-354.8273 824.1873,-346.0618 815.7868,-350.5734 820.4338,-354.8273"/>
</g>
<!-- m_ContractTemplate -->
<g id="node8" class="node">
<title>m_ContractTemplate</title>
<path fill="none" stroke="#000000" d="M230,-197C230,-197 350,-197 350,-197 356,-197 362,-203 362,-209 362,-209 362,-254 362,-254 362,-260 356,-266 350,-266 350,-266 230,-266 230,-266 224,-266 218,-260 218,-254 218,-254 218,-209 218,-209 218,-203 224,-197 230,-197"/>
<text text-anchor="start" x="241" y="-253.2" font-family="Arial Bold" font-size="11.00" fill="#000000">ContractTemplate</text>
<polyline fill="none" stroke="#000000" points="218,-246 362,-246 "/>
<text text-anchor="start" x="225" y="-232.5" font-family="Arial" font-size="10.00" fill="#000000">session_id </text>
<text text-anchor="start" x="275" y="-232.5" font-family="Arial Italic" font-size="10.00" fill="#999999">integer (8) ∗ FK</text>
<text text-anchor="start" x="225" y="-219.5" font-family="Arial" font-size="10.00" fill="#000000">template_name </text>
<text text-anchor="start" x="295" y="-219.5" font-family="Arial Italic" font-size="10.00" fill="#999999">string</text>
<text text-anchor="start" x="225" y="-206.5" font-family="Arial" font-size="10.00" fill="#000000">template_file </text>
<text text-anchor="start" x="284" y="-206.5" font-family="Arial Italic" font-size="10.00" fill="#999999">string</text>
</g>
<!-- m_Position -->
<g id="node11" class="node">
<title>m_Position</title>
<path fill="none" stroke="#000000" d="M410,-238C410,-238 563,-238 563,-238 569,-238 575,-244 575,-250 575,-250 575,-347 575,-347 575,-353 569,-359 563,-359 563,-359 410,-359 410,-359 404,-359 398,-353 398,-347 398,-347 398,-250 398,-250 398,-244 404,-238 410,-238"/>
<text text-anchor="start" x="462.5" y="-346.2" font-family="Arial Bold" font-size="11.00" fill="#000000">Position</text>
<polyline fill="none" stroke="#000000" points="398,-339 575,-339 "/>
<text text-anchor="start" x="405.5" y="-325.5" font-family="Arial" font-size="10.00" fill="#000000">session_id </text>
<text text-anchor="start" x="455.5" y="-325.5" font-family="Arial Italic" font-size="10.00" fill="#999999">integer (8) ∗ FK</text>
<text text-anchor="start" x="405.5" y="-312.5" font-family="Arial" font-size="10.00" fill="#000000">position_code </text>
<text text-anchor="start" x="469.5" y="-312.5" font-family="Arial Italic" font-size="10.00" fill="#999999">string ∗ U</text>
<text text-anchor="start" x="405.5" y="-299.5" font-family="Arial" font-size="10.00" fill="#000000">position_title </text>
<text text-anchor="start" x="463.5" y="-299.5" font-family="Arial Italic" font-size="10.00" fill="#999999">string</text>
<text text-anchor="start" x="405.5" y="-286.5" font-family="Arial" font-size="10.00" fill="#000000">hours_per_assignment </text>
<text text-anchor="start" x="507.5" y="-286.5" font-family="Arial Italic" font-size="10.00" fill="#999999">float</text>
<text text-anchor="start" x="405.5" y="-273.5" font-family="Arial" font-size="10.00" fill="#000000">start_date </text>
<text text-anchor="start" x="452.5" y="-273.5" font-family="Arial Italic" font-size="10.00" fill="#999999">datetime ∗</text>
<text text-anchor="start" x="405.5" y="-260.5" font-family="Arial" font-size="10.00" fill="#000000">end_date </text>
<text text-anchor="start" x="448.5" y="-260.5" font-family="Arial Italic" font-size="10.00" fill="#999999">datetime ∗</text>
<text text-anchor="start" x="405.5" y="-247.5" font-family="Arial" font-size="10.00" fill="#000000">contract_template_id </text>
<text text-anchor="start" x="499.5" y="-247.5" font-family="Arial Italic" font-size="10.00" fill="#999999">integer (8) ∗ FK</text>
</g>
<!-- m_ContractTemplate&#45;&gt;m_Position -->
<g id="edge9" class="edge">
<title>m_ContractTemplate&#45;&gt;m_Position</title>
<path fill="none" stroke="#000000" d="M362.0536,-256.0679C370.8522,-259.0679 379.9531,-262.171 389.045,-265.2711"/>
<polygon fill="#000000" stroke="#000000" points="388.214,-268.3157 397.7491,-268.2389 390.2472,-262.3528 388.214,-268.3157"/>
</g>
<!-- m_Instructor -->
<g id="node9" class="node">
<title>m_Instructor</title>
<path fill="none" stroke="#000000" d="M230,-296.5C230,-296.5 350,-296.5 350,-296.5 356,-296.5 362,-302.5 362,-308.5 362,-308.5 362,-366.5 362,-366.5 362,-372.5 356,-378.5 350,-378.5 350,-378.5 230,-378.5 230,-378.5 224,-378.5 218,-372.5 218,-366.5 218,-366.5 218,-308.5 218,-308.5 218,-302.5 224,-296.5 230,-296.5"/>
<text text-anchor="start" x="262" y="-365.7" font-family="Arial Bold" font-size="11.00" fill="#000000">Instructor</text>
<polyline fill="none" stroke="#000000" points="218,-358.5 362,-358.5 "/>
<text text-anchor="start" x="225" y="-345.5" font-family="Arial" font-size="10.00" fill="#000000">first_name </text>
<text text-anchor="start" x="274" y="-345.5" font-family="Arial Italic" font-size="10.00" fill="#999999">string ∗</text>
<text text-anchor="start" x="225" y="-332.5" font-family="Arial" font-size="10.00" fill="#000000">last_name </text>
<text text-anchor="start" x="274" y="-332.5" font-family="Arial Italic" font-size="10.00" fill="#999999">string ∗</text>
<text text-anchor="start" x="225" y="-319.5" font-family="Arial" font-size="10.00" fill="#000000">email </text>
<text text-anchor="start" x="252" y="-319.5" font-family="Arial Italic" font-size="10.00" fill="#999999">string ∗</text>
<text text-anchor="start" x="225" y="-306.5" font-family="Arial" font-size="10.00" fill="#000000">utorid </text>
<text text-anchor="start" x="253" y="-306.5" font-family="Arial Italic" font-size="10.00" fill="#999999">string ∗ U</text>
</g>
<!-- m_Instructor&#45;&gt;m_Position -->
<g id="edge1" class="edge">
<title>m_Instructor&#45;&gt;m_Position</title>
<path fill="none" stroke="#000000" d="M371.1263,-321.3986C376.8904,-320.2546 382.7356,-319.0945 388.5793,-317.9346"/>
<polygon fill="#000000" stroke="#000000" points="370.2681,-318.3574 362.0536,-323.1993 371.4946,-324.5369 370.2681,-318.3574"/>
<polygon fill="#000000" stroke="#000000" points="389.5345,-320.9566 397.7491,-316.1147 388.308,-314.7771 389.5345,-320.9566"/>
</g>
<!-- m_Position&#45;&gt;m_Assignment -->
<g id="edge3" class="edge">
<title>m_Position&#45;&gt;m_Assignment</title>
<path fill="none" stroke="#000000" d="M561.6101,-359.0408C566.3681,-364.0562 570.8894,-369.2303 575,-374.5 597.0045,-402.7099 590.0808,-417.4761 611,-446.5 612.7658,-448.9499 614.6062,-451.3942 616.5063,-453.8252"/>
<polygon fill="#000000" stroke="#000000" points="614.2603,-456.0572 622.3714,-461.0705 619.157,-452.0932 614.2603,-456.0572"/>
</g>
<!-- m_PositionDataForAd -->
<g id="node12" class="node">
<title>m_PositionDataForAd</title>
<path fill="none" stroke="#000000" d="M629.5,-113C629.5,-113 756.5,-113 756.5,-113 762.5,-113 768.5,-119 768.5,-125 768.5,-125 768.5,-222 768.5,-222 768.5,-228 762.5,-234 756.5,-234 756.5,-234 629.5,-234 629.5,-234 623.5,-234 617.5,-228 617.5,-222 617.5,-222 617.5,-125 617.5,-125 617.5,-119 623.5,-113 629.5,-113"/>
<text text-anchor="start" x="640.5" y="-221.2" font-family="Arial Bold" font-size="11.00" fill="#000000">PositionDataForAd</text>
<polyline fill="none" stroke="#000000" points="617.5,-214 768.5,-214 "/>
<text text-anchor="start" x="625" y="-200.5" font-family="Arial" font-size="10.00" fill="#000000">position_id </text>
<text text-anchor="start" x="675" y="-200.5" font-family="Arial Italic" font-size="10.00" fill="#999999">integer (8) ∗ FK</text>
<text text-anchor="start" x="625" y="-187.5" font-family="Arial" font-size="10.00" fill="#000000">duties </text>
<text text-anchor="start" x="655" y="-187.5" font-family="Arial Italic" font-size="10.00" fill="#999999">text</text>
<text text-anchor="start" x="625" y="-174.5" font-family="Arial" font-size="10.00" fill="#000000">qualifications </text>
<text text-anchor="start" x="686" y="-174.5" font-family="Arial Italic" font-size="10.00" fill="#999999">text</text>
<text text-anchor="start" x="625" y="-161.5" font-family="Arial" font-size="10.00" fill="#000000">ad_hours_per_assignment </text>
<text text-anchor="start" x="743" y="-161.5" font-family="Arial Italic" font-size="10.00" fill="#999999">float</text>
<text text-anchor="start" x="625" y="-148.5" font-family="Arial" font-size="10.00" fill="#000000">ad_num_assignments </text>
<text text-anchor="start" x="724" y="-148.5" font-family="Arial Italic" font-size="10.00" fill="#999999">integer</text>
<text text-anchor="start" x="625" y="-135.5" font-family="Arial" font-size="10.00" fill="#000000">ad_open_date </text>
<text text-anchor="start" x="689" y="-135.5" font-family="Arial Italic" font-size="10.00" fill="#999999">datetime</text>
<text text-anchor="start" x="625" y="-122.5" font-family="Arial" font-size="10.00" fill="#000000">ad_close_date </text>
<text text-anchor="start" x="692" y="-122.5" font-family="Arial Italic" font-size="10.00" fill="#999999">datetime</text>
</g>
<!-- m_Position&#45;&gt;m_PositionDataForAd -->
<g id="edge6" class="edge">
<title>m_Position&#45;&gt;m_PositionDataForAd</title>
<path fill="none" stroke="#000000" d="M575.273,-244.7633C589.2651,-236.2935 603.6192,-227.6046 617.2796,-219.3356"/>
</g>
<!-- m_PositionDataForMatching -->
<g id="node13" class="node">
<title>m_PositionDataForMatching</title>
<path fill="none" stroke="#000000" d="M623,-.5C623,-.5 763,-.5 763,-.5 769,-.5 775,-6.5 775,-12.5 775,-12.5 775,-70.5 775,-70.5 775,-76.5 769,-82.5 763,-82.5 763,-82.5 623,-82.5 623,-82.5 617,-82.5 611,-76.5 611,-70.5 611,-70.5 611,-12.5 611,-12.5 611,-6.5 617,-.5 623,-.5"/>
<text text-anchor="start" x="626" y="-69.7" font-family="Arial Bold" font-size="11.00" fill="#000000">PositionDataForMatching</text>
<polyline fill="none" stroke="#000000" points="611,-62.5 775,-62.5 "/>
<text text-anchor="start" x="618" y="-49.5" font-family="Arial" font-size="10.00" fill="#000000">position_id </text>
<text text-anchor="start" x="668" y="-49.5" font-family="Arial Italic" font-size="10.00" fill="#999999">integer (8) ∗ FK</text>
<text text-anchor="start" x="618" y="-36.5" font-family="Arial" font-size="10.00" fill="#000000">desired_num_assignments </text>
<text text-anchor="start" x="738" y="-36.5" font-family="Arial Italic" font-size="10.00" fill="#999999">integer</text>
<text text-anchor="start" x="618" y="-23.5" font-family="Arial" font-size="10.00" fill="#000000">current_enrollment </text>
<text text-anchor="start" x="702" y="-23.5" font-family="Arial Italic" font-size="10.00" fill="#999999">integer</text>
<text text-anchor="start" x="618" y="-10.5" font-family="Arial" font-size="10.00" fill="#000000">current_waitlisted </text>
<text text-anchor="start" x="697" y="-10.5" font-family="Arial Italic" font-size="10.00" fill="#999999">integer</text>
</g>
<!-- m_Position&#45;&gt;m_PositionDataForMatching -->
<g id="edge7" class="edge">
<title>m_Position&#45;&gt;m_PositionDataForMatching</title>
<path fill="none" stroke="#000000" d="M515.5564,-237.6733C537.7704,-195.2513 571.2813,-139.0313 611,-97.5 616.0043,-92.2673 621.5737,-87.2443 627.3881,-82.503"/>
</g>
<!-- m_Position&#45;&gt;m_PositionPreference -->
<g id="edge4" class="edge">
<title>m_Position&#45;&gt;m_PositionPreference</title>
<path fill="none" stroke="#000000" d="M575.273,-341.0595C587.6186,-346.9782 600.2459,-353.0319 612.43,-358.8732"/>
<polygon fill="#000000" stroke="#000000" points="611.308,-361.8286 620.7854,-362.8789 614.0316,-356.1477 611.308,-361.8286"/>
</g>
<!-- m_ReportingTag -->
<g id="node15" class="node">
<title>m_ReportingTag</title>
<path fill="none" stroke="#000000" d="M628.5,-264C628.5,-264 757.5,-264 757.5,-264 763.5,-264 769.5,-270 769.5,-276 769.5,-276 769.5,-321 769.5,-321 769.5,-327 763.5,-333 757.5,-333 757.5,-333 628.5,-333 628.5,-333 622.5,-333 616.5,-327 616.5,-321 616.5,-321 616.5,-276 616.5,-276 616.5,-270 622.5,-264 628.5,-264"/>
<text text-anchor="start" x="655" y="-320.2" font-family="Arial Bold" font-size="11.00" fill="#000000">ReportingTag</text>
<polyline fill="none" stroke="#000000" points="616.5,-313 769.5,-313 "/>
<text text-anchor="start" x="624" y="-299.5" font-family="Arial" font-size="10.00" fill="#000000">position_id </text>
<text text-anchor="start" x="674" y="-299.5" font-family="Arial Italic" font-size="10.00" fill="#999999">integer (8) ∗ FK</text>
<text text-anchor="start" x="624" y="-286.5" font-family="Arial" font-size="10.00" fill="#000000">wage_chunk_id </text>
<text text-anchor="start" x="694" y="-286.5" font-family="Arial Italic" font-size="10.00" fill="#999999">integer (8) ∗ FK</text>
<text text-anchor="start" x="624" y="-273.5" font-family="Arial" font-size="10.00" fill="#000000">name </text>
<text text-anchor="start" x="652" y="-273.5" font-family="Arial Italic" font-size="10.00" fill="#999999">string</text>
</g>
<!-- m_Position&#45;&gt;m_ReportingTag -->
<g id="edge2" class="edge">
<title>m_Position&#45;&gt;m_ReportingTag</title>
<path fill="none" stroke="#000000" d="M584.2794,-298.5C591.8425,-298.5 599.4448,-298.5 606.9234,-298.5"/>
<polygon fill="#000000" stroke="#000000" points="584.273,-295.3501 575.273,-298.5 584.273,-301.6501 584.273,-295.3501"/>
<polygon fill="#000000" stroke="#000000" points="607.318,-301.6501 616.318,-298.5 607.3179,-295.3501 607.318,-301.6501"/>
</g>
<!-- m_ReportingTag&#45;&gt;m_WageChunk -->
<g id="edge18" class="edge">
<title>m_ReportingTag&#45;&gt;m_WageChunk</title>
<path fill="none" stroke="#000000" d="M778.8551,-298.5C786.3422,-298.5 793.9157,-298.5 801.3926,-298.5"/>
<polygon fill="#000000" stroke="#000000" points="778.5559,-295.3501 769.5559,-298.5 778.5559,-301.6501 778.5559,-295.3501"/>
<polygon fill="#000000" stroke="#000000" points="801.7978,-301.6501 810.7977,-298.5 801.7977,-295.3501 801.7978,-301.6501"/>
</g>
<!-- m_Session -->
<g id="node16" class="node">
<title>m_Session</title>
<path fill="none" stroke="#000000" d="M31,-280C31,-280 151,-280 151,-280 157,-280 163,-286 163,-292 163,-292 163,-363 163,-363 163,-369 157,-375 151,-375 151,-375 31,-375 31,-375 25,-375 19,-369 19,-363 19,-363 19,-292 19,-292 19,-286 25,-280 31,-280"/>
<text text-anchor="start" x="67.5" y="-362.2" font-family="Arial Bold" font-size="11.00" fill="#000000">Session</text>
<polyline fill="none" stroke="#000000" points="19,-355 163,-355 "/>
<text text-anchor="start" x="26" y="-341.5" font-family="Arial" font-size="10.00" fill="#000000">start_date </text>
<text text-anchor="start" x="73" y="-341.5" font-family="Arial Italic" font-size="10.00" fill="#999999">datetime</text>
<text text-anchor="start" x="26" y="-328.5" font-family="Arial" font-size="10.00" fill="#000000">end_date </text>
<text text-anchor="start" x="69" y="-328.5" font-family="Arial Italic" font-size="10.00" fill="#999999">datetime</text>
<text text-anchor="start" x="26" y="-315.5" font-family="Arial" font-size="10.00" fill="#000000">name </text>
<text text-anchor="start" x="54" y="-315.5" font-family="Arial Italic" font-size="10.00" fill="#999999">string U</text>
<text text-anchor="start" x="26" y="-302.5" font-family="Arial" font-size="10.00" fill="#000000">rate1 </text>
<text text-anchor="start" x="51" y="-302.5" font-family="Arial Italic" font-size="10.00" fill="#999999">float</text>
<text text-anchor="start" x="26" y="-289.5" font-family="Arial" font-size="10.00" fill="#000000">rate2 </text>
<text text-anchor="start" x="51" y="-289.5" font-family="Arial Italic" font-size="10.00" fill="#999999">float</text>
</g>
<!-- m_Session&#45;&gt;m_Application -->
<g id="edge13" class="edge">
<title>m_Session&#45;&gt;m_Application</title>
<path fill="none" stroke="#000000" d="M290,-423.5C327.6415,-426.1682 369.4409,-426.5306 404.7773,-426.0816"/>
<polygon fill="#000000" stroke="#000000" points="405.136,-429.2267 414.0881,-425.9429 405.0421,-422.9274 405.136,-429.2267"/>
</g>
<!-- m_Session&#45;&gt;m_ContractTemplate -->
<g id="edge14" class="edge">
<title>m_Session&#45;&gt;m_ContractTemplate</title>
<path fill="none" stroke="#000000" d="M163.1249,-292.7061C178.3288,-285.3715 194.4575,-277.5909 209.9334,-270.1251"/>
<polygon fill="#000000" stroke="#000000" points="211.7167,-272.7623 218.454,-266.0146 208.9793,-267.088 211.7167,-272.7623"/>
</g>
<!-- m_Session&#45;&gt;m_Position -->
<g id="edge8" class="edge">
<title>m_Session&#45;&gt;m_Position</title>
<path fill="none" stroke="#000000" d="M157.3195,-375.0668C194.3825,-397.5083 242.5543,-420.1369 290,-423.5"/>
<path fill="none" stroke="#000000" d="M290,-423.5C315.258,-425.2904 362.8397,-395.4053 404.8538,-364.412"/>
<polygon fill="#000000" stroke="#000000" points="406.7471,-366.9296 412.0842,-359.0278 402.9843,-361.8767 406.7471,-366.9296"/>
</g>
<!-- m_User -->
<g id="node17" class="node">
<title>m_User</title>
<path fill="none" stroke="#000000" d="M31,-405.5C31,-405.5 151,-405.5 151,-405.5 157,-405.5 163,-411.5 163,-417.5 163,-417.5 163,-449.5 163,-449.5 163,-455.5 157,-461.5 151,-461.5 151,-461.5 31,-461.5 31,-461.5 25,-461.5 19,-455.5 19,-449.5 19,-449.5 19,-417.5 19,-417.5 19,-411.5 25,-405.5 31,-405.5"/>
<text text-anchor="start" x="76.5" y="-448.7" font-family="Arial Bold" font-size="11.00" fill="#000000">User</text>
<polyline fill="none" stroke="#000000" points="19,-441.5 163,-441.5 "/>
<text text-anchor="start" x="26" y="-428.5" font-family="Arial" font-size="10.00" fill="#000000">utorid </text>
<text text-anchor="start" x="54" y="-428.5" font-family="Arial Italic" font-size="10.00" fill="#999999">string ∗ U</text>
<text text-anchor="start" x="26" y="-415.5" font-family="Arial" font-size="10.00" fill="#000000">role </text>
<text text-anchor="start" x="45" y="-415.5" font-family="Arial Italic" font-size="10.00" fill="#999999">integer</text>
</g>
<!-- m_primary::SchemaMigration -->
<g id="node19" class="node">
<title>m_primary::SchemaMigration</title>
<path fill="none" stroke="#000000" d="M27.5,-491.5C27.5,-491.5 154.5,-491.5 154.5,-491.5 160.5,-491.5 166.5,-497.5 166.5,-503.5 166.5,-503.5 166.5,-515.5 166.5,-515.5 166.5,-521.5 160.5,-527.5 154.5,-527.5 154.5,-527.5 27.5,-527.5 27.5,-527.5 21.5,-527.5 15.5,-521.5 15.5,-515.5 15.5,-515.5 15.5,-503.5 15.5,-503.5 15.5,-497.5 21.5,-491.5 27.5,-491.5"/>
<text text-anchor="start" x="21" y="-506.7" font-family="Arial Bold" font-size="11.00" fill="#000000">primary::SchemaMigration</text>
</g>
</g>
</svg>
