<?xml version="1.0" encoding="UTF-8" standalone="no"?>
<!DOCTYPE svg PUBLIC "-//W3C//DTD SVG 1.1//EN"
 "http://www.w3.org/Graphics/SVG/1.1/DTD/svg11.dtd">
<!-- Generated by graphviz version 2.40.1 (0)
 -->
<!-- Title: Tapp Pages: 1 -->
<svg width="993pt" height="872pt"
 viewBox="0.00 0.00 992.60 872.10" xmlns="http://www.w3.org/2000/svg" xmlns:xlink="http://www.w3.org/1999/xlink">
<g id="graph0" class="graph" transform="scale(1 1) rotate(0) translate(28.8 843.3)">
<title>Tapp</title>
<polygon fill="#ffffff" stroke="transparent" points="-28.8,28.8 -28.8,-843.3 963.8,-843.3 963.8,28.8 -28.8,28.8"/>
<text text-anchor="middle" x="467.5" y="-800.1" font-family="Arial Bold" font-size="13.00" fill="#000000">ER Diagram</text>
<!-- m_ActiveRecord::InternalMetadata -->
<g id="node1" class="node">
<title>m_ActiveRecord::InternalMetadata</title>
<path fill="none" stroke="#000000" d="M14.5,-97C14.5,-97 166.5,-97 166.5,-97 172.5,-97 178.5,-103 178.5,-109 178.5,-109 178.5,-128 178.5,-128 178.5,-134 172.5,-140 166.5,-140 166.5,-140 14.5,-140 14.5,-140 8.5,-140 2.5,-134 2.5,-128 2.5,-128 2.5,-109 2.5,-109 2.5,-103 8.5,-97 14.5,-97"/>
<text text-anchor="start" x="7.5" y="-127.2" font-family="Arial Bold" font-size="11.00" fill="#000000">ActiveRecord::InternalMetadata</text>
<polyline fill="none" stroke="#000000" points="2.5,-120 178.5,-120 "/>
<text text-anchor="start" x="25.5" y="-106.5" font-family="Arial" font-size="10.00" fill="#000000">value </text>
<text text-anchor="start" x="52.5" y="-106.5" font-family="Arial Italic" font-size="10.00" fill="#999999">string</text>
</g>
<!-- m_ActiveRecord::SchemaMigration -->
<g id="node2" class="node">
<title>m_ActiveRecord::SchemaMigration</title>
<path fill="none" stroke="#000000" d="M12,-170.5C12,-170.5 169,-170.5 169,-170.5 175,-170.5 181,-176.5 181,-182.5 181,-182.5 181,-194.5 181,-194.5 181,-200.5 175,-206.5 169,-206.5 169,-206.5 12,-206.5 12,-206.5 6,-206.5 0,-200.5 0,-194.5 0,-194.5 0,-182.5 0,-182.5 0,-176.5 6,-170.5 12,-170.5"/>
<text text-anchor="start" x="5.5" y="-185.7" font-family="Arial Bold" font-size="11.00" fill="#000000">ActiveRecord::SchemaMigration</text>
</g>
<!-- m_Applicant -->
<g id="node3" class="node">
<title>m_Applicant</title>
<path fill="none" stroke="#000000" d="M234,-467.5C234,-467.5 354,-467.5 354,-467.5 360,-467.5 366,-473.5 366,-479.5 366,-479.5 366,-563.5 366,-563.5 366,-569.5 360,-575.5 354,-575.5 354,-575.5 234,-575.5 234,-575.5 228,-575.5 222,-569.5 222,-563.5 222,-563.5 222,-479.5 222,-479.5 222,-473.5 228,-467.5 234,-467.5"/>
<text text-anchor="start" x="266.5" y="-562.7" font-family="Arial Bold" font-size="11.00" fill="#000000">Applicant</text>
<polyline fill="none" stroke="#000000" points="222,-555.5 366,-555.5 "/>
<text text-anchor="start" x="229" y="-542.5" font-family="Arial" font-size="10.00" fill="#000000">utorid </text>
<text text-anchor="start" x="257" y="-542.5" font-family="Arial Italic" font-size="10.00" fill="#999999">string ∗ U</text>
<text text-anchor="start" x="229" y="-529.5" font-family="Arial" font-size="10.00" fill="#000000">student_number </text>
<text text-anchor="start" x="302" y="-529.5" font-family="Arial Italic" font-size="10.00" fill="#999999">string ∗ U</text>
<text text-anchor="start" x="229" y="-516.5" font-family="Arial" font-size="10.00" fill="#000000">first_name </text>
<text text-anchor="start" x="278" y="-516.5" font-family="Arial Italic" font-size="10.00" fill="#999999">string ∗</text>
<text text-anchor="start" x="229" y="-503.5" font-family="Arial" font-size="10.00" fill="#000000">last_name </text>
<text text-anchor="start" x="278" y="-503.5" font-family="Arial Italic" font-size="10.00" fill="#999999">string ∗</text>
<text text-anchor="start" x="229" y="-490.5" font-family="Arial" font-size="10.00" fill="#000000">email </text>
<text text-anchor="start" x="256" y="-490.5" font-family="Arial Italic" font-size="10.00" fill="#999999">string ∗</text>
<text text-anchor="start" x="229" y="-477.5" font-family="Arial" font-size="10.00" fill="#000000">phone </text>
<text text-anchor="start" x="259" y="-477.5" font-family="Arial Italic" font-size="10.00" fill="#999999">string</text>
</g>
<!-- m_ApplicantDataForMatching -->
<g id="node4" class="node">
<title>m_ApplicantDataForMatching</title>
<path fill="none" stroke="#000000" d="M421.5,-573C421.5,-573 556.5,-573 556.5,-573 562.5,-573 568.5,-579 568.5,-585 568.5,-585 568.5,-682 568.5,-682 568.5,-688 562.5,-694 556.5,-694 556.5,-694 421.5,-694 421.5,-694 415.5,-694 409.5,-688 409.5,-682 409.5,-682 409.5,-585 409.5,-585 409.5,-579 415.5,-573 421.5,-573"/>
<text text-anchor="start" x="419" y="-681.2" font-family="Arial Bold" font-size="11.00" fill="#000000">ApplicantDataForMatching</text>
<polyline fill="none" stroke="#000000" points="409.5,-674 568.5,-674 "/>
<text text-anchor="start" x="417" y="-660.5" font-family="Arial" font-size="10.00" fill="#000000">program </text>
<text text-anchor="start" x="456" y="-660.5" font-family="Arial Italic" font-size="10.00" fill="#999999">string</text>
<text text-anchor="start" x="417" y="-647.5" font-family="Arial" font-size="10.00" fill="#000000">department </text>
<text text-anchor="start" x="469" y="-647.5" font-family="Arial Italic" font-size="10.00" fill="#999999">string</text>
<text text-anchor="start" x="417" y="-634.5" font-family="Arial" font-size="10.00" fill="#000000">previous_uoft_ta_experience </text>
<text text-anchor="start" x="545" y="-634.5" font-family="Arial Italic" font-size="10.00" fill="#999999">text</text>
<text text-anchor="start" x="417" y="-621.5" font-family="Arial" font-size="10.00" fill="#000000">yip </text>
<text text-anchor="start" x="433" y="-621.5" font-family="Arial Italic" font-size="10.00" fill="#999999">integer</text>
<text text-anchor="start" x="417" y="-608.5" font-family="Arial" font-size="10.00" fill="#000000">annotation </text>
<text text-anchor="start" x="466" y="-608.5" font-family="Arial Italic" font-size="10.00" fill="#999999">string</text>
<text text-anchor="start" x="417" y="-595.5" font-family="Arial" font-size="10.00" fill="#000000">applicant_id </text>
<text text-anchor="start" x="472" y="-595.5" font-family="Arial Italic" font-size="10.00" fill="#999999">integer (8) FK</text>
<text text-anchor="start" x="417" y="-582.5" font-family="Arial" font-size="10.00" fill="#000000">application_id </text>
<text text-anchor="start" x="480" y="-582.5" font-family="Arial Italic" font-size="10.00" fill="#999999">integer (8) FK</text>
</g>
<!-- m_Applicant&#45;&gt;m_ApplicantDataForMatching -->
<g id="edge18" class="edge">
<title>m_Applicant&#45;&gt;m_ApplicantDataForMatching</title>
<path fill="none" stroke="#000000" d="M366.0568,-562.8865C377.5163,-569.4683 389.48,-576.3398 401.2522,-583.1013"/>
<polygon fill="#000000" stroke="#000000" points="399.9898,-586.0088 409.363,-587.7598 403.1276,-580.5457 399.9898,-586.0088"/>
</g>
<!-- m_Assignment -->
<g id="node6" class="node">
<title>m_Assignment</title>
<path fill="none" stroke="#000000" d="M429,-323C429,-323 549,-323 549,-323 555,-323 561,-329 561,-335 561,-335 561,-432 561,-432 561,-438 555,-444 549,-444 549,-444 429,-444 429,-444 423,-444 417,-438 417,-432 417,-432 417,-335 417,-335 417,-329 423,-323 429,-323"/>
<text text-anchor="start" x="455" y="-431.2" font-family="Arial Bold" font-size="11.00" fill="#000000">Assignment</text>
<polyline fill="none" stroke="#000000" points="417,-424 561,-424 "/>
<text text-anchor="start" x="424" y="-410.5" font-family="Arial" font-size="10.00" fill="#000000">contract_start </text>
<text text-anchor="start" x="488" y="-410.5" font-family="Arial Italic" font-size="10.00" fill="#999999">datetime</text>
<text text-anchor="start" x="424" y="-397.5" font-family="Arial" font-size="10.00" fill="#000000">contract_end </text>
<text text-anchor="start" x="484" y="-397.5" font-family="Arial Italic" font-size="10.00" fill="#999999">datetime</text>
<text text-anchor="start" x="424" y="-384.5" font-family="Arial" font-size="10.00" fill="#000000">note </text>
<text text-anchor="start" x="446" y="-384.5" font-family="Arial Italic" font-size="10.00" fill="#999999">text</text>
<text text-anchor="start" x="424" y="-371.5" font-family="Arial" font-size="10.00" fill="#000000">offer_override_pdf </text>
<text text-anchor="start" x="506" y="-371.5" font-family="Arial Italic" font-size="10.00" fill="#999999">string</text>
<text text-anchor="start" x="424" y="-358.5" font-family="Arial" font-size="10.00" fill="#000000">position_id </text>
<text text-anchor="start" x="474" y="-358.5" font-family="Arial Italic" font-size="10.00" fill="#999999">integer (8) FK</text>
<text text-anchor="start" x="424" y="-345.5" font-family="Arial" font-size="10.00" fill="#000000">applicant_id </text>
<text text-anchor="start" x="479" y="-345.5" font-family="Arial Italic" font-size="10.00" fill="#999999">integer (8) FK</text>
<text text-anchor="start" x="424" y="-332.5" font-family="Arial" font-size="10.00" fill="#000000">active_offer_id </text>
<text text-anchor="start" x="491" y="-332.5" font-family="Arial Italic" font-size="10.00" fill="#999999">integer (8)</text>
</g>
<!-- m_Applicant&#45;&gt;m_Assignment -->
<g id="edge13" class="edge">
<title>m_Applicant&#45;&gt;m_Assignment</title>
<path fill="none" stroke="#000000" d="M366.0568,-470.506C380.1922,-460.5025 395.0947,-449.956 409.4586,-439.7908"/>
<polygon fill="#000000" stroke="#000000" points="411.3872,-442.285 416.914,-434.5147 407.7479,-437.1425 411.3872,-442.285"/>
</g>
<!-- m_Application -->
<g id="node5" class="node">
<title>m_Application</title>
<path fill="none" stroke="#000000" d="M234,-605.5C234,-605.5 354,-605.5 354,-605.5 360,-605.5 366,-611.5 366,-617.5 366,-617.5 366,-649.5 366,-649.5 366,-655.5 360,-661.5 354,-661.5 354,-661.5 234,-661.5 234,-661.5 228,-661.5 222,-655.5 222,-649.5 222,-649.5 222,-617.5 222,-617.5 222,-611.5 228,-605.5 234,-605.5"/>
<text text-anchor="start" x="261.5" y="-648.7" font-family="Arial Bold" font-size="11.00" fill="#000000">Application</text>
<polyline fill="none" stroke="#000000" points="222,-641.5 366,-641.5 "/>
<text text-anchor="start" x="229" y="-628.5" font-family="Arial" font-size="10.00" fill="#000000">comments </text>
<text text-anchor="start" x="278" y="-628.5" font-family="Arial Italic" font-size="10.00" fill="#999999">text</text>
<text text-anchor="start" x="229" y="-615.5" font-family="Arial" font-size="10.00" fill="#000000">session_id </text>
<text text-anchor="start" x="279" y="-615.5" font-family="Arial Italic" font-size="10.00" fill="#999999">integer (8) FK</text>
</g>
<!-- m_Application&#45;&gt;m_ApplicantDataForMatching -->
<g id="edge15" class="edge">
<title>m_Application&#45;&gt;m_ApplicantDataForMatching</title>
<path fill="none" stroke="#000000" d="M366.0568,-633.5C380.1608,-633.5 395.0286,-633.5 409.363,-633.5"/>
</g>
<!-- m_PositionPreference -->
<g id="node12" class="node">
<title>m_PositionPreference</title>
<path fill="none" stroke="#000000" d="M429,-474C429,-474 549,-474 549,-474 555,-474 561,-480 561,-486 561,-486 561,-531 561,-531 561,-537 555,-543 549,-543 549,-543 429,-543 429,-543 423,-543 417,-537 417,-531 417,-531 417,-486 417,-486 417,-480 423,-474 429,-474"/>
<text text-anchor="start" x="436.5" y="-530.2" font-family="Arial Bold" font-size="11.00" fill="#000000">PositionPreference</text>
<polyline fill="none" stroke="#000000" points="417,-523 561,-523 "/>
<text text-anchor="start" x="424" y="-509.5" font-family="Arial" font-size="10.00" fill="#000000">position_id </text>
<text text-anchor="start" x="474" y="-509.5" font-family="Arial Italic" font-size="10.00" fill="#999999">integer (8) FK</text>
<text text-anchor="start" x="424" y="-496.5" font-family="Arial" font-size="10.00" fill="#000000">application_id </text>
<text text-anchor="start" x="487" y="-496.5" font-family="Arial Italic" font-size="10.00" fill="#999999">integer (8) FK</text>
<text text-anchor="start" x="424" y="-483.5" font-family="Arial" font-size="10.00" fill="#000000">preference_level </text>
<text text-anchor="start" x="499" y="-483.5" font-family="Arial Italic" font-size="10.00" fill="#999999">integer</text>
</g>
<!-- m_Application&#45;&gt;m_PositionPreference -->
<g id="edge17" class="edge">
<title>m_Application&#45;&gt;m_PositionPreference</title>
<path fill="none" stroke="#000000" d="M347.9439,-605.3552C355.8511,-600.6663 363.7619,-595.6452 371,-590.5 388.4481,-578.097 389.7923,-571.2345 407,-558.5 411.7727,-554.968 416.8042,-551.4511 421.9302,-548.0136"/>
<polygon fill="#000000" stroke="#000000" points="423.7009,-550.6192 429.4888,-543.0414 420.2386,-545.3559 423.7009,-550.6192"/>
</g>
<!-- m_Offer -->
<g id="node8" class="node">
<title>m_Offer</title>
<path fill="none" stroke="#000000" d="M619,-448C619,-448 742,-448 742,-448 748,-448 754,-454 754,-460 754,-460 754,-765 754,-765 754,-771 748,-777 742,-777 742,-777 619,-777 619,-777 613,-777 607,-771 607,-765 607,-765 607,-460 607,-460 607,-454 613,-448 619,-448"/>
<text text-anchor="start" x="665" y="-764.2" font-family="Arial Bold" font-size="11.00" fill="#000000">Offer</text>
<polyline fill="none" stroke="#000000" points="607,-757 754,-757 "/>
<text text-anchor="start" x="614.5" y="-743.5" font-family="Arial" font-size="10.00" fill="#000000">assignment_id </text>
<text text-anchor="start" x="681.5" y="-743.5" font-family="Arial Italic" font-size="10.00" fill="#999999">integer (8) FK</text>
<text text-anchor="start" x="614.5" y="-730.5" font-family="Arial" font-size="10.00" fill="#000000">offer_template </text>
<text text-anchor="start" x="680.5" y="-730.5" font-family="Arial Italic" font-size="10.00" fill="#999999">string</text>
<text text-anchor="start" x="614.5" y="-717.5" font-family="Arial" font-size="10.00" fill="#000000">offer_override_pdf </text>
<text text-anchor="start" x="696.5" y="-717.5" font-family="Arial Italic" font-size="10.00" fill="#999999">string</text>
<text text-anchor="start" x="614.5" y="-704.5" font-family="Arial" font-size="10.00" fill="#000000">first_name </text>
<text text-anchor="start" x="663.5" y="-704.5" font-family="Arial Italic" font-size="10.00" fill="#999999">string</text>
<text text-anchor="start" x="614.5" y="-691.5" font-family="Arial" font-size="10.00" fill="#000000">last_name </text>
<text text-anchor="start" x="663.5" y="-691.5" font-family="Arial Italic" font-size="10.00" fill="#999999">string</text>
<text text-anchor="start" x="614.5" y="-678.5" font-family="Arial" font-size="10.00" fill="#000000">email </text>
<text text-anchor="start" x="641.5" y="-678.5" font-family="Arial Italic" font-size="10.00" fill="#999999">string</text>
<text text-anchor="start" x="614.5" y="-665.5" font-family="Arial" font-size="10.00" fill="#000000">position_code </text>
<text text-anchor="start" x="678.5" y="-665.5" font-family="Arial Italic" font-size="10.00" fill="#999999">string</text>
<text text-anchor="start" x="614.5" y="-652.5" font-family="Arial" font-size="10.00" fill="#000000">position_title </text>
<text text-anchor="start" x="672.5" y="-652.5" font-family="Arial Italic" font-size="10.00" fill="#999999">string</text>
<text text-anchor="start" x="614.5" y="-639.5" font-family="Arial" font-size="10.00" fill="#000000">position_start_date </text>
<text text-anchor="start" x="700.5" y="-639.5" font-family="Arial Italic" font-size="10.00" fill="#999999">datetime</text>
<text text-anchor="start" x="614.5" y="-626.5" font-family="Arial" font-size="10.00" fill="#000000">position_end_date </text>
<text text-anchor="start" x="696.5" y="-626.5" font-family="Arial Italic" font-size="10.00" fill="#999999">datetime</text>
<text text-anchor="start" x="614.5" y="-613.5" font-family="Arial" font-size="10.00" fill="#000000">first_time_ta </text>
<text text-anchor="start" x="672.5" y="-613.5" font-family="Arial Italic" font-size="10.00" fill="#999999">boolean</text>
<text text-anchor="start" x="614.5" y="-600.5" font-family="Arial" font-size="10.00" fill="#000000">instructor_contact_desc </text>
<text text-anchor="start" x="722.5" y="-600.5" font-family="Arial Italic" font-size="10.00" fill="#999999">string</text>
<text text-anchor="start" x="614.5" y="-587.5" font-family="Arial" font-size="10.00" fill="#000000">pay_period_desc </text>
<text text-anchor="start" x="691.5" y="-587.5" font-family="Arial Italic" font-size="10.00" fill="#999999">string</text>
<text text-anchor="start" x="614.5" y="-574.5" font-family="Arial" font-size="10.00" fill="#000000">installments </text>
<text text-anchor="start" x="670.5" y="-574.5" font-family="Arial Italic" font-size="10.00" fill="#999999">integer</text>
<text text-anchor="start" x="614.5" y="-561.5" font-family="Arial" font-size="10.00" fill="#000000">ta_coordinator_name </text>
<text text-anchor="start" x="708.5" y="-561.5" font-family="Arial Italic" font-size="10.00" fill="#999999">string</text>
<text text-anchor="start" x="614.5" y="-548.5" font-family="Arial" font-size="10.00" fill="#000000">ta_coordinator_email </text>
<text text-anchor="start" x="708.5" y="-548.5" font-family="Arial Italic" font-size="10.00" fill="#999999">string</text>
<text text-anchor="start" x="614.5" y="-535.5" font-family="Arial" font-size="10.00" fill="#000000">emailed_date </text>
<text text-anchor="start" x="675.5" y="-535.5" font-family="Arial Italic" font-size="10.00" fill="#999999">datetime</text>
<text text-anchor="start" x="614.5" y="-522.5" font-family="Arial" font-size="10.00" fill="#000000">signature </text>
<text text-anchor="start" x="657.5" y="-522.5" font-family="Arial Italic" font-size="10.00" fill="#999999">string</text>
<text text-anchor="start" x="614.5" y="-509.5" font-family="Arial" font-size="10.00" fill="#000000">accepted_date </text>
<text text-anchor="start" x="681.5" y="-509.5" font-family="Arial Italic" font-size="10.00" fill="#999999">datetime</text>
<text text-anchor="start" x="614.5" y="-496.5" font-family="Arial" font-size="10.00" fill="#000000">rejected_date </text>
<text text-anchor="start" x="676.5" y="-496.5" font-family="Arial Italic" font-size="10.00" fill="#999999">datetime</text>
<text text-anchor="start" x="614.5" y="-483.5" font-family="Arial" font-size="10.00" fill="#000000">withdrawn_date </text>
<text text-anchor="start" x="686.5" y="-483.5" font-family="Arial Italic" font-size="10.00" fill="#999999">datetime</text>
<text text-anchor="start" x="614.5" y="-470.5" font-family="Arial" font-size="10.00" fill="#000000">nag_count </text>
<text text-anchor="start" x="663.5" y="-470.5" font-family="Arial Italic" font-size="10.00" fill="#999999">integer</text>
<text text-anchor="start" x="614.5" y="-457.5" font-family="Arial" font-size="10.00" fill="#000000">url_token </text>
<text text-anchor="start" x="657.5" y="-457.5" font-family="Arial Italic" font-size="10.00" fill="#999999">string</text>
</g>
<!-- m_Assignment&#45;&gt;m_Offer -->
<g id="edge12" class="edge">
<title>m_Assignment&#45;&gt;m_Offer</title>
<path fill="none" stroke="#000000" d="M556.7797,-444.2303C561.713,-449.2786 566.5088,-454.4027 571,-459.5 581.1989,-471.0754 591.3618,-483.5875 601.1546,-496.2966"/>
<polygon fill="#000000" stroke="#000000" points="598.9124,-498.551 606.8752,-503.7967 603.9216,-494.7303 598.9124,-498.551"/>
</g>
<!-- m_WageChunk -->
<g id="node17" class="node">
<title>m_WageChunk</title>
<path fill="none" stroke="#000000" d="M620.5,-323C620.5,-323 740.5,-323 740.5,-323 746.5,-323 752.5,-329 752.5,-335 752.5,-335 752.5,-406 752.5,-406 752.5,-412 746.5,-418 740.5,-418 740.5,-418 620.5,-418 620.5,-418 614.5,-418 608.5,-412 608.5,-406 608.5,-406 608.5,-335 608.5,-335 608.5,-329 614.5,-323 620.5,-323"/>
<text text-anchor="start" x="646.5" y="-405.2" font-family="Arial Bold" font-size="11.00" fill="#000000">WageChunk</text>
<polyline fill="none" stroke="#000000" points="608.5,-398 752.5,-398 "/>
<text text-anchor="start" x="615.5" y="-384.5" font-family="Arial" font-size="10.00" fill="#000000">hours </text>
<text text-anchor="start" x="643.5" y="-384.5" font-family="Arial Italic" font-size="10.00" fill="#999999">float</text>
<text text-anchor="start" x="615.5" y="-371.5" font-family="Arial" font-size="10.00" fill="#000000">rate </text>
<text text-anchor="start" x="635.5" y="-371.5" font-family="Arial Italic" font-size="10.00" fill="#999999">float</text>
<text text-anchor="start" x="615.5" y="-358.5" font-family="Arial" font-size="10.00" fill="#000000">start_date </text>
<text text-anchor="start" x="662.5" y="-358.5" font-family="Arial Italic" font-size="10.00" fill="#999999">datetime</text>
<text text-anchor="start" x="615.5" y="-345.5" font-family="Arial" font-size="10.00" fill="#000000">end_date </text>
<text text-anchor="start" x="658.5" y="-345.5" font-family="Arial Italic" font-size="10.00" fill="#999999">datetime</text>
<text text-anchor="start" x="615.5" y="-332.5" font-family="Arial" font-size="10.00" fill="#000000">assignment_id </text>
<text text-anchor="start" x="682.5" y="-332.5" font-family="Arial Italic" font-size="10.00" fill="#999999">integer (8) FK</text>
</g>
<!-- m_Assignment&#45;&gt;m_WageChunk -->
<g id="edge4" class="edge">
<title>m_Assignment&#45;&gt;m_WageChunk</title>
<path fill="none" stroke="#000000" d="M561.1251,-378.6038C573.5813,-377.7582 586.6064,-376.874 599.2836,-376.0134"/>
<polygon fill="#000000" stroke="#000000" points="599.674,-379.1442 608.4399,-375.3918 599.2472,-372.8587 599.674,-379.1442"/>
</g>
<!-- m_Instructor -->
<g id="node7" class="node">
<title>m_Instructor</title>
<path fill="none" stroke="#000000" d="M30.5,-236.5C30.5,-236.5 150.5,-236.5 150.5,-236.5 156.5,-236.5 162.5,-242.5 162.5,-248.5 162.5,-248.5 162.5,-306.5 162.5,-306.5 162.5,-312.5 156.5,-318.5 150.5,-318.5 150.5,-318.5 30.5,-318.5 30.5,-318.5 24.5,-318.5 18.5,-312.5 18.5,-306.5 18.5,-306.5 18.5,-248.5 18.5,-248.5 18.5,-242.5 24.5,-236.5 30.5,-236.5"/>
<text text-anchor="start" x="62.5" y="-305.7" font-family="Arial Bold" font-size="11.00" fill="#000000">Instructor</text>
<polyline fill="none" stroke="#000000" points="18.5,-298.5 162.5,-298.5 "/>
<text text-anchor="start" x="25.5" y="-285.5" font-family="Arial" font-size="10.00" fill="#000000">last_name </text>
<text text-anchor="start" x="74.5" y="-285.5" font-family="Arial Italic" font-size="10.00" fill="#999999">string ∗</text>
<text text-anchor="start" x="25.5" y="-272.5" font-family="Arial" font-size="10.00" fill="#000000">first_name </text>
<text text-anchor="start" x="74.5" y="-272.5" font-family="Arial Italic" font-size="10.00" fill="#999999">string ∗</text>
<text text-anchor="start" x="25.5" y="-259.5" font-family="Arial" font-size="10.00" fill="#000000">email </text>
<text text-anchor="start" x="52.5" y="-259.5" font-family="Arial Italic" font-size="10.00" fill="#999999">string ∗</text>
<text text-anchor="start" x="25.5" y="-246.5" font-family="Arial" font-size="10.00" fill="#000000">utorid </text>
<text text-anchor="start" x="53.5" y="-246.5" font-family="Arial Italic" font-size="10.00" fill="#999999">string ∗ U</text>
</g>
<!-- m_Position -->
<g id="node9" class="node">
<title>m_Position</title>
<path fill="none" stroke="#000000" d="M229,-217C229,-217 359,-217 359,-217 365,-217 371,-223 371,-229 371,-229 371,-326 371,-326 371,-332 365,-338 359,-338 359,-338 229,-338 229,-338 223,-338 217,-332 217,-326 217,-326 217,-229 217,-229 217,-223 223,-217 229,-217"/>
<text text-anchor="start" x="270" y="-325.2" font-family="Arial Bold" font-size="11.00" fill="#000000">Position</text>
<polyline fill="none" stroke="#000000" points="217,-318 371,-318 "/>
<text text-anchor="start" x="224" y="-304.5" font-family="Arial" font-size="10.00" fill="#000000">session_id </text>
<text text-anchor="start" x="274" y="-304.5" font-family="Arial Italic" font-size="10.00" fill="#999999">integer (8) FK</text>
<text text-anchor="start" x="224" y="-291.5" font-family="Arial" font-size="10.00" fill="#000000">position_code </text>
<text text-anchor="start" x="288" y="-291.5" font-family="Arial Italic" font-size="10.00" fill="#999999">string ∗ U</text>
<text text-anchor="start" x="224" y="-278.5" font-family="Arial" font-size="10.00" fill="#000000">position_title </text>
<text text-anchor="start" x="282" y="-278.5" font-family="Arial Italic" font-size="10.00" fill="#999999">string</text>
<text text-anchor="start" x="224" y="-265.5" font-family="Arial" font-size="10.00" fill="#000000">est_hours_per_assignment </text>
<text text-anchor="start" x="345" y="-265.5" font-family="Arial Italic" font-size="10.00" fill="#999999">float</text>
<text text-anchor="start" x="224" y="-252.5" font-family="Arial" font-size="10.00" fill="#000000">est_start_date </text>
<text text-anchor="start" x="290" y="-252.5" font-family="Arial Italic" font-size="10.00" fill="#999999">datetime</text>
<text text-anchor="start" x="224" y="-239.5" font-family="Arial" font-size="10.00" fill="#000000">est_end_date </text>
<text text-anchor="start" x="286" y="-239.5" font-family="Arial Italic" font-size="10.00" fill="#999999">datetime</text>
<text text-anchor="start" x="224" y="-226.5" font-family="Arial" font-size="10.00" fill="#000000">position_type </text>
<text text-anchor="start" x="285" y="-226.5" font-family="Arial Italic" font-size="10.00" fill="#999999">string</text>
</g>
<!-- m_Instructor&#45;&gt;m_Position -->
<g id="edge5" class="edge">
<title>m_Instructor&#45;&gt;m_Position</title>
<path fill="none" stroke="#000000" d="M171.7152,-277.5C183.5838,-277.5 195.8414,-277.5 207.8051,-277.5"/>
<polygon fill="#000000" stroke="#000000" points="171.5329,-274.3501 162.5329,-277.5 171.5328,-280.6501 171.5329,-274.3501"/>
<polygon fill="#000000" stroke="#000000" points="207.8852,-280.6501 216.8852,-277.5 207.8851,-274.3501 207.8852,-280.6501"/>
</g>
<!-- m_Position&#45;&gt;m_Application -->
<g id="edge10" class="edge">
<title>m_Position&#45;&gt;m_Application</title>
<path fill="none" stroke="#000000" stroke-dasharray="1,5" d="M217.6111,-338.1134C210.0984,-347.3063 203.5756,-357.3217 199,-368 180.795,-410.4861 179.0475,-534.306 199,-576 203.3964,-585.1869 210.0238,-593.0308 217.7742,-599.6947"/>
<polygon fill="#000000" stroke="#000000" points="216.1471,-602.4213 225.1759,-605.4876 220.0299,-597.4601 216.1471,-602.4213"/>
</g>
<!-- m_Position&#45;&gt;m_Assignment -->
<g id="edge8" class="edge">
<title>m_Position&#45;&gt;m_Assignment</title>
<path fill="none" stroke="#000000" d="M371.0692,-319.394C383.4697,-326.1348 396.3319,-333.1266 408.8039,-339.9062"/>
<polygon fill="#000000" stroke="#000000" points="407.5229,-342.7952 416.9346,-344.326 410.5317,-337.2601 407.5229,-342.7952"/>
</g>
<!-- m_PositionDataForAd -->
<g id="node10" class="node">
<title>m_PositionDataForAd</title>
<path fill="none" stroke="#000000" d="M425.5,-113C425.5,-113 552.5,-113 552.5,-113 558.5,-113 564.5,-119 564.5,-125 564.5,-125 564.5,-222 564.5,-222 564.5,-228 558.5,-234 552.5,-234 552.5,-234 425.5,-234 425.5,-234 419.5,-234 413.5,-228 413.5,-222 413.5,-222 413.5,-125 413.5,-125 413.5,-119 419.5,-113 425.5,-113"/>
<text text-anchor="start" x="436.5" y="-221.2" font-family="Arial Bold" font-size="11.00" fill="#000000">PositionDataForAd</text>
<polyline fill="none" stroke="#000000" points="413.5,-214 564.5,-214 "/>
<text text-anchor="start" x="421" y="-200.5" font-family="Arial" font-size="10.00" fill="#000000">duties </text>
<text text-anchor="start" x="451" y="-200.5" font-family="Arial Italic" font-size="10.00" fill="#999999">text</text>
<text text-anchor="start" x="421" y="-187.5" font-family="Arial" font-size="10.00" fill="#000000">qualifications </text>
<text text-anchor="start" x="482" y="-187.5" font-family="Arial Italic" font-size="10.00" fill="#999999">text</text>
<text text-anchor="start" x="421" y="-174.5" font-family="Arial" font-size="10.00" fill="#000000">ad_hours_per_assignment </text>
<text text-anchor="start" x="539" y="-174.5" font-family="Arial Italic" font-size="10.00" fill="#999999">float</text>
<text text-anchor="start" x="421" y="-161.5" font-family="Arial" font-size="10.00" fill="#000000">ad_num_assignments </text>
<text text-anchor="start" x="520" y="-161.5" font-family="Arial Italic" font-size="10.00" fill="#999999">integer</text>
<text text-anchor="start" x="421" y="-148.5" font-family="Arial" font-size="10.00" fill="#000000">ad_open_date </text>
<text text-anchor="start" x="485" y="-148.5" font-family="Arial Italic" font-size="10.00" fill="#999999">datetime</text>
<text text-anchor="start" x="421" y="-135.5" font-family="Arial" font-size="10.00" fill="#000000">ad_close_date </text>
<text text-anchor="start" x="488" y="-135.5" font-family="Arial Italic" font-size="10.00" fill="#999999">datetime</text>
<text text-anchor="start" x="421" y="-122.5" font-family="Arial" font-size="10.00" fill="#000000">position_id </text>
<text text-anchor="start" x="471" y="-122.5" font-family="Arial Italic" font-size="10.00" fill="#999999">integer (8) FK</text>
</g>
<!-- m_Position&#45;&gt;m_PositionDataForAd -->
<g id="edge2" class="edge">
<title>m_Position&#45;&gt;m_PositionDataForAd</title>
<path fill="none" stroke="#000000" d="M371.0692,-236.3964C385.015,-228.9587 399.5447,-221.2095 413.4466,-213.7952"/>
</g>
<!-- m_PositionDataForMatching -->
<g id="node11" class="node">
<title>m_PositionDataForMatching</title>
<path fill="none" stroke="#000000" d="M419,-.5C419,-.5 559,-.5 559,-.5 565,-.5 571,-6.5 571,-12.5 571,-12.5 571,-70.5 571,-70.5 571,-76.5 565,-82.5 559,-82.5 559,-82.5 419,-82.5 419,-82.5 413,-82.5 407,-76.5 407,-70.5 407,-70.5 407,-12.5 407,-12.5 407,-6.5 413,-.5 419,-.5"/>
<text text-anchor="start" x="422" y="-69.7" font-family="Arial Bold" font-size="11.00" fill="#000000">PositionDataForMatching</text>
<polyline fill="none" stroke="#000000" points="407,-62.5 571,-62.5 "/>
<text text-anchor="start" x="414" y="-49.5" font-family="Arial" font-size="10.00" fill="#000000">desired_num_assignments </text>
<text text-anchor="start" x="534" y="-49.5" font-family="Arial Italic" font-size="10.00" fill="#999999">integer</text>
<text text-anchor="start" x="414" y="-36.5" font-family="Arial" font-size="10.00" fill="#000000">current_enrollment </text>
<text text-anchor="start" x="498" y="-36.5" font-family="Arial Italic" font-size="10.00" fill="#999999">integer</text>
<text text-anchor="start" x="414" y="-23.5" font-family="Arial" font-size="10.00" fill="#000000">current_waitlisted </text>
<text text-anchor="start" x="494" y="-23.5" font-family="Arial Italic" font-size="10.00" fill="#999999">integer</text>
<text text-anchor="start" x="414" y="-10.5" font-family="Arial" font-size="10.00" fill="#000000">position_id </text>
<text text-anchor="start" x="464" y="-10.5" font-family="Arial Italic" font-size="10.00" fill="#999999">integer (8) FK</text>
</g>
<!-- m_Position&#45;&gt;m_PositionDataForMatching -->
<g id="edge11" class="edge">
<title>m_Position&#45;&gt;m_PositionDataForMatching</title>
<path fill="none" stroke="#000000" d="M323.8553,-216.8417C344.0238,-179.7115 373.1033,-132.7303 407,-97.5 412.0201,-92.2824 417.6001,-87.2695 423.4212,-82.5346"/>
</g>
<!-- m_Position&#45;&gt;m_PositionPreference -->
<g id="edge9" class="edge">
<title>m_Position&#45;&gt;m_PositionPreference</title>
<path fill="none" stroke="#000000" d="M360.0003,-338.0797C363.9874,-343.0859 367.7093,-348.2473 371,-353.5 397.4146,-395.6631 375.7233,-420.806 407,-459.5 409.2154,-462.2407 411.628,-464.8641 414.1898,-467.3707"/>
<polygon fill="#000000" stroke="#000000" points="412.4826,-470.0708 421.2865,-473.7334 416.6882,-465.3801 412.4826,-470.0708"/>
</g>
<!-- m_ReportingTag -->
<g id="node14" class="node">
<title>m_ReportingTag</title>
<path fill="none" stroke="#000000" d="M802,-290C802,-290 923,-290 923,-290 929,-290 935,-296 935,-302 935,-302 935,-347 935,-347 935,-353 929,-359 923,-359 923,-359 802,-359 802,-359 796,-359 790,-353 790,-347 790,-347 790,-302 790,-302 790,-296 796,-290 802,-290"/>
<text text-anchor="start" x="824.5" y="-346.2" font-family="Arial Bold" font-size="11.00" fill="#000000">ReportingTag</text>
<polyline fill="none" stroke="#000000" points="790,-339 935,-339 "/>
<text text-anchor="start" x="797.5" y="-325.5" font-family="Arial" font-size="10.00" fill="#000000">name </text>
<text text-anchor="start" x="825.5" y="-325.5" font-family="Arial Italic" font-size="10.00" fill="#999999">string</text>
<text text-anchor="start" x="797.5" y="-312.5" font-family="Arial" font-size="10.00" fill="#000000">position_id </text>
<text text-anchor="start" x="847.5" y="-312.5" font-family="Arial Italic" font-size="10.00" fill="#999999">integer (8) FK</text>
<text text-anchor="start" x="797.5" y="-299.5" font-family="Arial" font-size="10.00" fill="#000000">wage_chunk_id </text>
<text text-anchor="start" x="868.5" y="-299.5" font-family="Arial Italic" font-size="10.00" fill="#999999">integer (8) FK</text>
</g>
<!-- m_Position&#45;&gt;m_ReportingTag -->
<g id="edge7" class="edge">
<title>m_Position&#45;&gt;m_ReportingTag</title>
<path fill="none" stroke="#000000" d="M371.1002,-280.3998C462.624,-284.3337 619.7684,-292.6377 754,-307.5 762.7411,-308.4678 771.8545,-309.6388 780.9225,-310.9082"/>
<polygon fill="#000000" stroke="#000000" points="780.6032,-314.0446 789.9597,-312.2066 781.4992,-307.8086 780.6032,-314.0446"/>
</g>
<!-- m_PositionTemplate -->
<g id="node13" class="node">
<title>m_PositionTemplate</title>
<path fill="none" stroke="#000000" d="M234,-368C234,-368 354,-368 354,-368 360,-368 366,-374 366,-380 366,-380 366,-425 366,-425 366,-431 360,-437 354,-437 354,-437 234,-437 234,-437 228,-437 222,-431 222,-425 222,-425 222,-380 222,-380 222,-374 228,-368 234,-368"/>
<text text-anchor="start" x="246.5" y="-424.2" font-family="Arial Bold" font-size="11.00" fill="#000000">PositionTemplate</text>
<polyline fill="none" stroke="#000000" points="222,-417 366,-417 "/>
<text text-anchor="start" x="229" y="-403.5" font-family="Arial" font-size="10.00" fill="#000000">position_type </text>
<text text-anchor="start" x="290" y="-403.5" font-family="Arial Italic" font-size="10.00" fill="#999999">string</text>
<text text-anchor="start" x="229" y="-390.5" font-family="Arial" font-size="10.00" fill="#000000">offer_template </text>
<text text-anchor="start" x="295" y="-390.5" font-family="Arial Italic" font-size="10.00" fill="#999999">string</text>
<text text-anchor="start" x="229" y="-377.5" font-family="Arial" font-size="10.00" fill="#000000">session_id </text>
<text text-anchor="start" x="279" y="-377.5" font-family="Arial Italic" font-size="10.00" fill="#999999">integer (8) FK</text>
</g>
<!-- m_Session -->
<g id="node15" class="node">
<title>m_Session</title>
<path fill="none" stroke="#000000" d="M30.5,-355C30.5,-355 150.5,-355 150.5,-355 156.5,-355 162.5,-361 162.5,-367 162.5,-367 162.5,-438 162.5,-438 162.5,-444 156.5,-450 150.5,-450 150.5,-450 30.5,-450 30.5,-450 24.5,-450 18.5,-444 18.5,-438 18.5,-438 18.5,-367 18.5,-367 18.5,-361 24.5,-355 30.5,-355"/>
<text text-anchor="start" x="67" y="-437.2" font-family="Arial Bold" font-size="11.00" fill="#000000">Session</text>
<polyline fill="none" stroke="#000000" points="18.5,-430 162.5,-430 "/>
<text text-anchor="start" x="25.5" y="-416.5" font-family="Arial" font-size="10.00" fill="#000000">start_date </text>
<text text-anchor="start" x="72.5" y="-416.5" font-family="Arial Italic" font-size="10.00" fill="#999999">datetime</text>
<text text-anchor="start" x="25.5" y="-403.5" font-family="Arial" font-size="10.00" fill="#000000">end_date </text>
<text text-anchor="start" x="68.5" y="-403.5" font-family="Arial Italic" font-size="10.00" fill="#999999">datetime</text>
<text text-anchor="start" x="25.5" y="-390.5" font-family="Arial" font-size="10.00" fill="#000000">name </text>
<text text-anchor="start" x="53.5" y="-390.5" font-family="Arial Italic" font-size="10.00" fill="#999999">string U</text>
<text text-anchor="start" x="25.5" y="-377.5" font-family="Arial" font-size="10.00" fill="#000000">rate1 </text>
<text text-anchor="start" x="50.5" y="-377.5" font-family="Arial Italic" font-size="10.00" fill="#999999">float</text>
<text text-anchor="start" x="25.5" y="-364.5" font-family="Arial" font-size="10.00" fill="#000000">rate2 </text>
<text text-anchor="start" x="50.5" y="-364.5" font-family="Arial Italic" font-size="10.00" fill="#999999">float</text>
</g>
<!-- m_Session&#45;&gt;m_Application -->
<g id="edge14" class="edge">
<title>m_Session&#45;&gt;m_Application</title>
<path fill="none" stroke="#000000" d="M162.9324,-445.6759C169.6653,-451.7202 175.8722,-458.3407 181,-465.5 214.6642,-512.5015 181.0553,-545.2186 217,-590.5 219.4632,-593.603 222.2151,-596.518 225.1721,-599.2513"/>
<polygon fill="#000000" stroke="#000000" points="223.4808,-601.9434 232.405,-605.3024 227.5233,-597.1114 223.4808,-601.9434"/>
</g>
<!-- m_Session&#45;&gt;m_Position -->
<g id="edge6" class="edge">
<title>m_Session&#45;&gt;m_Position</title>
<path fill="none" stroke="#000000" d="M162.5329,-358.2538C177.5271,-349.0435 193.4651,-339.2536 208.8798,-329.7851"/>
<polygon fill="#000000" stroke="#000000" points="210.8651,-332.2625 216.8852,-324.8678 207.5676,-326.8944 210.8651,-332.2625"/>
</g>
<!-- m_Session&#45;&gt;m_PositionTemplate -->
<g id="edge1" class="edge">
<title>m_Session&#45;&gt;m_PositionTemplate</title>
<path fill="none" stroke="#000000" d="M162.5329,-402.5C178.7402,-402.5 196.0501,-402.5 212.6099,-402.5"/>
<polygon fill="#000000" stroke="#000000" points="212.7209,-405.6501 221.7208,-402.5 212.7208,-399.3501 212.7209,-405.6501"/>
</g>
<!-- m_User -->
<g id="node16" class="node">
<title>m_User</title>
<path fill="none" stroke="#000000" d="M30.5,-480.5C30.5,-480.5 150.5,-480.5 150.5,-480.5 156.5,-480.5 162.5,-486.5 162.5,-492.5 162.5,-492.5 162.5,-524.5 162.5,-524.5 162.5,-530.5 156.5,-536.5 150.5,-536.5 150.5,-536.5 30.5,-536.5 30.5,-536.5 24.5,-536.5 18.5,-530.5 18.5,-524.5 18.5,-524.5 18.5,-492.5 18.5,-492.5 18.5,-486.5 24.5,-480.5 30.5,-480.5"/>
<text text-anchor="start" x="76" y="-523.7" font-family="Arial Bold" font-size="11.00" fill="#000000">User</text>
<polyline fill="none" stroke="#000000" points="18.5,-516.5 162.5,-516.5 "/>
<text text-anchor="start" x="25.5" y="-503.5" font-family="Arial" font-size="10.00" fill="#000000">utorid </text>
<text text-anchor="start" x="53.5" y="-503.5" font-family="Arial Italic" font-size="10.00" fill="#999999">string ∗ U</text>
<text text-anchor="start" x="25.5" y="-490.5" font-family="Arial" font-size="10.00" fill="#000000">role </text>
<text text-anchor="start" x="44.5" y="-490.5" font-family="Arial Italic" font-size="10.00" fill="#999999">integer</text>
</g>
<!-- m_WageChunk&#45;&gt;m_ReportingTag -->
<g id="edge3" class="edge">
<title>m_WageChunk&#45;&gt;m_ReportingTag</title>
<path fill="none" stroke="#000000" d="M752.6926,-352.2535C761.9433,-349.9154 771.4651,-347.5088 780.8528,-345.1361"/>
<polygon fill="#000000" stroke="#000000" points="781.8453,-348.1344 789.799,-342.875 780.3014,-342.0265 781.8453,-348.1344"/>
</g>
</g>
</svg>
