<?xml version="1.0" encoding="UTF-8" standalone="no"?>
<!DOCTYPE svg PUBLIC "-//W3C//DTD SVG 1.1//EN"
 "http://www.w3.org/Graphics/SVG/1.1/DTD/svg11.dtd">
<!-- Generated by graphviz version 2.40.1 (0)
 -->
<!-- Title: Tapp Pages: 1 -->
<svg width="1416pt" height="846pt"
 viewBox="0.00 0.00 1415.60 846.10" xmlns="http://www.w3.org/2000/svg" xmlns:xlink="http://www.w3.org/1999/xlink">
<g id="graph0" class="graph" transform="scale(1 1) rotate(0) translate(28.8 817.3)">
<title>Tapp</title>
<polygon fill="#ffffff" stroke="transparent" points="-28.8,28.8 -28.8,-817.3 1386.8,-817.3 1386.8,28.8 -28.8,28.8"/>
<text text-anchor="middle" x="679" y="-774.1" font-family="Arial Bold" font-size="13.00" fill="#000000">ER Diagram</text>
<!-- m_ActiveRecord::InternalMetadata -->
<g id="node1" class="node">
<title>m_ActiveRecord::InternalMetadata</title>
<path fill="none" stroke="#000000" d="M12,-81C12,-81 224,-81 224,-81 230,-81 236,-87 236,-93 236,-93 236,-112 236,-112 236,-118 230,-124 224,-124 224,-124 12,-124 12,-124 6,-124 0,-118 0,-112 0,-112 0,-93 0,-93 0,-87 6,-81 12,-81"/>
<text text-anchor="start" x="5" y="-111.2" font-family="Arial Bold" font-size="11.00" fill="#000000">ActiveRecord::InternalMetadata</text>
<polyline fill="none" stroke="#000000" points="0,-104 236,-104 "/>
<text text-anchor="start" x="53" y="-90.5" font-family="Arial" font-size="10.00" fill="#000000">value </text>
<text text-anchor="start" x="99" y="-90.5" font-family="Arial Italic" font-size="10.00" fill="#999999">string</text>
</g>
<!-- m_ActiveRecord::SchemaMigration -->
<g id="node2" class="node">
<title>m_ActiveRecord::SchemaMigration</title>
<path fill="none" stroke="#000000" d="M16,-154.5C16,-154.5 220,-154.5 220,-154.5 226,-154.5 232,-160.5 232,-166.5 232,-166.5 232,-178.5 232,-178.5 232,-184.5 226,-190.5 220,-190.5 220,-190.5 16,-190.5 16,-190.5 10,-190.5 4,-184.5 4,-178.5 4,-178.5 4,-166.5 4,-166.5 4,-160.5 10,-154.5 16,-154.5"/>
<text text-anchor="start" x="9" y="-169.7" font-family="Arial Bold" font-size="11.00" fill="#000000">ActiveRecord::SchemaMigration</text>
</g>
<!-- m_Applicant -->
<g id="node3" class="node">
<title>m_Applicant</title>
<path fill="none" stroke="#000000" d="M302.5,-352.5C302.5,-352.5 481.5,-352.5 481.5,-352.5 487.5,-352.5 493.5,-358.5 493.5,-364.5 493.5,-364.5 493.5,-448.5 493.5,-448.5 493.5,-454.5 487.5,-460.5 481.5,-460.5 481.5,-460.5 302.5,-460.5 302.5,-460.5 296.5,-460.5 290.5,-454.5 290.5,-448.5 290.5,-448.5 290.5,-364.5 290.5,-364.5 290.5,-358.5 296.5,-352.5 302.5,-352.5"/>
<text text-anchor="start" x="356" y="-447.7" font-family="Arial Bold" font-size="11.00" fill="#000000">Applicant</text>
<polyline fill="none" stroke="#000000" points="290.5,-440.5 493.5,-440.5 "/>
<text text-anchor="start" x="298" y="-427.5" font-family="Arial" font-size="10.00" fill="#000000">utorid </text>
<text text-anchor="start" x="351" y="-427.5" font-family="Arial Italic" font-size="10.00" fill="#999999">string ∗ U</text>
<text text-anchor="start" x="298" y="-414.5" font-family="Arial" font-size="10.00" fill="#000000">student_number </text>
<text text-anchor="start" x="411" y="-414.5" font-family="Arial Italic" font-size="10.00" fill="#999999">string ∗ U</text>
<text text-anchor="start" x="298" y="-401.5" font-family="Arial" font-size="10.00" fill="#000000">first_name </text>
<text text-anchor="start" x="381" y="-401.5" font-family="Arial Italic" font-size="10.00" fill="#999999">string ∗</text>
<text text-anchor="start" x="298" y="-388.5" font-family="Arial" font-size="10.00" fill="#000000">last_name </text>
<text text-anchor="start" x="374" y="-388.5" font-family="Arial Italic" font-size="10.00" fill="#999999">string ∗</text>
<text text-anchor="start" x="298" y="-375.5" font-family="Arial" font-size="10.00" fill="#000000">email </text>
<text text-anchor="start" x="344" y="-375.5" font-family="Arial Italic" font-size="10.00" fill="#999999">string ∗</text>
<text text-anchor="start" x="298" y="-362.5" font-family="Arial" font-size="10.00" fill="#000000">phone </text>
<text text-anchor="start" x="344" y="-362.5" font-family="Arial Italic" font-size="10.00" fill="#999999">string</text>
</g>
<!-- m_ApplicantDataForMatching -->
<g id="node4" class="node">
<title>m_ApplicantDataForMatching</title>
<path fill="none" stroke="#000000" d="M567.5,-561C567.5,-561 799.5,-561 799.5,-561 805.5,-561 811.5,-567 811.5,-573 811.5,-573 811.5,-670 811.5,-670 811.5,-676 805.5,-682 799.5,-682 799.5,-682 567.5,-682 567.5,-682 561.5,-682 555.5,-676 555.5,-670 555.5,-670 555.5,-573 555.5,-573 555.5,-567 561.5,-561 567.5,-561"/>
<text text-anchor="start" x="593.5" y="-669.2" font-family="Arial Bold" font-size="11.00" fill="#000000">ApplicantDataForMatching</text>
<polyline fill="none" stroke="#000000" points="555.5,-662 811.5,-662 "/>
<text text-anchor="start" x="562.5" y="-648.5" font-family="Arial" font-size="10.00" fill="#000000">program </text>
<text text-anchor="start" x="623.5" y="-648.5" font-family="Arial Italic" font-size="10.00" fill="#999999">string</text>
<text text-anchor="start" x="562.5" y="-635.5" font-family="Arial" font-size="10.00" fill="#000000">department </text>
<text text-anchor="start" x="645.5" y="-635.5" font-family="Arial Italic" font-size="10.00" fill="#999999">string</text>
<text text-anchor="start" x="562.5" y="-622.5" font-family="Arial" font-size="10.00" fill="#000000">previous_uoft_ta_experience </text>
<text text-anchor="start" x="773.5" y="-622.5" font-family="Arial Italic" font-size="10.00" fill="#999999">text</text>
<text text-anchor="start" x="562.5" y="-609.5" font-family="Arial" font-size="10.00" fill="#000000">yip </text>
<text text-anchor="start" x="593.5" y="-609.5" font-family="Arial Italic" font-size="10.00" fill="#999999">integer</text>
<text text-anchor="start" x="562.5" y="-596.5" font-family="Arial" font-size="10.00" fill="#000000">annotation </text>
<text text-anchor="start" x="645.5" y="-596.5" font-family="Arial Italic" font-size="10.00" fill="#999999">string</text>
<text text-anchor="start" x="562.5" y="-583.5" font-family="Arial" font-size="10.00" fill="#000000">applicant_id </text>
<text text-anchor="start" x="660.5" y="-583.5" font-family="Arial Italic" font-size="10.00" fill="#999999">integer (8) FK</text>
<text text-anchor="start" x="562.5" y="-570.5" font-family="Arial" font-size="10.00" fill="#000000">application_id </text>
<text text-anchor="start" x="675.5" y="-570.5" font-family="Arial Italic" font-size="10.00" fill="#999999">integer (8) FK</text>
</g>
<!-- m_Applicant&#45;&gt;m_ApplicantDataForMatching -->
<g id="edge5" class="edge">
<title>m_Applicant&#45;&gt;m_ApplicantDataForMatching</title>
<path fill="none" stroke="#000000" d="M493.7736,-459.9312C500.2808,-465.11 506.4403,-470.6372 512,-476.5 536.0727,-501.8852 523.6427,-521.3878 548,-546.5 550.7378,-549.3227 553.605,-552.0676 556.5779,-554.7344"/>
<polygon fill="#000000" stroke="#000000" points="554.8065,-557.3641 563.6954,-560.8153 558.8988,-552.5742 554.8065,-557.3641"/>
</g>
<!-- m_Assignment -->
<g id="node6" class="node">
<title>m_Assignment</title>
<path fill="none" stroke="#000000" d="M586.5,-323.5C586.5,-323.5 780.5,-323.5 780.5,-323.5 786.5,-323.5 792.5,-329.5 792.5,-335.5 792.5,-335.5 792.5,-419.5 792.5,-419.5 792.5,-425.5 786.5,-431.5 780.5,-431.5 780.5,-431.5 586.5,-431.5 586.5,-431.5 580.5,-431.5 574.5,-425.5 574.5,-419.5 574.5,-419.5 574.5,-335.5 574.5,-335.5 574.5,-329.5 580.5,-323.5 586.5,-323.5"/>
<text text-anchor="start" x="643.5" y="-418.7" font-family="Arial Bold" font-size="11.00" fill="#000000">Assignment</text>
<polyline fill="none" stroke="#000000" points="574.5,-411.5 792.5,-411.5 "/>
<text text-anchor="start" x="581.5" y="-398.5" font-family="Arial" font-size="10.00" fill="#000000">contract_start </text>
<text text-anchor="start" x="694.5" y="-398.5" font-family="Arial Italic" font-size="10.00" fill="#999999">datetime</text>
<text text-anchor="start" x="581.5" y="-385.5" font-family="Arial" font-size="10.00" fill="#000000">contract_end </text>
<text text-anchor="start" x="679.5" y="-385.5" font-family="Arial Italic" font-size="10.00" fill="#999999">datetime</text>
<text text-anchor="start" x="581.5" y="-372.5" font-family="Arial" font-size="10.00" fill="#000000">note </text>
<text text-anchor="start" x="619.5" y="-372.5" font-family="Arial Italic" font-size="10.00" fill="#999999">text</text>
<text text-anchor="start" x="581.5" y="-359.5" font-family="Arial" font-size="10.00" fill="#000000">offer_override_pdf </text>
<text text-anchor="start" x="724.5" y="-359.5" font-family="Arial Italic" font-size="10.00" fill="#999999">string</text>
<text text-anchor="start" x="581.5" y="-346.5" font-family="Arial" font-size="10.00" fill="#000000">position_id </text>
<text text-anchor="start" x="672.5" y="-346.5" font-family="Arial Italic" font-size="10.00" fill="#999999">integer (8) FK</text>
<text text-anchor="start" x="581.5" y="-333.5" font-family="Arial" font-size="10.00" fill="#000000">applicant_id </text>
<text text-anchor="start" x="679.5" y="-333.5" font-family="Arial Italic" font-size="10.00" fill="#999999">integer (8) FK</text>
</g>
<!-- m_Applicant&#45;&gt;m_Assignment -->
<g id="edge2" class="edge">
<title>m_Applicant&#45;&gt;m_Assignment</title>
<path fill="none" stroke="#000000" d="M493.5433,-396.3979C516.7091,-394.0933 541.5206,-391.6249 565.3148,-389.2577"/>
<polygon fill="#000000" stroke="#000000" points="565.7349,-392.3816 574.3788,-388.356 565.1112,-386.1125 565.7349,-392.3816"/>
</g>
<!-- m_Application -->
<g id="node5" class="node">
<title>m_Application</title>
<path fill="none" stroke="#000000" d="M302.5,-563.5C302.5,-563.5 481.5,-563.5 481.5,-563.5 487.5,-563.5 493.5,-569.5 493.5,-575.5 493.5,-575.5 493.5,-607.5 493.5,-607.5 493.5,-613.5 487.5,-619.5 481.5,-619.5 481.5,-619.5 302.5,-619.5 302.5,-619.5 296.5,-619.5 290.5,-613.5 290.5,-607.5 290.5,-607.5 290.5,-575.5 290.5,-575.5 290.5,-569.5 296.5,-563.5 302.5,-563.5"/>
<text text-anchor="start" x="348.5" y="-606.7" font-family="Arial Bold" font-size="11.00" fill="#000000">Application</text>
<polyline fill="none" stroke="#000000" points="290.5,-599.5 493.5,-599.5 "/>
<text text-anchor="start" x="298" y="-586.5" font-family="Arial" font-size="10.00" fill="#000000">comments </text>
<text text-anchor="start" x="366" y="-586.5" font-family="Arial Italic" font-size="10.00" fill="#999999">text</text>
<text text-anchor="start" x="298" y="-573.5" font-family="Arial" font-size="10.00" fill="#000000">session_id </text>
<text text-anchor="start" x="381" y="-573.5" font-family="Arial Italic" font-size="10.00" fill="#999999">integer (8) FK</text>
</g>
<!-- m_Application&#45;&gt;m_Applicant -->
<g id="edge17" class="edge">
<title>m_Application&#45;&gt;m_Applicant</title>
<path fill="none" stroke="#000000" stroke-dasharray="1,5" d="M290.3326,-570.5335C274.8981,-562.3096 261.5991,-550.8796 254,-535 245.5585,-517.3602 245.5585,-508.6398 254,-491 262.0643,-474.1484 275.2509,-460.3498 290.3545,-449.1552"/>
</g>
<!-- m_Application&#45;&gt;m_ApplicantDataForMatching -->
<g id="edge16" class="edge">
<title>m_Application&#45;&gt;m_ApplicantDataForMatching</title>
<path fill="none" stroke="#000000" d="M493.5433,-601.9504C513.507,-604.005 534.6928,-606.1854 555.3966,-608.3161"/>
</g>
<!-- m_PositionPreference -->
<g id="node12" class="node">
<title>m_PositionPreference</title>
<path fill="none" stroke="#000000" d="M560,-462C560,-462 807,-462 807,-462 813,-462 819,-468 819,-474 819,-474 819,-519 819,-519 819,-525 813,-531 807,-531 807,-531 560,-531 560,-531 554,-531 548,-525 548,-519 548,-519 548,-474 548,-474 548,-468 554,-462 560,-462"/>
<text text-anchor="start" x="615.5" y="-518.2" font-family="Arial Bold" font-size="11.00" fill="#000000">PositionPreference</text>
<polyline fill="none" stroke="#000000" points="548,-511 819,-511 "/>
<text text-anchor="start" x="555.5" y="-497.5" font-family="Arial" font-size="10.00" fill="#000000">position_id </text>
<text text-anchor="start" x="646.5" y="-497.5" font-family="Arial Italic" font-size="10.00" fill="#999999">integer (8) FK</text>
<text text-anchor="start" x="555.5" y="-484.5" font-family="Arial" font-size="10.00" fill="#000000">preference_level_id </text>
<text text-anchor="start" x="706.5" y="-484.5" font-family="Arial Italic" font-size="10.00" fill="#999999">integer (8) FK</text>
<text text-anchor="start" x="555.5" y="-471.5" font-family="Arial" font-size="10.00" fill="#000000">application_id </text>
<text text-anchor="start" x="668.5" y="-471.5" font-family="Arial Italic" font-size="10.00" fill="#999999">integer (8) FK</text>
</g>
<!-- m_Application&#45;&gt;m_PositionPreference -->
<g id="edge18" class="edge">
<title>m_Application&#45;&gt;m_PositionPreference</title>
<path fill="none" stroke="#000000" d="M478.2765,-563.3825C506.6209,-554.145 538.5874,-543.7271 568.7052,-533.9117"/>
<polygon fill="#000000" stroke="#000000" points="569.984,-536.8081 577.5649,-531.0243 568.0318,-530.8181 569.984,-536.8081"/>
</g>
<!-- m_Offer -->
<g id="node8" class="node">
<title>m_Offer</title>
<path fill="none" stroke="#000000" d="M867,-448C867,-448 1084,-448 1084,-448 1090,-448 1096,-454 1096,-460 1096,-460 1096,-739 1096,-739 1096,-745 1090,-751 1084,-751 1084,-751 867,-751 867,-751 861,-751 855,-745 855,-739 855,-739 855,-460 855,-460 855,-454 861,-448 867,-448"/>
<text text-anchor="start" x="954.5" y="-738.2" font-family="Arial Bold" font-size="11.00" fill="#000000">Offer</text>
<polyline fill="none" stroke="#000000" points="855,-731 1096,-731 "/>
<text text-anchor="start" x="862.5" y="-717.5" font-family="Arial" font-size="10.00" fill="#000000">assignment_id </text>
<text text-anchor="start" x="968.5" y="-717.5" font-family="Arial Italic" font-size="10.00" fill="#999999">integer (8) FK</text>
<text text-anchor="start" x="862.5" y="-704.5" font-family="Arial" font-size="10.00" fill="#000000">offer_template </text>
<text text-anchor="start" x="975.5" y="-704.5" font-family="Arial Italic" font-size="10.00" fill="#999999">string</text>
<text text-anchor="start" x="862.5" y="-691.5" font-family="Arial" font-size="10.00" fill="#000000">offer_override_pdf </text>
<text text-anchor="start" x="1005.5" y="-691.5" font-family="Arial Italic" font-size="10.00" fill="#999999">string</text>
<text text-anchor="start" x="862.5" y="-678.5" font-family="Arial" font-size="10.00" fill="#000000">first_name </text>
<text text-anchor="start" x="945.5" y="-678.5" font-family="Arial Italic" font-size="10.00" fill="#999999">string</text>
<text text-anchor="start" x="862.5" y="-665.5" font-family="Arial" font-size="10.00" fill="#000000">last_name </text>
<text text-anchor="start" x="938.5" y="-665.5" font-family="Arial Italic" font-size="10.00" fill="#999999">string</text>
<text text-anchor="start" x="862.5" y="-652.5" font-family="Arial" font-size="10.00" fill="#000000">email </text>
<text text-anchor="start" x="908.5" y="-652.5" font-family="Arial Italic" font-size="10.00" fill="#999999">string</text>
<text text-anchor="start" x="862.5" y="-639.5" font-family="Arial" font-size="10.00" fill="#000000">position_code </text>
<text text-anchor="start" x="968.5" y="-639.5" font-family="Arial Italic" font-size="10.00" fill="#999999">string</text>
<text text-anchor="start" x="862.5" y="-626.5" font-family="Arial" font-size="10.00" fill="#000000">position_title </text>
<text text-anchor="start" x="975.5" y="-626.5" font-family="Arial Italic" font-size="10.00" fill="#999999">string</text>
<text text-anchor="start" x="862.5" y="-613.5" font-family="Arial" font-size="10.00" fill="#000000">position_start_date </text>
<text text-anchor="start" x="1013.5" y="-613.5" font-family="Arial Italic" font-size="10.00" fill="#999999">datetime</text>
<text text-anchor="start" x="862.5" y="-600.5" font-family="Arial" font-size="10.00" fill="#000000">position_end_date </text>
<text text-anchor="start" x="998.5" y="-600.5" font-family="Arial Italic" font-size="10.00" fill="#999999">datetime</text>
<text text-anchor="start" x="862.5" y="-587.5" font-family="Arial" font-size="10.00" fill="#000000">first_time_ta </text>
<text text-anchor="start" x="968.5" y="-587.5" font-family="Arial Italic" font-size="10.00" fill="#999999">boolean</text>
<text text-anchor="start" x="862.5" y="-574.5" font-family="Arial" font-size="10.00" fill="#000000">instructor_contact_desc </text>
<text text-anchor="start" x="1043.5" y="-574.5" font-family="Arial Italic" font-size="10.00" fill="#999999">string</text>
<text text-anchor="start" x="862.5" y="-561.5" font-family="Arial" font-size="10.00" fill="#000000">pay_period_desc </text>
<text text-anchor="start" x="983.5" y="-561.5" font-family="Arial Italic" font-size="10.00" fill="#999999">string</text>
<text text-anchor="start" x="862.5" y="-548.5" font-family="Arial" font-size="10.00" fill="#000000">installments </text>
<text text-anchor="start" x="960.5" y="-548.5" font-family="Arial Italic" font-size="10.00" fill="#999999">integer</text>
<text text-anchor="start" x="862.5" y="-535.5" font-family="Arial" font-size="10.00" fill="#000000">ta_coordinator_name </text>
<text text-anchor="start" x="1013.5" y="-535.5" font-family="Arial Italic" font-size="10.00" fill="#999999">string</text>
<text text-anchor="start" x="862.5" y="-522.5" font-family="Arial" font-size="10.00" fill="#000000">ta_coordinator_email </text>
<text text-anchor="start" x="1020.5" y="-522.5" font-family="Arial Italic" font-size="10.00" fill="#999999">string</text>
<text text-anchor="start" x="862.5" y="-509.5" font-family="Arial" font-size="10.00" fill="#000000">emailed_date </text>
<text text-anchor="start" x="960.5" y="-509.5" font-family="Arial Italic" font-size="10.00" fill="#999999">datetime</text>
<text text-anchor="start" x="862.5" y="-496.5" font-family="Arial" font-size="10.00" fill="#000000">signature </text>
<text text-anchor="start" x="938.5" y="-496.5" font-family="Arial Italic" font-size="10.00" fill="#999999">string</text>
<text text-anchor="start" x="862.5" y="-483.5" font-family="Arial" font-size="10.00" fill="#000000">accepted_date </text>
<text text-anchor="start" x="968.5" y="-483.5" font-family="Arial Italic" font-size="10.00" fill="#999999">datetime</text>
<text text-anchor="start" x="862.5" y="-470.5" font-family="Arial" font-size="10.00" fill="#000000">rejected_date </text>
<text text-anchor="start" x="968.5" y="-470.5" font-family="Arial Italic" font-size="10.00" fill="#999999">datetime</text>
<text text-anchor="start" x="862.5" y="-457.5" font-family="Arial" font-size="10.00" fill="#000000">withdrawn_date </text>
<text text-anchor="start" x="975.5" y="-457.5" font-family="Arial Italic" font-size="10.00" fill="#999999">datetime</text>
</g>
<!-- m_Assignment&#45;&gt;m_Offer -->
<g id="edge1" class="edge">
<title>m_Assignment&#45;&gt;m_Offer</title>
<path fill="none" stroke="#000000" d="M792.8105,-430.3314C801.8761,-435.7983 810.726,-441.5452 819,-447.5 828.554,-454.3761 838.0948,-461.8228 847.4848,-469.6002"/>
<polygon fill="#000000" stroke="#000000" points="845.717,-472.2293 854.6336,-475.6082 849.7703,-467.4063 845.717,-472.2293"/>
</g>
<!-- m_WageChunk -->
<g id="node18" class="node">
<title>m_WageChunk</title>
<path fill="none" stroke="#000000" d="M874.5,-323C874.5,-323 1076.5,-323 1076.5,-323 1082.5,-323 1088.5,-329 1088.5,-335 1088.5,-335 1088.5,-406 1088.5,-406 1088.5,-412 1082.5,-418 1076.5,-418 1076.5,-418 874.5,-418 874.5,-418 868.5,-418 862.5,-412 862.5,-406 862.5,-406 862.5,-335 862.5,-335 862.5,-329 868.5,-323 874.5,-323"/>
<text text-anchor="start" x="939.5" y="-405.2" font-family="Arial Bold" font-size="11.00" fill="#000000">WageChunk</text>
<polyline fill="none" stroke="#000000" points="862.5,-398 1088.5,-398 "/>
<text text-anchor="start" x="869.5" y="-384.5" font-family="Arial" font-size="10.00" fill="#000000">hours </text>
<text text-anchor="start" x="915.5" y="-384.5" font-family="Arial Italic" font-size="10.00" fill="#999999">float</text>
<text text-anchor="start" x="869.5" y="-371.5" font-family="Arial" font-size="10.00" fill="#000000">rate </text>
<text text-anchor="start" x="907.5" y="-371.5" font-family="Arial Italic" font-size="10.00" fill="#999999">float</text>
<text text-anchor="start" x="869.5" y="-358.5" font-family="Arial" font-size="10.00" fill="#000000">start_date </text>
<text text-anchor="start" x="952.5" y="-358.5" font-family="Arial Italic" font-size="10.00" fill="#999999">datetime</text>
<text text-anchor="start" x="869.5" y="-345.5" font-family="Arial" font-size="10.00" fill="#000000">end_date </text>
<text text-anchor="start" x="937.5" y="-345.5" font-family="Arial Italic" font-size="10.00" fill="#999999">datetime</text>
<text text-anchor="start" x="869.5" y="-332.5" font-family="Arial" font-size="10.00" fill="#000000">assignment_id </text>
<text text-anchor="start" x="975.5" y="-332.5" font-family="Arial Italic" font-size="10.00" fill="#999999">integer (8) FK</text>
</g>
<!-- m_Assignment&#45;&gt;m_WageChunk -->
<g id="edge4" class="edge">
<title>m_Assignment&#45;&gt;m_WageChunk</title>
<path fill="none" stroke="#000000" d="M792.6453,-374.8835C812.3117,-374.412 832.9328,-373.9177 852.95,-373.4378"/>
<polygon fill="#000000" stroke="#000000" points="853.1772,-376.5834 862.0991,-373.2185 853.0261,-370.2852 853.1772,-376.5834"/>
</g>
<!-- m_Instructor -->
<g id="node7" class="node">
<title>m_Instructor</title>
<path fill="none" stroke="#000000" d="M51,-220.5C51,-220.5 185,-220.5 185,-220.5 191,-220.5 197,-226.5 197,-232.5 197,-232.5 197,-290.5 197,-290.5 197,-296.5 191,-302.5 185,-302.5 185,-302.5 51,-302.5 51,-302.5 45,-302.5 39,-296.5 39,-290.5 39,-290.5 39,-232.5 39,-232.5 39,-226.5 45,-220.5 51,-220.5"/>
<text text-anchor="start" x="78" y="-289.7" font-family="Arial Bold" font-size="11.00" fill="#000000">Instructor</text>
<polyline fill="none" stroke="#000000" points="39,-282.5 197,-282.5 "/>
<text text-anchor="start" x="46" y="-269.5" font-family="Arial" font-size="10.00" fill="#000000">last_name </text>
<text text-anchor="start" x="122" y="-269.5" font-family="Arial Italic" font-size="10.00" fill="#999999">string ∗</text>
<text text-anchor="start" x="46" y="-256.5" font-family="Arial" font-size="10.00" fill="#000000">first_name </text>
<text text-anchor="start" x="129" y="-256.5" font-family="Arial Italic" font-size="10.00" fill="#999999">string ∗</text>
<text text-anchor="start" x="46" y="-243.5" font-family="Arial" font-size="10.00" fill="#000000">email </text>
<text text-anchor="start" x="92" y="-243.5" font-family="Arial Italic" font-size="10.00" fill="#999999">string ∗</text>
<text text-anchor="start" x="46" y="-230.5" font-family="Arial" font-size="10.00" fill="#000000">utorid </text>
<text text-anchor="start" x="99" y="-230.5" font-family="Arial Italic" font-size="10.00" fill="#999999">string ∗ U</text>
</g>
<!-- m_Position -->
<g id="node9" class="node">
<title>m_Position</title>
<path fill="none" stroke="#000000" d="M284,-201C284,-201 500,-201 500,-201 506,-201 512,-207 512,-213 512,-213 512,-310 512,-310 512,-316 506,-322 500,-322 500,-322 284,-322 284,-322 278,-322 272,-316 272,-310 272,-310 272,-213 272,-213 272,-207 278,-201 284,-201"/>
<text text-anchor="start" x="359.5" y="-309.2" font-family="Arial Bold" font-size="11.00" fill="#000000">Position</text>
<polyline fill="none" stroke="#000000" points="272,-302 512,-302 "/>
<text text-anchor="start" x="279" y="-288.5" font-family="Arial" font-size="10.00" fill="#000000">session_id </text>
<text text-anchor="start" x="362" y="-288.5" font-family="Arial Italic" font-size="10.00" fill="#999999">integer (8) FK</text>
<text text-anchor="start" x="279" y="-275.5" font-family="Arial" font-size="10.00" fill="#000000">position_code </text>
<text text-anchor="start" x="385" y="-275.5" font-family="Arial Italic" font-size="10.00" fill="#999999">string</text>
<text text-anchor="start" x="279" y="-262.5" font-family="Arial" font-size="10.00" fill="#000000">position_title </text>
<text text-anchor="start" x="392" y="-262.5" font-family="Arial Italic" font-size="10.00" fill="#999999">string</text>
<text text-anchor="start" x="279" y="-249.5" font-family="Arial" font-size="10.00" fill="#000000">est_hours_per_assignment </text>
<text text-anchor="start" x="467" y="-249.5" font-family="Arial Italic" font-size="10.00" fill="#999999">float</text>
<text text-anchor="start" x="279" y="-236.5" font-family="Arial" font-size="10.00" fill="#000000">est_start_date </text>
<text text-anchor="start" x="392" y="-236.5" font-family="Arial Italic" font-size="10.00" fill="#999999">datetime</text>
<text text-anchor="start" x="279" y="-223.5" font-family="Arial" font-size="10.00" fill="#000000">est_end_date </text>
<text text-anchor="start" x="377" y="-223.5" font-family="Arial Italic" font-size="10.00" fill="#999999">datetime</text>
<text text-anchor="start" x="279" y="-210.5" font-family="Arial" font-size="10.00" fill="#000000">position_type </text>
<text text-anchor="start" x="385" y="-210.5" font-family="Arial Italic" font-size="10.00" fill="#999999">string</text>
</g>
<!-- m_Instructor&#45;&gt;m_Position -->
<g id="edge7" class="edge">
<title>m_Instructor&#45;&gt;m_Position</title>
<path fill="none" stroke="#000000" d="M206.3962,-261.5C224.4129,-261.5 243.7181,-261.5 262.8198,-261.5"/>
<polygon fill="#000000" stroke="#000000" points="206.2522,-258.3501 197.2522,-261.5 206.2521,-264.6501 206.2522,-258.3501"/>
<polygon fill="#000000" stroke="#000000" points="262.8741,-264.6501 271.8741,-261.5 262.8741,-258.3501 262.8741,-264.6501"/>
</g>
<!-- m_Position&#45;&gt;m_Application -->
<g id="edge11" class="edge">
<title>m_Position&#45;&gt;m_Application</title>
<path fill="none" stroke="#000000" stroke-dasharray="1,5" d="M275.4171,-322.1183C266.743,-330.9542 259.318,-340.8871 254,-352 236.4456,-388.6827 236.4456,-498.3173 254,-535 260.2337,-548.0262 270.3028,-558.0583 282.2399,-565.7825"/>
<polygon fill="#000000" stroke="#000000" points="280.9764,-568.6935 290.3326,-570.5335 284.166,-563.2605 280.9764,-568.6935"/>
</g>
<!-- m_Position&#45;&gt;m_Assignment -->
<g id="edge3" class="edge">
<title>m_Position&#45;&gt;m_Assignment</title>
<path fill="none" stroke="#000000" d="M512.2472,-309.3514C529.9028,-316.3773 548.0737,-323.6082 565.6798,-330.6144"/>
<polygon fill="#000000" stroke="#000000" points="564.7458,-333.6329 574.2727,-334.0339 567.0752,-327.7794 564.7458,-333.6329"/>
</g>
<!-- m_PositionDataForAd -->
<g id="node10" class="node">
<title>m_PositionDataForAd</title>
<path fill="none" stroke="#000000" d="M579,-113C579,-113 788,-113 788,-113 794,-113 800,-119 800,-125 800,-125 800,-222 800,-222 800,-228 794,-234 788,-234 788,-234 579,-234 579,-234 573,-234 567,-228 567,-222 567,-222 567,-125 567,-125 567,-119 573,-113 579,-113"/>
<text text-anchor="start" x="617.5" y="-221.2" font-family="Arial Bold" font-size="11.00" fill="#000000">PositionDataForAd</text>
<polyline fill="none" stroke="#000000" points="567,-214 800,-214 "/>
<text text-anchor="start" x="574.5" y="-200.5" font-family="Arial" font-size="10.00" fill="#000000">duties </text>
<text text-anchor="start" x="627.5" y="-200.5" font-family="Arial Italic" font-size="10.00" fill="#999999">text</text>
<text text-anchor="start" x="574.5" y="-187.5" font-family="Arial" font-size="10.00" fill="#000000">qualifications </text>
<text text-anchor="start" x="687.5" y="-187.5" font-family="Arial Italic" font-size="10.00" fill="#999999">text</text>
<text text-anchor="start" x="574.5" y="-174.5" font-family="Arial" font-size="10.00" fill="#000000">ad_hours_per_assignment </text>
<text text-anchor="start" x="755.5" y="-174.5" font-family="Arial Italic" font-size="10.00" fill="#999999">float</text>
<text text-anchor="start" x="574.5" y="-161.5" font-family="Arial" font-size="10.00" fill="#000000">ad_num_assignments </text>
<text text-anchor="start" x="717.5" y="-161.5" font-family="Arial Italic" font-size="10.00" fill="#999999">integer</text>
<text text-anchor="start" x="574.5" y="-148.5" font-family="Arial" font-size="10.00" fill="#000000">ad_open_date </text>
<text text-anchor="start" x="672.5" y="-148.5" font-family="Arial Italic" font-size="10.00" fill="#999999">datetime</text>
<text text-anchor="start" x="574.5" y="-135.5" font-family="Arial" font-size="10.00" fill="#000000">ad_close_date </text>
<text text-anchor="start" x="680.5" y="-135.5" font-family="Arial Italic" font-size="10.00" fill="#999999">datetime</text>
<text text-anchor="start" x="574.5" y="-122.5" font-family="Arial" font-size="10.00" fill="#000000">position_id </text>
<text text-anchor="start" x="665.5" y="-122.5" font-family="Arial Italic" font-size="10.00" fill="#999999">integer (8) FK</text>
</g>
<!-- m_Position&#45;&gt;m_PositionDataForAd -->
<g id="edge12" class="edge">
<title>m_Position&#45;&gt;m_PositionDataForAd</title>
<path fill="none" stroke="#000000" d="M512.2472,-225.199C530.2826,-219.7543 548.8558,-214.1473 566.8153,-208.7256"/>
</g>
<!-- m_PositionDataForMatching -->
<g id="node11" class="node">
<title>m_PositionDataForMatching</title>
<path fill="none" stroke="#000000" d="M571.5,-.5C571.5,-.5 795.5,-.5 795.5,-.5 801.5,-.5 807.5,-6.5 807.5,-12.5 807.5,-12.5 807.5,-70.5 807.5,-70.5 807.5,-76.5 801.5,-82.5 795.5,-82.5 795.5,-82.5 571.5,-82.5 571.5,-82.5 565.5,-82.5 559.5,-76.5 559.5,-70.5 559.5,-70.5 559.5,-12.5 559.5,-12.5 559.5,-6.5 565.5,-.5 571.5,-.5"/>
<text text-anchor="start" x="597.5" y="-69.7" font-family="Arial Bold" font-size="11.00" fill="#000000">PositionDataForMatching</text>
<polyline fill="none" stroke="#000000" points="559.5,-62.5 807.5,-62.5 "/>
<text text-anchor="start" x="566.5" y="-49.5" font-family="Arial" font-size="10.00" fill="#000000">desired_num_assignments </text>
<text text-anchor="start" x="747.5" y="-49.5" font-family="Arial Italic" font-size="10.00" fill="#999999">integer</text>
<text text-anchor="start" x="566.5" y="-36.5" font-family="Arial" font-size="10.00" fill="#000000">current_enrollment </text>
<text text-anchor="start" x="709.5" y="-36.5" font-family="Arial Italic" font-size="10.00" fill="#999999">integer</text>
<text text-anchor="start" x="566.5" y="-23.5" font-family="Arial" font-size="10.00" fill="#000000">current_waitlisted </text>
<text text-anchor="start" x="709.5" y="-23.5" font-family="Arial Italic" font-size="10.00" fill="#999999">integer</text>
<text text-anchor="start" x="566.5" y="-10.5" font-family="Arial" font-size="10.00" fill="#000000">position_id </text>
<text text-anchor="start" x="657.5" y="-10.5" font-family="Arial Italic" font-size="10.00" fill="#999999">integer (8) FK</text>
</g>
<!-- m_Position&#45;&gt;m_PositionDataForMatching -->
<g id="edge6" class="edge">
<title>m_Position&#45;&gt;m_PositionDataForMatching</title>
<path fill="none" stroke="#000000" d="M438.8894,-200.8364C467.5192,-166.9486 506.5192,-125.9486 548,-97.5 555.7669,-92.1732 564.1192,-87.2165 572.7254,-82.634"/>
</g>
<!-- m_Position&#45;&gt;m_PositionPreference -->
<g id="edge10" class="edge">
<title>m_Position&#45;&gt;m_PositionPreference</title>
<path fill="none" stroke="#000000" d="M497.8994,-322.0173C502.9982,-326.8942 507.7523,-332.0563 512,-337.5 543.3853,-377.7222 512.5524,-409.8076 548,-446.5 551.4844,-450.1068 555.2514,-453.4551 559.2355,-456.5635"/>
<polygon fill="#000000" stroke="#000000" points="557.4873,-459.1865 566.6274,-461.9033 561.1765,-454.0796 557.4873,-459.1865"/>
</g>
<!-- m_ReportingTag -->
<g id="node15" class="node">
<title>m_ReportingTag</title>
<path fill="none" stroke="#000000" d="M1144,-290C1144,-290 1346,-290 1346,-290 1352,-290 1358,-296 1358,-302 1358,-302 1358,-347 1358,-347 1358,-353 1352,-359 1346,-359 1346,-359 1144,-359 1144,-359 1138,-359 1132,-353 1132,-347 1132,-347 1132,-302 1132,-302 1132,-296 1138,-290 1144,-290"/>
<text text-anchor="start" x="1197.5" y="-346.2" font-family="Arial Bold" font-size="11.00" fill="#000000">ReportingTag</text>
<polyline fill="none" stroke="#000000" points="1132,-339 1358,-339 "/>
<text text-anchor="start" x="1139" y="-325.5" font-family="Arial" font-size="10.00" fill="#000000">name </text>
<text text-anchor="start" x="1177" y="-325.5" font-family="Arial Italic" font-size="10.00" fill="#999999">string</text>
<text text-anchor="start" x="1139" y="-312.5" font-family="Arial" font-size="10.00" fill="#000000">position_id </text>
<text text-anchor="start" x="1230" y="-312.5" font-family="Arial Italic" font-size="10.00" fill="#999999">integer (8) FK</text>
<text text-anchor="start" x="1139" y="-299.5" font-family="Arial" font-size="10.00" fill="#000000">wage_chunk_id </text>
<text text-anchor="start" x="1245" y="-299.5" font-family="Arial Italic" font-size="10.00" fill="#999999">integer (8) FK</text>
</g>
<!-- m_Position&#45;&gt;m_ReportingTag -->
<g id="edge9" class="edge">
<title>m_Position&#45;&gt;m_ReportingTag</title>
<path fill="none" stroke="#000000" d="M512.0314,-267.5721C652.2659,-275.0764 891.2035,-289.137 1096,-307.5 1104.752,-308.2847 1113.7861,-309.158 1122.8757,-310.0829"/>
<polygon fill="#000000" stroke="#000000" points="1122.6993,-313.2314 1131.9755,-311.0236 1123.3471,-306.9648 1122.6993,-313.2314"/>
</g>
<!-- m_PositionTemplate -->
<g id="node13" class="node">
<title>m_PositionTemplate</title>
<path fill="none" stroke="#000000" d="M302.5,-649C302.5,-649 481.5,-649 481.5,-649 487.5,-649 493.5,-655 493.5,-661 493.5,-661 493.5,-706 493.5,-706 493.5,-712 487.5,-718 481.5,-718 481.5,-718 302.5,-718 302.5,-718 296.5,-718 290.5,-712 290.5,-706 290.5,-706 290.5,-661 290.5,-661 290.5,-655 296.5,-649 302.5,-649"/>
<text text-anchor="start" x="329.5" y="-705.2" font-family="Arial Bold" font-size="11.00" fill="#000000">PositionTemplate</text>
<polyline fill="none" stroke="#000000" points="290.5,-698 493.5,-698 "/>
<text text-anchor="start" x="298" y="-684.5" font-family="Arial" font-size="10.00" fill="#000000">position_type </text>
<text text-anchor="start" x="404" y="-684.5" font-family="Arial Italic" font-size="10.00" fill="#999999">string</text>
<text text-anchor="start" x="298" y="-671.5" font-family="Arial" font-size="10.00" fill="#000000">offer_template </text>
<text text-anchor="start" x="411" y="-671.5" font-family="Arial Italic" font-size="10.00" fill="#999999">string</text>
<text text-anchor="start" x="298" y="-658.5" font-family="Arial" font-size="10.00" fill="#000000">session_id </text>
<text text-anchor="start" x="381" y="-658.5" font-family="Arial Italic" font-size="10.00" fill="#999999">integer (8) FK</text>
</g>
<!-- m_PreferenceLevel -->
<g id="node14" class="node">
<title>m_PreferenceLevel</title>
<path fill="none" stroke="#000000" d="M306.5,-491C306.5,-491 477.5,-491 477.5,-491 483.5,-491 489.5,-497 489.5,-503 489.5,-503 489.5,-522 489.5,-522 489.5,-528 483.5,-534 477.5,-534 477.5,-534 306.5,-534 306.5,-534 300.5,-534 294.5,-528 294.5,-522 294.5,-522 294.5,-503 294.5,-503 294.5,-497 300.5,-491 306.5,-491"/>
<text text-anchor="start" x="333.5" y="-521.2" font-family="Arial Bold" font-size="11.00" fill="#000000">PreferenceLevel</text>
<polyline fill="none" stroke="#000000" points="294.5,-514 489.5,-514 "/>
<text text-anchor="start" x="302" y="-500.5" font-family="Arial" font-size="10.00" fill="#000000">preference_level </text>
<text text-anchor="start" x="430" y="-500.5" font-family="Arial Italic" font-size="10.00" fill="#999999">integer</text>
</g>
<!-- m_PreferenceLevel&#45;&gt;m_PositionPreference -->
<g id="edge14" class="edge">
<title>m_PreferenceLevel&#45;&gt;m_PositionPreference</title>
<path fill="none" stroke="#000000" d="M489.8762,-507.1277C505.5761,-506.266 522.1097,-505.3585 538.6283,-504.4518"/>
<polygon fill="#000000" stroke="#000000" points="538.9845,-507.5871 547.7983,-503.9485 538.6392,-501.2965 538.9845,-507.5871"/>
</g>
<!-- m_Session -->
<g id="node16" class="node">
<title>m_Session</title>
<path fill="none" stroke="#000000" d="M51,-544C51,-544 185,-544 185,-544 191,-544 197,-550 197,-556 197,-556 197,-627 197,-627 197,-633 191,-639 185,-639 185,-639 51,-639 51,-639 45,-639 39,-633 39,-627 39,-627 39,-556 39,-556 39,-550 45,-544 51,-544"/>
<text text-anchor="start" x="89.5" y="-626.2" font-family="Arial Bold" font-size="11.00" fill="#000000">Session</text>
<polyline fill="none" stroke="#000000" points="39,-619 197,-619 "/>
<text text-anchor="start" x="46" y="-605.5" font-family="Arial" font-size="10.00" fill="#000000">start_date </text>
<text text-anchor="start" x="129" y="-605.5" font-family="Arial Italic" font-size="10.00" fill="#999999">datetime</text>
<text text-anchor="start" x="46" y="-592.5" font-family="Arial" font-size="10.00" fill="#000000">end_date </text>
<text text-anchor="start" x="114" y="-592.5" font-family="Arial Italic" font-size="10.00" fill="#999999">datetime</text>
<text text-anchor="start" x="46" y="-579.5" font-family="Arial" font-size="10.00" fill="#000000">name </text>
<text text-anchor="start" x="84" y="-579.5" font-family="Arial Italic" font-size="10.00" fill="#999999">string</text>
<text text-anchor="start" x="46" y="-566.5" font-family="Arial" font-size="10.00" fill="#000000">rate1 </text>
<text text-anchor="start" x="92" y="-566.5" font-family="Arial Italic" font-size="10.00" fill="#999999">float</text>
<text text-anchor="start" x="46" y="-553.5" font-family="Arial" font-size="10.00" fill="#000000">rate2 </text>
<text text-anchor="start" x="92" y="-553.5" font-family="Arial Italic" font-size="10.00" fill="#999999">float</text>
</g>
<!-- m_Session&#45;&gt;m_Application -->
<g id="edge15" class="edge">
<title>m_Session&#45;&gt;m_Application</title>
<path fill="none" stroke="#000000" d="M197.2522,-591.5C223.4937,-591.5 253.1952,-591.5 281.3532,-591.5"/>
<polygon fill="#000000" stroke="#000000" points="281.4349,-594.6501 290.4349,-591.5 281.4348,-588.3501 281.4349,-594.6501"/>
</g>
<!-- m_Session&#45;&gt;m_Position -->
<g id="edge8" class="edge">
<title>m_Session&#45;&gt;m_Position</title>
<path fill="none" stroke="#000000" d="M138.805,-543.5325C164.2561,-488.8792 211.5206,-399.1723 272,-337.5 275.2091,-334.2276 278.5847,-331.0298 282.0858,-327.913"/>
<polygon fill="#000000" stroke="#000000" points="284.1778,-330.2686 288.9625,-322.0206 280.0786,-325.4847 284.1778,-330.2686"/>
</g>
<!-- m_Session&#45;&gt;m_PositionTemplate -->
<g id="edge19" class="edge">
<title>m_Session&#45;&gt;m_PositionTemplate</title>
<path fill="none" stroke="#000000" d="M197.2522,-618.1102C223.6073,-626.9594 253.4525,-636.9804 281.7188,-646.4713"/>
<polygon fill="#000000" stroke="#000000" points="280.9003,-649.5192 290.4349,-649.3978 282.9056,-643.5469 280.9003,-649.5192"/>
</g>
<!-- m_User -->
<g id="node17" class="node">
<title>m_User</title>
<path fill="none" stroke="#000000" d="M58,-669.5C58,-669.5 178,-669.5 178,-669.5 184,-669.5 190,-675.5 190,-681.5 190,-681.5 190,-713.5 190,-713.5 190,-719.5 184,-725.5 178,-725.5 178,-725.5 58,-725.5 58,-725.5 52,-725.5 46,-719.5 46,-713.5 46,-713.5 46,-681.5 46,-681.5 46,-675.5 52,-669.5 58,-669.5"/>
<text text-anchor="start" x="100.5" y="-712.7" font-family="Arial Bold" font-size="11.00" fill="#000000">User</text>
<polyline fill="none" stroke="#000000" points="46,-705.5 190,-705.5 "/>
<text text-anchor="start" x="53" y="-692.5" font-family="Arial" font-size="10.00" fill="#000000">utorid </text>
<text text-anchor="start" x="106" y="-692.5" font-family="Arial Italic" font-size="10.00" fill="#999999">string ∗ U</text>
<text text-anchor="start" x="53" y="-679.5" font-family="Arial" font-size="10.00" fill="#000000">role </text>
<text text-anchor="start" x="91" y="-679.5" font-family="Arial Italic" font-size="10.00" fill="#999999">integer</text>
</g>
<!-- m_WageChunk&#45;&gt;m_ReportingTag -->
<g id="edge13" class="edge">
<title>m_WageChunk&#45;&gt;m_ReportingTag</title>
<path fill="none" stroke="#000000" d="M1088.6209,-351.1918C1099.8733,-349.2712 1111.3324,-347.3152 1122.6731,-345.3795"/>
<polygon fill="#000000" stroke="#000000" points="1123.3949,-348.452 1131.7366,-343.8325 1122.3349,-342.2418 1123.3949,-348.452"/>
</g>
</g>
</svg>
