<?xml version="1.0" encoding="UTF-8" standalone="no"?>
<!DOCTYPE svg PUBLIC "-//W3C//DTD SVG 1.1//EN"
 "http://www.w3.org/Graphics/SVG/1.1/DTD/svg11.dtd">
<!-- Generated by graphviz version 2.40.1 (0)
 -->
<!-- Title: Tapp Pages: 1 -->
<svg width="812pt" height="803pt"
 viewBox="0.00 0.00 811.60 803.10" xmlns="http://www.w3.org/2000/svg" xmlns:xlink="http://www.w3.org/1999/xlink">
<g id="graph0" class="graph" transform="scale(1 1) rotate(0) translate(28.8 774.3)">
<title>Tapp</title>
<polygon fill="#ffffff" stroke="transparent" points="-28.8,28.8 -28.8,-774.3 782.8,-774.3 782.8,28.8 -28.8,28.8"/>
<text text-anchor="middle" x="377" y="-731.1" font-family="Arial Bold" font-size="13.00" fill="#000000">ER Diagram</text>
<!-- m_ActiveRecord::InternalMetadata -->
<g id="node1" class="node">
<title>m_ActiveRecord::InternalMetadata</title>
<path fill="none" stroke="#000000" d="M14.5,-105C14.5,-105 166.5,-105 166.5,-105 172.5,-105 178.5,-111 178.5,-117 178.5,-117 178.5,-136 178.5,-136 178.5,-142 172.5,-148 166.5,-148 166.5,-148 14.5,-148 14.5,-148 8.5,-148 2.5,-142 2.5,-136 2.5,-136 2.5,-117 2.5,-117 2.5,-111 8.5,-105 14.5,-105"/>
<text text-anchor="start" x="7.5" y="-135.2" font-family="Arial Bold" font-size="11.00" fill="#000000">ActiveRecord::InternalMetadata</text>
<polyline fill="none" stroke="#000000" points="2.5,-128 178.5,-128 "/>
<text text-anchor="start" x="25.5" y="-114.5" font-family="Arial" font-size="10.00" fill="#000000">value </text>
<text text-anchor="start" x="52.5" y="-114.5" font-family="Arial Italic" font-size="10.00" fill="#999999">string</text>
</g>
<!-- m_ActiveRecord::SchemaMigration -->
<g id="node2" class="node">
<title>m_ActiveRecord::SchemaMigration</title>
<path fill="none" stroke="#000000" d="M12,-178.5C12,-178.5 169,-178.5 169,-178.5 175,-178.5 181,-184.5 181,-190.5 181,-190.5 181,-202.5 181,-202.5 181,-208.5 175,-214.5 169,-214.5 169,-214.5 12,-214.5 12,-214.5 6,-214.5 0,-208.5 0,-202.5 0,-202.5 0,-190.5 0,-190.5 0,-184.5 6,-178.5 12,-178.5"/>
<text text-anchor="start" x="5.5" y="-193.7" font-family="Arial Bold" font-size="11.00" fill="#000000">ActiveRecord::SchemaMigration</text>
</g>
<!-- m_Applicant -->
<g id="node3" class="node">
<title>m_Applicant</title>
<path fill="none" stroke="#000000" d="M234,-475.5C234,-475.5 354,-475.5 354,-475.5 360,-475.5 366,-481.5 366,-487.5 366,-487.5 366,-571.5 366,-571.5 366,-577.5 360,-583.5 354,-583.5 354,-583.5 234,-583.5 234,-583.5 228,-583.5 222,-577.5 222,-571.5 222,-571.5 222,-487.5 222,-487.5 222,-481.5 228,-475.5 234,-475.5"/>
<text text-anchor="start" x="266.5" y="-570.7" font-family="Arial Bold" font-size="11.00" fill="#000000">Applicant</text>
<polyline fill="none" stroke="#000000" points="222,-563.5 366,-563.5 "/>
<text text-anchor="start" x="229" y="-550.5" font-family="Arial" font-size="10.00" fill="#000000">utorid </text>
<text text-anchor="start" x="257" y="-550.5" font-family="Arial Italic" font-size="10.00" fill="#999999">string ∗ U</text>
<text text-anchor="start" x="229" y="-537.5" font-family="Arial" font-size="10.00" fill="#000000">student_number </text>
<text text-anchor="start" x="302" y="-537.5" font-family="Arial Italic" font-size="10.00" fill="#999999">string ∗ U</text>
<text text-anchor="start" x="229" y="-524.5" font-family="Arial" font-size="10.00" fill="#000000">first_name </text>
<text text-anchor="start" x="278" y="-524.5" font-family="Arial Italic" font-size="10.00" fill="#999999">string ∗</text>
<text text-anchor="start" x="229" y="-511.5" font-family="Arial" font-size="10.00" fill="#000000">last_name </text>
<text text-anchor="start" x="278" y="-511.5" font-family="Arial Italic" font-size="10.00" fill="#999999">string ∗</text>
<text text-anchor="start" x="229" y="-498.5" font-family="Arial" font-size="10.00" fill="#000000">email </text>
<text text-anchor="start" x="256" y="-498.5" font-family="Arial Italic" font-size="10.00" fill="#999999">string ∗</text>
<text text-anchor="start" x="229" y="-485.5" font-family="Arial" font-size="10.00" fill="#000000">phone </text>
<text text-anchor="start" x="259" y="-485.5" font-family="Arial Italic" font-size="10.00" fill="#999999">string</text>
</g>
<!-- m_ApplicantDataForMatching -->
<g id="node4" class="node">
<title>m_ApplicantDataForMatching</title>
<path fill="none" stroke="#000000" d="M421.5,-587C421.5,-587 556.5,-587 556.5,-587 562.5,-587 568.5,-593 568.5,-599 568.5,-599 568.5,-696 568.5,-696 568.5,-702 562.5,-708 556.5,-708 556.5,-708 421.5,-708 421.5,-708 415.5,-708 409.5,-702 409.5,-696 409.5,-696 409.5,-599 409.5,-599 409.5,-593 415.5,-587 421.5,-587"/>
<text text-anchor="start" x="419" y="-695.2" font-family="Arial Bold" font-size="11.00" fill="#000000">ApplicantDataForMatching</text>
<polyline fill="none" stroke="#000000" points="409.5,-688 568.5,-688 "/>
<text text-anchor="start" x="417" y="-674.5" font-family="Arial" font-size="10.00" fill="#000000">program </text>
<text text-anchor="start" x="456" y="-674.5" font-family="Arial Italic" font-size="10.00" fill="#999999">string</text>
<text text-anchor="start" x="417" y="-661.5" font-family="Arial" font-size="10.00" fill="#000000">department </text>
<text text-anchor="start" x="469" y="-661.5" font-family="Arial Italic" font-size="10.00" fill="#999999">string</text>
<text text-anchor="start" x="417" y="-648.5" font-family="Arial" font-size="10.00" fill="#000000">previous_uoft_ta_experience </text>
<text text-anchor="start" x="545" y="-648.5" font-family="Arial Italic" font-size="10.00" fill="#999999">text</text>
<text text-anchor="start" x="417" y="-635.5" font-family="Arial" font-size="10.00" fill="#000000">yip </text>
<text text-anchor="start" x="433" y="-635.5" font-family="Arial Italic" font-size="10.00" fill="#999999">integer</text>
<text text-anchor="start" x="417" y="-622.5" font-family="Arial" font-size="10.00" fill="#000000">annotation </text>
<text text-anchor="start" x="466" y="-622.5" font-family="Arial Italic" font-size="10.00" fill="#999999">string</text>
<text text-anchor="start" x="417" y="-609.5" font-family="Arial" font-size="10.00" fill="#000000">applicant_id </text>
<text text-anchor="start" x="472" y="-609.5" font-family="Arial Italic" font-size="10.00" fill="#999999">integer (8) FK</text>
<text text-anchor="start" x="417" y="-596.5" font-family="Arial" font-size="10.00" fill="#000000">application_id </text>
<text text-anchor="start" x="480" y="-596.5" font-family="Arial Italic" font-size="10.00" fill="#999999">integer (8) FK</text>
</g>
<!-- m_Applicant&#45;&gt;m_ApplicantDataForMatching -->
<g id="edge18" class="edge">
<title>m_Applicant&#45;&gt;m_ApplicantDataForMatching</title>
<path fill="none" stroke="#000000" d="M366.0568,-573.1036C377.6265,-580.1048 389.7102,-587.4169 401.5917,-594.6068"/>
<polygon fill="#000000" stroke="#000000" points="400.0322,-597.3449 409.363,-599.3094 403.2939,-591.9549 400.0322,-597.3449"/>
</g>
<!-- m_Assignment -->
<g id="node6" class="node">
<title>m_Assignment</title>
<path fill="none" stroke="#000000" d="M429,-337C429,-337 549,-337 549,-337 555,-337 561,-343 561,-349 561,-349 561,-446 561,-446 561,-452 555,-458 549,-458 549,-458 429,-458 429,-458 423,-458 417,-452 417,-446 417,-446 417,-349 417,-349 417,-343 423,-337 429,-337"/>
<text text-anchor="start" x="455" y="-445.2" font-family="Arial Bold" font-size="11.00" fill="#000000">Assignment</text>
<polyline fill="none" stroke="#000000" points="417,-438 561,-438 "/>
<text text-anchor="start" x="424" y="-424.5" font-family="Arial" font-size="10.00" fill="#000000">contract_start </text>
<text text-anchor="start" x="488" y="-424.5" font-family="Arial Italic" font-size="10.00" fill="#999999">datetime</text>
<text text-anchor="start" x="424" y="-411.5" font-family="Arial" font-size="10.00" fill="#000000">contract_end </text>
<text text-anchor="start" x="484" y="-411.5" font-family="Arial Italic" font-size="10.00" fill="#999999">datetime</text>
<text text-anchor="start" x="424" y="-398.5" font-family="Arial" font-size="10.00" fill="#000000">note </text>
<text text-anchor="start" x="446" y="-398.5" font-family="Arial Italic" font-size="10.00" fill="#999999">text</text>
<text text-anchor="start" x="424" y="-385.5" font-family="Arial" font-size="10.00" fill="#000000">offer_override_pdf </text>
<text text-anchor="start" x="506" y="-385.5" font-family="Arial Italic" font-size="10.00" fill="#999999">string</text>
<text text-anchor="start" x="424" y="-372.5" font-family="Arial" font-size="10.00" fill="#000000">position_id </text>
<text text-anchor="start" x="474" y="-372.5" font-family="Arial Italic" font-size="10.00" fill="#999999">integer (8) FK</text>
<text text-anchor="start" x="424" y="-359.5" font-family="Arial" font-size="10.00" fill="#000000">applicant_id </text>
<text text-anchor="start" x="479" y="-359.5" font-family="Arial Italic" font-size="10.00" fill="#999999">integer (8) FK</text>
<text text-anchor="start" x="424" y="-346.5" font-family="Arial" font-size="10.00" fill="#000000">active_offer_id </text>
<text text-anchor="start" x="491" y="-346.5" font-family="Arial Italic" font-size="10.00" fill="#999999">integer (8)</text>
</g>
<!-- m_Applicant&#45;&gt;m_Assignment -->
<g id="edge13" class="edge">
<title>m_Applicant&#45;&gt;m_Assignment</title>
<path fill="none" stroke="#000000" d="M366.0568,-480.7231C380.1922,-471.1545 395.0947,-461.0666 409.4586,-451.3434"/>
<polygon fill="#000000" stroke="#000000" points="411.2268,-453.9504 416.914,-446.2967 407.6952,-448.7332 411.2268,-453.9504"/>
</g>
<!-- m_Application -->
<g id="node5" class="node">
<title>m_Application</title>
<path fill="none" stroke="#000000" d="M234,-613.5C234,-613.5 354,-613.5 354,-613.5 360,-613.5 366,-619.5 366,-625.5 366,-625.5 366,-657.5 366,-657.5 366,-663.5 360,-669.5 354,-669.5 354,-669.5 234,-669.5 234,-669.5 228,-669.5 222,-663.5 222,-657.5 222,-657.5 222,-625.5 222,-625.5 222,-619.5 228,-613.5 234,-613.5"/>
<text text-anchor="start" x="261.5" y="-656.7" font-family="Arial Bold" font-size="11.00" fill="#000000">Application</text>
<polyline fill="none" stroke="#000000" points="222,-649.5 366,-649.5 "/>
<text text-anchor="start" x="229" y="-636.5" font-family="Arial" font-size="10.00" fill="#000000">comments </text>
<text text-anchor="start" x="278" y="-636.5" font-family="Arial Italic" font-size="10.00" fill="#999999">text</text>
<text text-anchor="start" x="229" y="-623.5" font-family="Arial" font-size="10.00" fill="#000000">session_id </text>
<text text-anchor="start" x="279" y="-623.5" font-family="Arial Italic" font-size="10.00" fill="#999999">integer (8) FK</text>
</g>
<!-- m_Application&#45;&gt;m_ApplicantDataForMatching -->
<g id="edge15" class="edge">
<title>m_Application&#45;&gt;m_ApplicantDataForMatching</title>
<path fill="none" stroke="#000000" d="M366.0568,-643.7171C380.1608,-644.1511 395.0286,-644.6086 409.363,-645.0496"/>
</g>
<!-- m_PositionPreference -->
<g id="node12" class="node">
<title>m_PositionPreference</title>
<path fill="none" stroke="#000000" d="M429,-488C429,-488 549,-488 549,-488 555,-488 561,-494 561,-500 561,-500 561,-545 561,-545 561,-551 555,-557 549,-557 549,-557 429,-557 429,-557 423,-557 417,-551 417,-545 417,-545 417,-500 417,-500 417,-494 423,-488 429,-488"/>
<text text-anchor="start" x="436.5" y="-544.2" font-family="Arial Bold" font-size="11.00" fill="#000000">PositionPreference</text>
<polyline fill="none" stroke="#000000" points="417,-537 561,-537 "/>
<text text-anchor="start" x="424" y="-523.5" font-family="Arial" font-size="10.00" fill="#000000">position_id </text>
<text text-anchor="start" x="474" y="-523.5" font-family="Arial Italic" font-size="10.00" fill="#999999">integer (8) FK</text>
<text text-anchor="start" x="424" y="-510.5" font-family="Arial" font-size="10.00" fill="#000000">application_id </text>
<text text-anchor="start" x="487" y="-510.5" font-family="Arial Italic" font-size="10.00" fill="#999999">integer (8) FK</text>
<text text-anchor="start" x="424" y="-497.5" font-family="Arial" font-size="10.00" fill="#000000">preference_level </text>
<text text-anchor="start" x="499" y="-497.5" font-family="Arial Italic" font-size="10.00" fill="#999999">integer</text>
</g>
<!-- m_Application&#45;&gt;m_PositionPreference -->
<g id="edge17" class="edge">
<title>m_Application&#45;&gt;m_PositionPreference</title>
<path fill="none" stroke="#000000" d="M346.7484,-613.2838C354.9759,-608.5288 363.2975,-603.5069 371,-598.5 387.7686,-587.5998 390.393,-582.6449 407,-571.5 411.6992,-568.3464 416.6027,-565.1628 421.5725,-562.0133"/>
<polygon fill="#000000" stroke="#000000" points="423.4606,-564.5477 429.4169,-557.1014 420.1171,-559.2081 423.4606,-564.5477"/>
</g>
<!-- m_Offer -->
<g id="node8" class="node">
<title>m_Offer</title>
<path fill="none" stroke="#000000" d="M619,-363C619,-363 742,-363 742,-363 748,-363 754,-369 754,-375 754,-375 754,-680 754,-680 754,-686 748,-692 742,-692 742,-692 619,-692 619,-692 613,-692 607,-686 607,-680 607,-680 607,-375 607,-375 607,-369 613,-363 619,-363"/>
<text text-anchor="start" x="665" y="-679.2" font-family="Arial Bold" font-size="11.00" fill="#000000">Offer</text>
<polyline fill="none" stroke="#000000" points="607,-672 754,-672 "/>
<text text-anchor="start" x="614.5" y="-658.5" font-family="Arial" font-size="10.00" fill="#000000">assignment_id </text>
<text text-anchor="start" x="681.5" y="-658.5" font-family="Arial Italic" font-size="10.00" fill="#999999">integer (8) FK</text>
<text text-anchor="start" x="614.5" y="-645.5" font-family="Arial" font-size="10.00" fill="#000000">offer_template </text>
<text text-anchor="start" x="680.5" y="-645.5" font-family="Arial Italic" font-size="10.00" fill="#999999">string</text>
<text text-anchor="start" x="614.5" y="-632.5" font-family="Arial" font-size="10.00" fill="#000000">offer_override_pdf </text>
<text text-anchor="start" x="696.5" y="-632.5" font-family="Arial Italic" font-size="10.00" fill="#999999">string</text>
<text text-anchor="start" x="614.5" y="-619.5" font-family="Arial" font-size="10.00" fill="#000000">first_name </text>
<text text-anchor="start" x="663.5" y="-619.5" font-family="Arial Italic" font-size="10.00" fill="#999999">string</text>
<text text-anchor="start" x="614.5" y="-606.5" font-family="Arial" font-size="10.00" fill="#000000">last_name </text>
<text text-anchor="start" x="663.5" y="-606.5" font-family="Arial Italic" font-size="10.00" fill="#999999">string</text>
<text text-anchor="start" x="614.5" y="-593.5" font-family="Arial" font-size="10.00" fill="#000000">email </text>
<text text-anchor="start" x="641.5" y="-593.5" font-family="Arial Italic" font-size="10.00" fill="#999999">string</text>
<text text-anchor="start" x="614.5" y="-580.5" font-family="Arial" font-size="10.00" fill="#000000">position_code </text>
<text text-anchor="start" x="678.5" y="-580.5" font-family="Arial Italic" font-size="10.00" fill="#999999">string</text>
<text text-anchor="start" x="614.5" y="-567.5" font-family="Arial" font-size="10.00" fill="#000000">position_title </text>
<text text-anchor="start" x="672.5" y="-567.5" font-family="Arial Italic" font-size="10.00" fill="#999999">string</text>
<text text-anchor="start" x="614.5" y="-554.5" font-family="Arial" font-size="10.00" fill="#000000">position_start_date </text>
<text text-anchor="start" x="700.5" y="-554.5" font-family="Arial Italic" font-size="10.00" fill="#999999">datetime</text>
<text text-anchor="start" x="614.5" y="-541.5" font-family="Arial" font-size="10.00" fill="#000000">position_end_date </text>
<text text-anchor="start" x="696.5" y="-541.5" font-family="Arial Italic" font-size="10.00" fill="#999999">datetime</text>
<text text-anchor="start" x="614.5" y="-528.5" font-family="Arial" font-size="10.00" fill="#000000">first_time_ta </text>
<text text-anchor="start" x="672.5" y="-528.5" font-family="Arial Italic" font-size="10.00" fill="#999999">boolean</text>
<text text-anchor="start" x="614.5" y="-515.5" font-family="Arial" font-size="10.00" fill="#000000">instructor_contact_desc </text>
<text text-anchor="start" x="722.5" y="-515.5" font-family="Arial Italic" font-size="10.00" fill="#999999">string</text>
<text text-anchor="start" x="614.5" y="-502.5" font-family="Arial" font-size="10.00" fill="#000000">pay_period_desc </text>
<text text-anchor="start" x="691.5" y="-502.5" font-family="Arial Italic" font-size="10.00" fill="#999999">string</text>
<text text-anchor="start" x="614.5" y="-489.5" font-family="Arial" font-size="10.00" fill="#000000">installments </text>
<text text-anchor="start" x="670.5" y="-489.5" font-family="Arial Italic" font-size="10.00" fill="#999999">integer</text>
<text text-anchor="start" x="614.5" y="-476.5" font-family="Arial" font-size="10.00" fill="#000000">ta_coordinator_name </text>
<text text-anchor="start" x="708.5" y="-476.5" font-family="Arial Italic" font-size="10.00" fill="#999999">string</text>
<text text-anchor="start" x="614.5" y="-463.5" font-family="Arial" font-size="10.00" fill="#000000">ta_coordinator_email </text>
<text text-anchor="start" x="708.5" y="-463.5" font-family="Arial Italic" font-size="10.00" fill="#999999">string</text>
<text text-anchor="start" x="614.5" y="-450.5" font-family="Arial" font-size="10.00" fill="#000000">emailed_date </text>
<text text-anchor="start" x="675.5" y="-450.5" font-family="Arial Italic" font-size="10.00" fill="#999999">datetime</text>
<text text-anchor="start" x="614.5" y="-437.5" font-family="Arial" font-size="10.00" fill="#000000">signature </text>
<text text-anchor="start" x="657.5" y="-437.5" font-family="Arial Italic" font-size="10.00" fill="#999999">string</text>
<text text-anchor="start" x="614.5" y="-424.5" font-family="Arial" font-size="10.00" fill="#000000">accepted_date </text>
<text text-anchor="start" x="681.5" y="-424.5" font-family="Arial Italic" font-size="10.00" fill="#999999">datetime</text>
<text text-anchor="start" x="614.5" y="-411.5" font-family="Arial" font-size="10.00" fill="#000000">rejected_date </text>
<text text-anchor="start" x="676.5" y="-411.5" font-family="Arial Italic" font-size="10.00" fill="#999999">datetime</text>
<text text-anchor="start" x="614.5" y="-398.5" font-family="Arial" font-size="10.00" fill="#000000">withdrawn_date </text>
<text text-anchor="start" x="686.5" y="-398.5" font-family="Arial Italic" font-size="10.00" fill="#999999">datetime</text>
<text text-anchor="start" x="614.5" y="-385.5" font-family="Arial" font-size="10.00" fill="#000000">nag_count </text>
<text text-anchor="start" x="663.5" y="-385.5" font-family="Arial Italic" font-size="10.00" fill="#999999">integer</text>
<text text-anchor="start" x="614.5" y="-372.5" font-family="Arial" font-size="10.00" fill="#000000">url_token </text>
<text text-anchor="start" x="657.5" y="-372.5" font-family="Arial Italic" font-size="10.00" fill="#999999">string</text>
</g>
<!-- m_Assignment&#45;&gt;m_Offer -->
<g id="edge12" class="edge">
<title>m_Assignment&#45;&gt;m_Offer</title>
<path fill="none" stroke="#000000" d="M561.1251,-446.4622C573.5051,-454.8664 586.4471,-463.6521 599.0509,-472.2082"/>
<polygon fill="#000000" stroke="#000000" points="597.6312,-475.0517 606.8468,-477.5004 601.1697,-469.8392 597.6312,-475.0517"/>
</g>
<!-- m_WageChunk -->
<g id="node17" class="node">
<title>m_WageChunk</title>
<path fill="none" stroke="#000000" d="M620.5,-238C620.5,-238 740.5,-238 740.5,-238 746.5,-238 752.5,-244 752.5,-250 752.5,-250 752.5,-321 752.5,-321 752.5,-327 746.5,-333 740.5,-333 740.5,-333 620.5,-333 620.5,-333 614.5,-333 608.5,-327 608.5,-321 608.5,-321 608.5,-250 608.5,-250 608.5,-244 614.5,-238 620.5,-238"/>
<text text-anchor="start" x="646.5" y="-320.2" font-family="Arial Bold" font-size="11.00" fill="#000000">WageChunk</text>
<polyline fill="none" stroke="#000000" points="608.5,-313 752.5,-313 "/>
<text text-anchor="start" x="615.5" y="-299.5" font-family="Arial" font-size="10.00" fill="#000000">hours </text>
<text text-anchor="start" x="643.5" y="-299.5" font-family="Arial Italic" font-size="10.00" fill="#999999">float</text>
<text text-anchor="start" x="615.5" y="-286.5" font-family="Arial" font-size="10.00" fill="#000000">rate </text>
<text text-anchor="start" x="635.5" y="-286.5" font-family="Arial Italic" font-size="10.00" fill="#999999">float</text>
<text text-anchor="start" x="615.5" y="-273.5" font-family="Arial" font-size="10.00" fill="#000000">start_date </text>
<text text-anchor="start" x="662.5" y="-273.5" font-family="Arial Italic" font-size="10.00" fill="#999999">datetime</text>
<text text-anchor="start" x="615.5" y="-260.5" font-family="Arial" font-size="10.00" fill="#000000">end_date </text>
<text text-anchor="start" x="658.5" y="-260.5" font-family="Arial Italic" font-size="10.00" fill="#999999">datetime</text>
<text text-anchor="start" x="615.5" y="-247.5" font-family="Arial" font-size="10.00" fill="#000000">assignment_id </text>
<text text-anchor="start" x="682.5" y="-247.5" font-family="Arial Italic" font-size="10.00" fill="#999999">integer (8) FK</text>
</g>
<!-- m_Assignment&#45;&gt;m_WageChunk -->
<g id="edge4" class="edge">
<title>m_Assignment&#45;&gt;m_WageChunk</title>
<path fill="none" stroke="#000000" d="M561.1251,-355.3172C573.9441,-347.8199 587.3657,-339.9702 600.3904,-332.3526"/>
<polygon fill="#000000" stroke="#000000" points="602.2614,-334.9076 608.4399,-327.6448 599.0808,-329.4694 602.2614,-334.9076"/>
</g>
<!-- m_Instructor -->
<g id="node7" class="node">
<title>m_Instructor</title>
<path fill="none" stroke="#000000" d="M30.5,-244.5C30.5,-244.5 150.5,-244.5 150.5,-244.5 156.5,-244.5 162.5,-250.5 162.5,-256.5 162.5,-256.5 162.5,-314.5 162.5,-314.5 162.5,-320.5 156.5,-326.5 150.5,-326.5 150.5,-326.5 30.5,-326.5 30.5,-326.5 24.5,-326.5 18.5,-320.5 18.5,-314.5 18.5,-314.5 18.5,-256.5 18.5,-256.5 18.5,-250.5 24.5,-244.5 30.5,-244.5"/>
<text text-anchor="start" x="62.5" y="-313.7" font-family="Arial Bold" font-size="11.00" fill="#000000">Instructor</text>
<polyline fill="none" stroke="#000000" points="18.5,-306.5 162.5,-306.5 "/>
<text text-anchor="start" x="25.5" y="-293.5" font-family="Arial" font-size="10.00" fill="#000000">last_name </text>
<text text-anchor="start" x="74.5" y="-293.5" font-family="Arial Italic" font-size="10.00" fill="#999999">string ∗</text>
<text text-anchor="start" x="25.5" y="-280.5" font-family="Arial" font-size="10.00" fill="#000000">first_name </text>
<text text-anchor="start" x="74.5" y="-280.5" font-family="Arial Italic" font-size="10.00" fill="#999999">string ∗</text>
<text text-anchor="start" x="25.5" y="-267.5" font-family="Arial" font-size="10.00" fill="#000000">email </text>
<text text-anchor="start" x="52.5" y="-267.5" font-family="Arial Italic" font-size="10.00" fill="#999999">string ∗</text>
<text text-anchor="start" x="25.5" y="-254.5" font-family="Arial" font-size="10.00" fill="#000000">utorid </text>
<text text-anchor="start" x="53.5" y="-254.5" font-family="Arial Italic" font-size="10.00" fill="#999999">string ∗ U</text>
</g>
<!-- m_Position -->
<g id="node9" class="node">
<title>m_Position</title>
<path fill="none" stroke="#000000" d="M229,-225C229,-225 359,-225 359,-225 365,-225 371,-231 371,-237 371,-237 371,-334 371,-334 371,-340 365,-346 359,-346 359,-346 229,-346 229,-346 223,-346 217,-340 217,-334 217,-334 217,-237 217,-237 217,-231 223,-225 229,-225"/>
<text text-anchor="start" x="270" y="-333.2" font-family="Arial Bold" font-size="11.00" fill="#000000">Position</text>
<polyline fill="none" stroke="#000000" points="217,-326 371,-326 "/>
<text text-anchor="start" x="224" y="-312.5" font-family="Arial" font-size="10.00" fill="#000000">session_id </text>
<text text-anchor="start" x="274" y="-312.5" font-family="Arial Italic" font-size="10.00" fill="#999999">integer (8) FK</text>
<text text-anchor="start" x="224" y="-299.5" font-family="Arial" font-size="10.00" fill="#000000">position_code </text>
<text text-anchor="start" x="288" y="-299.5" font-family="Arial Italic" font-size="10.00" fill="#999999">string ∗ U</text>
<text text-anchor="start" x="224" y="-286.5" font-family="Arial" font-size="10.00" fill="#000000">position_title </text>
<text text-anchor="start" x="282" y="-286.5" font-family="Arial Italic" font-size="10.00" fill="#999999">string</text>
<text text-anchor="start" x="224" y="-273.5" font-family="Arial" font-size="10.00" fill="#000000">est_hours_per_assignment </text>
<text text-anchor="start" x="345" y="-273.5" font-family="Arial Italic" font-size="10.00" fill="#999999">float</text>
<text text-anchor="start" x="224" y="-260.5" font-family="Arial" font-size="10.00" fill="#000000">est_start_date </text>
<text text-anchor="start" x="290" y="-260.5" font-family="Arial Italic" font-size="10.00" fill="#999999">datetime</text>
<text text-anchor="start" x="224" y="-247.5" font-family="Arial" font-size="10.00" fill="#000000">est_end_date </text>
<text text-anchor="start" x="286" y="-247.5" font-family="Arial Italic" font-size="10.00" fill="#999999">datetime</text>
<text text-anchor="start" x="224" y="-234.5" font-family="Arial" font-size="10.00" fill="#000000">position_type </text>
<text text-anchor="start" x="285" y="-234.5" font-family="Arial Italic" font-size="10.00" fill="#999999">string</text>
</g>
<!-- m_Instructor&#45;&gt;m_Position -->
<g id="edge5" class="edge">
<title>m_Instructor&#45;&gt;m_Position</title>
<path fill="none" stroke="#000000" d="M171.7152,-285.5C183.5838,-285.5 195.8414,-285.5 207.8051,-285.5"/>
<polygon fill="#000000" stroke="#000000" points="171.5329,-282.3501 162.5329,-285.5 171.5328,-288.6501 171.5329,-282.3501"/>
<polygon fill="#000000" stroke="#000000" points="207.8852,-288.6501 216.8852,-285.5 207.8851,-282.3501 207.8852,-288.6501"/>
</g>
<!-- m_Position&#45;&gt;m_Application -->
<g id="edge10" class="edge">
<title>m_Position&#45;&gt;m_Application</title>
<path fill="none" stroke="#000000" stroke-dasharray="1,5" d="M216.9612,-346.1545C209.725,-355.0409 203.4463,-364.7024 199,-375 180.5891,-417.6395 178.9515,-542.1055 199,-584 203.3964,-593.1869 210.0238,-601.0308 217.7742,-607.6947"/>
<polygon fill="#000000" stroke="#000000" points="216.1471,-610.4213 225.1759,-613.4876 220.0299,-605.4601 216.1471,-610.4213"/>
</g>
<!-- m_Position&#45;&gt;m_Assignment -->
<g id="edge8" class="edge">
<title>m_Position&#45;&gt;m_Assignment</title>
<path fill="none" stroke="#000000" d="M371.0692,-329.7654C383.4697,-336.8877 396.3319,-344.2753 408.8039,-351.4386"/>
<polygon fill="#000000" stroke="#000000" points="407.5614,-354.3576 416.9346,-356.1086 410.6991,-348.8945 407.5614,-354.3576"/>
</g>
<!-- m_PositionDataForAd -->
<g id="node10" class="node">
<title>m_PositionDataForAd</title>
<path fill="none" stroke="#000000" d="M425.5,-113C425.5,-113 552.5,-113 552.5,-113 558.5,-113 564.5,-119 564.5,-125 564.5,-125 564.5,-222 564.5,-222 564.5,-228 558.5,-234 552.5,-234 552.5,-234 425.5,-234 425.5,-234 419.5,-234 413.5,-228 413.5,-222 413.5,-222 413.5,-125 413.5,-125 413.5,-119 419.5,-113 425.5,-113"/>
<text text-anchor="start" x="436.5" y="-221.2" font-family="Arial Bold" font-size="11.00" fill="#000000">PositionDataForAd</text>
<polyline fill="none" stroke="#000000" points="413.5,-214 564.5,-214 "/>
<text text-anchor="start" x="421" y="-200.5" font-family="Arial" font-size="10.00" fill="#000000">duties </text>
<text text-anchor="start" x="451" y="-200.5" font-family="Arial Italic" font-size="10.00" fill="#999999">text</text>
<text text-anchor="start" x="421" y="-187.5" font-family="Arial" font-size="10.00" fill="#000000">qualifications </text>
<text text-anchor="start" x="482" y="-187.5" font-family="Arial Italic" font-size="10.00" fill="#999999">text</text>
<text text-anchor="start" x="421" y="-174.5" font-family="Arial" font-size="10.00" fill="#000000">ad_hours_per_assignment </text>
<text text-anchor="start" x="539" y="-174.5" font-family="Arial Italic" font-size="10.00" fill="#999999">float</text>
<text text-anchor="start" x="421" y="-161.5" font-family="Arial" font-size="10.00" fill="#000000">ad_num_assignments </text>
<text text-anchor="start" x="520" y="-161.5" font-family="Arial Italic" font-size="10.00" fill="#999999">integer</text>
<text text-anchor="start" x="421" y="-148.5" font-family="Arial" font-size="10.00" fill="#000000">ad_open_date </text>
<text text-anchor="start" x="485" y="-148.5" font-family="Arial Italic" font-size="10.00" fill="#999999">datetime</text>
<text text-anchor="start" x="421" y="-135.5" font-family="Arial" font-size="10.00" fill="#000000">ad_close_date </text>
<text text-anchor="start" x="488" y="-135.5" font-family="Arial Italic" font-size="10.00" fill="#999999">datetime</text>
<text text-anchor="start" x="421" y="-122.5" font-family="Arial" font-size="10.00" fill="#000000">position_id </text>
<text text-anchor="start" x="471" y="-122.5" font-family="Arial Italic" font-size="10.00" fill="#999999">integer (8) FK</text>
</g>
<!-- m_Position&#45;&gt;m_PositionDataForAd -->
<g id="edge2" class="edge">
<title>m_Position&#45;&gt;m_PositionDataForAd</title>
<path fill="none" stroke="#000000" d="M371.0692,-241.2346C385.015,-233.2247 399.5447,-224.8794 413.4466,-216.8948"/>
</g>
<!-- m_PositionDataForMatching -->
<g id="node11" class="node">
<title>m_PositionDataForMatching</title>
<path fill="none" stroke="#000000" d="M419,-.5C419,-.5 559,-.5 559,-.5 565,-.5 571,-6.5 571,-12.5 571,-12.5 571,-70.5 571,-70.5 571,-76.5 565,-82.5 559,-82.5 559,-82.5 419,-82.5 419,-82.5 413,-82.5 407,-76.5 407,-70.5 407,-70.5 407,-12.5 407,-12.5 407,-6.5 413,-.5 419,-.5"/>
<text text-anchor="start" x="422" y="-69.7" font-family="Arial Bold" font-size="11.00" fill="#000000">PositionDataForMatching</text>
<polyline fill="none" stroke="#000000" points="407,-62.5 571,-62.5 "/>
<text text-anchor="start" x="414" y="-49.5" font-family="Arial" font-size="10.00" fill="#000000">desired_num_assignments </text>
<text text-anchor="start" x="534" y="-49.5" font-family="Arial Italic" font-size="10.00" fill="#999999">integer</text>
<text text-anchor="start" x="414" y="-36.5" font-family="Arial" font-size="10.00" fill="#000000">current_enrollment </text>
<text text-anchor="start" x="498" y="-36.5" font-family="Arial Italic" font-size="10.00" fill="#999999">integer</text>
<text text-anchor="start" x="414" y="-23.5" font-family="Arial" font-size="10.00" fill="#000000">current_waitlisted </text>
<text text-anchor="start" x="494" y="-23.5" font-family="Arial Italic" font-size="10.00" fill="#999999">integer</text>
<text text-anchor="start" x="414" y="-10.5" font-family="Arial" font-size="10.00" fill="#000000">position_id </text>
<text text-anchor="start" x="464" y="-10.5" font-family="Arial Italic" font-size="10.00" fill="#999999">integer (8) FK</text>
</g>
<!-- m_Position&#45;&gt;m_PositionDataForMatching -->
<g id="edge11" class="edge">
<title>m_Position&#45;&gt;m_PositionDataForMatching</title>
<path fill="none" stroke="#000000" d="M322.0009,-224.697C342.0037,-185.499 371.5862,-135.0287 407,-97.5 411.8509,-92.3594 417.2513,-87.429 422.9008,-82.7733"/>
</g>
<!-- m_Position&#45;&gt;m_PositionPreference -->
<g id="edge9" class="edge">
<title>m_Position&#45;&gt;m_PositionPreference</title>
<path fill="none" stroke="#000000" d="M360.8243,-346.0713C364.5143,-350.7564 367.9527,-355.5826 371,-360.5 398.5418,-404.9441 374.6494,-431.4236 407,-472.5 409.4953,-475.6684 412.2511,-478.6844 415.1959,-481.5485"/>
<polygon fill="#000000" stroke="#000000" points="413.5639,-484.3141 422.3764,-487.9562 417.7586,-479.6135 413.5639,-484.3141"/>
</g>
<!-- m_ReportingTag -->
<g id="node14" class="node">
<title>m_ReportingTag</title>
<path fill="none" stroke="#000000" d="M429,-264C429,-264 549,-264 549,-264 555,-264 561,-270 561,-276 561,-276 561,-295 561,-295 561,-301 555,-307 549,-307 549,-307 429,-307 429,-307 423,-307 417,-301 417,-295 417,-295 417,-276 417,-276 417,-270 423,-264 429,-264"/>
<text text-anchor="start" x="451" y="-294.2" font-family="Arial Bold" font-size="11.00" fill="#000000">ReportingTag</text>
<polyline fill="none" stroke="#000000" points="417,-287 561,-287 "/>
<text text-anchor="start" x="424" y="-273.5" font-family="Arial" font-size="10.00" fill="#000000">name </text>
<text text-anchor="start" x="452" y="-273.5" font-family="Arial Italic" font-size="10.00" fill="#999999">string</text>
</g>
<!-- m_Position&#45;&gt;m_ReportingTag -->
<g id="edge6" class="edge">
<title>m_Position&#45;&gt;m_ReportingTag</title>
<path fill="none" stroke="#000000" d="M380.353,-285.5C389.5162,-285.5 398.8125,-285.5 407.9123,-285.5"/>
<polygon fill="#000000" stroke="#000000" points="380.0692,-282.3501 371.0692,-285.5 380.0691,-288.6501 380.0692,-282.3501"/>
<polygon fill="#000000" stroke="#000000" points="407.9346,-288.6501 416.9346,-285.5 407.9345,-282.3501 407.9346,-288.6501"/>
</g>
<!-- m_PositionTemplate -->
<g id="node13" class="node">
<title>m_PositionTemplate</title>
<path fill="none" stroke="#000000" d="M234,-376C234,-376 354,-376 354,-376 360,-376 366,-382 366,-388 366,-388 366,-433 366,-433 366,-439 360,-445 354,-445 354,-445 234,-445 234,-445 228,-445 222,-439 222,-433 222,-433 222,-388 222,-388 222,-382 228,-376 234,-376"/>
<text text-anchor="start" x="246.5" y="-432.2" font-family="Arial Bold" font-size="11.00" fill="#000000">PositionTemplate</text>
<polyline fill="none" stroke="#000000" points="222,-425 366,-425 "/>
<text text-anchor="start" x="229" y="-411.5" font-family="Arial" font-size="10.00" fill="#000000">position_type </text>
<text text-anchor="start" x="290" y="-411.5" font-family="Arial Italic" font-size="10.00" fill="#999999">string</text>
<text text-anchor="start" x="229" y="-398.5" font-family="Arial" font-size="10.00" fill="#000000">offer_template </text>
<text text-anchor="start" x="295" y="-398.5" font-family="Arial Italic" font-size="10.00" fill="#999999">string</text>
<text text-anchor="start" x="229" y="-385.5" font-family="Arial" font-size="10.00" fill="#000000">session_id </text>
<text text-anchor="start" x="279" y="-385.5" font-family="Arial Italic" font-size="10.00" fill="#999999">integer (8) FK</text>
</g>
<!-- m_ReportingTag&#45;&gt;m_WageChunk -->
<g id="edge3" class="edge">
<title>m_ReportingTag&#45;&gt;m_WageChunk</title>
<path fill="none" stroke="#000000" d="M570.2826,-285.5C579.8904,-285.5 589.6972,-285.5 599.3038,-285.5"/>
<polygon fill="#000000" stroke="#000000" points="570.1251,-282.3501 561.1251,-285.5 570.125,-288.6501 570.1251,-282.3501"/>
<polygon fill="#000000" stroke="#000000" points="599.44,-288.6501 608.4399,-285.5 599.4399,-282.3501 599.44,-288.6501"/>
</g>
<!-- m_Session -->
<g id="node15" class="node">
<title>m_Session</title>
<path fill="none" stroke="#000000" d="M30.5,-363C30.5,-363 150.5,-363 150.5,-363 156.5,-363 162.5,-369 162.5,-375 162.5,-375 162.5,-446 162.5,-446 162.5,-452 156.5,-458 150.5,-458 150.5,-458 30.5,-458 30.5,-458 24.5,-458 18.5,-452 18.5,-446 18.5,-446 18.5,-375 18.5,-375 18.5,-369 24.5,-363 30.5,-363"/>
<text text-anchor="start" x="67" y="-445.2" font-family="Arial Bold" font-size="11.00" fill="#000000">Session</text>
<polyline fill="none" stroke="#000000" points="18.5,-438 162.5,-438 "/>
<text text-anchor="start" x="25.5" y="-424.5" font-family="Arial" font-size="10.00" fill="#000000">start_date </text>
<text text-anchor="start" x="72.5" y="-424.5" font-family="Arial Italic" font-size="10.00" fill="#999999">datetime</text>
<text text-anchor="start" x="25.5" y="-411.5" font-family="Arial" font-size="10.00" fill="#000000">end_date </text>
<text text-anchor="start" x="68.5" y="-411.5" font-family="Arial Italic" font-size="10.00" fill="#999999">datetime</text>
<text text-anchor="start" x="25.5" y="-398.5" font-family="Arial" font-size="10.00" fill="#000000">name </text>
<text text-anchor="start" x="53.5" y="-398.5" font-family="Arial Italic" font-size="10.00" fill="#999999">string U</text>
<text text-anchor="start" x="25.5" y="-385.5" font-family="Arial" font-size="10.00" fill="#000000">rate1 </text>
<text text-anchor="start" x="50.5" y="-385.5" font-family="Arial Italic" font-size="10.00" fill="#999999">float</text>
<text text-anchor="start" x="25.5" y="-372.5" font-family="Arial" font-size="10.00" fill="#000000">rate2 </text>
<text text-anchor="start" x="50.5" y="-372.5" font-family="Arial Italic" font-size="10.00" fill="#999999">float</text>
</g>
<!-- m_Session&#45;&gt;m_Application -->
<g id="edge14" class="edge">
<title>m_Session&#45;&gt;m_Application</title>
<path fill="none" stroke="#000000" d="M162.9324,-453.6759C169.6653,-459.7202 175.8722,-466.3407 181,-473.5 214.6642,-520.5015 181.0553,-553.2186 217,-598.5 219.4632,-601.603 222.2151,-604.518 225.1721,-607.2513"/>
<polygon fill="#000000" stroke="#000000" points="223.4808,-609.9434 232.405,-613.3024 227.5233,-605.1114 223.4808,-609.9434"/>
</g>
<!-- m_Session&#45;&gt;m_Position -->
<g id="edge7" class="edge">
<title>m_Session&#45;&gt;m_Position</title>
<path fill="none" stroke="#000000" d="M162.5329,-366.2538C177.5271,-357.0435 193.4651,-347.2536 208.8798,-337.7851"/>
<polygon fill="#000000" stroke="#000000" points="210.8651,-340.2625 216.8852,-332.8678 207.5676,-334.8944 210.8651,-340.2625"/>
</g>
<!-- m_Session&#45;&gt;m_PositionTemplate -->
<g id="edge1" class="edge">
<title>m_Session&#45;&gt;m_PositionTemplate</title>
<path fill="none" stroke="#000000" d="M162.5329,-410.5C178.7402,-410.5 196.0501,-410.5 212.6099,-410.5"/>
<polygon fill="#000000" stroke="#000000" points="212.7209,-413.6501 221.7208,-410.5 212.7208,-407.3501 212.7209,-413.6501"/>
</g>
<!-- m_User -->
<g id="node16" class="node">
<title>m_User</title>
<path fill="none" stroke="#000000" d="M30.5,-488.5C30.5,-488.5 150.5,-488.5 150.5,-488.5 156.5,-488.5 162.5,-494.5 162.5,-500.5 162.5,-500.5 162.5,-532.5 162.5,-532.5 162.5,-538.5 156.5,-544.5 150.5,-544.5 150.5,-544.5 30.5,-544.5 30.5,-544.5 24.5,-544.5 18.5,-538.5 18.5,-532.5 18.5,-532.5 18.5,-500.5 18.5,-500.5 18.5,-494.5 24.5,-488.5 30.5,-488.5"/>
<text text-anchor="start" x="76" y="-531.7" font-family="Arial Bold" font-size="11.00" fill="#000000">User</text>
<polyline fill="none" stroke="#000000" points="18.5,-524.5 162.5,-524.5 "/>
<text text-anchor="start" x="25.5" y="-511.5" font-family="Arial" font-size="10.00" fill="#000000">utorid </text>
<text text-anchor="start" x="53.5" y="-511.5" font-family="Arial Italic" font-size="10.00" fill="#999999">string ∗ U</text>
<text text-anchor="start" x="25.5" y="-498.5" font-family="Arial" font-size="10.00" fill="#000000">role </text>
<text text-anchor="start" x="44.5" y="-498.5" font-family="Arial Italic" font-size="10.00" fill="#999999">integer</text>
</g>
</g>
</svg>
