<?xml version="1.0" encoding="UTF-8" standalone="no"?>
<!DOCTYPE svg PUBLIC "-//W3C//DTD SVG 1.1//EN"
 "http://www.w3.org/Graphics/SVG/1.1/DTD/svg11.dtd">
<!-- Generated by graphviz version 2.40.1 (0)
 -->
<!-- Title: Tapp Pages: 1 -->
<svg width="1416pt" height="800pt"
 viewBox="0.00 0.00 1415.60 799.60" xmlns="http://www.w3.org/2000/svg" xmlns:xlink="http://www.w3.org/1999/xlink">
<g id="graph0" class="graph" transform="scale(1 1) rotate(0) translate(28.8 770.8)">
<title>Tapp</title>
<polygon fill="#ffffff" stroke="transparent" points="-28.8,28.8 -28.8,-770.8 1386.8,-770.8 1386.8,28.8 -28.8,28.8"/>
<text text-anchor="middle" x="679" y="-727.6" font-family="Arial Bold" font-size="13.00" fill="#000000">ER Diagram</text>
<!-- m_ActiveRecord::InternalMetadata -->
<g id="node1" class="node">
<title>m_ActiveRecord::InternalMetadata</title>
<path fill="none" stroke="#000000" d="M12,-206.5C12,-206.5 224,-206.5 224,-206.5 230,-206.5 236,-212.5 236,-218.5 236,-218.5 236,-237.5 236,-237.5 236,-243.5 230,-249.5 224,-249.5 224,-249.5 12,-249.5 12,-249.5 6,-249.5 0,-243.5 0,-237.5 0,-237.5 0,-218.5 0,-218.5 0,-212.5 6,-206.5 12,-206.5"/>
<text text-anchor="start" x="5" y="-236.7" font-family="Arial Bold" font-size="11.00" fill="#000000">ActiveRecord::InternalMetadata</text>
<polyline fill="none" stroke="#000000" points="0,-229.5 236,-229.5 "/>
<text text-anchor="start" x="53" y="-216" font-family="Arial" font-size="10.00" fill="#000000">value </text>
<text text-anchor="start" x="99" y="-216" font-family="Arial Italic" font-size="10.00" fill="#999999">string</text>
</g>
<!-- m_ActiveRecord::SchemaMigration -->
<g id="node2" class="node">
<title>m_ActiveRecord::SchemaMigration</title>
<path fill="none" stroke="#000000" d="M16,-280C16,-280 220,-280 220,-280 226,-280 232,-286 232,-292 232,-292 232,-304 232,-304 232,-310 226,-316 220,-316 220,-316 16,-316 16,-316 10,-316 4,-310 4,-304 4,-304 4,-292 4,-292 4,-286 10,-280 16,-280"/>
<text text-anchor="start" x="9" y="-295.2" font-family="Arial Bold" font-size="11.00" fill="#000000">ActiveRecord::SchemaMigration</text>
</g>
<!-- m_Applicant -->
<g id="node3" class="node">
<title>m_Applicant</title>
<path fill="none" stroke="#000000" d="M302.5,-56C302.5,-56 481.5,-56 481.5,-56 487.5,-56 493.5,-62 493.5,-68 493.5,-68 493.5,-152 493.5,-152 493.5,-158 487.5,-164 481.5,-164 481.5,-164 302.5,-164 302.5,-164 296.5,-164 290.5,-158 290.5,-152 290.5,-152 290.5,-68 290.5,-68 290.5,-62 296.5,-56 302.5,-56"/>
<text text-anchor="start" x="356" y="-151.2" font-family="Arial Bold" font-size="11.00" fill="#000000">Applicant</text>
<polyline fill="none" stroke="#000000" points="290.5,-144 493.5,-144 "/>
<text text-anchor="start" x="298" y="-131" font-family="Arial" font-size="10.00" fill="#000000">utorid </text>
<text text-anchor="start" x="351" y="-131" font-family="Arial Italic" font-size="10.00" fill="#999999">string ∗ U</text>
<text text-anchor="start" x="298" y="-118" font-family="Arial" font-size="10.00" fill="#000000">student_number </text>
<text text-anchor="start" x="411" y="-118" font-family="Arial Italic" font-size="10.00" fill="#999999">string ∗ U</text>
<text text-anchor="start" x="298" y="-105" font-family="Arial" font-size="10.00" fill="#000000">first_name </text>
<text text-anchor="start" x="381" y="-105" font-family="Arial Italic" font-size="10.00" fill="#999999">string ∗</text>
<text text-anchor="start" x="298" y="-92" font-family="Arial" font-size="10.00" fill="#000000">last_name </text>
<text text-anchor="start" x="374" y="-92" font-family="Arial Italic" font-size="10.00" fill="#999999">string ∗</text>
<text text-anchor="start" x="298" y="-79" font-family="Arial" font-size="10.00" fill="#000000">email </text>
<text text-anchor="start" x="344" y="-79" font-family="Arial Italic" font-size="10.00" fill="#999999">string ∗</text>
<text text-anchor="start" x="298" y="-66" font-family="Arial" font-size="10.00" fill="#000000">phone </text>
<text text-anchor="start" x="344" y="-66" font-family="Arial Italic" font-size="10.00" fill="#999999">string</text>
</g>
<!-- m_Assignment -->
<g id="node5" class="node">
<title>m_Assignment</title>
<path fill="none" stroke="#000000" d="M586.5,-56C586.5,-56 780.5,-56 780.5,-56 786.5,-56 792.5,-62 792.5,-68 792.5,-68 792.5,-152 792.5,-152 792.5,-158 786.5,-164 780.5,-164 780.5,-164 586.5,-164 586.5,-164 580.5,-164 574.5,-158 574.5,-152 574.5,-152 574.5,-68 574.5,-68 574.5,-62 580.5,-56 586.5,-56"/>
<text text-anchor="start" x="643.5" y="-151.2" font-family="Arial Bold" font-size="11.00" fill="#000000">Assignment</text>
<polyline fill="none" stroke="#000000" points="574.5,-144 792.5,-144 "/>
<text text-anchor="start" x="581.5" y="-131" font-family="Arial" font-size="10.00" fill="#000000">contract_start </text>
<text text-anchor="start" x="694.5" y="-131" font-family="Arial Italic" font-size="10.00" fill="#999999">datetime</text>
<text text-anchor="start" x="581.5" y="-118" font-family="Arial" font-size="10.00" fill="#000000">contract_end </text>
<text text-anchor="start" x="679.5" y="-118" font-family="Arial Italic" font-size="10.00" fill="#999999">datetime</text>
<text text-anchor="start" x="581.5" y="-105" font-family="Arial" font-size="10.00" fill="#000000">note </text>
<text text-anchor="start" x="619.5" y="-105" font-family="Arial Italic" font-size="10.00" fill="#999999">text</text>
<text text-anchor="start" x="581.5" y="-92" font-family="Arial" font-size="10.00" fill="#000000">offer_override_pdf </text>
<text text-anchor="start" x="724.5" y="-92" font-family="Arial Italic" font-size="10.00" fill="#999999">string</text>
<text text-anchor="start" x="581.5" y="-79" font-family="Arial" font-size="10.00" fill="#000000">position_id </text>
<text text-anchor="start" x="672.5" y="-79" font-family="Arial Italic" font-size="10.00" fill="#999999">integer (8) FK</text>
<text text-anchor="start" x="581.5" y="-66" font-family="Arial" font-size="10.00" fill="#000000">applicant_id </text>
<text text-anchor="start" x="679.5" y="-66" font-family="Arial Italic" font-size="10.00" fill="#999999">integer (8) FK</text>
</g>
<!-- m_Applicant&#45;&gt;m_Assignment -->
<g id="edge2" class="edge">
<title>m_Applicant&#45;&gt;m_Assignment</title>
<path fill="none" stroke="#000000" d="M493.5433,-110C516.7091,-110 541.5206,-110 565.3148,-110"/>
<polygon fill="#000000" stroke="#000000" points="565.3788,-113.1501 574.3788,-110 565.3788,-106.8501 565.3788,-113.1501"/>
</g>
<!-- m_Application -->
<g id="node4" class="node">
<title>m_Application</title>
<path fill="none" stroke="#000000" d="M302.5,-477C302.5,-477 481.5,-477 481.5,-477 487.5,-477 493.5,-483 493.5,-489 493.5,-489 493.5,-521 493.5,-521 493.5,-527 487.5,-533 481.5,-533 481.5,-533 302.5,-533 302.5,-533 296.5,-533 290.5,-527 290.5,-521 290.5,-521 290.5,-489 290.5,-489 290.5,-483 296.5,-477 302.5,-477"/>
<text text-anchor="start" x="348.5" y="-520.2" font-family="Arial Bold" font-size="11.00" fill="#000000">Application</text>
<polyline fill="none" stroke="#000000" points="290.5,-513 493.5,-513 "/>
<text text-anchor="start" x="298" y="-500" font-family="Arial" font-size="10.00" fill="#000000">comments </text>
<text text-anchor="start" x="366" y="-500" font-family="Arial Italic" font-size="10.00" fill="#999999">text</text>
<text text-anchor="start" x="298" y="-487" font-family="Arial" font-size="10.00" fill="#000000">session_id </text>
<text text-anchor="start" x="381" y="-487" font-family="Arial Italic" font-size="10.00" fill="#999999">integer (8) FK</text>
</g>
<!-- m_PositionPreference -->
<g id="node11" class="node">
<title>m_PositionPreference</title>
<path fill="none" stroke="#000000" d="M560,-517.5C560,-517.5 807,-517.5 807,-517.5 813,-517.5 819,-523.5 819,-529.5 819,-529.5 819,-574.5 819,-574.5 819,-580.5 813,-586.5 807,-586.5 807,-586.5 560,-586.5 560,-586.5 554,-586.5 548,-580.5 548,-574.5 548,-574.5 548,-529.5 548,-529.5 548,-523.5 554,-517.5 560,-517.5"/>
<text text-anchor="start" x="615.5" y="-573.7" font-family="Arial Bold" font-size="11.00" fill="#000000">PositionPreference</text>
<polyline fill="none" stroke="#000000" points="548,-566.5 819,-566.5 "/>
<text text-anchor="start" x="555.5" y="-553" font-family="Arial" font-size="10.00" fill="#000000">position_id </text>
<text text-anchor="start" x="646.5" y="-553" font-family="Arial Italic" font-size="10.00" fill="#999999">integer (8) FK</text>
<text text-anchor="start" x="555.5" y="-540" font-family="Arial" font-size="10.00" fill="#000000">preference_level_id </text>
<text text-anchor="start" x="706.5" y="-540" font-family="Arial Italic" font-size="10.00" fill="#999999">integer (8) FK</text>
<text text-anchor="start" x="555.5" y="-527" font-family="Arial" font-size="10.00" fill="#000000">application_id </text>
<text text-anchor="start" x="668.5" y="-527" font-family="Arial Italic" font-size="10.00" fill="#999999">integer (8) FK</text>
</g>
<!-- m_Application&#45;&gt;m_PositionPreference -->
<g id="edge15" class="edge">
<title>m_Application&#45;&gt;m_PositionPreference</title>
<path fill="none" stroke="#000000" d="M493.5433,-521.3723C508.2401,-523.742 523.5992,-526.2184 538.9407,-528.692"/>
<polygon fill="#000000" stroke="#000000" points="538.5797,-531.8244 547.9664,-530.1472 539.5826,-525.6047 538.5797,-531.8244"/>
</g>
<!-- m_Offer -->
<g id="node7" class="node">
<title>m_Offer</title>
<path fill="none" stroke="#000000" d="M867,-125.5C867,-125.5 1084,-125.5 1084,-125.5 1090,-125.5 1096,-131.5 1096,-137.5 1096,-137.5 1096,-416.5 1096,-416.5 1096,-422.5 1090,-428.5 1084,-428.5 1084,-428.5 867,-428.5 867,-428.5 861,-428.5 855,-422.5 855,-416.5 855,-416.5 855,-137.5 855,-137.5 855,-131.5 861,-125.5 867,-125.5"/>
<text text-anchor="start" x="954.5" y="-415.7" font-family="Arial Bold" font-size="11.00" fill="#000000">Offer</text>
<polyline fill="none" stroke="#000000" points="855,-408.5 1096,-408.5 "/>
<text text-anchor="start" x="862.5" y="-395" font-family="Arial" font-size="10.00" fill="#000000">assignment_id </text>
<text text-anchor="start" x="968.5" y="-395" font-family="Arial Italic" font-size="10.00" fill="#999999">integer (8) FK</text>
<text text-anchor="start" x="862.5" y="-382" font-family="Arial" font-size="10.00" fill="#000000">offer_template </text>
<text text-anchor="start" x="975.5" y="-382" font-family="Arial Italic" font-size="10.00" fill="#999999">string</text>
<text text-anchor="start" x="862.5" y="-369" font-family="Arial" font-size="10.00" fill="#000000">offer_override_pdf </text>
<text text-anchor="start" x="1005.5" y="-369" font-family="Arial Italic" font-size="10.00" fill="#999999">string</text>
<text text-anchor="start" x="862.5" y="-356" font-family="Arial" font-size="10.00" fill="#000000">first_name </text>
<text text-anchor="start" x="945.5" y="-356" font-family="Arial Italic" font-size="10.00" fill="#999999">string</text>
<text text-anchor="start" x="862.5" y="-343" font-family="Arial" font-size="10.00" fill="#000000">last_name </text>
<text text-anchor="start" x="938.5" y="-343" font-family="Arial Italic" font-size="10.00" fill="#999999">string</text>
<text text-anchor="start" x="862.5" y="-330" font-family="Arial" font-size="10.00" fill="#000000">email </text>
<text text-anchor="start" x="908.5" y="-330" font-family="Arial Italic" font-size="10.00" fill="#999999">string</text>
<text text-anchor="start" x="862.5" y="-317" font-family="Arial" font-size="10.00" fill="#000000">position_code </text>
<text text-anchor="start" x="968.5" y="-317" font-family="Arial Italic" font-size="10.00" fill="#999999">string</text>
<text text-anchor="start" x="862.5" y="-304" font-family="Arial" font-size="10.00" fill="#000000">position_title </text>
<text text-anchor="start" x="975.5" y="-304" font-family="Arial Italic" font-size="10.00" fill="#999999">string</text>
<text text-anchor="start" x="862.5" y="-291" font-family="Arial" font-size="10.00" fill="#000000">position_start_date </text>
<text text-anchor="start" x="1013.5" y="-291" font-family="Arial Italic" font-size="10.00" fill="#999999">datetime</text>
<text text-anchor="start" x="862.5" y="-278" font-family="Arial" font-size="10.00" fill="#000000">position_end_date </text>
<text text-anchor="start" x="998.5" y="-278" font-family="Arial Italic" font-size="10.00" fill="#999999">datetime</text>
<text text-anchor="start" x="862.5" y="-265" font-family="Arial" font-size="10.00" fill="#000000">first_time_ta </text>
<text text-anchor="start" x="968.5" y="-265" font-family="Arial Italic" font-size="10.00" fill="#999999">boolean</text>
<text text-anchor="start" x="862.5" y="-252" font-family="Arial" font-size="10.00" fill="#000000">instructor_contact_desc </text>
<text text-anchor="start" x="1043.5" y="-252" font-family="Arial Italic" font-size="10.00" fill="#999999">string</text>
<text text-anchor="start" x="862.5" y="-239" font-family="Arial" font-size="10.00" fill="#000000">pay_period_desc </text>
<text text-anchor="start" x="983.5" y="-239" font-family="Arial Italic" font-size="10.00" fill="#999999">string</text>
<text text-anchor="start" x="862.5" y="-226" font-family="Arial" font-size="10.00" fill="#000000">installments </text>
<text text-anchor="start" x="960.5" y="-226" font-family="Arial Italic" font-size="10.00" fill="#999999">integer</text>
<text text-anchor="start" x="862.5" y="-213" font-family="Arial" font-size="10.00" fill="#000000">ta_coordinator_name </text>
<text text-anchor="start" x="1013.5" y="-213" font-family="Arial Italic" font-size="10.00" fill="#999999">string</text>
<text text-anchor="start" x="862.5" y="-200" font-family="Arial" font-size="10.00" fill="#000000">ta_coordinator_email </text>
<text text-anchor="start" x="1020.5" y="-200" font-family="Arial Italic" font-size="10.00" fill="#999999">string</text>
<text text-anchor="start" x="862.5" y="-187" font-family="Arial" font-size="10.00" fill="#000000">emailed_date </text>
<text text-anchor="start" x="960.5" y="-187" font-family="Arial Italic" font-size="10.00" fill="#999999">datetime</text>
<text text-anchor="start" x="862.5" y="-174" font-family="Arial" font-size="10.00" fill="#000000">signature </text>
<text text-anchor="start" x="938.5" y="-174" font-family="Arial Italic" font-size="10.00" fill="#999999">string</text>
<text text-anchor="start" x="862.5" y="-161" font-family="Arial" font-size="10.00" fill="#000000">accepted_date </text>
<text text-anchor="start" x="968.5" y="-161" font-family="Arial Italic" font-size="10.00" fill="#999999">datetime</text>
<text text-anchor="start" x="862.5" y="-148" font-family="Arial" font-size="10.00" fill="#000000">rejected_date </text>
<text text-anchor="start" x="968.5" y="-148" font-family="Arial Italic" font-size="10.00" fill="#999999">datetime</text>
<text text-anchor="start" x="862.5" y="-135" font-family="Arial" font-size="10.00" fill="#000000">withdrawn_date </text>
<text text-anchor="start" x="975.5" y="-135" font-family="Arial Italic" font-size="10.00" fill="#999999">datetime</text>
</g>
<!-- m_Assignment&#45;&gt;m_Offer -->
<g id="edge1" class="edge">
<title>m_Assignment&#45;&gt;m_Offer</title>
<path fill="none" stroke="#000000" d="M791.9394,-164.1372C801.1475,-169.0613 810.2708,-174.0571 819,-179 828.1533,-184.183 837.5313,-189.6474 846.9259,-195.2358"/>
<polygon fill="#000000" stroke="#000000" points="845.476,-198.0391 854.8168,-199.9559 848.7101,-192.6325 845.476,-198.0391"/>
</g>
<!-- m_WageChunk -->
<g id="node17" class="node">
<title>m_WageChunk</title>
<path fill="none" stroke="#000000" d="M874.5,-.5C874.5,-.5 1076.5,-.5 1076.5,-.5 1082.5,-.5 1088.5,-6.5 1088.5,-12.5 1088.5,-12.5 1088.5,-83.5 1088.5,-83.5 1088.5,-89.5 1082.5,-95.5 1076.5,-95.5 1076.5,-95.5 874.5,-95.5 874.5,-95.5 868.5,-95.5 862.5,-89.5 862.5,-83.5 862.5,-83.5 862.5,-12.5 862.5,-12.5 862.5,-6.5 868.5,-.5 874.5,-.5"/>
<text text-anchor="start" x="939.5" y="-82.7" font-family="Arial Bold" font-size="11.00" fill="#000000">WageChunk</text>
<polyline fill="none" stroke="#000000" points="862.5,-75.5 1088.5,-75.5 "/>
<text text-anchor="start" x="869.5" y="-62" font-family="Arial" font-size="10.00" fill="#000000">hours </text>
<text text-anchor="start" x="915.5" y="-62" font-family="Arial Italic" font-size="10.00" fill="#999999">float</text>
<text text-anchor="start" x="869.5" y="-49" font-family="Arial" font-size="10.00" fill="#000000">rate </text>
<text text-anchor="start" x="907.5" y="-49" font-family="Arial Italic" font-size="10.00" fill="#999999">float</text>
<text text-anchor="start" x="869.5" y="-36" font-family="Arial" font-size="10.00" fill="#000000">start_date </text>
<text text-anchor="start" x="952.5" y="-36" font-family="Arial Italic" font-size="10.00" fill="#999999">datetime</text>
<text text-anchor="start" x="869.5" y="-23" font-family="Arial" font-size="10.00" fill="#000000">end_date </text>
<text text-anchor="start" x="937.5" y="-23" font-family="Arial Italic" font-size="10.00" fill="#999999">datetime</text>
<text text-anchor="start" x="869.5" y="-10" font-family="Arial" font-size="10.00" fill="#000000">assignment_id </text>
<text text-anchor="start" x="975.5" y="-10" font-family="Arial Italic" font-size="10.00" fill="#999999">integer (8) FK</text>
</g>
<!-- m_Assignment&#45;&gt;m_WageChunk -->
<g id="edge4" class="edge">
<title>m_Assignment&#45;&gt;m_WageChunk</title>
<path fill="none" stroke="#000000" d="M792.6453,-86.8253C812.4003,-82.6308 833.1186,-78.2317 853.2205,-73.9635"/>
<polygon fill="#000000" stroke="#000000" points="853.9496,-77.029 862.0991,-72.0783 852.641,-70.8663 853.9496,-77.029"/>
</g>
<!-- m_Instructor -->
<g id="node6" class="node">
<title>m_Instructor</title>
<path fill="none" stroke="#000000" d="M51,-346C51,-346 185,-346 185,-346 191,-346 197,-352 197,-358 197,-358 197,-416 197,-416 197,-422 191,-428 185,-428 185,-428 51,-428 51,-428 45,-428 39,-422 39,-416 39,-416 39,-358 39,-358 39,-352 45,-346 51,-346"/>
<text text-anchor="start" x="78" y="-415.2" font-family="Arial Bold" font-size="11.00" fill="#000000">Instructor</text>
<polyline fill="none" stroke="#000000" points="39,-408 197,-408 "/>
<text text-anchor="start" x="46" y="-395" font-family="Arial" font-size="10.00" fill="#000000">last_name </text>
<text text-anchor="start" x="122" y="-395" font-family="Arial Italic" font-size="10.00" fill="#999999">string ∗</text>
<text text-anchor="start" x="46" y="-382" font-family="Arial" font-size="10.00" fill="#000000">first_name </text>
<text text-anchor="start" x="129" y="-382" font-family="Arial Italic" font-size="10.00" fill="#999999">string ∗</text>
<text text-anchor="start" x="46" y="-369" font-family="Arial" font-size="10.00" fill="#000000">email </text>
<text text-anchor="start" x="92" y="-369" font-family="Arial Italic" font-size="10.00" fill="#999999">string ∗</text>
<text text-anchor="start" x="46" y="-356" font-family="Arial" font-size="10.00" fill="#000000">utorid </text>
<text text-anchor="start" x="99" y="-356" font-family="Arial Italic" font-size="10.00" fill="#999999">string ∗ U</text>
</g>
<!-- m_Position -->
<g id="node8" class="node">
<title>m_Position</title>
<path fill="none" stroke="#000000" d="M284,-326.5C284,-326.5 500,-326.5 500,-326.5 506,-326.5 512,-332.5 512,-338.5 512,-338.5 512,-435.5 512,-435.5 512,-441.5 506,-447.5 500,-447.5 500,-447.5 284,-447.5 284,-447.5 278,-447.5 272,-441.5 272,-435.5 272,-435.5 272,-338.5 272,-338.5 272,-332.5 278,-326.5 284,-326.5"/>
<text text-anchor="start" x="359.5" y="-434.7" font-family="Arial Bold" font-size="11.00" fill="#000000">Position</text>
<polyline fill="none" stroke="#000000" points="272,-427.5 512,-427.5 "/>
<text text-anchor="start" x="279" y="-414" font-family="Arial" font-size="10.00" fill="#000000">session_id </text>
<text text-anchor="start" x="362" y="-414" font-family="Arial Italic" font-size="10.00" fill="#999999">integer (8) FK</text>
<text text-anchor="start" x="279" y="-401" font-family="Arial" font-size="10.00" fill="#000000">position_code </text>
<text text-anchor="start" x="385" y="-401" font-family="Arial Italic" font-size="10.00" fill="#999999">string</text>
<text text-anchor="start" x="279" y="-388" font-family="Arial" font-size="10.00" fill="#000000">position_title </text>
<text text-anchor="start" x="392" y="-388" font-family="Arial Italic" font-size="10.00" fill="#999999">string</text>
<text text-anchor="start" x="279" y="-375" font-family="Arial" font-size="10.00" fill="#000000">est_hours_per_assignment </text>
<text text-anchor="start" x="467" y="-375" font-family="Arial Italic" font-size="10.00" fill="#999999">float</text>
<text text-anchor="start" x="279" y="-362" font-family="Arial" font-size="10.00" fill="#000000">est_start_date </text>
<text text-anchor="start" x="392" y="-362" font-family="Arial Italic" font-size="10.00" fill="#999999">datetime</text>
<text text-anchor="start" x="279" y="-349" font-family="Arial" font-size="10.00" fill="#000000">est_end_date </text>
<text text-anchor="start" x="377" y="-349" font-family="Arial Italic" font-size="10.00" fill="#999999">datetime</text>
<text text-anchor="start" x="279" y="-336" font-family="Arial" font-size="10.00" fill="#000000">position_type </text>
<text text-anchor="start" x="385" y="-336" font-family="Arial Italic" font-size="10.00" fill="#999999">string</text>
</g>
<!-- m_Instructor&#45;&gt;m_Position -->
<g id="edge6" class="edge">
<title>m_Instructor&#45;&gt;m_Position</title>
<path fill="none" stroke="#000000" d="M206.3962,-387C224.4129,-387 243.7181,-387 262.8198,-387"/>
<polygon fill="#000000" stroke="#000000" points="206.2522,-383.8501 197.2522,-387 206.2521,-390.1501 206.2522,-383.8501"/>
<polygon fill="#000000" stroke="#000000" points="262.8741,-390.1501 271.8741,-387 262.8741,-383.8501 262.8741,-390.1501"/>
</g>
<!-- m_Position&#45;&gt;m_Assignment -->
<g id="edge3" class="edge">
<title>m_Position&#45;&gt;m_Assignment</title>
<path fill="none" stroke="#000000" d="M426.8836,-326.419C455.109,-281.4153 498.2496,-220.8318 548,-179 553.8817,-174.0545 560.1777,-169.3416 566.7178,-164.8722"/>
<polygon fill="#000000" stroke="#000000" points="568.7207,-167.3246 574.4973,-159.7382 565.2505,-162.0665 568.7207,-167.3246"/>
</g>
<!-- m_PositionDataForAd -->
<g id="node9" class="node">
<title>m_PositionDataForAd</title>
<path fill="none" stroke="#000000" d="M579,-194.5C579,-194.5 788,-194.5 788,-194.5 794,-194.5 800,-200.5 800,-206.5 800,-206.5 800,-303.5 800,-303.5 800,-309.5 794,-315.5 788,-315.5 788,-315.5 579,-315.5 579,-315.5 573,-315.5 567,-309.5 567,-303.5 567,-303.5 567,-206.5 567,-206.5 567,-200.5 573,-194.5 579,-194.5"/>
<text text-anchor="start" x="617.5" y="-302.7" font-family="Arial Bold" font-size="11.00" fill="#000000">PositionDataForAd</text>
<polyline fill="none" stroke="#000000" points="567,-295.5 800,-295.5 "/>
<text text-anchor="start" x="574.5" y="-282" font-family="Arial" font-size="10.00" fill="#000000">duties </text>
<text text-anchor="start" x="627.5" y="-282" font-family="Arial Italic" font-size="10.00" fill="#999999">text</text>
<text text-anchor="start" x="574.5" y="-269" font-family="Arial" font-size="10.00" fill="#000000">qualifications </text>
<text text-anchor="start" x="687.5" y="-269" font-family="Arial Italic" font-size="10.00" fill="#999999">text</text>
<text text-anchor="start" x="574.5" y="-256" font-family="Arial" font-size="10.00" fill="#000000">ad_hours_per_assignment </text>
<text text-anchor="start" x="755.5" y="-256" font-family="Arial Italic" font-size="10.00" fill="#999999">float</text>
<text text-anchor="start" x="574.5" y="-243" font-family="Arial" font-size="10.00" fill="#000000">ad_num_assignments </text>
<text text-anchor="start" x="717.5" y="-243" font-family="Arial Italic" font-size="10.00" fill="#999999">integer</text>
<text text-anchor="start" x="574.5" y="-230" font-family="Arial" font-size="10.00" fill="#000000">ad_open_date </text>
<text text-anchor="start" x="672.5" y="-230" font-family="Arial Italic" font-size="10.00" fill="#999999">datetime</text>
<text text-anchor="start" x="574.5" y="-217" font-family="Arial" font-size="10.00" fill="#000000">ad_close_date </text>
<text text-anchor="start" x="680.5" y="-217" font-family="Arial Italic" font-size="10.00" fill="#999999">datetime</text>
<text text-anchor="start" x="574.5" y="-204" font-family="Arial" font-size="10.00" fill="#000000">position_id </text>
<text text-anchor="start" x="665.5" y="-204" font-family="Arial Italic" font-size="10.00" fill="#999999">integer (8) FK</text>
</g>
<!-- m_Position&#45;&gt;m_PositionDataForAd -->
<g id="edge11" class="edge">
<title>m_Position&#45;&gt;m_PositionDataForAd</title>
<path fill="none" stroke="#000000" d="M512.2472,-332.5485C530.2826,-324.3815 548.8558,-315.971 566.8153,-307.8384"/>
</g>
<!-- m_PositionDataForMatching -->
<g id="node10" class="node">
<title>m_PositionDataForMatching</title>
<path fill="none" stroke="#000000" d="M571.5,-346C571.5,-346 795.5,-346 795.5,-346 801.5,-346 807.5,-352 807.5,-358 807.5,-358 807.5,-416 807.5,-416 807.5,-422 801.5,-428 795.5,-428 795.5,-428 571.5,-428 571.5,-428 565.5,-428 559.5,-422 559.5,-416 559.5,-416 559.5,-358 559.5,-358 559.5,-352 565.5,-346 571.5,-346"/>
<text text-anchor="start" x="597.5" y="-415.2" font-family="Arial Bold" font-size="11.00" fill="#000000">PositionDataForMatching</text>
<polyline fill="none" stroke="#000000" points="559.5,-408 807.5,-408 "/>
<text text-anchor="start" x="566.5" y="-395" font-family="Arial" font-size="10.00" fill="#000000">desired_num_assignments </text>
<text text-anchor="start" x="747.5" y="-395" font-family="Arial Italic" font-size="10.00" fill="#999999">integer</text>
<text text-anchor="start" x="566.5" y="-382" font-family="Arial" font-size="10.00" fill="#000000">current_enrollment </text>
<text text-anchor="start" x="709.5" y="-382" font-family="Arial Italic" font-size="10.00" fill="#999999">integer</text>
<text text-anchor="start" x="566.5" y="-369" font-family="Arial" font-size="10.00" fill="#000000">current_waitlisted </text>
<text text-anchor="start" x="709.5" y="-369" font-family="Arial Italic" font-size="10.00" fill="#999999">integer</text>
<text text-anchor="start" x="566.5" y="-356" font-family="Arial" font-size="10.00" fill="#000000">position_id </text>
<text text-anchor="start" x="657.5" y="-356" font-family="Arial Italic" font-size="10.00" fill="#999999">integer (8) FK</text>
</g>
<!-- m_Position&#45;&gt;m_PositionDataForMatching -->
<g id="edge5" class="edge">
<title>m_Position&#45;&gt;m_PositionDataForMatching</title>
<path fill="none" stroke="#000000" d="M512.2472,-387C527.7733,-387 543.698,-387 559.2866,-387"/>
</g>
<!-- m_Position&#45;&gt;m_PositionPreference -->
<g id="edge9" class="edge">
<title>m_Position&#45;&gt;m_PositionPreference</title>
<path fill="none" stroke="#000000" d="M492.1574,-447.6274C498.9695,-452.3509 505.645,-457.1662 512,-462 529.2755,-475.1403 529.7273,-483.286 548,-495 558.3733,-501.65 569.6535,-507.8191 581.1295,-513.4521"/>
<polygon fill="#000000" stroke="#000000" points="580.0318,-516.4187 589.5103,-517.4583 582.7489,-510.7348 580.0318,-516.4187"/>
</g>
<!-- m_ReportingTag -->
<g id="node14" class="node">
<title>m_ReportingTag</title>
<path fill="none" stroke="#000000" d="M1144,-225.5C1144,-225.5 1346,-225.5 1346,-225.5 1352,-225.5 1358,-231.5 1358,-237.5 1358,-237.5 1358,-282.5 1358,-282.5 1358,-288.5 1352,-294.5 1346,-294.5 1346,-294.5 1144,-294.5 1144,-294.5 1138,-294.5 1132,-288.5 1132,-282.5 1132,-282.5 1132,-237.5 1132,-237.5 1132,-231.5 1138,-225.5 1144,-225.5"/>
<text text-anchor="start" x="1197.5" y="-281.7" font-family="Arial Bold" font-size="11.00" fill="#000000">ReportingTag</text>
<polyline fill="none" stroke="#000000" points="1132,-274.5 1358,-274.5 "/>
<text text-anchor="start" x="1139" y="-261" font-family="Arial" font-size="10.00" fill="#000000">name </text>
<text text-anchor="start" x="1177" y="-261" font-family="Arial Italic" font-size="10.00" fill="#999999">string</text>
<text text-anchor="start" x="1139" y="-248" font-family="Arial" font-size="10.00" fill="#000000">position_id </text>
<text text-anchor="start" x="1230" y="-248" font-family="Arial Italic" font-size="10.00" fill="#999999">integer (8) FK</text>
<text text-anchor="start" x="1139" y="-235" font-family="Arial" font-size="10.00" fill="#000000">wage_chunk_id </text>
<text text-anchor="start" x="1245" y="-235" font-family="Arial Italic" font-size="10.00" fill="#999999">integer (8) FK</text>
</g>
<!-- m_Position&#45;&gt;m_ReportingTag -->
<g id="edge8" class="edge">
<title>m_Position&#45;&gt;m_ReportingTag</title>
<path fill="none" stroke="#000000" d="M512.2512,-434.7494C524.1849,-438.0969 536.235,-440.9523 548,-443 787.9483,-484.763 876.0308,-547.5603 1096,-443 1156.7859,-414.106 1200.9142,-346.9389 1224.733,-302.5164"/>
<polygon fill="#000000" stroke="#000000" points="1227.5468,-303.9333 1228.9436,-294.5008 1221.9695,-301.0035 1227.5468,-303.9333"/>
</g>
<!-- m_PositionTemplate -->
<g id="node12" class="node">
<title>m_PositionTemplate</title>
<path fill="none" stroke="#000000" d="M302.5,-562.5C302.5,-562.5 481.5,-562.5 481.5,-562.5 487.5,-562.5 493.5,-568.5 493.5,-574.5 493.5,-574.5 493.5,-619.5 493.5,-619.5 493.5,-625.5 487.5,-631.5 481.5,-631.5 481.5,-631.5 302.5,-631.5 302.5,-631.5 296.5,-631.5 290.5,-625.5 290.5,-619.5 290.5,-619.5 290.5,-574.5 290.5,-574.5 290.5,-568.5 296.5,-562.5 302.5,-562.5"/>
<text text-anchor="start" x="329.5" y="-618.7" font-family="Arial Bold" font-size="11.00" fill="#000000">PositionTemplate</text>
<polyline fill="none" stroke="#000000" points="290.5,-611.5 493.5,-611.5 "/>
<text text-anchor="start" x="298" y="-598" font-family="Arial" font-size="10.00" fill="#000000">position_type </text>
<text text-anchor="start" x="404" y="-598" font-family="Arial Italic" font-size="10.00" fill="#999999">string</text>
<text text-anchor="start" x="298" y="-585" font-family="Arial" font-size="10.00" fill="#000000">offer_template </text>
<text text-anchor="start" x="411" y="-585" font-family="Arial Italic" font-size="10.00" fill="#999999">string</text>
<text text-anchor="start" x="298" y="-572" font-family="Arial" font-size="10.00" fill="#000000">session_id </text>
<text text-anchor="start" x="381" y="-572" font-family="Arial Italic" font-size="10.00" fill="#999999">integer (8) FK</text>
</g>
<!-- m_PreferenceLevel -->
<g id="node13" class="node">
<title>m_PreferenceLevel</title>
<path fill="none" stroke="#000000" d="M306.5,-661.5C306.5,-661.5 477.5,-661.5 477.5,-661.5 483.5,-661.5 489.5,-667.5 489.5,-673.5 489.5,-673.5 489.5,-692.5 489.5,-692.5 489.5,-698.5 483.5,-704.5 477.5,-704.5 477.5,-704.5 306.5,-704.5 306.5,-704.5 300.5,-704.5 294.5,-698.5 294.5,-692.5 294.5,-692.5 294.5,-673.5 294.5,-673.5 294.5,-667.5 300.5,-661.5 306.5,-661.5"/>
<text text-anchor="start" x="333.5" y="-691.7" font-family="Arial Bold" font-size="11.00" fill="#000000">PreferenceLevel</text>
<polyline fill="none" stroke="#000000" points="294.5,-684.5 489.5,-684.5 "/>
<text text-anchor="start" x="302" y="-671" font-family="Arial" font-size="10.00" fill="#000000">preference_level </text>
<text text-anchor="start" x="430" y="-671" font-family="Arial Italic" font-size="10.00" fill="#999999">integer</text>
</g>
<!-- m_PreferenceLevel&#45;&gt;m_PositionPreference -->
<g id="edge13" class="edge">
<title>m_PreferenceLevel&#45;&gt;m_PositionPreference</title>
<path fill="none" stroke="#000000" d="M469.9661,-661.4788C484.1354,-656.8596 498.648,-651.6488 512,-646 548.7545,-630.4502 587.9117,-609.3636 619.5171,-591.1024"/>
<polygon fill="#000000" stroke="#000000" points="621.1885,-593.7744 627.3836,-586.5257 618.0203,-588.3289 621.1885,-593.7744"/>
</g>
<!-- m_Session -->
<g id="node15" class="node">
<title>m_Session</title>
<path fill="none" stroke="#000000" d="M51,-458.5C51,-458.5 185,-458.5 185,-458.5 191,-458.5 197,-464.5 197,-470.5 197,-470.5 197,-541.5 197,-541.5 197,-547.5 191,-553.5 185,-553.5 185,-553.5 51,-553.5 51,-553.5 45,-553.5 39,-547.5 39,-541.5 39,-541.5 39,-470.5 39,-470.5 39,-464.5 45,-458.5 51,-458.5"/>
<text text-anchor="start" x="89.5" y="-540.7" font-family="Arial Bold" font-size="11.00" fill="#000000">Session</text>
<polyline fill="none" stroke="#000000" points="39,-533.5 197,-533.5 "/>
<text text-anchor="start" x="46" y="-520" font-family="Arial" font-size="10.00" fill="#000000">start_date </text>
<text text-anchor="start" x="129" y="-520" font-family="Arial Italic" font-size="10.00" fill="#999999">datetime</text>
<text text-anchor="start" x="46" y="-507" font-family="Arial" font-size="10.00" fill="#000000">end_date </text>
<text text-anchor="start" x="114" y="-507" font-family="Arial Italic" font-size="10.00" fill="#999999">datetime</text>
<text text-anchor="start" x="46" y="-494" font-family="Arial" font-size="10.00" fill="#000000">name </text>
<text text-anchor="start" x="84" y="-494" font-family="Arial Italic" font-size="10.00" fill="#999999">string</text>
<text text-anchor="start" x="46" y="-481" font-family="Arial" font-size="10.00" fill="#000000">rate1 </text>
<text text-anchor="start" x="92" y="-481" font-family="Arial Italic" font-size="10.00" fill="#999999">float</text>
<text text-anchor="start" x="46" y="-468" font-family="Arial" font-size="10.00" fill="#000000">rate2 </text>
<text text-anchor="start" x="92" y="-468" font-family="Arial Italic" font-size="10.00" fill="#999999">float</text>
</g>
<!-- m_Session&#45;&gt;m_Application -->
<g id="edge14" class="edge">
<title>m_Session&#45;&gt;m_Application</title>
<path fill="none" stroke="#000000" d="M197.2522,-505.7108C223.4937,-505.615 253.1952,-505.5066 281.3532,-505.4038"/>
<polygon fill="#000000" stroke="#000000" points="281.4465,-508.5536 290.4349,-505.3707 281.4234,-502.2536 281.4465,-508.5536"/>
</g>
<!-- m_Session&#45;&gt;m_Position -->
<g id="edge7" class="edge">
<title>m_Session&#45;&gt;m_Position</title>
<path fill="none" stroke="#000000" d="M197.2522,-471.5803C218.015,-462.5628 240.9439,-452.6047 263.5604,-442.7822"/>
<polygon fill="#000000" stroke="#000000" points="264.8739,-445.646 271.8741,-439.1715 262.3642,-439.8675 264.8739,-445.646"/>
</g>
<!-- m_Session&#45;&gt;m_PositionTemplate -->
<g id="edge16" class="edge">
<title>m_Session&#45;&gt;m_PositionTemplate</title>
<path fill="none" stroke="#000000" d="M197.2522,-532.321C223.6073,-541.074 253.4525,-550.986 281.7188,-560.3738"/>
<polygon fill="#000000" stroke="#000000" points="280.9007,-563.4212 290.4349,-563.2685 282.8865,-557.4423 280.9007,-563.4212"/>
</g>
<!-- m_User -->
<g id="node16" class="node">
<title>m_User</title>
<path fill="none" stroke="#000000" d="M58,-584C58,-584 178,-584 178,-584 184,-584 190,-590 190,-596 190,-596 190,-628 190,-628 190,-634 184,-640 178,-640 178,-640 58,-640 58,-640 52,-640 46,-634 46,-628 46,-628 46,-596 46,-596 46,-590 52,-584 58,-584"/>
<text text-anchor="start" x="100.5" y="-627.2" font-family="Arial Bold" font-size="11.00" fill="#000000">User</text>
<polyline fill="none" stroke="#000000" points="46,-620 190,-620 "/>
<text text-anchor="start" x="53" y="-607" font-family="Arial" font-size="10.00" fill="#000000">utorid </text>
<text text-anchor="start" x="106" y="-607" font-family="Arial Italic" font-size="10.00" fill="#999999">string ∗ U</text>
<text text-anchor="start" x="53" y="-594" font-family="Arial" font-size="10.00" fill="#000000">role </text>
<text text-anchor="start" x="91" y="-594" font-family="Arial Italic" font-size="10.00" fill="#999999">integer</text>
</g>
<!-- m_WageChunk&#45;&gt;m_ReportingTag -->
<g id="edge12" class="edge">
<title>m_WageChunk&#45;&gt;m_ReportingTag</title>
<path fill="none" stroke="#000000" d="M1074.3804,-95.5813C1081.8713,-100.1744 1089.1661,-104.9967 1096,-110 1139.2289,-141.6494 1181.6003,-185.9707 1210.039,-218.2253"/>
<polygon fill="#000000" stroke="#000000" points="1207.9515,-220.6234 1216.2468,-225.3257 1212.6945,-216.4768 1207.9515,-220.6234"/>
</g>
</g>
</svg>
