<?xml version="1.0" encoding="UTF-8" standalone="no"?>
<!DOCTYPE svg PUBLIC "-//W3C//DTD SVG 1.1//EN"
 "http://www.w3.org/Graphics/SVG/1.1/DTD/svg11.dtd">
<!-- Generated by graphviz version 2.40.1 (0)
 -->
<!-- Title: Tapp Pages: 1 -->
<svg width="993pt" height="872pt"
 viewBox="0.00 0.00 992.60 872.10" xmlns="http://www.w3.org/2000/svg" xmlns:xlink="http://www.w3.org/1999/xlink">
<g id="graph0" class="graph" transform="scale(1 1) rotate(0) translate(28.8 843.3)">
<title>Tapp</title>
<polygon fill="#ffffff" stroke="transparent" points="-28.8,28.8 -28.8,-843.3 963.8,-843.3 963.8,28.8 -28.8,28.8"/>
<text text-anchor="middle" x="467.5" y="-800.1" font-family="Arial Bold" font-size="13.00" fill="#000000">ER Diagram</text>
<!-- m_ActiveRecord::InternalMetadata -->
<g id="node1" class="node">
<title>m_ActiveRecord::InternalMetadata</title>
<path fill="none" stroke="#000000" d="M14.5,-85C14.5,-85 166.5,-85 166.5,-85 172.5,-85 178.5,-91 178.5,-97 178.5,-97 178.5,-116 178.5,-116 178.5,-122 172.5,-128 166.5,-128 166.5,-128 14.5,-128 14.5,-128 8.5,-128 2.5,-122 2.5,-116 2.5,-116 2.5,-97 2.5,-97 2.5,-91 8.5,-85 14.5,-85"/>
<text text-anchor="start" x="7.5" y="-115.2" font-family="Arial Bold" font-size="11.00" fill="#000000">ActiveRecord::InternalMetadata</text>
<polyline fill="none" stroke="#000000" points="2.5,-108 178.5,-108 "/>
<text text-anchor="start" x="25.5" y="-94.5" font-family="Arial" font-size="10.00" fill="#000000">value </text>
<text text-anchor="start" x="52.5" y="-94.5" font-family="Arial Italic" font-size="10.00" fill="#999999">string</text>
</g>
<!-- m_ActiveRecord::SchemaMigration -->
<g id="node2" class="node">
<title>m_ActiveRecord::SchemaMigration</title>
<path fill="none" stroke="#000000" d="M12,-158.5C12,-158.5 169,-158.5 169,-158.5 175,-158.5 181,-164.5 181,-170.5 181,-170.5 181,-182.5 181,-182.5 181,-188.5 175,-194.5 169,-194.5 169,-194.5 12,-194.5 12,-194.5 6,-194.5 0,-188.5 0,-182.5 0,-182.5 0,-170.5 0,-170.5 0,-164.5 6,-158.5 12,-158.5"/>
<text text-anchor="start" x="5.5" y="-173.7" font-family="Arial Bold" font-size="11.00" fill="#000000">ActiveRecord::SchemaMigration</text>
</g>
<!-- m_Applicant -->
<g id="node3" class="node">
<title>m_Applicant</title>
<path fill="none" stroke="#000000" d="M234,-455.5C234,-455.5 354,-455.5 354,-455.5 360,-455.5 366,-461.5 366,-467.5 366,-467.5 366,-551.5 366,-551.5 366,-557.5 360,-563.5 354,-563.5 354,-563.5 234,-563.5 234,-563.5 228,-563.5 222,-557.5 222,-551.5 222,-551.5 222,-467.5 222,-467.5 222,-461.5 228,-455.5 234,-455.5"/>
<text text-anchor="start" x="266.5" y="-550.7" font-family="Arial Bold" font-size="11.00" fill="#000000">Applicant</text>
<polyline fill="none" stroke="#000000" points="222,-543.5 366,-543.5 "/>
<text text-anchor="start" x="229" y="-530.5" font-family="Arial" font-size="10.00" fill="#000000">utorid </text>
<text text-anchor="start" x="257" y="-530.5" font-family="Arial Italic" font-size="10.00" fill="#999999">string ∗ U</text>
<text text-anchor="start" x="229" y="-517.5" font-family="Arial" font-size="10.00" fill="#000000">student_number </text>
<text text-anchor="start" x="302" y="-517.5" font-family="Arial Italic" font-size="10.00" fill="#999999">string ∗ U</text>
<text text-anchor="start" x="229" y="-504.5" font-family="Arial" font-size="10.00" fill="#000000">first_name </text>
<text text-anchor="start" x="278" y="-504.5" font-family="Arial Italic" font-size="10.00" fill="#999999">string ∗</text>
<text text-anchor="start" x="229" y="-491.5" font-family="Arial" font-size="10.00" fill="#000000">last_name </text>
<text text-anchor="start" x="278" y="-491.5" font-family="Arial Italic" font-size="10.00" fill="#999999">string ∗</text>
<text text-anchor="start" x="229" y="-478.5" font-family="Arial" font-size="10.00" fill="#000000">email </text>
<text text-anchor="start" x="256" y="-478.5" font-family="Arial Italic" font-size="10.00" fill="#999999">string ∗</text>
<text text-anchor="start" x="229" y="-465.5" font-family="Arial" font-size="10.00" fill="#000000">phone </text>
<text text-anchor="start" x="259" y="-465.5" font-family="Arial Italic" font-size="10.00" fill="#999999">string</text>
</g>
<!-- m_ApplicantDataForMatching -->
<g id="node4" class="node">
<title>m_ApplicantDataForMatching</title>
<path fill="none" stroke="#000000" d="M421.5,-561C421.5,-561 556.5,-561 556.5,-561 562.5,-561 568.5,-567 568.5,-573 568.5,-573 568.5,-670 568.5,-670 568.5,-676 562.5,-682 556.5,-682 556.5,-682 421.5,-682 421.5,-682 415.5,-682 409.5,-676 409.5,-670 409.5,-670 409.5,-573 409.5,-573 409.5,-567 415.5,-561 421.5,-561"/>
<text text-anchor="start" x="419" y="-669.2" font-family="Arial Bold" font-size="11.00" fill="#000000">ApplicantDataForMatching</text>
<polyline fill="none" stroke="#000000" points="409.5,-662 568.5,-662 "/>
<text text-anchor="start" x="417" y="-648.5" font-family="Arial" font-size="10.00" fill="#000000">program </text>
<text text-anchor="start" x="456" y="-648.5" font-family="Arial Italic" font-size="10.00" fill="#999999">string</text>
<text text-anchor="start" x="417" y="-635.5" font-family="Arial" font-size="10.00" fill="#000000">department </text>
<text text-anchor="start" x="469" y="-635.5" font-family="Arial Italic" font-size="10.00" fill="#999999">string</text>
<text text-anchor="start" x="417" y="-622.5" font-family="Arial" font-size="10.00" fill="#000000">previous_uoft_ta_experience </text>
<text text-anchor="start" x="545" y="-622.5" font-family="Arial Italic" font-size="10.00" fill="#999999">text</text>
<text text-anchor="start" x="417" y="-609.5" font-family="Arial" font-size="10.00" fill="#000000">yip </text>
<text text-anchor="start" x="433" y="-609.5" font-family="Arial Italic" font-size="10.00" fill="#999999">integer</text>
<text text-anchor="start" x="417" y="-596.5" font-family="Arial" font-size="10.00" fill="#000000">annotation </text>
<text text-anchor="start" x="466" y="-596.5" font-family="Arial Italic" font-size="10.00" fill="#999999">string</text>
<text text-anchor="start" x="417" y="-583.5" font-family="Arial" font-size="10.00" fill="#000000">applicant_id </text>
<text text-anchor="start" x="472" y="-583.5" font-family="Arial Italic" font-size="10.00" fill="#999999">integer (8) FK</text>
<text text-anchor="start" x="417" y="-570.5" font-family="Arial" font-size="10.00" fill="#000000">application_id </text>
<text text-anchor="start" x="480" y="-570.5" font-family="Arial Italic" font-size="10.00" fill="#999999">integer (8) FK</text>
</g>
<!-- m_Applicant&#45;&gt;m_ApplicantDataForMatching -->
<g id="edge5" class="edge">
<title>m_Applicant&#45;&gt;m_ApplicantDataForMatching</title>
<path fill="none" stroke="#000000" d="M366.0568,-550.8865C377.5163,-557.4683 389.48,-564.3398 401.2522,-571.1013"/>
<polygon fill="#000000" stroke="#000000" points="399.9898,-574.0088 409.363,-575.7598 403.1276,-568.5457 399.9898,-574.0088"/>
</g>
<!-- m_Assignment -->
<g id="node6" class="node">
<title>m_Assignment</title>
<path fill="none" stroke="#000000" d="M429,-323.5C429,-323.5 549,-323.5 549,-323.5 555,-323.5 561,-329.5 561,-335.5 561,-335.5 561,-419.5 561,-419.5 561,-425.5 555,-431.5 549,-431.5 549,-431.5 429,-431.5 429,-431.5 423,-431.5 417,-425.5 417,-419.5 417,-419.5 417,-335.5 417,-335.5 417,-329.5 423,-323.5 429,-323.5"/>
<text text-anchor="start" x="455" y="-418.7" font-family="Arial Bold" font-size="11.00" fill="#000000">Assignment</text>
<polyline fill="none" stroke="#000000" points="417,-411.5 561,-411.5 "/>
<text text-anchor="start" x="424" y="-398.5" font-family="Arial" font-size="10.00" fill="#000000">contract_start </text>
<text text-anchor="start" x="488" y="-398.5" font-family="Arial Italic" font-size="10.00" fill="#999999">datetime</text>
<text text-anchor="start" x="424" y="-385.5" font-family="Arial" font-size="10.00" fill="#000000">contract_end </text>
<text text-anchor="start" x="484" y="-385.5" font-family="Arial Italic" font-size="10.00" fill="#999999">datetime</text>
<text text-anchor="start" x="424" y="-372.5" font-family="Arial" font-size="10.00" fill="#000000">note </text>
<text text-anchor="start" x="446" y="-372.5" font-family="Arial Italic" font-size="10.00" fill="#999999">text</text>
<text text-anchor="start" x="424" y="-359.5" font-family="Arial" font-size="10.00" fill="#000000">offer_override_pdf </text>
<text text-anchor="start" x="506" y="-359.5" font-family="Arial Italic" font-size="10.00" fill="#999999">string</text>
<text text-anchor="start" x="424" y="-346.5" font-family="Arial" font-size="10.00" fill="#000000">position_id </text>
<text text-anchor="start" x="474" y="-346.5" font-family="Arial Italic" font-size="10.00" fill="#999999">integer (8) FK</text>
<text text-anchor="start" x="424" y="-333.5" font-family="Arial" font-size="10.00" fill="#000000">applicant_id </text>
<text text-anchor="start" x="479" y="-333.5" font-family="Arial Italic" font-size="10.00" fill="#999999">integer (8) FK</text>
</g>
<!-- m_Applicant&#45;&gt;m_Assignment -->
<g id="edge2" class="edge">
<title>m_Applicant&#45;&gt;m_Assignment</title>
<path fill="none" stroke="#000000" d="M366.0568,-460.7231C380.1922,-451.1545 395.0947,-441.0666 409.4586,-431.3434"/>
<polygon fill="#000000" stroke="#000000" points="411.2268,-433.9504 416.914,-426.2967 407.6952,-428.7332 411.2268,-433.9504"/>
</g>
<!-- m_Application -->
<g id="node5" class="node">
<title>m_Application</title>
<path fill="none" stroke="#000000" d="M234,-593.5C234,-593.5 354,-593.5 354,-593.5 360,-593.5 366,-599.5 366,-605.5 366,-605.5 366,-637.5 366,-637.5 366,-643.5 360,-649.5 354,-649.5 354,-649.5 234,-649.5 234,-649.5 228,-649.5 222,-643.5 222,-637.5 222,-637.5 222,-605.5 222,-605.5 222,-599.5 228,-593.5 234,-593.5"/>
<text text-anchor="start" x="261.5" y="-636.7" font-family="Arial Bold" font-size="11.00" fill="#000000">Application</text>
<polyline fill="none" stroke="#000000" points="222,-629.5 366,-629.5 "/>
<text text-anchor="start" x="229" y="-616.5" font-family="Arial" font-size="10.00" fill="#000000">comments </text>
<text text-anchor="start" x="278" y="-616.5" font-family="Arial Italic" font-size="10.00" fill="#999999">text</text>
<text text-anchor="start" x="229" y="-603.5" font-family="Arial" font-size="10.00" fill="#000000">session_id </text>
<text text-anchor="start" x="279" y="-603.5" font-family="Arial Italic" font-size="10.00" fill="#999999">integer (8) FK</text>
</g>
<!-- m_Application&#45;&gt;m_ApplicantDataForMatching -->
<g id="edge15" class="edge">
<title>m_Application&#45;&gt;m_ApplicantDataForMatching</title>
<path fill="none" stroke="#000000" d="M366.0568,-621.5C380.1608,-621.5 395.0286,-621.5 409.363,-621.5"/>
</g>
<!-- m_PositionPreference -->
<g id="node12" class="node">
<title>m_PositionPreference</title>
<path fill="none" stroke="#000000" d="M429,-462C429,-462 549,-462 549,-462 555,-462 561,-468 561,-474 561,-474 561,-519 561,-519 561,-525 555,-531 549,-531 549,-531 429,-531 429,-531 423,-531 417,-525 417,-519 417,-519 417,-474 417,-474 417,-468 423,-462 429,-462"/>
<text text-anchor="start" x="436.5" y="-518.2" font-family="Arial Bold" font-size="11.00" fill="#000000">PositionPreference</text>
<polyline fill="none" stroke="#000000" points="417,-511 561,-511 "/>
<text text-anchor="start" x="424" y="-497.5" font-family="Arial" font-size="10.00" fill="#000000">position_id </text>
<text text-anchor="start" x="474" y="-497.5" font-family="Arial Italic" font-size="10.00" fill="#999999">integer (8) FK</text>
<text text-anchor="start" x="424" y="-484.5" font-family="Arial" font-size="10.00" fill="#000000">application_id </text>
<text text-anchor="start" x="487" y="-484.5" font-family="Arial Italic" font-size="10.00" fill="#999999">integer (8) FK</text>
<text text-anchor="start" x="424" y="-471.5" font-family="Arial" font-size="10.00" fill="#000000">preference_level </text>
<text text-anchor="start" x="499" y="-471.5" font-family="Arial Italic" font-size="10.00" fill="#999999">integer</text>
</g>
<!-- m_Application&#45;&gt;m_PositionPreference -->
<g id="edge17" class="edge">
<title>m_Application&#45;&gt;m_PositionPreference</title>
<path fill="none" stroke="#000000" d="M347.9439,-593.3552C355.8511,-588.6663 363.7619,-583.6452 371,-578.5 388.4481,-566.097 389.7923,-559.2345 407,-546.5 411.7727,-542.968 416.8042,-539.4511 421.9302,-536.0136"/>
<polygon fill="#000000" stroke="#000000" points="423.7009,-538.6192 429.4888,-531.0414 420.2386,-533.3559 423.7009,-538.6192"/>
</g>
<!-- m_Offer -->
<g id="node8" class="node">
<title>m_Offer</title>
<path fill="none" stroke="#000000" d="M619,-448C619,-448 742,-448 742,-448 748,-448 754,-454 754,-460 754,-460 754,-765 754,-765 754,-771 748,-777 742,-777 742,-777 619,-777 619,-777 613,-777 607,-771 607,-765 607,-765 607,-460 607,-460 607,-454 613,-448 619,-448"/>
<text text-anchor="start" x="665" y="-764.2" font-family="Arial Bold" font-size="11.00" fill="#000000">Offer</text>
<polyline fill="none" stroke="#000000" points="607,-757 754,-757 "/>
<text text-anchor="start" x="614.5" y="-743.5" font-family="Arial" font-size="10.00" fill="#000000">assignment_id </text>
<text text-anchor="start" x="681.5" y="-743.5" font-family="Arial Italic" font-size="10.00" fill="#999999">integer (8) FK</text>
<text text-anchor="start" x="614.5" y="-730.5" font-family="Arial" font-size="10.00" fill="#000000">offer_template </text>
<text text-anchor="start" x="680.5" y="-730.5" font-family="Arial Italic" font-size="10.00" fill="#999999">string</text>
<text text-anchor="start" x="614.5" y="-717.5" font-family="Arial" font-size="10.00" fill="#000000">offer_override_pdf </text>
<text text-anchor="start" x="696.5" y="-717.5" font-family="Arial Italic" font-size="10.00" fill="#999999">string</text>
<text text-anchor="start" x="614.5" y="-704.5" font-family="Arial" font-size="10.00" fill="#000000">first_name </text>
<text text-anchor="start" x="663.5" y="-704.5" font-family="Arial Italic" font-size="10.00" fill="#999999">string</text>
<text text-anchor="start" x="614.5" y="-691.5" font-family="Arial" font-size="10.00" fill="#000000">last_name </text>
<text text-anchor="start" x="663.5" y="-691.5" font-family="Arial Italic" font-size="10.00" fill="#999999">string</text>
<text text-anchor="start" x="614.5" y="-678.5" font-family="Arial" font-size="10.00" fill="#000000">email </text>
<text text-anchor="start" x="641.5" y="-678.5" font-family="Arial Italic" font-size="10.00" fill="#999999">string</text>
<text text-anchor="start" x="614.5" y="-665.5" font-family="Arial" font-size="10.00" fill="#000000">position_code </text>
<text text-anchor="start" x="678.5" y="-665.5" font-family="Arial Italic" font-size="10.00" fill="#999999">string</text>
<text text-anchor="start" x="614.5" y="-652.5" font-family="Arial" font-size="10.00" fill="#000000">position_title </text>
<text text-anchor="start" x="672.5" y="-652.5" font-family="Arial Italic" font-size="10.00" fill="#999999">string</text>
<text text-anchor="start" x="614.5" y="-639.5" font-family="Arial" font-size="10.00" fill="#000000">position_start_date </text>
<text text-anchor="start" x="700.5" y="-639.5" font-family="Arial Italic" font-size="10.00" fill="#999999">datetime</text>
<text text-anchor="start" x="614.5" y="-626.5" font-family="Arial" font-size="10.00" fill="#000000">position_end_date </text>
<text text-anchor="start" x="696.5" y="-626.5" font-family="Arial Italic" font-size="10.00" fill="#999999">datetime</text>
<text text-anchor="start" x="614.5" y="-613.5" font-family="Arial" font-size="10.00" fill="#000000">first_time_ta </text>
<text text-anchor="start" x="672.5" y="-613.5" font-family="Arial Italic" font-size="10.00" fill="#999999">boolean</text>
<text text-anchor="start" x="614.5" y="-600.5" font-family="Arial" font-size="10.00" fill="#000000">instructor_contact_desc </text>
<text text-anchor="start" x="722.5" y="-600.5" font-family="Arial Italic" font-size="10.00" fill="#999999">string</text>
<text text-anchor="start" x="614.5" y="-587.5" font-family="Arial" font-size="10.00" fill="#000000">pay_period_desc </text>
<text text-anchor="start" x="691.5" y="-587.5" font-family="Arial Italic" font-size="10.00" fill="#999999">string</text>
<text text-anchor="start" x="614.5" y="-574.5" font-family="Arial" font-size="10.00" fill="#000000">installments </text>
<text text-anchor="start" x="670.5" y="-574.5" font-family="Arial Italic" font-size="10.00" fill="#999999">integer</text>
<text text-anchor="start" x="614.5" y="-561.5" font-family="Arial" font-size="10.00" fill="#000000">ta_coordinator_name </text>
<text text-anchor="start" x="708.5" y="-561.5" font-family="Arial Italic" font-size="10.00" fill="#999999">string</text>
<text text-anchor="start" x="614.5" y="-548.5" font-family="Arial" font-size="10.00" fill="#000000">ta_coordinator_email </text>
<text text-anchor="start" x="708.5" y="-548.5" font-family="Arial Italic" font-size="10.00" fill="#999999">string</text>
<text text-anchor="start" x="614.5" y="-535.5" font-family="Arial" font-size="10.00" fill="#000000">emailed_date </text>
<text text-anchor="start" x="675.5" y="-535.5" font-family="Arial Italic" font-size="10.00" fill="#999999">datetime</text>
<text text-anchor="start" x="614.5" y="-522.5" font-family="Arial" font-size="10.00" fill="#000000">signature </text>
<text text-anchor="start" x="657.5" y="-522.5" font-family="Arial Italic" font-size="10.00" fill="#999999">string</text>
<text text-anchor="start" x="614.5" y="-509.5" font-family="Arial" font-size="10.00" fill="#000000">accepted_date </text>
<text text-anchor="start" x="681.5" y="-509.5" font-family="Arial Italic" font-size="10.00" fill="#999999">datetime</text>
<text text-anchor="start" x="614.5" y="-496.5" font-family="Arial" font-size="10.00" fill="#000000">rejected_date </text>
<text text-anchor="start" x="676.5" y="-496.5" font-family="Arial Italic" font-size="10.00" fill="#999999">datetime</text>
<text text-anchor="start" x="614.5" y="-483.5" font-family="Arial" font-size="10.00" fill="#000000">withdrawn_date </text>
<text text-anchor="start" x="686.5" y="-483.5" font-family="Arial Italic" font-size="10.00" fill="#999999">datetime</text>
<text text-anchor="start" x="614.5" y="-470.5" font-family="Arial" font-size="10.00" fill="#000000">nag_count </text>
<text text-anchor="start" x="663.5" y="-470.5" font-family="Arial Italic" font-size="10.00" fill="#999999">integer</text>
<text text-anchor="start" x="614.5" y="-457.5" font-family="Arial" font-size="10.00" fill="#000000">email_count </text>
<text text-anchor="start" x="670.5" y="-457.5" font-family="Arial Italic" font-size="10.00" fill="#999999">integer</text>
</g>
<!-- m_Assignment&#45;&gt;m_Offer -->
<g id="edge1" class="edge">
<title>m_Assignment&#45;&gt;m_Offer</title>
<path fill="none" stroke="#000000" d="M555.8545,-431.7492C561.1597,-436.8907 566.283,-442.1763 571,-447.5 581.4843,-459.3329 591.7351,-472.2386 601.4981,-485.4499"/>
<polygon fill="#000000" stroke="#000000" points="599.022,-487.4006 606.8702,-492.8162 604.1121,-483.6884 599.022,-487.4006"/>
</g>
<!-- m_WageChunk -->
<g id="node17" class="node">
<title>m_WageChunk</title>
<path fill="none" stroke="#000000" d="M620.5,-323C620.5,-323 740.5,-323 740.5,-323 746.5,-323 752.5,-329 752.5,-335 752.5,-335 752.5,-406 752.5,-406 752.5,-412 746.5,-418 740.5,-418 740.5,-418 620.5,-418 620.5,-418 614.5,-418 608.5,-412 608.5,-406 608.5,-406 608.5,-335 608.5,-335 608.5,-329 614.5,-323 620.5,-323"/>
<text text-anchor="start" x="646.5" y="-405.2" font-family="Arial Bold" font-size="11.00" fill="#000000">WageChunk</text>
<polyline fill="none" stroke="#000000" points="608.5,-398 752.5,-398 "/>
<text text-anchor="start" x="615.5" y="-384.5" font-family="Arial" font-size="10.00" fill="#000000">hours </text>
<text text-anchor="start" x="643.5" y="-384.5" font-family="Arial Italic" font-size="10.00" fill="#999999">float</text>
<text text-anchor="start" x="615.5" y="-371.5" font-family="Arial" font-size="10.00" fill="#000000">rate </text>
<text text-anchor="start" x="635.5" y="-371.5" font-family="Arial Italic" font-size="10.00" fill="#999999">float</text>
<text text-anchor="start" x="615.5" y="-358.5" font-family="Arial" font-size="10.00" fill="#000000">start_date </text>
<text text-anchor="start" x="662.5" y="-358.5" font-family="Arial Italic" font-size="10.00" fill="#999999">datetime</text>
<text text-anchor="start" x="615.5" y="-345.5" font-family="Arial" font-size="10.00" fill="#000000">end_date </text>
<text text-anchor="start" x="658.5" y="-345.5" font-family="Arial Italic" font-size="10.00" fill="#999999">datetime</text>
<text text-anchor="start" x="615.5" y="-332.5" font-family="Arial" font-size="10.00" fill="#000000">assignment_id </text>
<text text-anchor="start" x="682.5" y="-332.5" font-family="Arial Italic" font-size="10.00" fill="#999999">integer (8) FK</text>
</g>
<!-- m_Assignment&#45;&gt;m_WageChunk -->
<g id="edge4" class="edge">
<title>m_Assignment&#45;&gt;m_WageChunk</title>
<path fill="none" stroke="#000000" d="M561.1251,-374.8636C573.5813,-374.4083 586.6064,-373.9321 599.2836,-373.4687"/>
<polygon fill="#000000" stroke="#000000" points="599.561,-376.6108 608.4399,-373.134 599.3308,-370.315 599.561,-376.6108"/>
</g>
<!-- m_Instructor -->
<g id="node7" class="node">
<title>m_Instructor</title>
<path fill="none" stroke="#000000" d="M30.5,-224.5C30.5,-224.5 150.5,-224.5 150.5,-224.5 156.5,-224.5 162.5,-230.5 162.5,-236.5 162.5,-236.5 162.5,-294.5 162.5,-294.5 162.5,-300.5 156.5,-306.5 150.5,-306.5 150.5,-306.5 30.5,-306.5 30.5,-306.5 24.5,-306.5 18.5,-300.5 18.5,-294.5 18.5,-294.5 18.5,-236.5 18.5,-236.5 18.5,-230.5 24.5,-224.5 30.5,-224.5"/>
<text text-anchor="start" x="62.5" y="-293.7" font-family="Arial Bold" font-size="11.00" fill="#000000">Instructor</text>
<polyline fill="none" stroke="#000000" points="18.5,-286.5 162.5,-286.5 "/>
<text text-anchor="start" x="25.5" y="-273.5" font-family="Arial" font-size="10.00" fill="#000000">last_name </text>
<text text-anchor="start" x="74.5" y="-273.5" font-family="Arial Italic" font-size="10.00" fill="#999999">string ∗</text>
<text text-anchor="start" x="25.5" y="-260.5" font-family="Arial" font-size="10.00" fill="#000000">first_name </text>
<text text-anchor="start" x="74.5" y="-260.5" font-family="Arial Italic" font-size="10.00" fill="#999999">string ∗</text>
<text text-anchor="start" x="25.5" y="-247.5" font-family="Arial" font-size="10.00" fill="#000000">email </text>
<text text-anchor="start" x="52.5" y="-247.5" font-family="Arial Italic" font-size="10.00" fill="#999999">string ∗</text>
<text text-anchor="start" x="25.5" y="-234.5" font-family="Arial" font-size="10.00" fill="#000000">utorid </text>
<text text-anchor="start" x="53.5" y="-234.5" font-family="Arial Italic" font-size="10.00" fill="#999999">string ∗ U</text>
</g>
<!-- m_Position -->
<g id="node9" class="node">
<title>m_Position</title>
<path fill="none" stroke="#000000" d="M229,-205C229,-205 359,-205 359,-205 365,-205 371,-211 371,-217 371,-217 371,-314 371,-314 371,-320 365,-326 359,-326 359,-326 229,-326 229,-326 223,-326 217,-320 217,-314 217,-314 217,-217 217,-217 217,-211 223,-205 229,-205"/>
<text text-anchor="start" x="270" y="-313.2" font-family="Arial Bold" font-size="11.00" fill="#000000">Position</text>
<polyline fill="none" stroke="#000000" points="217,-306 371,-306 "/>
<text text-anchor="start" x="224" y="-292.5" font-family="Arial" font-size="10.00" fill="#000000">session_id </text>
<text text-anchor="start" x="274" y="-292.5" font-family="Arial Italic" font-size="10.00" fill="#999999">integer (8) FK</text>
<text text-anchor="start" x="224" y="-279.5" font-family="Arial" font-size="10.00" fill="#000000">position_code </text>
<text text-anchor="start" x="288" y="-279.5" font-family="Arial Italic" font-size="10.00" fill="#999999">string</text>
<text text-anchor="start" x="224" y="-266.5" font-family="Arial" font-size="10.00" fill="#000000">position_title </text>
<text text-anchor="start" x="282" y="-266.5" font-family="Arial Italic" font-size="10.00" fill="#999999">string</text>
<text text-anchor="start" x="224" y="-253.5" font-family="Arial" font-size="10.00" fill="#000000">est_hours_per_assignment </text>
<text text-anchor="start" x="345" y="-253.5" font-family="Arial Italic" font-size="10.00" fill="#999999">float</text>
<text text-anchor="start" x="224" y="-240.5" font-family="Arial" font-size="10.00" fill="#000000">est_start_date </text>
<text text-anchor="start" x="290" y="-240.5" font-family="Arial Italic" font-size="10.00" fill="#999999">datetime</text>
<text text-anchor="start" x="224" y="-227.5" font-family="Arial" font-size="10.00" fill="#000000">est_end_date </text>
<text text-anchor="start" x="286" y="-227.5" font-family="Arial Italic" font-size="10.00" fill="#999999">datetime</text>
<text text-anchor="start" x="224" y="-214.5" font-family="Arial" font-size="10.00" fill="#000000">position_type </text>
<text text-anchor="start" x="285" y="-214.5" font-family="Arial Italic" font-size="10.00" fill="#999999">string</text>
</g>
<!-- m_Instructor&#45;&gt;m_Position -->
<g id="edge7" class="edge">
<title>m_Instructor&#45;&gt;m_Position</title>
<path fill="none" stroke="#000000" d="M171.7152,-265.5C183.5838,-265.5 195.8414,-265.5 207.8051,-265.5"/>
<polygon fill="#000000" stroke="#000000" points="171.5329,-262.3501 162.5329,-265.5 171.5328,-268.6501 171.5329,-262.3501"/>
<polygon fill="#000000" stroke="#000000" points="207.8852,-268.6501 216.8852,-265.5 207.8851,-262.3501 207.8852,-268.6501"/>
</g>
<!-- m_Position&#45;&gt;m_Application -->
<g id="edge11" class="edge">
<title>m_Position&#45;&gt;m_Application</title>
<path fill="none" stroke="#000000" stroke-dasharray="1,5" d="M217.6111,-326.1134C210.0984,-335.3063 203.5756,-345.3217 199,-356 180.795,-398.4861 179.0475,-522.306 199,-564 203.3964,-573.1869 210.0238,-581.0308 217.7742,-587.6947"/>
<polygon fill="#000000" stroke="#000000" points="216.1471,-590.4213 225.1759,-593.4876 220.0299,-585.4601 216.1471,-590.4213"/>
</g>
<!-- m_Position&#45;&gt;m_Assignment -->
<g id="edge3" class="edge">
<title>m_Position&#45;&gt;m_Assignment</title>
<path fill="none" stroke="#000000" d="M371.0692,-309.7654C383.4697,-316.8877 396.3319,-324.2753 408.8039,-331.4386"/>
<polygon fill="#000000" stroke="#000000" points="407.5614,-334.3576 416.9346,-336.1086 410.6991,-328.8945 407.5614,-334.3576"/>
</g>
<!-- m_PositionDataForAd -->
<g id="node10" class="node">
<title>m_PositionDataForAd</title>
<path fill="none" stroke="#000000" d="M425.5,-113C425.5,-113 552.5,-113 552.5,-113 558.5,-113 564.5,-119 564.5,-125 564.5,-125 564.5,-222 564.5,-222 564.5,-228 558.5,-234 552.5,-234 552.5,-234 425.5,-234 425.5,-234 419.5,-234 413.5,-228 413.5,-222 413.5,-222 413.5,-125 413.5,-125 413.5,-119 419.5,-113 425.5,-113"/>
<text text-anchor="start" x="436.5" y="-221.2" font-family="Arial Bold" font-size="11.00" fill="#000000">PositionDataForAd</text>
<polyline fill="none" stroke="#000000" points="413.5,-214 564.5,-214 "/>
<text text-anchor="start" x="421" y="-200.5" font-family="Arial" font-size="10.00" fill="#000000">duties </text>
<text text-anchor="start" x="451" y="-200.5" font-family="Arial Italic" font-size="10.00" fill="#999999">text</text>
<text text-anchor="start" x="421" y="-187.5" font-family="Arial" font-size="10.00" fill="#000000">qualifications </text>
<text text-anchor="start" x="482" y="-187.5" font-family="Arial Italic" font-size="10.00" fill="#999999">text</text>
<text text-anchor="start" x="421" y="-174.5" font-family="Arial" font-size="10.00" fill="#000000">ad_hours_per_assignment </text>
<text text-anchor="start" x="539" y="-174.5" font-family="Arial Italic" font-size="10.00" fill="#999999">float</text>
<text text-anchor="start" x="421" y="-161.5" font-family="Arial" font-size="10.00" fill="#000000">ad_num_assignments </text>
<text text-anchor="start" x="520" y="-161.5" font-family="Arial Italic" font-size="10.00" fill="#999999">integer</text>
<text text-anchor="start" x="421" y="-148.5" font-family="Arial" font-size="10.00" fill="#000000">ad_open_date </text>
<text text-anchor="start" x="485" y="-148.5" font-family="Arial Italic" font-size="10.00" fill="#999999">datetime</text>
<text text-anchor="start" x="421" y="-135.5" font-family="Arial" font-size="10.00" fill="#000000">ad_close_date </text>
<text text-anchor="start" x="488" y="-135.5" font-family="Arial Italic" font-size="10.00" fill="#999999">datetime</text>
<text text-anchor="start" x="421" y="-122.5" font-family="Arial" font-size="10.00" fill="#000000">position_id </text>
<text text-anchor="start" x="471" y="-122.5" font-family="Arial Italic" font-size="10.00" fill="#999999">integer (8) FK</text>
</g>
<!-- m_Position&#45;&gt;m_PositionDataForAd -->
<g id="edge12" class="edge">
<title>m_Position&#45;&gt;m_PositionDataForAd</title>
<path fill="none" stroke="#000000" d="M371.0692,-229.1392C385.015,-222.5596 399.5447,-215.7045 413.4466,-209.1457"/>
</g>
<!-- m_PositionDataForMatching -->
<g id="node11" class="node">
<title>m_PositionDataForMatching</title>
<path fill="none" stroke="#000000" d="M419,-.5C419,-.5 559,-.5 559,-.5 565,-.5 571,-6.5 571,-12.5 571,-12.5 571,-70.5 571,-70.5 571,-76.5 565,-82.5 559,-82.5 559,-82.5 419,-82.5 419,-82.5 413,-82.5 407,-76.5 407,-70.5 407,-70.5 407,-12.5 407,-12.5 407,-6.5 413,-.5 419,-.5"/>
<text text-anchor="start" x="422" y="-69.7" font-family="Arial Bold" font-size="11.00" fill="#000000">PositionDataForMatching</text>
<polyline fill="none" stroke="#000000" points="407,-62.5 571,-62.5 "/>
<text text-anchor="start" x="414" y="-49.5" font-family="Arial" font-size="10.00" fill="#000000">desired_num_assignments </text>
<text text-anchor="start" x="534" y="-49.5" font-family="Arial Italic" font-size="10.00" fill="#999999">integer</text>
<text text-anchor="start" x="414" y="-36.5" font-family="Arial" font-size="10.00" fill="#000000">current_enrollment </text>
<text text-anchor="start" x="498" y="-36.5" font-family="Arial Italic" font-size="10.00" fill="#999999">integer</text>
<text text-anchor="start" x="414" y="-23.5" font-family="Arial" font-size="10.00" fill="#000000">current_waitlisted </text>
<text text-anchor="start" x="494" y="-23.5" font-family="Arial Italic" font-size="10.00" fill="#999999">integer</text>
<text text-anchor="start" x="414" y="-10.5" font-family="Arial" font-size="10.00" fill="#000000">position_id </text>
<text text-anchor="start" x="464" y="-10.5" font-family="Arial Italic" font-size="10.00" fill="#999999">integer (8) FK</text>
</g>
<!-- m_Position&#45;&gt;m_PositionDataForMatching -->
<g id="edge6" class="edge">
<title>m_Position&#45;&gt;m_PositionDataForMatching</title>
<path fill="none" stroke="#000000" d="M327.2012,-204.6464C347.4895,-170.7712 375.5456,-129.1774 407,-97.5 412.1017,-92.3622 417.7365,-87.4029 423.5922,-82.7018"/>
</g>
<!-- m_Position&#45;&gt;m_PositionPreference -->
<g id="edge10" class="edge">
<title>m_Position&#45;&gt;m_PositionPreference</title>
<path fill="none" stroke="#000000" d="M359.983,-326.0905C363.9742,-331.0943 367.7017,-336.2521 371,-341.5 397.2518,-383.2687 376.1038,-408.0396 407,-446.5 409.5258,-449.6441 412.3063,-452.6405 415.2708,-455.4889"/>
<polygon fill="#000000" stroke="#000000" points="413.6586,-458.2679 422.4888,-461.8667 417.8302,-453.5468 413.6586,-458.2679"/>
</g>
<!-- m_ReportingTag -->
<g id="node14" class="node">
<title>m_ReportingTag</title>
<path fill="none" stroke="#000000" d="M802,-290C802,-290 923,-290 923,-290 929,-290 935,-296 935,-302 935,-302 935,-347 935,-347 935,-353 929,-359 923,-359 923,-359 802,-359 802,-359 796,-359 790,-353 790,-347 790,-347 790,-302 790,-302 790,-296 796,-290 802,-290"/>
<text text-anchor="start" x="824.5" y="-346.2" font-family="Arial Bold" font-size="11.00" fill="#000000">ReportingTag</text>
<polyline fill="none" stroke="#000000" points="790,-339 935,-339 "/>
<text text-anchor="start" x="797.5" y="-325.5" font-family="Arial" font-size="10.00" fill="#000000">name </text>
<text text-anchor="start" x="825.5" y="-325.5" font-family="Arial Italic" font-size="10.00" fill="#999999">string</text>
<text text-anchor="start" x="797.5" y="-312.5" font-family="Arial" font-size="10.00" fill="#000000">position_id </text>
<text text-anchor="start" x="847.5" y="-312.5" font-family="Arial Italic" font-size="10.00" fill="#999999">integer (8) FK</text>
<text text-anchor="start" x="797.5" y="-299.5" font-family="Arial" font-size="10.00" fill="#000000">wage_chunk_id </text>
<text text-anchor="start" x="868.5" y="-299.5" font-family="Arial Italic" font-size="10.00" fill="#999999">integer (8) FK</text>
</g>
<!-- m_Position&#45;&gt;m_ReportingTag -->
<g id="edge9" class="edge">
<title>m_Position&#45;&gt;m_ReportingTag</title>
<path fill="none" stroke="#000000" d="M371.0765,-271.0137C462.5775,-277.9113 619.7001,-290.8652 754,-307.5 762.7278,-308.581 771.8328,-309.8244 780.8957,-311.1365"/>
<polygon fill="#000000" stroke="#000000" points="780.5659,-314.2719 789.9291,-312.4681 781.4847,-308.0392 780.5659,-314.2719"/>
</g>
<!-- m_PositionTemplate -->
<g id="node13" class="node">
<title>m_PositionTemplate</title>
<path fill="none" stroke="#000000" d="M234,-356C234,-356 354,-356 354,-356 360,-356 366,-362 366,-368 366,-368 366,-413 366,-413 366,-419 360,-425 354,-425 354,-425 234,-425 234,-425 228,-425 222,-419 222,-413 222,-413 222,-368 222,-368 222,-362 228,-356 234,-356"/>
<text text-anchor="start" x="246.5" y="-412.2" font-family="Arial Bold" font-size="11.00" fill="#000000">PositionTemplate</text>
<polyline fill="none" stroke="#000000" points="222,-405 366,-405 "/>
<text text-anchor="start" x="229" y="-391.5" font-family="Arial" font-size="10.00" fill="#000000">position_type </text>
<text text-anchor="start" x="290" y="-391.5" font-family="Arial Italic" font-size="10.00" fill="#999999">string</text>
<text text-anchor="start" x="229" y="-378.5" font-family="Arial" font-size="10.00" fill="#000000">offer_template </text>
<text text-anchor="start" x="295" y="-378.5" font-family="Arial Italic" font-size="10.00" fill="#999999">string</text>
<text text-anchor="start" x="229" y="-365.5" font-family="Arial" font-size="10.00" fill="#000000">session_id </text>
<text text-anchor="start" x="279" y="-365.5" font-family="Arial Italic" font-size="10.00" fill="#999999">integer (8) FK</text>
</g>
<!-- m_Session -->
<g id="node15" class="node">
<title>m_Session</title>
<path fill="none" stroke="#000000" d="M30.5,-343C30.5,-343 150.5,-343 150.5,-343 156.5,-343 162.5,-349 162.5,-355 162.5,-355 162.5,-426 162.5,-426 162.5,-432 156.5,-438 150.5,-438 150.5,-438 30.5,-438 30.5,-438 24.5,-438 18.5,-432 18.5,-426 18.5,-426 18.5,-355 18.5,-355 18.5,-349 24.5,-343 30.5,-343"/>
<text text-anchor="start" x="67" y="-425.2" font-family="Arial Bold" font-size="11.00" fill="#000000">Session</text>
<polyline fill="none" stroke="#000000" points="18.5,-418 162.5,-418 "/>
<text text-anchor="start" x="25.5" y="-404.5" font-family="Arial" font-size="10.00" fill="#000000">start_date </text>
<text text-anchor="start" x="72.5" y="-404.5" font-family="Arial Italic" font-size="10.00" fill="#999999">datetime</text>
<text text-anchor="start" x="25.5" y="-391.5" font-family="Arial" font-size="10.00" fill="#000000">end_date </text>
<text text-anchor="start" x="68.5" y="-391.5" font-family="Arial Italic" font-size="10.00" fill="#999999">datetime</text>
<text text-anchor="start" x="25.5" y="-378.5" font-family="Arial" font-size="10.00" fill="#000000">name </text>
<text text-anchor="start" x="53.5" y="-378.5" font-family="Arial Italic" font-size="10.00" fill="#999999">string</text>
<text text-anchor="start" x="25.5" y="-365.5" font-family="Arial" font-size="10.00" fill="#000000">rate1 </text>
<text text-anchor="start" x="50.5" y="-365.5" font-family="Arial Italic" font-size="10.00" fill="#999999">float</text>
<text text-anchor="start" x="25.5" y="-352.5" font-family="Arial" font-size="10.00" fill="#000000">rate2 </text>
<text text-anchor="start" x="50.5" y="-352.5" font-family="Arial Italic" font-size="10.00" fill="#999999">float</text>
</g>
<!-- m_Session&#45;&gt;m_Application -->
<g id="edge14" class="edge">
<title>m_Session&#45;&gt;m_Application</title>
<path fill="none" stroke="#000000" d="M162.9324,-433.6759C169.6653,-439.7202 175.8722,-446.3407 181,-453.5 214.6642,-500.5015 181.0553,-533.2186 217,-578.5 219.4632,-581.603 222.2151,-584.518 225.1721,-587.2513"/>
<polygon fill="#000000" stroke="#000000" points="223.4808,-589.9434 232.405,-593.3024 227.5233,-585.1114 223.4808,-589.9434"/>
</g>
<!-- m_Session&#45;&gt;m_Position -->
<g id="edge8" class="edge">
<title>m_Session&#45;&gt;m_Position</title>
<path fill="none" stroke="#000000" d="M162.5329,-346.2538C177.5271,-337.0435 193.4651,-327.2536 208.8798,-317.7851"/>
<polygon fill="#000000" stroke="#000000" points="210.8651,-320.2625 216.8852,-312.8678 207.5676,-314.8944 210.8651,-320.2625"/>
</g>
<!-- m_Session&#45;&gt;m_PositionTemplate -->
<g id="edge18" class="edge">
<title>m_Session&#45;&gt;m_PositionTemplate</title>
<path fill="none" stroke="#000000" d="M162.5329,-390.5C178.7402,-390.5 196.0501,-390.5 212.6099,-390.5"/>
<polygon fill="#000000" stroke="#000000" points="212.7209,-393.6501 221.7208,-390.5 212.7208,-387.3501 212.7209,-393.6501"/>
</g>
<!-- m_User -->
<g id="node16" class="node">
<title>m_User</title>
<path fill="none" stroke="#000000" d="M30.5,-468.5C30.5,-468.5 150.5,-468.5 150.5,-468.5 156.5,-468.5 162.5,-474.5 162.5,-480.5 162.5,-480.5 162.5,-512.5 162.5,-512.5 162.5,-518.5 156.5,-524.5 150.5,-524.5 150.5,-524.5 30.5,-524.5 30.5,-524.5 24.5,-524.5 18.5,-518.5 18.5,-512.5 18.5,-512.5 18.5,-480.5 18.5,-480.5 18.5,-474.5 24.5,-468.5 30.5,-468.5"/>
<text text-anchor="start" x="76" y="-511.7" font-family="Arial Bold" font-size="11.00" fill="#000000">User</text>
<polyline fill="none" stroke="#000000" points="18.5,-504.5 162.5,-504.5 "/>
<text text-anchor="start" x="25.5" y="-491.5" font-family="Arial" font-size="10.00" fill="#000000">utorid </text>
<text text-anchor="start" x="53.5" y="-491.5" font-family="Arial Italic" font-size="10.00" fill="#999999">string ∗ U</text>
<text text-anchor="start" x="25.5" y="-478.5" font-family="Arial" font-size="10.00" fill="#000000">role </text>
<text text-anchor="start" x="44.5" y="-478.5" font-family="Arial Italic" font-size="10.00" fill="#999999">integer</text>
</g>
<!-- m_WageChunk&#45;&gt;m_ReportingTag -->
<g id="edge13" class="edge">
<title>m_WageChunk&#45;&gt;m_ReportingTag</title>
<path fill="none" stroke="#000000" d="M752.6926,-352.2535C761.9433,-349.9154 771.4651,-347.5088 780.8528,-345.1361"/>
<polygon fill="#000000" stroke="#000000" points="781.8453,-348.1344 789.799,-342.875 780.3014,-342.0265 781.8453,-348.1344"/>
</g>
</g>
</svg>
