<?xml version="1.0" encoding="UTF-8" standalone="no"?>
<!DOCTYPE svg PUBLIC "-//W3C//DTD SVG 1.1//EN"
 "http://www.w3.org/Graphics/SVG/1.1/DTD/svg11.dtd">
<!-- Generated by graphviz version 2.44.0 ()
 -->
<!-- Title: Tapp Pages: 1 -->
<svg width="1180pt" height="806pt"
 viewBox="0.00 0.00 1179.60 806.36" xmlns="http://www.w3.org/2000/svg" xmlns:xlink="http://www.w3.org/1999/xlink">
<g id="graph0" class="graph" transform="scale(1 1) rotate(0) translate(28.8 777.56)">
<title>Tapp</title>
<polygon fill="white" stroke="transparent" points="-28.8,28.8 -28.8,-777.56 1150.8,-777.56 1150.8,28.8 -28.8,28.8"/>
<text text-anchor="middle" x="561" y="-734.36" font-family="Arial Bold" font-size="13.00">ER Diagram</text>
<!-- m_ActiveRecord::InternalMetadata -->
<g id="node1" class="node">
<title>m_ActiveRecord::InternalMetadata</title>
<path fill="none" stroke="black" d="M14.5,-285.5C14.5,-285.5 166.5,-285.5 166.5,-285.5 172.5,-285.5 178.5,-291.5 178.5,-297.5 178.5,-297.5 178.5,-316.5 178.5,-316.5 178.5,-322.5 172.5,-328.5 166.5,-328.5 166.5,-328.5 14.5,-328.5 14.5,-328.5 8.5,-328.5 2.5,-322.5 2.5,-316.5 2.5,-316.5 2.5,-297.5 2.5,-297.5 2.5,-291.5 8.5,-285.5 14.5,-285.5"/>
<text text-anchor="start" x="7.5" y="-315.7" font-family="Arial Bold" font-size="11.00">ActiveRecord::InternalMetadata</text>
<polyline fill="none" stroke="black" points="2.5,-308.5 178.5,-308.5 "/>
<text text-anchor="start" x="25.5" y="-295" font-family="Arial" font-size="10.00">value </text>
<text text-anchor="start" x="52.5" y="-295" font-family="Arial Italic" font-size="10.00" fill="#999999">string</text>
</g>
<!-- m_ActiveRecord::SchemaMigration -->
<g id="node2" class="node">
<title>m_ActiveRecord::SchemaMigration</title>
<path fill="none" stroke="black" d="M12,-359C12,-359 169,-359 169,-359 175,-359 181,-365 181,-371 181,-371 181,-383 181,-383 181,-389 175,-395 169,-395 169,-395 12,-395 12,-395 6,-395 0,-389 0,-383 0,-383 0,-371 0,-371 0,-365 6,-359 12,-359"/>
<text text-anchor="start" x="5.5" y="-374.2" font-family="Arial Bold" font-size="11.00">ActiveRecord::SchemaMigration</text>
</g>
<!-- m_Applicant -->
<g id="node3" class="node">
<title>m_Applicant</title>
<path fill="none" stroke="black" d="M229,-353C229,-353 349,-353 349,-353 355,-353 361,-359 361,-365 361,-365 361,-449 361,-449 361,-455 355,-461 349,-461 349,-461 229,-461 229,-461 223,-461 217,-455 217,-449 217,-449 217,-365 217,-365 217,-359 223,-353 229,-353"/>
<text text-anchor="start" x="261.5" y="-448.2" font-family="Arial Bold" font-size="11.00">Applicant</text>
<polyline fill="none" stroke="black" points="217,-441 361,-441 "/>
<text text-anchor="start" x="224" y="-428" font-family="Arial" font-size="10.00">email </text>
<text text-anchor="start" x="251" y="-428" font-family="Arial Italic" font-size="10.00" fill="#999999">string</text>
<text text-anchor="start" x="224" y="-415" font-family="Arial" font-size="10.00">first_name </text>
<text text-anchor="start" x="273" y="-415" font-family="Arial Italic" font-size="10.00" fill="#999999">string</text>
<text text-anchor="start" x="224" y="-402" font-family="Arial" font-size="10.00">last_name </text>
<text text-anchor="start" x="273" y="-402" font-family="Arial Italic" font-size="10.00" fill="#999999">string</text>
<text text-anchor="start" x="224" y="-389" font-family="Arial" font-size="10.00">phone </text>
<text text-anchor="start" x="254" y="-389" font-family="Arial Italic" font-size="10.00" fill="#999999">string</text>
<text text-anchor="start" x="224" y="-376" font-family="Arial" font-size="10.00">student_number </text>
<text text-anchor="start" x="297" y="-376" font-family="Arial Italic" font-size="10.00" fill="#999999">string</text>
<text text-anchor="start" x="224" y="-363" font-family="Arial" font-size="10.00">utorid </text>
<text text-anchor="start" x="252" y="-363" font-family="Arial Italic" font-size="10.00" fill="#999999">string ∗ U</text>
</g>
<!-- m_Application -->
<g id="node4" class="node">
<title>m_Application</title>
<path fill="none" stroke="black" d="M422,-215C422,-215 549,-215 549,-215 555,-215 561,-221 561,-227 561,-227 561,-389 561,-389 561,-395 555,-401 549,-401 549,-401 422,-401 422,-401 416,-401 410,-395 410,-389 410,-389 410,-227 410,-227 410,-221 416,-215 422,-215"/>
<text text-anchor="start" x="453" y="-388.2" font-family="Arial Bold" font-size="11.00">Application</text>
<polyline fill="none" stroke="black" points="410,-381 561,-381 "/>
<text text-anchor="start" x="417.5" y="-368" font-family="Arial" font-size="10.00">annotation </text>
<text text-anchor="start" x="466.5" y="-368" font-family="Arial Italic" font-size="10.00" fill="#999999">string</text>
<text text-anchor="start" x="417.5" y="-355" font-family="Arial" font-size="10.00">applicant_id </text>
<text text-anchor="start" x="472.5" y="-355" font-family="Arial Italic" font-size="10.00" fill="#999999">integer (8) ∗ FK</text>
<text text-anchor="start" x="417.5" y="-342" font-family="Arial" font-size="10.00">comments </text>
<text text-anchor="start" x="466.5" y="-342" font-family="Arial Italic" font-size="10.00" fill="#999999">text</text>
<text text-anchor="start" x="417.5" y="-329" font-family="Arial" font-size="10.00">custom_question_answers </text>
<text text-anchor="start" x="537.5" y="-329" font-family="Arial Italic" font-size="10.00" fill="#999999">text</text>
<text text-anchor="start" x="417.5" y="-316" font-family="Arial" font-size="10.00">department </text>
<text text-anchor="start" x="469.5" y="-316" font-family="Arial Italic" font-size="10.00" fill="#999999">string</text>
<text text-anchor="start" x="417.5" y="-303" font-family="Arial" font-size="10.00">gpa </text>
<text text-anchor="start" x="436.5" y="-303" font-family="Arial Italic" font-size="10.00" fill="#999999">float</text>
<text text-anchor="start" x="417.5" y="-290" font-family="Arial" font-size="10.00">posting_id </text>
<text text-anchor="start" x="465.5" y="-290" font-family="Arial Italic" font-size="10.00" fill="#999999">integer (8) FK</text>
<text text-anchor="start" x="417.5" y="-277" font-family="Arial" font-size="10.00">previous_uoft_experience </text>
<text text-anchor="start" x="532.5" y="-277" font-family="Arial Italic" font-size="10.00" fill="#999999">text</text>
<text text-anchor="start" x="417.5" y="-264" font-family="Arial" font-size="10.00">program </text>
<text text-anchor="start" x="456.5" y="-264" font-family="Arial Italic" font-size="10.00" fill="#999999">string</text>
<text text-anchor="start" x="417.5" y="-251" font-family="Arial" font-size="10.00">session_id </text>
<text text-anchor="start" x="467.5" y="-251" font-family="Arial Italic" font-size="10.00" fill="#999999">integer (8) ∗ FK</text>
<text text-anchor="start" x="417.5" y="-238" font-family="Arial" font-size="10.00">status </text>
<text text-anchor="start" x="448.5" y="-238" font-family="Arial Italic" font-size="10.00" fill="#999999">integer</text>
<text text-anchor="start" x="417.5" y="-225" font-family="Arial" font-size="10.00">yip </text>
<text text-anchor="start" x="433.5" y="-225" font-family="Arial Italic" font-size="10.00" fill="#999999">integer</text>
</g>
<!-- m_Applicant&#45;&gt;m_Application -->
<g id="edge15" class="edge">
<title>m_Applicant&#45;&gt;m_Application</title>
<path fill="none" stroke="black" d="M361.04,-370.84C374.17,-364.16 387.97,-357.13 401.41,-350.29"/>
<polygon fill="black" stroke="black" points="403.13,-352.95 409.72,-346.06 400.27,-347.34 403.13,-352.95"/>
</g>
<!-- m_Assignment -->
<g id="node5" class="node">
<title>m_Assignment</title>
<path fill="none" stroke="black" d="M623,-385.5C623,-385.5 743,-385.5 743,-385.5 749,-385.5 755,-391.5 755,-397.5 755,-397.5 755,-494.5 755,-494.5 755,-500.5 749,-506.5 743,-506.5 743,-506.5 623,-506.5 623,-506.5 617,-506.5 611,-500.5 611,-494.5 611,-494.5 611,-397.5 611,-397.5 611,-391.5 617,-385.5 623,-385.5"/>
<text text-anchor="start" x="649" y="-493.7" font-family="Arial Bold" font-size="11.00">Assignment</text>
<polyline fill="none" stroke="black" points="611,-486.5 755,-486.5 "/>
<text text-anchor="start" x="618" y="-473" font-family="Arial" font-size="10.00">active_offer_id </text>
<text text-anchor="start" x="685" y="-473" font-family="Arial Italic" font-size="10.00" fill="#999999">integer (8) FK</text>
<text text-anchor="start" x="618" y="-460" font-family="Arial" font-size="10.00">applicant_id </text>
<text text-anchor="start" x="673" y="-460" font-family="Arial Italic" font-size="10.00" fill="#999999">integer (8) ∗ FK</text>
<text text-anchor="start" x="618" y="-447" font-family="Arial" font-size="10.00">contract_override_pdf </text>
<text text-anchor="start" x="715" y="-447" font-family="Arial Italic" font-size="10.00" fill="#999999">string</text>
<text text-anchor="start" x="618" y="-434" font-family="Arial" font-size="10.00">end_date </text>
<text text-anchor="start" x="661" y="-434" font-family="Arial Italic" font-size="10.00" fill="#999999">datetime</text>
<text text-anchor="start" x="618" y="-421" font-family="Arial" font-size="10.00">note </text>
<text text-anchor="start" x="640" y="-421" font-family="Arial Italic" font-size="10.00" fill="#999999">text</text>
<text text-anchor="start" x="618" y="-408" font-family="Arial" font-size="10.00">position_id </text>
<text text-anchor="start" x="668" y="-408" font-family="Arial Italic" font-size="10.00" fill="#999999">integer (8) ∗ FK</text>
<text text-anchor="start" x="618" y="-395" font-family="Arial" font-size="10.00">start_date </text>
<text text-anchor="start" x="665" y="-395" font-family="Arial Italic" font-size="10.00" fill="#999999">datetime</text>
</g>
<!-- m_Applicant&#45;&gt;m_Assignment -->
<g id="edge14" class="edge">
<title>m_Applicant&#45;&gt;m_Assignment</title>
<path fill="none" stroke="black" d="M361.44,-414.11C429.18,-420.85 530.8,-430.96 601.4,-437.98"/>
<polygon fill="black" stroke="black" points="601.45,-441.15 610.72,-438.91 602.07,-434.88 601.45,-441.15"/>
</g>
<!-- m_PositionPreference -->
<g id="node12" class="node">
<title>m_PositionPreference</title>
<path fill="none" stroke="black" d="M622,-279.5C622,-279.5 744,-279.5 744,-279.5 750,-279.5 756,-285.5 756,-291.5 756,-291.5 756,-336.5 756,-336.5 756,-342.5 750,-348.5 744,-348.5 744,-348.5 622,-348.5 622,-348.5 616,-348.5 610,-342.5 610,-336.5 610,-336.5 610,-291.5 610,-291.5 610,-285.5 616,-279.5 622,-279.5"/>
<text text-anchor="start" x="630.5" y="-335.7" font-family="Arial Bold" font-size="11.00">PositionPreference</text>
<polyline fill="none" stroke="black" points="610,-328.5 756,-328.5 "/>
<text text-anchor="start" x="617" y="-315" font-family="Arial" font-size="10.00">application_id </text>
<text text-anchor="start" x="680" y="-315" font-family="Arial Italic" font-size="10.00" fill="#999999">integer (8) ∗ FK</text>
<text text-anchor="start" x="617" y="-302" font-family="Arial" font-size="10.00">position_id </text>
<text text-anchor="start" x="667" y="-302" font-family="Arial Italic" font-size="10.00" fill="#999999">integer (8) ∗ FK</text>
<text text-anchor="start" x="617" y="-289" font-family="Arial" font-size="10.00">preference_level </text>
<text text-anchor="start" x="692" y="-289" font-family="Arial Italic" font-size="10.00" fill="#999999">integer</text>
</g>
<!-- m_Application&#45;&gt;m_PositionPreference -->
<g id="edge18" class="edge">
<title>m_Application&#45;&gt;m_PositionPreference</title>
<path fill="none" stroke="black" d="M561.25,-310.29C574.21,-310.69 587.74,-311.11 600.87,-311.51"/>
<polygon fill="black" stroke="black" points="600.78,-314.66 609.87,-311.79 600.97,-308.36 600.78,-314.66"/>
</g>
<!-- m_Ddah -->
<g id="node7" class="node">
<title>m_Ddah</title>
<path fill="none" stroke="black" d="M804,-385.5C804,-385.5 930,-385.5 930,-385.5 936,-385.5 942,-391.5 942,-397.5 942,-397.5 942,-494.5 942,-494.5 942,-500.5 936,-506.5 930,-506.5 930,-506.5 804,-506.5 804,-506.5 798,-506.5 792,-500.5 792,-494.5 792,-494.5 792,-397.5 792,-397.5 792,-391.5 798,-385.5 804,-385.5"/>
<text text-anchor="start" x="851" y="-493.7" font-family="Arial Bold" font-size="11.00">Ddah</text>
<polyline fill="none" stroke="black" points="792,-486.5 942,-486.5 "/>
<text text-anchor="start" x="799" y="-473" font-family="Arial" font-size="10.00">accepted_date </text>
<text text-anchor="start" x="866" y="-473" font-family="Arial Italic" font-size="10.00" fill="#999999">datetime</text>
<text text-anchor="start" x="799" y="-460" font-family="Arial" font-size="10.00">approved_date </text>
<text text-anchor="start" x="866" y="-460" font-family="Arial Italic" font-size="10.00" fill="#999999">datetime</text>
<text text-anchor="start" x="799" y="-447" font-family="Arial" font-size="10.00">assignment_id </text>
<text text-anchor="start" x="866" y="-447" font-family="Arial Italic" font-size="10.00" fill="#999999">integer (8) ∗ FK</text>
<text text-anchor="start" x="799" y="-434" font-family="Arial" font-size="10.00">emailed_date </text>
<text text-anchor="start" x="860" y="-434" font-family="Arial Italic" font-size="10.00" fill="#999999">datetime</text>
<text text-anchor="start" x="799" y="-421" font-family="Arial" font-size="10.00">revised_date </text>
<text text-anchor="start" x="858" y="-421" font-family="Arial Italic" font-size="10.00" fill="#999999">datetime</text>
<text text-anchor="start" x="799" y="-408" font-family="Arial" font-size="10.00">signature </text>
<text text-anchor="start" x="842" y="-408" font-family="Arial Italic" font-size="10.00" fill="#999999">string</text>
<text text-anchor="start" x="799" y="-395" font-family="Arial" font-size="10.00">url_token </text>
<text text-anchor="start" x="842" y="-395" font-family="Arial Italic" font-size="10.00" fill="#999999">string</text>
</g>
<!-- m_Assignment&#45;&gt;m_Ddah -->
<g id="edge5" class="edge">
<title>m_Assignment&#45;&gt;m_Ddah</title>
<path fill="none" stroke="black" d="M755.15,-446C767.21,-446 779.76,-446 791.9,-446"/>
</g>
<!-- m_Offer -->
<g id="node10" class="node">
<title>m_Offer</title>
<path fill="none" stroke="black" d="M804,-0.5C804,-0.5 930,-0.5 930,-0.5 936,-0.5 942,-6.5 942,-12.5 942,-12.5 942,-343.5 942,-343.5 942,-349.5 936,-355.5 930,-355.5 930,-355.5 804,-355.5 804,-355.5 798,-355.5 792,-349.5 792,-343.5 792,-343.5 792,-12.5 792,-12.5 792,-6.5 798,-0.5 804,-0.5"/>
<text text-anchor="start" x="851.5" y="-342.7" font-family="Arial Bold" font-size="11.00">Offer</text>
<polyline fill="none" stroke="black" points="792,-335.5 942,-335.5 "/>
<text text-anchor="start" x="799" y="-322" font-family="Arial" font-size="10.00">accepted_date </text>
<text text-anchor="start" x="866" y="-322" font-family="Arial Italic" font-size="10.00" fill="#999999">datetime</text>
<text text-anchor="start" x="799" y="-309" font-family="Arial" font-size="10.00">assignment_id </text>
<text text-anchor="start" x="866" y="-309" font-family="Arial Italic" font-size="10.00" fill="#999999">integer (8) ∗ FK</text>
<text text-anchor="start" x="799" y="-296" font-family="Arial" font-size="10.00">contract_override_pdf </text>
<text text-anchor="start" x="896" y="-296" font-family="Arial Italic" font-size="10.00" fill="#999999">string</text>
<text text-anchor="start" x="799" y="-283" font-family="Arial" font-size="10.00">contract_template </text>
<text text-anchor="start" x="881" y="-283" font-family="Arial Italic" font-size="10.00" fill="#999999">string</text>
<text text-anchor="start" x="799" y="-270" font-family="Arial" font-size="10.00">email </text>
<text text-anchor="start" x="826" y="-270" font-family="Arial Italic" font-size="10.00" fill="#999999">string</text>
<text text-anchor="start" x="799" y="-257" font-family="Arial" font-size="10.00">emailed_date </text>
<text text-anchor="start" x="860" y="-257" font-family="Arial Italic" font-size="10.00" fill="#999999">datetime</text>
<text text-anchor="start" x="799" y="-244" font-family="Arial" font-size="10.00">first_name </text>
<text text-anchor="start" x="848" y="-244" font-family="Arial Italic" font-size="10.00" fill="#999999">string</text>
<text text-anchor="start" x="799" y="-231" font-family="Arial" font-size="10.00">first_time_ta </text>
<text text-anchor="start" x="857" y="-231" font-family="Arial Italic" font-size="10.00" fill="#999999">boolean</text>
<text text-anchor="start" x="799" y="-218" font-family="Arial" font-size="10.00">hours </text>
<text text-anchor="start" x="827" y="-218" font-family="Arial Italic" font-size="10.00" fill="#999999">float</text>
<text text-anchor="start" x="799" y="-205" font-family="Arial" font-size="10.00">installments </text>
<text text-anchor="start" x="855" y="-205" font-family="Arial Italic" font-size="10.00" fill="#999999">integer</text>
<text text-anchor="start" x="799" y="-192" font-family="Arial" font-size="10.00">instructor_contact_desc </text>
<text text-anchor="start" x="907" y="-192" font-family="Arial Italic" font-size="10.00" fill="#999999">string</text>
<text text-anchor="start" x="799" y="-179" font-family="Arial" font-size="10.00">last_name </text>
<text text-anchor="start" x="848" y="-179" font-family="Arial Italic" font-size="10.00" fill="#999999">string</text>
<text text-anchor="start" x="799" y="-166" font-family="Arial" font-size="10.00">nag_count </text>
<text text-anchor="start" x="848" y="-166" font-family="Arial Italic" font-size="10.00" fill="#999999">integer</text>
<text text-anchor="start" x="799" y="-153" font-family="Arial" font-size="10.00">pay_period_desc </text>
<text text-anchor="start" x="876" y="-153" font-family="Arial Italic" font-size="10.00" fill="#999999">string</text>
<text text-anchor="start" x="799" y="-140" font-family="Arial" font-size="10.00">position_code </text>
<text text-anchor="start" x="863" y="-140" font-family="Arial Italic" font-size="10.00" fill="#999999">string</text>
<text text-anchor="start" x="799" y="-127" font-family="Arial" font-size="10.00">position_end_date </text>
<text text-anchor="start" x="881" y="-127" font-family="Arial Italic" font-size="10.00" fill="#999999">datetime</text>
<text text-anchor="start" x="799" y="-114" font-family="Arial" font-size="10.00">position_start_date </text>
<text text-anchor="start" x="885" y="-114" font-family="Arial Italic" font-size="10.00" fill="#999999">datetime</text>
<text text-anchor="start" x="799" y="-101" font-family="Arial" font-size="10.00">position_title </text>
<text text-anchor="start" x="857" y="-101" font-family="Arial Italic" font-size="10.00" fill="#999999">string</text>
<text text-anchor="start" x="799" y="-88" font-family="Arial" font-size="10.00">rejected_date </text>
<text text-anchor="start" x="861" y="-88" font-family="Arial Italic" font-size="10.00" fill="#999999">datetime</text>
<text text-anchor="start" x="799" y="-75" font-family="Arial" font-size="10.00">signature </text>
<text text-anchor="start" x="842" y="-75" font-family="Arial Italic" font-size="10.00" fill="#999999">string</text>
<text text-anchor="start" x="799" y="-62" font-family="Arial" font-size="10.00">status </text>
<text text-anchor="start" x="830" y="-62" font-family="Arial Italic" font-size="10.00" fill="#999999">integer ∗</text>
<text text-anchor="start" x="799" y="-49" font-family="Arial" font-size="10.00">ta_coordinator_email </text>
<text text-anchor="start" x="893" y="-49" font-family="Arial Italic" font-size="10.00" fill="#999999">string</text>
<text text-anchor="start" x="799" y="-36" font-family="Arial" font-size="10.00">ta_coordinator_name </text>
<text text-anchor="start" x="893" y="-36" font-family="Arial Italic" font-size="10.00" fill="#999999">string</text>
<text text-anchor="start" x="799" y="-23" font-family="Arial" font-size="10.00">url_token </text>
<text text-anchor="start" x="842" y="-23" font-family="Arial Italic" font-size="10.00" fill="#999999">string</text>
<text text-anchor="start" x="799" y="-10" font-family="Arial" font-size="10.00">withdrawn_date </text>
<text text-anchor="start" x="871" y="-10" font-family="Arial Italic" font-size="10.00" fill="#999999">datetime</text>
</g>
<!-- m_Assignment&#45;&gt;m_Offer -->
<g id="edge16" class="edge">
<title>m_Assignment&#45;&gt;m_Offer</title>
<path fill="none" stroke="black" d="M738.74,-385.36C744.76,-377.98 750.64,-370.42 756,-363 766.53,-348.42 776.99,-332.79 787.03,-317.01"/>
<polygon fill="black" stroke="black" points="789.78,-318.55 791.92,-309.25 784.45,-315.18 789.78,-318.55"/>
</g>
<!-- m_WageChunk -->
<g id="node18" class="node">
<title>m_WageChunk</title>
<path fill="none" stroke="black" d="M804,-536.5C804,-536.5 930,-536.5 930,-536.5 936,-536.5 942,-542.5 942,-548.5 942,-548.5 942,-619.5 942,-619.5 942,-625.5 936,-631.5 930,-631.5 930,-631.5 804,-631.5 804,-631.5 798,-631.5 792,-625.5 792,-619.5 792,-619.5 792,-548.5 792,-548.5 792,-542.5 798,-536.5 804,-536.5"/>
<text text-anchor="start" x="833" y="-618.7" font-family="Arial Bold" font-size="11.00">WageChunk</text>
<polyline fill="none" stroke="black" points="792,-611.5 942,-611.5 "/>
<text text-anchor="start" x="799" y="-598" font-family="Arial" font-size="10.00">assignment_id </text>
<text text-anchor="start" x="866" y="-598" font-family="Arial Italic" font-size="10.00" fill="#999999">integer (8) ∗ FK</text>
<text text-anchor="start" x="799" y="-585" font-family="Arial" font-size="10.00">end_date </text>
<text text-anchor="start" x="842" y="-585" font-family="Arial Italic" font-size="10.00" fill="#999999">datetime</text>
<text text-anchor="start" x="799" y="-572" font-family="Arial" font-size="10.00">hours </text>
<text text-anchor="start" x="827" y="-572" font-family="Arial Italic" font-size="10.00" fill="#999999">float</text>
<text text-anchor="start" x="799" y="-559" font-family="Arial" font-size="10.00">rate </text>
<text text-anchor="start" x="819" y="-559" font-family="Arial Italic" font-size="10.00" fill="#999999">float</text>
<text text-anchor="start" x="799" y="-546" font-family="Arial" font-size="10.00">start_date </text>
<text text-anchor="start" x="846" y="-546" font-family="Arial Italic" font-size="10.00" fill="#999999">datetime</text>
</g>
<!-- m_Assignment&#45;&gt;m_WageChunk -->
<g id="edge17" class="edge">
<title>m_Assignment&#45;&gt;m_WageChunk</title>
<path fill="none" stroke="black" d="M755.15,-499.95C768.52,-510.09 782.5,-520.69 795.84,-530.81"/>
<polygon fill="black" stroke="black" points="794.11,-533.44 803.19,-536.37 797.92,-528.42 794.11,-533.44"/>
</g>
<!-- m_ContractTemplate -->
<g id="node6" class="node">
<title>m_ContractTemplate</title>
<path fill="none" stroke="black" d="M229,-603.5C229,-603.5 349,-603.5 349,-603.5 355,-603.5 361,-609.5 361,-615.5 361,-615.5 361,-660.5 361,-660.5 361,-666.5 355,-672.5 349,-672.5 349,-672.5 229,-672.5 229,-672.5 223,-672.5 217,-666.5 217,-660.5 217,-660.5 217,-615.5 217,-615.5 217,-609.5 223,-603.5 229,-603.5"/>
<text text-anchor="start" x="240" y="-659.7" font-family="Arial Bold" font-size="11.00">ContractTemplate</text>
<polyline fill="none" stroke="black" points="217,-652.5 361,-652.5 "/>
<text text-anchor="start" x="224" y="-639" font-family="Arial" font-size="10.00">session_id </text>
<text text-anchor="start" x="274" y="-639" font-family="Arial Italic" font-size="10.00" fill="#999999">integer (8) ∗ FK</text>
<text text-anchor="start" x="224" y="-626" font-family="Arial" font-size="10.00">template_file </text>
<text text-anchor="start" x="283" y="-626" font-family="Arial Italic" font-size="10.00" fill="#999999">string ∗</text>
<text text-anchor="start" x="224" y="-613" font-family="Arial" font-size="10.00">template_name </text>
<text text-anchor="start" x="294" y="-613" font-family="Arial Italic" font-size="10.00" fill="#999999">string ∗ U</text>
</g>
<!-- m_Position -->
<g id="node11" class="node">
<title>m_Position</title>
<path fill="none" stroke="black" d="M409,-491C409,-491 562,-491 562,-491 568,-491 574,-497 574,-503 574,-503 574,-665 574,-665 574,-671 568,-677 562,-677 562,-677 409,-677 409,-677 403,-677 397,-671 397,-665 397,-665 397,-503 397,-503 397,-497 403,-491 409,-491"/>
<text text-anchor="start" x="461.5" y="-664.2" font-family="Arial Bold" font-size="11.00">Position</text>
<polyline fill="none" stroke="black" points="397,-657 574,-657 "/>
<text text-anchor="start" x="404.5" y="-644" font-family="Arial" font-size="10.00">contract_template_id </text>
<text text-anchor="start" x="498.5" y="-644" font-family="Arial Italic" font-size="10.00" fill="#999999">integer (8) ∗ FK</text>
<text text-anchor="start" x="404.5" y="-631" font-family="Arial" font-size="10.00">current_enrollment </text>
<text text-anchor="start" x="488.5" y="-631" font-family="Arial Italic" font-size="10.00" fill="#999999">integer</text>
<text text-anchor="start" x="404.5" y="-618" font-family="Arial" font-size="10.00">current_waitlisted </text>
<text text-anchor="start" x="484.5" y="-618" font-family="Arial Italic" font-size="10.00" fill="#999999">integer</text>
<text text-anchor="start" x="404.5" y="-605" font-family="Arial" font-size="10.00">desired_num_assignments </text>
<text text-anchor="start" x="524.5" y="-605" font-family="Arial Italic" font-size="10.00" fill="#999999">integer</text>
<text text-anchor="start" x="404.5" y="-592" font-family="Arial" font-size="10.00">duties </text>
<text text-anchor="start" x="434.5" y="-592" font-family="Arial Italic" font-size="10.00" fill="#999999">text</text>
<text text-anchor="start" x="404.5" y="-579" font-family="Arial" font-size="10.00">end_date </text>
<text text-anchor="start" x="447.5" y="-579" font-family="Arial Italic" font-size="10.00" fill="#999999">datetime</text>
<text text-anchor="start" x="404.5" y="-566" font-family="Arial" font-size="10.00">hours_per_assignment </text>
<text text-anchor="start" x="506.5" y="-566" font-family="Arial Italic" font-size="10.00" fill="#999999">float</text>
<text text-anchor="start" x="404.5" y="-553" font-family="Arial" font-size="10.00">position_code </text>
<text text-anchor="start" x="468.5" y="-553" font-family="Arial Italic" font-size="10.00" fill="#999999">string ∗ U</text>
<text text-anchor="start" x="404.5" y="-540" font-family="Arial" font-size="10.00">position_title </text>
<text text-anchor="start" x="462.5" y="-540" font-family="Arial Italic" font-size="10.00" fill="#999999">string</text>
<text text-anchor="start" x="404.5" y="-527" font-family="Arial" font-size="10.00">qualifications </text>
<text text-anchor="start" x="465.5" y="-527" font-family="Arial Italic" font-size="10.00" fill="#999999">text</text>
<text text-anchor="start" x="404.5" y="-514" font-family="Arial" font-size="10.00">session_id </text>
<text text-anchor="start" x="454.5" y="-514" font-family="Arial Italic" font-size="10.00" fill="#999999">integer (8) ∗ FK</text>
<text text-anchor="start" x="404.5" y="-501" font-family="Arial" font-size="10.00">start_date </text>
<text text-anchor="start" x="451.5" y="-501" font-family="Arial Italic" font-size="10.00" fill="#999999">datetime</text>
</g>
<!-- m_ContractTemplate&#45;&gt;m_Position -->
<g id="edge13" class="edge">
<title>m_ContractTemplate&#45;&gt;m_Position</title>
<path fill="none" stroke="black" d="M361.04,-618.28C369.84,-615.83 378.95,-613.3 388.05,-610.78"/>
<polygon fill="black" stroke="black" points="388.93,-613.8 396.76,-608.36 387.25,-607.73 388.93,-613.8"/>
</g>
<!-- m_Duty -->
<g id="node8" class="node">
<title>m_Duty</title>
<path fill="none" stroke="black" d="M990,-405C990,-405 1110,-405 1110,-405 1116,-405 1122,-411 1122,-417 1122,-417 1122,-475 1122,-475 1122,-481 1116,-487 1110,-487 1110,-487 990,-487 990,-487 984,-487 978,-481 978,-475 978,-475 978,-417 978,-417 978,-411 984,-405 990,-405"/>
<text text-anchor="start" x="1035.5" y="-474.2" font-family="Arial Bold" font-size="11.00">Duty</text>
<polyline fill="none" stroke="black" points="978,-467 1122,-467 "/>
<text text-anchor="start" x="985" y="-454" font-family="Arial" font-size="10.00">ddah_id </text>
<text text-anchor="start" x="1022" y="-454" font-family="Arial Italic" font-size="10.00" fill="#999999">integer (8) FK</text>
<text text-anchor="start" x="985" y="-441" font-family="Arial" font-size="10.00">description </text>
<text text-anchor="start" x="1036" y="-441" font-family="Arial Italic" font-size="10.00" fill="#999999">string</text>
<text text-anchor="start" x="985" y="-428" font-family="Arial" font-size="10.00">hours </text>
<text text-anchor="start" x="1013" y="-428" font-family="Arial Italic" font-size="10.00" fill="#999999">float</text>
<text text-anchor="start" x="985" y="-415" font-family="Arial" font-size="10.00">order </text>
<text text-anchor="start" x="1010" y="-415" font-family="Arial Italic" font-size="10.00" fill="#999999">integer</text>
</g>
<!-- m_Ddah&#45;&gt;m_Duty -->
<g id="edge6" class="edge">
<title>m_Ddah&#45;&gt;m_Duty</title>
<path fill="none" stroke="black" d="M942.14,-446C950.91,-446 959.89,-446 968.74,-446"/>
<polygon fill="black" stroke="black" points="968.89,-449.15 977.89,-446 968.89,-442.85 968.89,-449.15"/>
</g>
<!-- m_Instructor -->
<g id="node9" class="node">
<title>m_Instructor</title>
<path fill="none" stroke="black" d="M229,-491C229,-491 349,-491 349,-491 355,-491 361,-497 361,-503 361,-503 361,-561 361,-561 361,-567 355,-573 349,-573 349,-573 229,-573 229,-573 223,-573 217,-567 217,-561 217,-561 217,-503 217,-503 217,-497 223,-491 229,-491"/>
<text text-anchor="start" x="261" y="-560.2" font-family="Arial Bold" font-size="11.00">Instructor</text>
<polyline fill="none" stroke="black" points="217,-553 361,-553 "/>
<text text-anchor="start" x="224" y="-540" font-family="Arial" font-size="10.00">email </text>
<text text-anchor="start" x="251" y="-540" font-family="Arial Italic" font-size="10.00" fill="#999999">string</text>
<text text-anchor="start" x="224" y="-527" font-family="Arial" font-size="10.00">first_name </text>
<text text-anchor="start" x="273" y="-527" font-family="Arial Italic" font-size="10.00" fill="#999999">string ∗</text>
<text text-anchor="start" x="224" y="-514" font-family="Arial" font-size="10.00">last_name </text>
<text text-anchor="start" x="273" y="-514" font-family="Arial Italic" font-size="10.00" fill="#999999">string ∗</text>
<text text-anchor="start" x="224" y="-501" font-family="Arial" font-size="10.00">utorid </text>
<text text-anchor="start" x="252" y="-501" font-family="Arial Italic" font-size="10.00" fill="#999999">string ∗ U</text>
</g>
<!-- m_Instructor&#45;&gt;m_Position -->
<g id="edge9" class="edge">
<title>m_Instructor&#45;&gt;m_Position</title>
<path fill="none" stroke="black" d="M369.84,-553.35C375.81,-554.94 381.86,-556.56 387.91,-558.18"/>
<polygon fill="black" stroke="black" points="370.55,-550.28 361.04,-550.99 368.93,-556.36 370.55,-550.28"/>
<polygon fill="black" stroke="black" points="387.25,-561.26 396.76,-560.54 388.88,-555.18 387.25,-561.26"/>
</g>
<!-- m_Position&#45;&gt;m_Assignment -->
<g id="edge10" class="edge">
<title>m_Position&#45;&gt;m_Assignment</title>
<path fill="none" stroke="black" d="M574.24,-522.06C583.93,-515.22 593.76,-508.29 603.33,-501.53"/>
<polygon fill="black" stroke="black" points="605.41,-503.92 610.94,-496.16 601.77,-498.78 605.41,-503.92"/>
</g>
<!-- m_Position&#45;&gt;m_PositionPreference -->
<g id="edge11" class="edge">
<title>m_Position&#45;&gt;m_PositionPreference</title>
<path fill="none" stroke="black" d="M530.1,-490.9C551.11,-451.31 578.59,-406.07 610,-370 614.61,-364.71 619.78,-359.57 625.17,-354.7"/>
<polygon fill="black" stroke="black" points="627.38,-356.95 632.11,-348.67 623.25,-352.2 627.38,-356.95"/>
</g>
<!-- m_PostingPosition -->
<g id="node14" class="node">
<title>m_PostingPosition</title>
<path fill="none" stroke="black" d="M623,-129C623,-129 743,-129 743,-129 749,-129 755,-135 755,-141 755,-141 755,-199 755,-199 755,-205 749,-211 743,-211 743,-211 623,-211 623,-211 617,-211 611,-205 611,-199 611,-199 611,-141 611,-141 611,-135 617,-129 623,-129"/>
<text text-anchor="start" x="638.5" y="-198.2" font-family="Arial Bold" font-size="11.00">PostingPosition</text>
<polyline fill="none" stroke="black" points="611,-191 755,-191 "/>
<text text-anchor="start" x="618" y="-178" font-family="Arial" font-size="10.00">hours </text>
<text text-anchor="start" x="646" y="-178" font-family="Arial Italic" font-size="10.00" fill="#999999">float</text>
<text text-anchor="start" x="618" y="-165" font-family="Arial" font-size="10.00">num_positions </text>
<text text-anchor="start" x="685" y="-165" font-family="Arial Italic" font-size="10.00" fill="#999999">integer</text>
<text text-anchor="start" x="618" y="-152" font-family="Arial" font-size="10.00">position_id </text>
<text text-anchor="start" x="668" y="-152" font-family="Arial Italic" font-size="10.00" fill="#999999">integer (8) ∗ FK</text>
<text text-anchor="start" x="618" y="-139" font-family="Arial" font-size="10.00">posting_id </text>
<text text-anchor="start" x="666" y="-139" font-family="Arial Italic" font-size="10.00" fill="#999999">integer (8) ∗ FK</text>
</g>
<!-- m_Position&#45;&gt;m_PostingPosition -->
<g id="edge21" class="edge">
<title>m_Position&#45;&gt;m_PostingPosition</title>
<path fill="none" stroke="black" d="M540.24,-490.81C552.53,-466.95 564.71,-440.96 574,-416 598.22,-350.94 580.24,-326.72 610,-264 617.58,-248.03 628.19,-232.18 638.95,-218.17"/>
<polygon fill="black" stroke="black" points="641.48,-220.04 644.57,-211.02 636.53,-216.15 641.48,-220.04"/>
</g>
<!-- m_ReportingTag -->
<g id="node15" class="node">
<title>m_ReportingTag</title>
<path fill="none" stroke="black" d="M622.5,-549.5C622.5,-549.5 743.5,-549.5 743.5,-549.5 749.5,-549.5 755.5,-555.5 755.5,-561.5 755.5,-561.5 755.5,-606.5 755.5,-606.5 755.5,-612.5 749.5,-618.5 743.5,-618.5 743.5,-618.5 622.5,-618.5 622.5,-618.5 616.5,-618.5 610.5,-612.5 610.5,-606.5 610.5,-606.5 610.5,-561.5 610.5,-561.5 610.5,-555.5 616.5,-549.5 622.5,-549.5"/>
<text text-anchor="start" x="645" y="-605.7" font-family="Arial Bold" font-size="11.00">ReportingTag</text>
<polyline fill="none" stroke="black" points="610.5,-598.5 755.5,-598.5 "/>
<text text-anchor="start" x="618" y="-585" font-family="Arial" font-size="10.00">name </text>
<text text-anchor="start" x="646" y="-585" font-family="Arial Italic" font-size="10.00" fill="#999999">string</text>
<text text-anchor="start" x="618" y="-572" font-family="Arial" font-size="10.00">position_id </text>
<text text-anchor="start" x="668" y="-572" font-family="Arial Italic" font-size="10.00" fill="#999999">integer (8) FK</text>
<text text-anchor="start" x="618" y="-559" font-family="Arial" font-size="10.00">wage_chunk_id </text>
<text text-anchor="start" x="689" y="-559" font-family="Arial Italic" font-size="10.00" fill="#999999">integer (8) FK</text>
</g>
<!-- m_Position&#45;&gt;m_ReportingTag -->
<g id="edge8" class="edge">
<title>m_Position&#45;&gt;m_ReportingTag</title>
<path fill="none" stroke="black" d="M583.33,-584C589.3,-584 595.28,-584 601.17,-584"/>
<polygon fill="black" stroke="black" points="583.24,-580.85 574.24,-584 583.24,-587.15 583.24,-580.85"/>
<polygon fill="black" stroke="black" points="601.35,-587.15 610.35,-584 601.35,-580.85 601.35,-587.15"/>
</g>
<!-- m_Posting -->
<g id="node13" class="node">
<title>m_Posting</title>
<path fill="none" stroke="black" d="M229,-130C229,-130 349,-130 349,-130 355,-130 361,-136 361,-142 361,-142 361,-252 361,-252 361,-258 355,-264 349,-264 349,-264 229,-264 229,-264 223,-264 217,-258 217,-252 217,-252 217,-142 217,-142 217,-136 223,-130 229,-130"/>
<text text-anchor="start" x="266.5" y="-251.2" font-family="Arial Bold" font-size="11.00">Posting</text>
<polyline fill="none" stroke="black" points="217,-244 361,-244 "/>
<text text-anchor="start" x="224" y="-231" font-family="Arial" font-size="10.00">availability </text>
<text text-anchor="start" x="273" y="-231" font-family="Arial Italic" font-size="10.00" fill="#999999">integer</text>
<text text-anchor="start" x="224" y="-218" font-family="Arial" font-size="10.00">close_date </text>
<text text-anchor="start" x="275" y="-218" font-family="Arial Italic" font-size="10.00" fill="#999999">datetime</text>
<text text-anchor="start" x="224" y="-205" font-family="Arial" font-size="10.00">custom_questions </text>
<text text-anchor="start" x="307" y="-205" font-family="Arial Italic" font-size="10.00" fill="#999999">text</text>
<text text-anchor="start" x="224" y="-192" font-family="Arial" font-size="10.00">intro_text </text>
<text text-anchor="start" x="268" y="-192" font-family="Arial Italic" font-size="10.00" fill="#999999">text</text>
<text text-anchor="start" x="224" y="-179" font-family="Arial" font-size="10.00">name </text>
<text text-anchor="start" x="252" y="-179" font-family="Arial Italic" font-size="10.00" fill="#999999">string ∗ U</text>
<text text-anchor="start" x="224" y="-166" font-family="Arial" font-size="10.00">open_date </text>
<text text-anchor="start" x="273" y="-166" font-family="Arial Italic" font-size="10.00" fill="#999999">datetime</text>
<text text-anchor="start" x="224" y="-153" font-family="Arial" font-size="10.00">session_id </text>
<text text-anchor="start" x="274" y="-153" font-family="Arial Italic" font-size="10.00" fill="#999999">integer (8) ∗ FK</text>
<text text-anchor="start" x="224" y="-140" font-family="Arial" font-size="10.00">url_token </text>
<text text-anchor="start" x="267" y="-140" font-family="Arial Italic" font-size="10.00" fill="#999999">string</text>
</g>
<!-- m_Posting&#45;&gt;m_Application -->
<g id="edge19" class="edge">
<title>m_Posting&#45;&gt;m_Application</title>
<path fill="none" stroke="black" d="M361.04,-237.54C374.29,-245.1 388.23,-253.06 401.79,-260.8"/>
<polygon fill="black" stroke="black" points="400.35,-263.6 409.72,-265.33 403.47,-258.13 400.35,-263.6"/>
</g>
<!-- m_Posting&#45;&gt;m_PostingPosition -->
<g id="edge20" class="edge">
<title>m_Posting&#45;&gt;m_PostingPosition</title>
<path fill="none" stroke="black" d="M361.44,-192.08C429.18,-187.41 530.8,-180.41 601.4,-175.55"/>
<polygon fill="black" stroke="black" points="601.96,-178.67 610.72,-174.91 601.52,-172.39 601.96,-178.67"/>
</g>
<!-- m_ReportingTag&#45;&gt;m_WageChunk -->
<g id="edge7" class="edge">
<title>m_ReportingTag&#45;&gt;m_WageChunk</title>
<path fill="none" stroke="black" d="M764.9,-584C770.75,-584 776.66,-584 782.53,-584"/>
<polygon fill="black" stroke="black" points="764.67,-580.85 755.67,-584 764.67,-587.15 764.67,-580.85"/>
<polygon fill="black" stroke="black" points="782.7,-587.15 791.7,-584 782.7,-580.85 782.7,-587.15"/>
</g>
<!-- m_Session -->
<g id="node16" class="node">
<title>m_Session</title>
<path fill="none" stroke="black" d="M30.5,-425.5C30.5,-425.5 150.5,-425.5 150.5,-425.5 156.5,-425.5 162.5,-431.5 162.5,-437.5 162.5,-437.5 162.5,-508.5 162.5,-508.5 162.5,-514.5 156.5,-520.5 150.5,-520.5 150.5,-520.5 30.5,-520.5 30.5,-520.5 24.5,-520.5 18.5,-514.5 18.5,-508.5 18.5,-508.5 18.5,-437.5 18.5,-437.5 18.5,-431.5 24.5,-425.5 30.5,-425.5"/>
<text text-anchor="start" x="67" y="-507.7" font-family="Arial Bold" font-size="11.00">Session</text>
<polyline fill="none" stroke="black" points="18.5,-500.5 162.5,-500.5 "/>
<text text-anchor="start" x="25.5" y="-487" font-family="Arial" font-size="10.00">end_date </text>
<text text-anchor="start" x="68.5" y="-487" font-family="Arial Italic" font-size="10.00" fill="#999999">datetime</text>
<text text-anchor="start" x="25.5" y="-474" font-family="Arial" font-size="10.00">name </text>
<text text-anchor="start" x="53.5" y="-474" font-family="Arial Italic" font-size="10.00" fill="#999999">string ∗ U</text>
<text text-anchor="start" x="25.5" y="-461" font-family="Arial" font-size="10.00">rate1 </text>
<text text-anchor="start" x="50.5" y="-461" font-family="Arial Italic" font-size="10.00" fill="#999999">float</text>
<text text-anchor="start" x="25.5" y="-448" font-family="Arial" font-size="10.00">rate2 </text>
<text text-anchor="start" x="50.5" y="-448" font-family="Arial Italic" font-size="10.00" fill="#999999">float</text>
<text text-anchor="start" x="25.5" y="-435" font-family="Arial" font-size="10.00">start_date </text>
<text text-anchor="start" x="72.5" y="-435" font-family="Arial Italic" font-size="10.00" fill="#999999">datetime</text>
</g>
<!-- m_Session&#45;&gt;m_Application -->
<g id="edge1" class="edge">
<title>m_Session&#45;&gt;m_Application</title>
<path fill="none" stroke="black" d="M162.76,-427.98C169.32,-422.36 175.55,-416.34 181,-410 204.34,-382.88 187.66,-358.48 217,-338 270,-301.01 343.8,-295.23 400.47,-297.73"/>
<polygon fill="black" stroke="black" points="400.61,-300.9 409.77,-298.23 400.94,-294.6 400.61,-300.9"/>
</g>
<!-- m_Session&#45;&gt;m_ContractTemplate -->
<g id="edge4" class="edge">
<title>m_Session&#45;&gt;m_ContractTemplate</title>
<path fill="none" stroke="black" d="M162.85,-518.72C169.25,-523.9 175.41,-529.36 181,-535 201.04,-555.23 197.04,-567.7 217,-588 220.22,-591.28 223.68,-594.48 227.28,-597.58"/>
<polygon fill="black" stroke="black" points="225.39,-600.11 234.33,-603.42 229.41,-595.26 225.39,-600.11"/>
</g>
<!-- m_Session&#45;&gt;m_Position -->
<g id="edge2" class="edge">
<title>m_Session&#45;&gt;m_Position</title>
<path fill="none" stroke="black" d="M162.62,-514.43C169.55,-520.64 175.89,-527.5 181,-535 220.33,-592.73 162.24,-644.63 217,-688 267.17,-727.74 300.88,-709.94 361,-688 370.57,-684.51 379.92,-679.91 388.9,-674.59"/>
<polygon fill="black" stroke="black" points="390.73,-677.17 396.71,-669.74 387.4,-671.81 390.73,-677.17"/>
</g>
<!-- m_Session&#45;&gt;m_Posting -->
<g id="edge3" class="edge">
<title>m_Session&#45;&gt;m_Posting</title>
<path fill="none" stroke="black" d="M162.68,-430.12C169.51,-423.99 175.81,-417.27 181,-410 214.34,-363.29 190.6,-336.96 217,-286 219.45,-281.28 222.16,-276.57 225.07,-271.91"/>
<polygon fill="black" stroke="black" points="227.85,-273.41 230.11,-264.15 222.57,-269.98 227.85,-273.41"/>
</g>
<!-- m_User -->
<g id="node17" class="node">
<title>m_User</title>
<path fill="none" stroke="black" d="M30.5,-550.5C30.5,-550.5 150.5,-550.5 150.5,-550.5 156.5,-550.5 162.5,-556.5 162.5,-562.5 162.5,-562.5 162.5,-607.5 162.5,-607.5 162.5,-613.5 156.5,-619.5 150.5,-619.5 150.5,-619.5 30.5,-619.5 30.5,-619.5 24.5,-619.5 18.5,-613.5 18.5,-607.5 18.5,-607.5 18.5,-562.5 18.5,-562.5 18.5,-556.5 24.5,-550.5 30.5,-550.5"/>
<text text-anchor="start" x="76" y="-606.7" font-family="Arial Bold" font-size="11.00">User</text>
<polyline fill="none" stroke="black" points="18.5,-599.5 162.5,-599.5 "/>
<text text-anchor="start" x="25.5" y="-586" font-family="Arial" font-size="10.00">last_seen </text>
<text text-anchor="start" x="71.5" y="-586" font-family="Arial Italic" font-size="10.00" fill="#999999">datetime</text>
<text text-anchor="start" x="25.5" y="-573" font-family="Arial" font-size="10.00">roles_mask </text>
<text text-anchor="start" x="79.5" y="-573" font-family="Arial Italic" font-size="10.00" fill="#999999">integer</text>
<text text-anchor="start" x="25.5" y="-560" font-family="Arial" font-size="10.00">utorid </text>
<text text-anchor="start" x="53.5" y="-560" font-family="Arial Italic" font-size="10.00" fill="#999999">string ∗ U</text>
</g>
</g>
</svg>
