<?xml version="1.0" encoding="UTF-8" standalone="no"?>
<!DOCTYPE svg PUBLIC "-//W3C//DTD SVG 1.1//EN"
 "http://www.w3.org/Graphics/SVG/1.1/DTD/svg11.dtd">
<!-- Generated by graphviz version 2.44.0 ()
 -->
<!-- Title: Tapp Pages: 1 -->
<svg width="1198pt" height="854pt"
 viewBox="0.00 0.00 1197.60 854.10" xmlns="http://www.w3.org/2000/svg" xmlns:xlink="http://www.w3.org/1999/xlink">
<g id="graph0" class="graph" transform="scale(1 1) rotate(0) translate(28.8 825.3)">
<title>Tapp</title>
<polygon fill="white" stroke="transparent" points="-28.8,28.8 -28.8,-825.3 1168.8,-825.3 1168.8,28.8 -28.8,28.8"/>
<text text-anchor="middle" x="570" y="-782.1" font-family="Arial Bold" font-size="13.00">ER Diagram</text>
<!-- m_ActiveRecord::InternalMetadata -->
<g id="node1" class="node">
<title>m_ActiveRecord::InternalMetadata</title>
<path fill="none" stroke="black" d="M14.5,-39C14.5,-39 166.5,-39 166.5,-39 172.5,-39 178.5,-45 178.5,-51 178.5,-51 178.5,-70 178.5,-70 178.5,-76 172.5,-82 166.5,-82 166.5,-82 14.5,-82 14.5,-82 8.5,-82 2.5,-76 2.5,-70 2.5,-70 2.5,-51 2.5,-51 2.5,-45 8.5,-39 14.5,-39"/>
<text text-anchor="start" x="7.5" y="-69.2" font-family="Arial Bold" font-size="11.00">ActiveRecord::InternalMetadata</text>
<polyline fill="none" stroke="black" points="2.5,-62 178.5,-62 "/>
<text text-anchor="start" x="25.5" y="-48.5" font-family="Arial" font-size="10.00">value </text>
<text text-anchor="start" x="52.5" y="-48.5" font-family="Arial Italic" font-size="10.00" fill="#999999">string</text>
</g>
<!-- m_ActiveRecord::SchemaMigration -->
<g id="node2" class="node">
<title>m_ActiveRecord::SchemaMigration</title>
<path fill="none" stroke="black" d="M12,-112.5C12,-112.5 169,-112.5 169,-112.5 175,-112.5 181,-118.5 181,-124.5 181,-124.5 181,-136.5 181,-136.5 181,-142.5 175,-148.5 169,-148.5 169,-148.5 12,-148.5 12,-148.5 6,-148.5 0,-142.5 0,-136.5 0,-136.5 0,-124.5 0,-124.5 0,-118.5 6,-112.5 12,-112.5"/>
<text text-anchor="start" x="5.5" y="-127.7" font-family="Arial Bold" font-size="11.00">ActiveRecord::SchemaMigration</text>
</g>
<!-- m_Applicant -->
<g id="node3" class="node">
<title>m_Applicant</title>
<path fill="none" stroke="black" d="M229,-488.5C229,-488.5 349,-488.5 349,-488.5 355,-488.5 361,-494.5 361,-500.5 361,-500.5 361,-584.5 361,-584.5 361,-590.5 355,-596.5 349,-596.5 349,-596.5 229,-596.5 229,-596.5 223,-596.5 217,-590.5 217,-584.5 217,-584.5 217,-500.5 217,-500.5 217,-494.5 223,-488.5 229,-488.5"/>
<text text-anchor="start" x="261.5" y="-583.7" font-family="Arial Bold" font-size="11.00">Applicant</text>
<polyline fill="none" stroke="black" points="217,-576.5 361,-576.5 "/>
<text text-anchor="start" x="224" y="-563.5" font-family="Arial" font-size="10.00">email </text>
<text text-anchor="start" x="251" y="-563.5" font-family="Arial Italic" font-size="10.00" fill="#999999">string</text>
<text text-anchor="start" x="224" y="-550.5" font-family="Arial" font-size="10.00">first_name </text>
<text text-anchor="start" x="273" y="-550.5" font-family="Arial Italic" font-size="10.00" fill="#999999">string</text>
<text text-anchor="start" x="224" y="-537.5" font-family="Arial" font-size="10.00">last_name </text>
<text text-anchor="start" x="273" y="-537.5" font-family="Arial Italic" font-size="10.00" fill="#999999">string</text>
<text text-anchor="start" x="224" y="-524.5" font-family="Arial" font-size="10.00">phone </text>
<text text-anchor="start" x="254" y="-524.5" font-family="Arial Italic" font-size="10.00" fill="#999999">string</text>
<text text-anchor="start" x="224" y="-511.5" font-family="Arial" font-size="10.00">student_number </text>
<text text-anchor="start" x="297" y="-511.5" font-family="Arial Italic" font-size="10.00" fill="#999999">string</text>
<text text-anchor="start" x="224" y="-498.5" font-family="Arial" font-size="10.00">utorid </text>
<text text-anchor="start" x="252" y="-498.5" font-family="Arial Italic" font-size="10.00" fill="#999999">string ∗ U</text>
</g>
<!-- m_ApplicantDataForMatching -->
<g id="node4" class="node">
<title>m_ApplicantDataForMatching</title>
<path fill="none" stroke="black" d="M628.5,-603.5C628.5,-603.5 755.5,-603.5 755.5,-603.5 761.5,-603.5 767.5,-609.5 767.5,-615.5 767.5,-615.5 767.5,-699.5 767.5,-699.5 767.5,-705.5 761.5,-711.5 755.5,-711.5 755.5,-711.5 628.5,-711.5 628.5,-711.5 622.5,-711.5 616.5,-705.5 616.5,-699.5 616.5,-699.5 616.5,-615.5 616.5,-615.5 616.5,-609.5 622.5,-603.5 628.5,-603.5"/>
<text text-anchor="start" x="622" y="-698.7" font-family="Arial Bold" font-size="11.00">ApplicantDataForMatching</text>
<polyline fill="none" stroke="black" points="616.5,-691.5 767.5,-691.5 "/>
<text text-anchor="start" x="626" y="-678.5" font-family="Arial" font-size="10.00">annotation </text>
<text text-anchor="start" x="675" y="-678.5" font-family="Arial Italic" font-size="10.00" fill="#999999">string</text>
<text text-anchor="start" x="626" y="-665.5" font-family="Arial" font-size="10.00">applicant_id </text>
<text text-anchor="start" x="681" y="-665.5" font-family="Arial Italic" font-size="10.00" fill="#999999">integer (8) ∗ FK</text>
<text text-anchor="start" x="626" y="-652.5" font-family="Arial" font-size="10.00">department </text>
<text text-anchor="start" x="678" y="-652.5" font-family="Arial Italic" font-size="10.00" fill="#999999">string</text>
<text text-anchor="start" x="626" y="-639.5" font-family="Arial" font-size="10.00">previous_uoft_experience </text>
<text text-anchor="start" x="741" y="-639.5" font-family="Arial Italic" font-size="10.00" fill="#999999">text</text>
<text text-anchor="start" x="626" y="-626.5" font-family="Arial" font-size="10.00">program </text>
<text text-anchor="start" x="665" y="-626.5" font-family="Arial Italic" font-size="10.00" fill="#999999">string</text>
<text text-anchor="start" x="626" y="-613.5" font-family="Arial" font-size="10.00">yip </text>
<text text-anchor="start" x="642" y="-613.5" font-family="Arial Italic" font-size="10.00" fill="#999999">integer</text>
</g>
<!-- m_Applicant&#45;&gt;m_ApplicantDataForMatching -->
<g id="edge14" class="edge">
<title>m_Applicant&#45;&gt;m_ApplicantDataForMatching</title>
<path fill="none" stroke="black" d="M486.5,-543.5C537.45,-548.7 587.79,-576.4 625.77,-603.19"/>
</g>
<!-- m_Application -->
<g id="node5" class="node">
<title>m_Application</title>
<path fill="none" stroke="black" d="M425.5,-395.5C425.5,-395.5 545.5,-395.5 545.5,-395.5 551.5,-395.5 557.5,-401.5 557.5,-407.5 557.5,-407.5 557.5,-465.5 557.5,-465.5 557.5,-471.5 551.5,-477.5 545.5,-477.5 545.5,-477.5 425.5,-477.5 425.5,-477.5 419.5,-477.5 413.5,-471.5 413.5,-465.5 413.5,-465.5 413.5,-407.5 413.5,-407.5 413.5,-401.5 419.5,-395.5 425.5,-395.5"/>
<text text-anchor="start" x="453" y="-464.7" font-family="Arial Bold" font-size="11.00">Application</text>
<polyline fill="none" stroke="black" points="413.5,-457.5 557.5,-457.5 "/>
<text text-anchor="start" x="420.5" y="-444.5" font-family="Arial" font-size="10.00">applicant_id </text>
<text text-anchor="start" x="475.5" y="-444.5" font-family="Arial Italic" font-size="10.00" fill="#999999">integer (8) ∗ FK</text>
<text text-anchor="start" x="420.5" y="-431.5" font-family="Arial" font-size="10.00">comments </text>
<text text-anchor="start" x="469.5" y="-431.5" font-family="Arial Italic" font-size="10.00" fill="#999999">text</text>
<text text-anchor="start" x="420.5" y="-418.5" font-family="Arial" font-size="10.00">posting_id </text>
<text text-anchor="start" x="468.5" y="-418.5" font-family="Arial Italic" font-size="10.00" fill="#999999">integer (8) FK</text>
<text text-anchor="start" x="420.5" y="-405.5" font-family="Arial" font-size="10.00">session_id </text>
<text text-anchor="start" x="470.5" y="-405.5" font-family="Arial Italic" font-size="10.00" fill="#999999">integer (8) ∗ FK</text>
</g>
<!-- m_Applicant&#45;&gt;m_Application -->
<g id="edge17" class="edge">
<title>m_Applicant&#45;&gt;m_Application</title>
<path fill="none" stroke="black" d="M361.04,-503.78C375.42,-495.95 390.62,-487.66 405.26,-479.69"/>
<polygon fill="black" stroke="black" points="406.93,-482.36 413.32,-475.29 403.91,-476.83 406.93,-482.36"/>
</g>
<!-- m_Assignment -->
<g id="node6" class="node">
<title>m_Assignment</title>
<path fill="none" stroke="black" d="M632,-452C632,-452 752,-452 752,-452 758,-452 764,-458 764,-464 764,-464 764,-561 764,-561 764,-567 758,-573 752,-573 752,-573 632,-573 632,-573 626,-573 620,-567 620,-561 620,-561 620,-464 620,-464 620,-458 626,-452 632,-452"/>
<text text-anchor="start" x="658" y="-560.2" font-family="Arial Bold" font-size="11.00">Assignment</text>
<polyline fill="none" stroke="black" points="620,-553 764,-553 "/>
<text text-anchor="start" x="627" y="-539.5" font-family="Arial" font-size="10.00">active_offer_id </text>
<text text-anchor="start" x="694" y="-539.5" font-family="Arial Italic" font-size="10.00" fill="#999999">integer (8) FK</text>
<text text-anchor="start" x="627" y="-526.5" font-family="Arial" font-size="10.00">applicant_id </text>
<text text-anchor="start" x="682" y="-526.5" font-family="Arial Italic" font-size="10.00" fill="#999999">integer (8) ∗ FK</text>
<text text-anchor="start" x="627" y="-513.5" font-family="Arial" font-size="10.00">contract_override_pdf </text>
<text text-anchor="start" x="724" y="-513.5" font-family="Arial Italic" font-size="10.00" fill="#999999">string</text>
<text text-anchor="start" x="627" y="-500.5" font-family="Arial" font-size="10.00">end_date </text>
<text text-anchor="start" x="670" y="-500.5" font-family="Arial Italic" font-size="10.00" fill="#999999">datetime</text>
<text text-anchor="start" x="627" y="-487.5" font-family="Arial" font-size="10.00">note </text>
<text text-anchor="start" x="649" y="-487.5" font-family="Arial Italic" font-size="10.00" fill="#999999">text</text>
<text text-anchor="start" x="627" y="-474.5" font-family="Arial" font-size="10.00">position_id </text>
<text text-anchor="start" x="677" y="-474.5" font-family="Arial Italic" font-size="10.00" fill="#999999">integer (8) ∗ FK</text>
<text text-anchor="start" x="627" y="-461.5" font-family="Arial" font-size="10.00">start_date </text>
<text text-anchor="start" x="674" y="-461.5" font-family="Arial Italic" font-size="10.00" fill="#999999">datetime</text>
</g>
<!-- m_Applicant&#45;&gt;m_Assignment -->
<g id="edge16" class="edge">
<title>m_Applicant&#45;&gt;m_Assignment</title>
<path fill="none" stroke="black" d="M361.31,-539.58C398.18,-538.9 443.85,-539.35 484.5,-543.5"/>
<path fill="none" stroke="black" d="M486.5,-543.5C527.67,-547.7 573.23,-541.84 610.87,-534.12"/>
<polygon fill="black" stroke="black" points="611.61,-537.18 619.76,-532.23 610.31,-531.02 611.61,-537.18"/>
</g>
<!-- m_Application&#45;&gt;m_ApplicantDataForMatching -->
<g id="edge15" class="edge">
<title>m_Application&#45;&gt;m_ApplicantDataForMatching</title>
<path fill="none" stroke="black" d="M534.22,-477.74C547.98,-490.93 562.39,-506.12 574,-521.5 594.36,-548.48 588.77,-562.2 610,-588.5 612.16,-591.17 614.43,-593.82 616.79,-596.43"/>
<polygon fill="black" stroke="black" points="614.75,-598.87 623.21,-603.26 619.34,-594.55 614.75,-598.87"/>
</g>
<!-- m_PositionPreference -->
<g id="node14" class="node">
<title>m_PositionPreference</title>
<path fill="none" stroke="black" d="M631,-353C631,-353 753,-353 753,-353 759,-353 765,-359 765,-365 765,-365 765,-410 765,-410 765,-416 759,-422 753,-422 753,-422 631,-422 631,-422 625,-422 619,-416 619,-410 619,-410 619,-365 619,-365 619,-359 625,-353 631,-353"/>
<text text-anchor="start" x="639.5" y="-409.2" font-family="Arial Bold" font-size="11.00">PositionPreference</text>
<polyline fill="none" stroke="black" points="619,-402 765,-402 "/>
<text text-anchor="start" x="626" y="-388.5" font-family="Arial" font-size="10.00">application_id </text>
<text text-anchor="start" x="689" y="-388.5" font-family="Arial Italic" font-size="10.00" fill="#999999">integer (8) ∗ FK</text>
<text text-anchor="start" x="626" y="-375.5" font-family="Arial" font-size="10.00">position_id </text>
<text text-anchor="start" x="676" y="-375.5" font-family="Arial Italic" font-size="10.00" fill="#999999">integer (8) ∗ FK</text>
<text text-anchor="start" x="626" y="-362.5" font-family="Arial" font-size="10.00">preference_level </text>
<text text-anchor="start" x="701" y="-362.5" font-family="Arial Italic" font-size="10.00" fill="#999999">integer</text>
</g>
<!-- m_Application&#45;&gt;m_PositionPreference -->
<g id="edge20" class="edge">
<title>m_Application&#45;&gt;m_PositionPreference</title>
<path fill="none" stroke="black" d="M557.74,-419.43C574.62,-415.39 592.75,-411.04 610.03,-406.9"/>
<polygon fill="black" stroke="black" points="610.96,-409.92 618.98,-404.76 609.49,-403.79 610.96,-409.92"/>
</g>
<!-- m_Ddah -->
<g id="node8" class="node">
<title>m_Ddah</title>
<path fill="none" stroke="black" d="M822,-253C822,-253 948,-253 948,-253 954,-253 960,-259 960,-265 960,-265 960,-362 960,-362 960,-368 954,-374 948,-374 948,-374 822,-374 822,-374 816,-374 810,-368 810,-362 810,-362 810,-265 810,-265 810,-259 816,-253 822,-253"/>
<text text-anchor="start" x="869" y="-361.2" font-family="Arial Bold" font-size="11.00">Ddah</text>
<polyline fill="none" stroke="black" points="810,-354 960,-354 "/>
<text text-anchor="start" x="817" y="-340.5" font-family="Arial" font-size="10.00">accepted_date </text>
<text text-anchor="start" x="884" y="-340.5" font-family="Arial Italic" font-size="10.00" fill="#999999">datetime</text>
<text text-anchor="start" x="817" y="-327.5" font-family="Arial" font-size="10.00">approved_date </text>
<text text-anchor="start" x="884" y="-327.5" font-family="Arial Italic" font-size="10.00" fill="#999999">datetime</text>
<text text-anchor="start" x="817" y="-314.5" font-family="Arial" font-size="10.00">assignment_id </text>
<text text-anchor="start" x="884" y="-314.5" font-family="Arial Italic" font-size="10.00" fill="#999999">integer (8) ∗ FK</text>
<text text-anchor="start" x="817" y="-301.5" font-family="Arial" font-size="10.00">emailed_date </text>
<text text-anchor="start" x="878" y="-301.5" font-family="Arial Italic" font-size="10.00" fill="#999999">datetime</text>
<text text-anchor="start" x="817" y="-288.5" font-family="Arial" font-size="10.00">revised_date </text>
<text text-anchor="start" x="876" y="-288.5" font-family="Arial Italic" font-size="10.00" fill="#999999">datetime</text>
<text text-anchor="start" x="817" y="-275.5" font-family="Arial" font-size="10.00">signature </text>
<text text-anchor="start" x="860" y="-275.5" font-family="Arial Italic" font-size="10.00" fill="#999999">string</text>
<text text-anchor="start" x="817" y="-262.5" font-family="Arial" font-size="10.00">url_token </text>
<text text-anchor="start" x="860" y="-262.5" font-family="Arial Italic" font-size="10.00" fill="#999999">string</text>
</g>
<!-- m_Assignment&#45;&gt;m_Ddah -->
<g id="edge4" class="edge">
<title>m_Assignment&#45;&gt;m_Ddah</title>
<path fill="none" stroke="black" d="M760.67,-451.61C765.28,-446.93 769.77,-442.2 774,-437.5 791.86,-417.69 792.66,-409.76 810,-389.5 814.31,-384.46 818.87,-379.34 823.53,-374.25"/>
</g>
<!-- m_Offer -->
<g id="node11" class="node">
<title>m_Offer</title>
<path fill="none" stroke="black" d="M822,-404C822,-404 948,-404 948,-404 954,-404 960,-410 960,-416 960,-416 960,-747 960,-747 960,-753 954,-759 948,-759 948,-759 822,-759 822,-759 816,-759 810,-753 810,-747 810,-747 810,-416 810,-416 810,-410 816,-404 822,-404"/>
<text text-anchor="start" x="869.5" y="-746.2" font-family="Arial Bold" font-size="11.00">Offer</text>
<polyline fill="none" stroke="black" points="810,-739 960,-739 "/>
<text text-anchor="start" x="817" y="-725.5" font-family="Arial" font-size="10.00">accepted_date </text>
<text text-anchor="start" x="884" y="-725.5" font-family="Arial Italic" font-size="10.00" fill="#999999">datetime</text>
<text text-anchor="start" x="817" y="-712.5" font-family="Arial" font-size="10.00">assignment_id </text>
<text text-anchor="start" x="884" y="-712.5" font-family="Arial Italic" font-size="10.00" fill="#999999">integer (8) ∗ FK</text>
<text text-anchor="start" x="817" y="-699.5" font-family="Arial" font-size="10.00">contract_override_pdf </text>
<text text-anchor="start" x="914" y="-699.5" font-family="Arial Italic" font-size="10.00" fill="#999999">string</text>
<text text-anchor="start" x="817" y="-686.5" font-family="Arial" font-size="10.00">contract_template </text>
<text text-anchor="start" x="899" y="-686.5" font-family="Arial Italic" font-size="10.00" fill="#999999">string</text>
<text text-anchor="start" x="817" y="-673.5" font-family="Arial" font-size="10.00">email </text>
<text text-anchor="start" x="844" y="-673.5" font-family="Arial Italic" font-size="10.00" fill="#999999">string</text>
<text text-anchor="start" x="817" y="-660.5" font-family="Arial" font-size="10.00">emailed_date </text>
<text text-anchor="start" x="878" y="-660.5" font-family="Arial Italic" font-size="10.00" fill="#999999">datetime</text>
<text text-anchor="start" x="817" y="-647.5" font-family="Arial" font-size="10.00">first_name </text>
<text text-anchor="start" x="866" y="-647.5" font-family="Arial Italic" font-size="10.00" fill="#999999">string</text>
<text text-anchor="start" x="817" y="-634.5" font-family="Arial" font-size="10.00">first_time_ta </text>
<text text-anchor="start" x="875" y="-634.5" font-family="Arial Italic" font-size="10.00" fill="#999999">boolean</text>
<text text-anchor="start" x="817" y="-621.5" font-family="Arial" font-size="10.00">hours </text>
<text text-anchor="start" x="845" y="-621.5" font-family="Arial Italic" font-size="10.00" fill="#999999">float</text>
<text text-anchor="start" x="817" y="-608.5" font-family="Arial" font-size="10.00">installments </text>
<text text-anchor="start" x="873" y="-608.5" font-family="Arial Italic" font-size="10.00" fill="#999999">integer</text>
<text text-anchor="start" x="817" y="-595.5" font-family="Arial" font-size="10.00">instructor_contact_desc </text>
<text text-anchor="start" x="925" y="-595.5" font-family="Arial Italic" font-size="10.00" fill="#999999">string</text>
<text text-anchor="start" x="817" y="-582.5" font-family="Arial" font-size="10.00">last_name </text>
<text text-anchor="start" x="866" y="-582.5" font-family="Arial Italic" font-size="10.00" fill="#999999">string</text>
<text text-anchor="start" x="817" y="-569.5" font-family="Arial" font-size="10.00">nag_count </text>
<text text-anchor="start" x="866" y="-569.5" font-family="Arial Italic" font-size="10.00" fill="#999999">integer</text>
<text text-anchor="start" x="817" y="-556.5" font-family="Arial" font-size="10.00">pay_period_desc </text>
<text text-anchor="start" x="894" y="-556.5" font-family="Arial Italic" font-size="10.00" fill="#999999">string</text>
<text text-anchor="start" x="817" y="-543.5" font-family="Arial" font-size="10.00">position_code </text>
<text text-anchor="start" x="881" y="-543.5" font-family="Arial Italic" font-size="10.00" fill="#999999">string</text>
<text text-anchor="start" x="817" y="-530.5" font-family="Arial" font-size="10.00">position_end_date </text>
<text text-anchor="start" x="899" y="-530.5" font-family="Arial Italic" font-size="10.00" fill="#999999">datetime</text>
<text text-anchor="start" x="817" y="-517.5" font-family="Arial" font-size="10.00">position_start_date </text>
<text text-anchor="start" x="903" y="-517.5" font-family="Arial Italic" font-size="10.00" fill="#999999">datetime</text>
<text text-anchor="start" x="817" y="-504.5" font-family="Arial" font-size="10.00">position_title </text>
<text text-anchor="start" x="875" y="-504.5" font-family="Arial Italic" font-size="10.00" fill="#999999">string</text>
<text text-anchor="start" x="817" y="-491.5" font-family="Arial" font-size="10.00">rejected_date </text>
<text text-anchor="start" x="879" y="-491.5" font-family="Arial Italic" font-size="10.00" fill="#999999">datetime</text>
<text text-anchor="start" x="817" y="-478.5" font-family="Arial" font-size="10.00">signature </text>
<text text-anchor="start" x="860" y="-478.5" font-family="Arial Italic" font-size="10.00" fill="#999999">string</text>
<text text-anchor="start" x="817" y="-465.5" font-family="Arial" font-size="10.00">status </text>
<text text-anchor="start" x="848" y="-465.5" font-family="Arial Italic" font-size="10.00" fill="#999999">integer ∗</text>
<text text-anchor="start" x="817" y="-452.5" font-family="Arial" font-size="10.00">ta_coordinator_email </text>
<text text-anchor="start" x="911" y="-452.5" font-family="Arial Italic" font-size="10.00" fill="#999999">string</text>
<text text-anchor="start" x="817" y="-439.5" font-family="Arial" font-size="10.00">ta_coordinator_name </text>
<text text-anchor="start" x="911" y="-439.5" font-family="Arial Italic" font-size="10.00" fill="#999999">string</text>
<text text-anchor="start" x="817" y="-426.5" font-family="Arial" font-size="10.00">url_token </text>
<text text-anchor="start" x="860" y="-426.5" font-family="Arial Italic" font-size="10.00" fill="#999999">string</text>
<text text-anchor="start" x="817" y="-413.5" font-family="Arial" font-size="10.00">withdrawn_date </text>
<text text-anchor="start" x="889" y="-413.5" font-family="Arial Italic" font-size="10.00" fill="#999999">datetime</text>
</g>
<!-- m_Assignment&#45;&gt;m_Offer -->
<g id="edge18" class="edge">
<title>m_Assignment&#45;&gt;m_Offer</title>
<path fill="none" stroke="black" d="M764.12,-538.19C776.27,-542.58 788.99,-547.18 801.41,-551.66"/>
<polygon fill="black" stroke="black" points="800.41,-554.65 809.95,-554.75 802.55,-548.73 800.41,-554.65"/>
</g>
<!-- m_WageChunk -->
<g id="node20" class="node">
<title>m_WageChunk</title>
<path fill="none" stroke="black" d="M822,-128C822,-128 948,-128 948,-128 954,-128 960,-134 960,-140 960,-140 960,-211 960,-211 960,-217 954,-223 948,-223 948,-223 822,-223 822,-223 816,-223 810,-217 810,-211 810,-211 810,-140 810,-140 810,-134 816,-128 822,-128"/>
<text text-anchor="start" x="851" y="-210.2" font-family="Arial Bold" font-size="11.00">WageChunk</text>
<polyline fill="none" stroke="black" points="810,-203 960,-203 "/>
<text text-anchor="start" x="817" y="-189.5" font-family="Arial" font-size="10.00">assignment_id </text>
<text text-anchor="start" x="884" y="-189.5" font-family="Arial Italic" font-size="10.00" fill="#999999">integer (8) ∗ FK</text>
<text text-anchor="start" x="817" y="-176.5" font-family="Arial" font-size="10.00">end_date </text>
<text text-anchor="start" x="860" y="-176.5" font-family="Arial Italic" font-size="10.00" fill="#999999">datetime</text>
<text text-anchor="start" x="817" y="-163.5" font-family="Arial" font-size="10.00">hours </text>
<text text-anchor="start" x="845" y="-163.5" font-family="Arial Italic" font-size="10.00" fill="#999999">float</text>
<text text-anchor="start" x="817" y="-150.5" font-family="Arial" font-size="10.00">rate </text>
<text text-anchor="start" x="837" y="-150.5" font-family="Arial Italic" font-size="10.00" fill="#999999">float</text>
<text text-anchor="start" x="817" y="-137.5" font-family="Arial" font-size="10.00">start_date </text>
<text text-anchor="start" x="864" y="-137.5" font-family="Arial Italic" font-size="10.00" fill="#999999">datetime</text>
</g>
<!-- m_Assignment&#45;&gt;m_WageChunk -->
<g id="edge19" class="edge">
<title>m_Assignment&#45;&gt;m_WageChunk</title>
<path fill="none" stroke="black" d="M764.11,-452.61C767.79,-447.76 771.14,-442.71 774,-437.5 817.2,-358.68 765.17,-316.4 810,-238.5 811.56,-235.79 813.28,-233.15 815.12,-230.58"/>
<polygon fill="black" stroke="black" points="817.95,-232.08 821.03,-223.05 812.99,-228.19 817.95,-232.08"/>
</g>
<!-- m_ContractTemplate -->
<g id="node7" class="node">
<title>m_ContractTemplate</title>
<path fill="none" stroke="black" d="M229,-113C229,-113 349,-113 349,-113 355,-113 361,-119 361,-125 361,-125 361,-170 361,-170 361,-176 355,-182 349,-182 349,-182 229,-182 229,-182 223,-182 217,-176 217,-170 217,-170 217,-125 217,-125 217,-119 223,-113 229,-113"/>
<text text-anchor="start" x="240" y="-169.2" font-family="Arial Bold" font-size="11.00">ContractTemplate</text>
<polyline fill="none" stroke="black" points="217,-162 361,-162 "/>
<text text-anchor="start" x="224" y="-148.5" font-family="Arial" font-size="10.00">session_id </text>
<text text-anchor="start" x="274" y="-148.5" font-family="Arial Italic" font-size="10.00" fill="#999999">integer (8) ∗ FK</text>
<text text-anchor="start" x="224" y="-135.5" font-family="Arial" font-size="10.00">template_file </text>
<text text-anchor="start" x="283" y="-135.5" font-family="Arial Italic" font-size="10.00" fill="#999999">string ∗</text>
<text text-anchor="start" x="224" y="-122.5" font-family="Arial" font-size="10.00">template_name </text>
<text text-anchor="start" x="294" y="-122.5" font-family="Arial Italic" font-size="10.00" fill="#999999">string ∗ U</text>
</g>
<!-- m_Position -->
<g id="node12" class="node">
<title>m_Position</title>
<path fill="none" stroke="black" d="M409,-106C409,-106 562,-106 562,-106 568,-106 574,-112 574,-118 574,-118 574,-241 574,-241 574,-247 568,-253 562,-253 562,-253 409,-253 409,-253 403,-253 397,-247 397,-241 397,-241 397,-118 397,-118 397,-112 403,-106 409,-106"/>
<text text-anchor="start" x="461.5" y="-240.2" font-family="Arial Bold" font-size="11.00">Position</text>
<polyline fill="none" stroke="black" points="397,-233 574,-233 "/>
<text text-anchor="start" x="404.5" y="-219.5" font-family="Arial" font-size="10.00">contract_template_id </text>
<text text-anchor="start" x="498.5" y="-219.5" font-family="Arial Italic" font-size="10.00" fill="#999999">integer (8) ∗ FK</text>
<text text-anchor="start" x="404.5" y="-206.5" font-family="Arial" font-size="10.00">duties </text>
<text text-anchor="start" x="434.5" y="-206.5" font-family="Arial Italic" font-size="10.00" fill="#999999">text</text>
<text text-anchor="start" x="404.5" y="-193.5" font-family="Arial" font-size="10.00">end_date </text>
<text text-anchor="start" x="447.5" y="-193.5" font-family="Arial Italic" font-size="10.00" fill="#999999">datetime</text>
<text text-anchor="start" x="404.5" y="-180.5" font-family="Arial" font-size="10.00">hours_per_assignment </text>
<text text-anchor="start" x="506.5" y="-180.5" font-family="Arial Italic" font-size="10.00" fill="#999999">float</text>
<text text-anchor="start" x="404.5" y="-167.5" font-family="Arial" font-size="10.00">position_code </text>
<text text-anchor="start" x="468.5" y="-167.5" font-family="Arial Italic" font-size="10.00" fill="#999999">string ∗ U</text>
<text text-anchor="start" x="404.5" y="-154.5" font-family="Arial" font-size="10.00">position_title </text>
<text text-anchor="start" x="462.5" y="-154.5" font-family="Arial Italic" font-size="10.00" fill="#999999">string</text>
<text text-anchor="start" x="404.5" y="-141.5" font-family="Arial" font-size="10.00">qualifications </text>
<text text-anchor="start" x="465.5" y="-141.5" font-family="Arial Italic" font-size="10.00" fill="#999999">text</text>
<text text-anchor="start" x="404.5" y="-128.5" font-family="Arial" font-size="10.00">session_id </text>
<text text-anchor="start" x="454.5" y="-128.5" font-family="Arial Italic" font-size="10.00" fill="#999999">integer (8) ∗ FK</text>
<text text-anchor="start" x="404.5" y="-115.5" font-family="Arial" font-size="10.00">start_date </text>
<text text-anchor="start" x="451.5" y="-115.5" font-family="Arial Italic" font-size="10.00" fill="#999999">datetime</text>
</g>
<!-- m_ContractTemplate&#45;&gt;m_Position -->
<g id="edge13" class="edge">
<title>m_ContractTemplate&#45;&gt;m_Position</title>
<path fill="none" stroke="black" d="M361.04,-159.19C369.75,-160.62 378.76,-162.1 387.77,-163.59"/>
<polygon fill="black" stroke="black" points="387.37,-166.71 396.76,-165.07 388.39,-160.5 387.37,-166.71"/>
</g>
<!-- m_Duty -->
<g id="node9" class="node">
<title>m_Duty</title>
<path fill="none" stroke="black" d="M1008,-272.5C1008,-272.5 1128,-272.5 1128,-272.5 1134,-272.5 1140,-278.5 1140,-284.5 1140,-284.5 1140,-342.5 1140,-342.5 1140,-348.5 1134,-354.5 1128,-354.5 1128,-354.5 1008,-354.5 1008,-354.5 1002,-354.5 996,-348.5 996,-342.5 996,-342.5 996,-284.5 996,-284.5 996,-278.5 1002,-272.5 1008,-272.5"/>
<text text-anchor="start" x="1053.5" y="-341.7" font-family="Arial Bold" font-size="11.00">Duty</text>
<polyline fill="none" stroke="black" points="996,-334.5 1140,-334.5 "/>
<text text-anchor="start" x="1003" y="-321.5" font-family="Arial" font-size="10.00">ddah_id </text>
<text text-anchor="start" x="1040" y="-321.5" font-family="Arial Italic" font-size="10.00" fill="#999999">integer (8) FK</text>
<text text-anchor="start" x="1003" y="-308.5" font-family="Arial" font-size="10.00">description </text>
<text text-anchor="start" x="1054" y="-308.5" font-family="Arial Italic" font-size="10.00" fill="#999999">string</text>
<text text-anchor="start" x="1003" y="-295.5" font-family="Arial" font-size="10.00">hours </text>
<text text-anchor="start" x="1031" y="-295.5" font-family="Arial Italic" font-size="10.00" fill="#999999">float</text>
<text text-anchor="start" x="1003" y="-282.5" font-family="Arial" font-size="10.00">order </text>
<text text-anchor="start" x="1028" y="-282.5" font-family="Arial Italic" font-size="10.00" fill="#999999">integer</text>
</g>
<!-- m_Ddah&#45;&gt;m_Duty -->
<g id="edge5" class="edge">
<title>m_Ddah&#45;&gt;m_Duty</title>
<path fill="none" stroke="black" d="M960.14,-313.5C968.91,-313.5 977.89,-313.5 986.74,-313.5"/>
<polygon fill="black" stroke="black" points="986.89,-316.65 995.89,-313.5 986.89,-310.35 986.89,-316.65"/>
</g>
<!-- m_Instructor -->
<g id="node10" class="node">
<title>m_Instructor</title>
<path fill="none" stroke="black" d="M229,-0.5C229,-0.5 349,-0.5 349,-0.5 355,-0.5 361,-6.5 361,-12.5 361,-12.5 361,-70.5 361,-70.5 361,-76.5 355,-82.5 349,-82.5 349,-82.5 229,-82.5 229,-82.5 223,-82.5 217,-76.5 217,-70.5 217,-70.5 217,-12.5 217,-12.5 217,-6.5 223,-0.5 229,-0.5"/>
<text text-anchor="start" x="261" y="-69.7" font-family="Arial Bold" font-size="11.00">Instructor</text>
<polyline fill="none" stroke="black" points="217,-62.5 361,-62.5 "/>
<text text-anchor="start" x="224" y="-49.5" font-family="Arial" font-size="10.00">email </text>
<text text-anchor="start" x="251" y="-49.5" font-family="Arial Italic" font-size="10.00" fill="#999999">string</text>
<text text-anchor="start" x="224" y="-36.5" font-family="Arial" font-size="10.00">first_name </text>
<text text-anchor="start" x="273" y="-36.5" font-family="Arial Italic" font-size="10.00" fill="#999999">string ∗</text>
<text text-anchor="start" x="224" y="-23.5" font-family="Arial" font-size="10.00">last_name </text>
<text text-anchor="start" x="273" y="-23.5" font-family="Arial Italic" font-size="10.00" fill="#999999">string ∗</text>
<text text-anchor="start" x="224" y="-10.5" font-family="Arial" font-size="10.00">utorid </text>
<text text-anchor="start" x="252" y="-10.5" font-family="Arial Italic" font-size="10.00" fill="#999999">string ∗ U</text>
</g>
<!-- m_Instructor&#45;&gt;m_Position -->
<g id="edge8" class="edge">
<title>m_Instructor&#45;&gt;m_Position</title>
<path fill="none" stroke="black" d="M355.5,-87.97C366.34,-95.66 377.77,-103.77 389.16,-111.86"/>
<polygon fill="black" stroke="black" points="356.99,-85.17 347.83,-82.53 353.35,-90.31 356.99,-85.17"/>
<polygon fill="black" stroke="black" points="387.48,-114.52 396.64,-117.16 391.12,-109.38 387.48,-114.52"/>
</g>
<!-- m_Position&#45;&gt;m_Assignment -->
<g id="edge9" class="edge">
<title>m_Position&#45;&gt;m_Assignment</title>
<path fill="none" stroke="black" d="M518.07,-253.2C546.45,-317.91 587.09,-406.42 610,-437.5 611.76,-439.89 613.61,-442.27 615.52,-444.62"/>
<polygon fill="black" stroke="black" points="613.22,-446.78 621.44,-451.62 618.03,-442.71 613.22,-446.78"/>
</g>
<!-- m_PositionDataForMatching -->
<g id="node13" class="node">
<title>m_PositionDataForMatching</title>
<path fill="none" stroke="black" d="M622,-28.5C622,-28.5 762,-28.5 762,-28.5 768,-28.5 774,-34.5 774,-40.5 774,-40.5 774,-98.5 774,-98.5 774,-104.5 768,-110.5 762,-110.5 762,-110.5 622,-110.5 622,-110.5 616,-110.5 610,-104.5 610,-98.5 610,-98.5 610,-40.5 610,-40.5 610,-34.5 616,-28.5 622,-28.5"/>
<text text-anchor="start" x="625" y="-97.7" font-family="Arial Bold" font-size="11.00">PositionDataForMatching</text>
<polyline fill="none" stroke="black" points="610,-90.5 774,-90.5 "/>
<text text-anchor="start" x="617" y="-77.5" font-family="Arial" font-size="10.00">current_enrollment </text>
<text text-anchor="start" x="701" y="-77.5" font-family="Arial Italic" font-size="10.00" fill="#999999">integer</text>
<text text-anchor="start" x="617" y="-64.5" font-family="Arial" font-size="10.00">current_waitlisted </text>
<text text-anchor="start" x="697" y="-64.5" font-family="Arial Italic" font-size="10.00" fill="#999999">integer</text>
<text text-anchor="start" x="617" y="-51.5" font-family="Arial" font-size="10.00">desired_num_assignments </text>
<text text-anchor="start" x="737" y="-51.5" font-family="Arial Italic" font-size="10.00" fill="#999999">integer</text>
<text text-anchor="start" x="617" y="-38.5" font-family="Arial" font-size="10.00">position_id </text>
<text text-anchor="start" x="667" y="-38.5" font-family="Arial Italic" font-size="10.00" fill="#999999">integer (8) ∗ FK</text>
</g>
<!-- m_Position&#45;&gt;m_PositionDataForMatching -->
<g id="edge12" class="edge">
<title>m_Position&#45;&gt;m_PositionDataForMatching</title>
<path fill="none" stroke="black" d="M574.12,-132.37C587.56,-125.14 601.35,-117.72 614.52,-110.64"/>
</g>
<!-- m_Position&#45;&gt;m_PositionPreference -->
<g id="edge10" class="edge">
<title>m_Position&#45;&gt;m_PositionPreference</title>
<path fill="none" stroke="black" d="M535.69,-253.31C556.6,-281.56 582.5,-312.88 610,-337.5 613.87,-340.96 618,-344.32 622.28,-347.56"/>
<polygon fill="black" stroke="black" points="620.47,-350.14 629.6,-352.89 624.18,-345.05 620.47,-350.14"/>
</g>
<!-- m_PostingPosition -->
<g id="node16" class="node">
<title>m_PostingPosition</title>
<path fill="none" stroke="black" d="M632,-240.5C632,-240.5 752,-240.5 752,-240.5 758,-240.5 764,-246.5 764,-252.5 764,-252.5 764,-310.5 764,-310.5 764,-316.5 758,-322.5 752,-322.5 752,-322.5 632,-322.5 632,-322.5 626,-322.5 620,-316.5 620,-310.5 620,-310.5 620,-252.5 620,-252.5 620,-246.5 626,-240.5 632,-240.5"/>
<text text-anchor="start" x="647.5" y="-309.7" font-family="Arial Bold" font-size="11.00">PostingPosition</text>
<polyline fill="none" stroke="black" points="620,-302.5 764,-302.5 "/>
<text text-anchor="start" x="627" y="-289.5" font-family="Arial" font-size="10.00">hours </text>
<text text-anchor="start" x="655" y="-289.5" font-family="Arial Italic" font-size="10.00" fill="#999999">float</text>
<text text-anchor="start" x="627" y="-276.5" font-family="Arial" font-size="10.00">num_positions </text>
<text text-anchor="start" x="694" y="-276.5" font-family="Arial Italic" font-size="10.00" fill="#999999">integer</text>
<text text-anchor="start" x="627" y="-263.5" font-family="Arial" font-size="10.00">position_id </text>
<text text-anchor="start" x="677" y="-263.5" font-family="Arial Italic" font-size="10.00" fill="#999999">integer (8) ∗ FK</text>
<text text-anchor="start" x="627" y="-250.5" font-family="Arial" font-size="10.00">posting_id </text>
<text text-anchor="start" x="675" y="-250.5" font-family="Arial Italic" font-size="10.00" fill="#999999">integer (8) ∗ FK</text>
</g>
<!-- m_Position&#45;&gt;m_PostingPosition -->
<g id="edge24" class="edge">
<title>m_Position&#45;&gt;m_PostingPosition</title>
<path fill="none" stroke="black" d="M574.12,-223.2C586.54,-229.4 599.25,-235.74 611.5,-241.85"/>
<polygon fill="black" stroke="black" points="610.44,-244.84 619.9,-246.04 613.26,-239.2 610.44,-244.84"/>
</g>
<!-- m_ReportingTag -->
<g id="node17" class="node">
<title>m_ReportingTag</title>
<path fill="none" stroke="black" d="M631.5,-141C631.5,-141 752.5,-141 752.5,-141 758.5,-141 764.5,-147 764.5,-153 764.5,-153 764.5,-198 764.5,-198 764.5,-204 758.5,-210 752.5,-210 752.5,-210 631.5,-210 631.5,-210 625.5,-210 619.5,-204 619.5,-198 619.5,-198 619.5,-153 619.5,-153 619.5,-147 625.5,-141 631.5,-141"/>
<text text-anchor="start" x="654" y="-197.2" font-family="Arial Bold" font-size="11.00">ReportingTag</text>
<polyline fill="none" stroke="black" points="619.5,-190 764.5,-190 "/>
<text text-anchor="start" x="627" y="-176.5" font-family="Arial" font-size="10.00">name </text>
<text text-anchor="start" x="655" y="-176.5" font-family="Arial Italic" font-size="10.00" fill="#999999">string</text>
<text text-anchor="start" x="627" y="-163.5" font-family="Arial" font-size="10.00">position_id </text>
<text text-anchor="start" x="677" y="-163.5" font-family="Arial Italic" font-size="10.00" fill="#999999">integer (8) FK</text>
<text text-anchor="start" x="627" y="-150.5" font-family="Arial" font-size="10.00">wage_chunk_id </text>
<text text-anchor="start" x="698" y="-150.5" font-family="Arial Italic" font-size="10.00" fill="#999999">integer (8) FK</text>
</g>
<!-- m_Position&#45;&gt;m_ReportingTag -->
<g id="edge7" class="edge">
<title>m_Position&#45;&gt;m_ReportingTag</title>
<path fill="none" stroke="black" d="M583.34,-177.61C592.32,-177.43 601.36,-177.25 610.18,-177.08"/>
<polygon fill="black" stroke="black" points="583.05,-174.46 574.12,-177.79 583.18,-180.76 583.05,-174.46"/>
<polygon fill="black" stroke="black" points="610.34,-180.23 619.28,-176.9 610.22,-173.93 610.34,-180.23"/>
</g>
<!-- m_Posting -->
<g id="node15" class="node">
<title>m_Posting</title>
<path fill="none" stroke="black" d="M229,-271C229,-271 349,-271 349,-271 355,-271 361,-277 361,-283 361,-283 361,-380 361,-380 361,-386 355,-392 349,-392 349,-392 229,-392 229,-392 223,-392 217,-386 217,-380 217,-380 217,-283 217,-283 217,-277 223,-271 229,-271"/>
<text text-anchor="start" x="266.5" y="-379.2" font-family="Arial Bold" font-size="11.00">Posting</text>
<polyline fill="none" stroke="black" points="217,-372 361,-372 "/>
<text text-anchor="start" x="224" y="-358.5" font-family="Arial" font-size="10.00">close_date </text>
<text text-anchor="start" x="275" y="-358.5" font-family="Arial Italic" font-size="10.00" fill="#999999">datetime</text>
<text text-anchor="start" x="224" y="-345.5" font-family="Arial" font-size="10.00">custom_questions </text>
<text text-anchor="start" x="307" y="-345.5" font-family="Arial Italic" font-size="10.00" fill="#999999">text</text>
<text text-anchor="start" x="224" y="-332.5" font-family="Arial" font-size="10.00">intro_text </text>
<text text-anchor="start" x="268" y="-332.5" font-family="Arial Italic" font-size="10.00" fill="#999999">text</text>
<text text-anchor="start" x="224" y="-319.5" font-family="Arial" font-size="10.00">name </text>
<text text-anchor="start" x="252" y="-319.5" font-family="Arial Italic" font-size="10.00" fill="#999999">string ∗</text>
<text text-anchor="start" x="224" y="-306.5" font-family="Arial" font-size="10.00">open_date </text>
<text text-anchor="start" x="273" y="-306.5" font-family="Arial Italic" font-size="10.00" fill="#999999">datetime</text>
<text text-anchor="start" x="224" y="-293.5" font-family="Arial" font-size="10.00">session_id </text>
<text text-anchor="start" x="274" y="-293.5" font-family="Arial Italic" font-size="10.00" fill="#999999">integer (8) ∗ FK</text>
<text text-anchor="start" x="224" y="-280.5" font-family="Arial" font-size="10.00">status </text>
<text text-anchor="start" x="255" y="-280.5" font-family="Arial Italic" font-size="10.00" fill="#999999">integer</text>
</g>
<!-- m_Posting&#45;&gt;m_Application -->
<g id="edge21" class="edge">
<title>m_Posting&#45;&gt;m_Application</title>
<path fill="none" stroke="black" d="M361.04,-369.85C375.42,-377.61 390.62,-385.82 405.26,-393.72"/>
<polygon fill="black" stroke="black" points="403.91,-396.57 413.32,-398.08 406.9,-391.03 403.91,-396.57"/>
</g>
<!-- m_Posting&#45;&gt;m_PostingPosition -->
<g id="edge23" class="edge">
<title>m_Posting&#45;&gt;m_PostingPosition</title>
<path fill="none" stroke="black" d="M361.23,-322.62C431.16,-313.9 537.66,-300.62 610.59,-291.53"/>
<polygon fill="black" stroke="black" points="611.22,-294.62 619.76,-290.38 610.44,-288.37 611.22,-294.62"/>
</g>
<!-- m_ReportingTag&#45;&gt;m_WageChunk -->
<g id="edge6" class="edge">
<title>m_ReportingTag&#45;&gt;m_WageChunk</title>
<path fill="none" stroke="black" d="M773.72,-175.5C782.58,-175.5 791.61,-175.5 800.5,-175.5"/>
<polygon fill="black" stroke="black" points="773.66,-172.35 764.66,-175.5 773.66,-178.65 773.66,-172.35"/>
<polygon fill="black" stroke="black" points="800.7,-178.65 809.7,-175.5 800.7,-172.35 800.7,-178.65"/>
</g>
<!-- m_Session -->
<g id="node18" class="node">
<title>m_Session</title>
<path fill="none" stroke="black" d="M30.5,-179C30.5,-179 150.5,-179 150.5,-179 156.5,-179 162.5,-185 162.5,-191 162.5,-191 162.5,-262 162.5,-262 162.5,-268 156.5,-274 150.5,-274 150.5,-274 30.5,-274 30.5,-274 24.5,-274 18.5,-268 18.5,-262 18.5,-262 18.5,-191 18.5,-191 18.5,-185 24.5,-179 30.5,-179"/>
<text text-anchor="start" x="67" y="-261.2" font-family="Arial Bold" font-size="11.00">Session</text>
<polyline fill="none" stroke="black" points="18.5,-254 162.5,-254 "/>
<text text-anchor="start" x="25.5" y="-240.5" font-family="Arial" font-size="10.00">end_date </text>
<text text-anchor="start" x="68.5" y="-240.5" font-family="Arial Italic" font-size="10.00" fill="#999999">datetime</text>
<text text-anchor="start" x="25.5" y="-227.5" font-family="Arial" font-size="10.00">name </text>
<text text-anchor="start" x="53.5" y="-227.5" font-family="Arial Italic" font-size="10.00" fill="#999999">string ∗ U</text>
<text text-anchor="start" x="25.5" y="-214.5" font-family="Arial" font-size="10.00">rate1 </text>
<text text-anchor="start" x="50.5" y="-214.5" font-family="Arial Italic" font-size="10.00" fill="#999999">float</text>
<text text-anchor="start" x="25.5" y="-201.5" font-family="Arial" font-size="10.00">rate2 </text>
<text text-anchor="start" x="50.5" y="-201.5" font-family="Arial Italic" font-size="10.00" fill="#999999">float</text>
<text text-anchor="start" x="25.5" y="-188.5" font-family="Arial" font-size="10.00">start_date </text>
<text text-anchor="start" x="72.5" y="-188.5" font-family="Arial Italic" font-size="10.00" fill="#999999">datetime</text>
</g>
<!-- m_Session&#45;&gt;m_Application -->
<g id="edge1" class="edge">
<title>m_Session&#45;&gt;m_Application</title>
<path fill="none" stroke="black" d="M162.58,-269.45C169.43,-275.57 175.76,-282.27 181,-289.5 213.16,-333.91 174.76,-372.54 217,-407.5 268.41,-450.05 345.74,-454.14 404.06,-449.45"/>
<polygon fill="black" stroke="black" points="404.57,-452.56 413.25,-448.62 404,-446.29 404.57,-452.56"/>
</g>
<!-- m_Session&#45;&gt;m_ContractTemplate -->
<g id="edge3" class="edge">
<title>m_Session&#45;&gt;m_ContractTemplate</title>
<path fill="none" stroke="black" d="M162.72,-197.87C177.41,-191.96 192.97,-185.7 207.95,-179.68"/>
<polygon fill="black" stroke="black" points="209.52,-182.45 216.69,-176.17 207.17,-176.6 209.52,-182.45"/>
</g>
<!-- m_Session&#45;&gt;m_Position -->
<g id="edge2" class="edge">
<title>m_Session&#45;&gt;m_Position</title>
<path fill="none" stroke="black" d="M162.77,-219.08C217.13,-213.29 293.84,-204.86 361,-196.5 369.7,-195.42 378.74,-194.25 387.79,-193.06"/>
<polygon fill="black" stroke="black" points="388.32,-196.16 396.83,-191.85 387.49,-189.92 388.32,-196.16"/>
</g>
<!-- m_Session&#45;&gt;m_Posting -->
<g id="edge22" class="edge">
<title>m_Session&#45;&gt;m_Posting</title>
<path fill="none" stroke="black" d="M162.72,-264.56C177.55,-272.48 193.26,-280.88 208.37,-288.95"/>
<polygon fill="black" stroke="black" points="207.27,-291.93 216.69,-293.4 210.24,-286.38 207.27,-291.93"/>
</g>
<!-- m_User -->
<g id="node19" class="node">
<title>m_User</title>
<path fill="none" stroke="black" d="M30.5,-304C30.5,-304 150.5,-304 150.5,-304 156.5,-304 162.5,-310 162.5,-316 162.5,-316 162.5,-361 162.5,-361 162.5,-367 156.5,-373 150.5,-373 150.5,-373 30.5,-373 30.5,-373 24.5,-373 18.5,-367 18.5,-361 18.5,-361 18.5,-316 18.5,-316 18.5,-310 24.5,-304 30.5,-304"/>
<text text-anchor="start" x="76" y="-360.2" font-family="Arial Bold" font-size="11.00">User</text>
<polyline fill="none" stroke="black" points="18.5,-353 162.5,-353 "/>
<text text-anchor="start" x="25.5" y="-339.5" font-family="Arial" font-size="10.00">last_seen </text>
<text text-anchor="start" x="71.5" y="-339.5" font-family="Arial Italic" font-size="10.00" fill="#999999">datetime</text>
<text text-anchor="start" x="25.5" y="-326.5" font-family="Arial" font-size="10.00">roles_mask </text>
<text text-anchor="start" x="79.5" y="-326.5" font-family="Arial Italic" font-size="10.00" fill="#999999">integer</text>
<text text-anchor="start" x="25.5" y="-313.5" font-family="Arial" font-size="10.00">utorid </text>
<text text-anchor="start" x="53.5" y="-313.5" font-family="Arial Italic" font-size="10.00" fill="#999999">string ∗ U</text>
</g>
</g>
</svg>
