<?xml version="1.0" encoding="UTF-8" standalone="no"?>
<!DOCTYPE svg PUBLIC "-//W3C//DTD SVG 1.1//EN"
 "http://www.w3.org/Graphics/SVG/1.1/DTD/svg11.dtd">
<!-- Generated by graphviz version 2.44.0 ()
 -->
<!-- Title: Tapp Pages: 1 -->
<svg width="1198pt" height="925pt"
 viewBox="0.00 0.00 1197.60 925.10" xmlns="http://www.w3.org/2000/svg" xmlns:xlink="http://www.w3.org/1999/xlink">
<g id="graph0" class="graph" transform="scale(1 1) rotate(0) translate(28.8 896.3)">
<title>Tapp</title>
<polygon fill="white" stroke="transparent" points="-28.8,28.8 -28.8,-896.3 1168.8,-896.3 1168.8,28.8 -28.8,28.8"/>
<text text-anchor="middle" x="570" y="-853.1" font-family="Arial Bold" font-size="13.00">ER Diagram</text>
<!-- m_ActiveRecord::InternalMetadata -->
<g id="node1" class="node">
<title>m_ActiveRecord::InternalMetadata</title>
<path fill="none" stroke="black" d="M14.5,-88C14.5,-88 166.5,-88 166.5,-88 172.5,-88 178.5,-94 178.5,-100 178.5,-100 178.5,-119 178.5,-119 178.5,-125 172.5,-131 166.5,-131 166.5,-131 14.5,-131 14.5,-131 8.5,-131 2.5,-125 2.5,-119 2.5,-119 2.5,-100 2.5,-100 2.5,-94 8.5,-88 14.5,-88"/>
<text text-anchor="start" x="7.5" y="-118.2" font-family="Arial Bold" font-size="11.00">ActiveRecord::InternalMetadata</text>
<polyline fill="none" stroke="black" points="2.5,-111 178.5,-111 "/>
<text text-anchor="start" x="25.5" y="-97.5" font-family="Arial" font-size="10.00">value </text>
<text text-anchor="start" x="52.5" y="-97.5" font-family="Arial Italic" font-size="10.00" fill="#999999">string</text>
</g>
<!-- m_ActiveRecord::SchemaMigration -->
<g id="node2" class="node">
<title>m_ActiveRecord::SchemaMigration</title>
<path fill="none" stroke="black" d="M12,-161.5C12,-161.5 169,-161.5 169,-161.5 175,-161.5 181,-167.5 181,-173.5 181,-173.5 181,-185.5 181,-185.5 181,-191.5 175,-197.5 169,-197.5 169,-197.5 12,-197.5 12,-197.5 6,-197.5 0,-191.5 0,-185.5 0,-185.5 0,-173.5 0,-173.5 0,-167.5 6,-161.5 12,-161.5"/>
<text text-anchor="start" x="5.5" y="-176.7" font-family="Arial Bold" font-size="11.00">ActiveRecord::SchemaMigration</text>
</g>
<!-- m_Applicant -->
<g id="node3" class="node">
<title>m_Applicant</title>
<path fill="none" stroke="black" d="M229,-488.5C229,-488.5 349,-488.5 349,-488.5 355,-488.5 361,-494.5 361,-500.5 361,-500.5 361,-584.5 361,-584.5 361,-590.5 355,-596.5 349,-596.5 349,-596.5 229,-596.5 229,-596.5 223,-596.5 217,-590.5 217,-584.5 217,-584.5 217,-500.5 217,-500.5 217,-494.5 223,-488.5 229,-488.5"/>
<text text-anchor="start" x="261.5" y="-583.7" font-family="Arial Bold" font-size="11.00">Applicant</text>
<polyline fill="none" stroke="black" points="217,-576.5 361,-576.5 "/>
<text text-anchor="start" x="224" y="-563.5" font-family="Arial" font-size="10.00">email </text>
<text text-anchor="start" x="251" y="-563.5" font-family="Arial Italic" font-size="10.00" fill="#999999">string</text>
<text text-anchor="start" x="224" y="-550.5" font-family="Arial" font-size="10.00">first_name </text>
<text text-anchor="start" x="273" y="-550.5" font-family="Arial Italic" font-size="10.00" fill="#999999">string</text>
<text text-anchor="start" x="224" y="-537.5" font-family="Arial" font-size="10.00">last_name </text>
<text text-anchor="start" x="273" y="-537.5" font-family="Arial Italic" font-size="10.00" fill="#999999">string</text>
<text text-anchor="start" x="224" y="-524.5" font-family="Arial" font-size="10.00">phone </text>
<text text-anchor="start" x="254" y="-524.5" font-family="Arial Italic" font-size="10.00" fill="#999999">string</text>
<text text-anchor="start" x="224" y="-511.5" font-family="Arial" font-size="10.00">student_number </text>
<text text-anchor="start" x="297" y="-511.5" font-family="Arial Italic" font-size="10.00" fill="#999999">string</text>
<text text-anchor="start" x="224" y="-498.5" font-family="Arial" font-size="10.00">utorid </text>
<text text-anchor="start" x="252" y="-498.5" font-family="Arial Italic" font-size="10.00" fill="#999999">string ∗ U</text>
</g>
<!-- m_ApplicantDataForMatching -->
<g id="node4" class="node">
<title>m_ApplicantDataForMatching</title>
<path fill="none" stroke="black" d="M628.5,-561.5C628.5,-561.5 755.5,-561.5 755.5,-561.5 761.5,-561.5 767.5,-567.5 767.5,-573.5 767.5,-573.5 767.5,-657.5 767.5,-657.5 767.5,-663.5 761.5,-669.5 755.5,-669.5 755.5,-669.5 628.5,-669.5 628.5,-669.5 622.5,-669.5 616.5,-663.5 616.5,-657.5 616.5,-657.5 616.5,-573.5 616.5,-573.5 616.5,-567.5 622.5,-561.5 628.5,-561.5"/>
<text text-anchor="start" x="622" y="-656.7" font-family="Arial Bold" font-size="11.00">ApplicantDataForMatching</text>
<polyline fill="none" stroke="black" points="616.5,-649.5 767.5,-649.5 "/>
<text text-anchor="start" x="626" y="-636.5" font-family="Arial" font-size="10.00">annotation </text>
<text text-anchor="start" x="675" y="-636.5" font-family="Arial Italic" font-size="10.00" fill="#999999">string</text>
<text text-anchor="start" x="626" y="-623.5" font-family="Arial" font-size="10.00">applicant_id </text>
<text text-anchor="start" x="681" y="-623.5" font-family="Arial Italic" font-size="10.00" fill="#999999">integer (8) ∗ FK</text>
<text text-anchor="start" x="626" y="-610.5" font-family="Arial" font-size="10.00">department </text>
<text text-anchor="start" x="678" y="-610.5" font-family="Arial Italic" font-size="10.00" fill="#999999">string</text>
<text text-anchor="start" x="626" y="-597.5" font-family="Arial" font-size="10.00">previous_uoft_experience </text>
<text text-anchor="start" x="741" y="-597.5" font-family="Arial Italic" font-size="10.00" fill="#999999">text</text>
<text text-anchor="start" x="626" y="-584.5" font-family="Arial" font-size="10.00">program </text>
<text text-anchor="start" x="665" y="-584.5" font-family="Arial Italic" font-size="10.00" fill="#999999">string</text>
<text text-anchor="start" x="626" y="-571.5" font-family="Arial" font-size="10.00">yip </text>
<text text-anchor="start" x="642" y="-571.5" font-family="Arial Italic" font-size="10.00" fill="#999999">integer</text>
</g>
<!-- m_Applicant&#45;&gt;m_ApplicantDataForMatching -->
<g id="edge15" class="edge">
<title>m_Applicant&#45;&gt;m_ApplicantDataForMatching</title>
<path fill="none" stroke="black" d="M486.5,-578.5C529.98,-578.74 577.83,-586.95 616.31,-595.58"/>
</g>
<!-- m_Application -->
<g id="node5" class="node">
<title>m_Application</title>
<path fill="none" stroke="black" d="M425.5,-337C425.5,-337 545.5,-337 545.5,-337 551.5,-337 557.5,-343 557.5,-349 557.5,-349 557.5,-394 557.5,-394 557.5,-400 551.5,-406 545.5,-406 545.5,-406 425.5,-406 425.5,-406 419.5,-406 413.5,-400 413.5,-394 413.5,-394 413.5,-349 413.5,-349 413.5,-343 419.5,-337 425.5,-337"/>
<text text-anchor="start" x="453" y="-393.2" font-family="Arial Bold" font-size="11.00">Application</text>
<polyline fill="none" stroke="black" points="413.5,-386 557.5,-386 "/>
<text text-anchor="start" x="420.5" y="-372.5" font-family="Arial" font-size="10.00">applicant_id </text>
<text text-anchor="start" x="475.5" y="-372.5" font-family="Arial Italic" font-size="10.00" fill="#999999">integer (8) ∗ FK</text>
<text text-anchor="start" x="420.5" y="-359.5" font-family="Arial" font-size="10.00">comments </text>
<text text-anchor="start" x="469.5" y="-359.5" font-family="Arial Italic" font-size="10.00" fill="#999999">text</text>
<text text-anchor="start" x="420.5" y="-346.5" font-family="Arial" font-size="10.00">session_id </text>
<text text-anchor="start" x="470.5" y="-346.5" font-family="Arial Italic" font-size="10.00" fill="#999999">integer (8) ∗ FK</text>
</g>
<!-- m_Applicant&#45;&gt;m_Application -->
<g id="edge18" class="edge">
<title>m_Applicant&#45;&gt;m_Application</title>
<path fill="none" stroke="black" d="M351.54,-488.39C379.64,-463.69 412.35,-434.93 438.3,-412.12"/>
<polygon fill="black" stroke="black" points="440.4,-414.46 445.08,-406.16 436.24,-409.73 440.4,-414.46"/>
</g>
<!-- m_Assignment -->
<g id="node6" class="node">
<title>m_Assignment</title>
<path fill="none" stroke="black" d="M632,-410C632,-410 752,-410 752,-410 758,-410 764,-416 764,-422 764,-422 764,-519 764,-519 764,-525 758,-531 752,-531 752,-531 632,-531 632,-531 626,-531 620,-525 620,-519 620,-519 620,-422 620,-422 620,-416 626,-410 632,-410"/>
<text text-anchor="start" x="658" y="-518.2" font-family="Arial Bold" font-size="11.00">Assignment</text>
<polyline fill="none" stroke="black" points="620,-511 764,-511 "/>
<text text-anchor="start" x="627" y="-497.5" font-family="Arial" font-size="10.00">active_offer_id </text>
<text text-anchor="start" x="694" y="-497.5" font-family="Arial Italic" font-size="10.00" fill="#999999">integer (8) FK</text>
<text text-anchor="start" x="627" y="-484.5" font-family="Arial" font-size="10.00">applicant_id </text>
<text text-anchor="start" x="682" y="-484.5" font-family="Arial Italic" font-size="10.00" fill="#999999">integer (8) ∗ FK</text>
<text text-anchor="start" x="627" y="-471.5" font-family="Arial" font-size="10.00">contract_override_pdf </text>
<text text-anchor="start" x="724" y="-471.5" font-family="Arial Italic" font-size="10.00" fill="#999999">string</text>
<text text-anchor="start" x="627" y="-458.5" font-family="Arial" font-size="10.00">end_date </text>
<text text-anchor="start" x="670" y="-458.5" font-family="Arial Italic" font-size="10.00" fill="#999999">datetime</text>
<text text-anchor="start" x="627" y="-445.5" font-family="Arial" font-size="10.00">note </text>
<text text-anchor="start" x="649" y="-445.5" font-family="Arial Italic" font-size="10.00" fill="#999999">text</text>
<text text-anchor="start" x="627" y="-432.5" font-family="Arial" font-size="10.00">position_id </text>
<text text-anchor="start" x="677" y="-432.5" font-family="Arial Italic" font-size="10.00" fill="#999999">integer (8) ∗ FK</text>
<text text-anchor="start" x="627" y="-419.5" font-family="Arial" font-size="10.00">start_date </text>
<text text-anchor="start" x="674" y="-419.5" font-family="Arial Italic" font-size="10.00" fill="#999999">datetime</text>
</g>
<!-- m_Applicant&#45;&gt;m_Assignment -->
<g id="edge17" class="edge">
<title>m_Applicant&#45;&gt;m_Assignment</title>
<path fill="none" stroke="black" d="M361.01,-561.89C397.6,-570.28 443.12,-578.27 484.5,-578.5"/>
<path fill="none" stroke="black" d="M486.5,-578.5C531.48,-578.75 576.26,-558.09 612.39,-534.79"/>
<polygon fill="black" stroke="black" points="614.2,-537.37 619.97,-529.78 610.72,-532.11 614.2,-537.37"/>
</g>
<!-- m_Application&#45;&gt;m_ApplicantDataForMatching -->
<g id="edge16" class="edge">
<title>m_Application&#45;&gt;m_ApplicantDataForMatching</title>
<path fill="none" stroke="black" d="M507.37,-406.28C530.24,-443.03 569.13,-501.73 610,-546.5 612.59,-549.34 615.3,-552.17 618.08,-554.98"/>
<polygon fill="black" stroke="black" points="616.08,-557.43 624.7,-561.49 620.49,-552.94 616.08,-557.43"/>
</g>
<!-- m_PositionPreference -->
<g id="node15" class="node">
<title>m_PositionPreference</title>
<path fill="none" stroke="black" d="M631,-311C631,-311 753,-311 753,-311 759,-311 765,-317 765,-323 765,-323 765,-368 765,-368 765,-374 759,-380 753,-380 753,-380 631,-380 631,-380 625,-380 619,-374 619,-368 619,-368 619,-323 619,-323 619,-317 625,-311 631,-311"/>
<text text-anchor="start" x="639.5" y="-367.2" font-family="Arial Bold" font-size="11.00">PositionPreference</text>
<polyline fill="none" stroke="black" points="619,-360 765,-360 "/>
<text text-anchor="start" x="626" y="-346.5" font-family="Arial" font-size="10.00">application_id </text>
<text text-anchor="start" x="689" y="-346.5" font-family="Arial Italic" font-size="10.00" fill="#999999">integer (8) ∗ FK</text>
<text text-anchor="start" x="626" y="-333.5" font-family="Arial" font-size="10.00">position_id </text>
<text text-anchor="start" x="676" y="-333.5" font-family="Arial Italic" font-size="10.00" fill="#999999">integer (8) ∗ FK</text>
<text text-anchor="start" x="626" y="-320.5" font-family="Arial" font-size="10.00">preference_level </text>
<text text-anchor="start" x="701" y="-320.5" font-family="Arial Italic" font-size="10.00" fill="#999999">integer</text>
</g>
<!-- m_Application&#45;&gt;m_PositionPreference -->
<g id="edge21" class="edge">
<title>m_Application&#45;&gt;m_PositionPreference</title>
<path fill="none" stroke="black" d="M557.74,-362.44C574.62,-360.3 592.75,-357.99 610.03,-355.79"/>
<polygon fill="black" stroke="black" points="610.45,-358.92 618.98,-354.66 609.65,-352.67 610.45,-358.92"/>
</g>
<!-- m_Ddah -->
<g id="node8" class="node">
<title>m_Ddah</title>
<path fill="none" stroke="black" d="M822,-324C822,-324 948,-324 948,-324 954,-324 960,-330 960,-336 960,-336 960,-433 960,-433 960,-439 954,-445 948,-445 948,-445 822,-445 822,-445 816,-445 810,-439 810,-433 810,-433 810,-336 810,-336 810,-330 816,-324 822,-324"/>
<text text-anchor="start" x="869" y="-432.2" font-family="Arial Bold" font-size="11.00">Ddah</text>
<polyline fill="none" stroke="black" points="810,-425 960,-425 "/>
<text text-anchor="start" x="817" y="-411.5" font-family="Arial" font-size="10.00">accepted_date </text>
<text text-anchor="start" x="884" y="-411.5" font-family="Arial Italic" font-size="10.00" fill="#999999">datetime</text>
<text text-anchor="start" x="817" y="-398.5" font-family="Arial" font-size="10.00">approved_date </text>
<text text-anchor="start" x="884" y="-398.5" font-family="Arial Italic" font-size="10.00" fill="#999999">datetime</text>
<text text-anchor="start" x="817" y="-385.5" font-family="Arial" font-size="10.00">assignment_id </text>
<text text-anchor="start" x="884" y="-385.5" font-family="Arial Italic" font-size="10.00" fill="#999999">integer (8) ∗ FK</text>
<text text-anchor="start" x="817" y="-372.5" font-family="Arial" font-size="10.00">emailed_date </text>
<text text-anchor="start" x="878" y="-372.5" font-family="Arial Italic" font-size="10.00" fill="#999999">datetime</text>
<text text-anchor="start" x="817" y="-359.5" font-family="Arial" font-size="10.00">revised_date </text>
<text text-anchor="start" x="876" y="-359.5" font-family="Arial Italic" font-size="10.00" fill="#999999">datetime</text>
<text text-anchor="start" x="817" y="-346.5" font-family="Arial" font-size="10.00">signature </text>
<text text-anchor="start" x="860" y="-346.5" font-family="Arial Italic" font-size="10.00" fill="#999999">string</text>
<text text-anchor="start" x="817" y="-333.5" font-family="Arial" font-size="10.00">url_token </text>
<text text-anchor="start" x="860" y="-333.5" font-family="Arial Italic" font-size="10.00" fill="#999999">string</text>
</g>
<!-- m_Assignment&#45;&gt;m_Ddah -->
<g id="edge4" class="edge">
<title>m_Assignment&#45;&gt;m_Ddah</title>
<path fill="none" stroke="black" d="M764.12,-438.48C779.08,-431.74 794.89,-424.62 809.95,-417.84"/>
</g>
<!-- m_Offer -->
<g id="node11" class="node">
<title>m_Offer</title>
<path fill="none" stroke="black" d="M822,-475C822,-475 948,-475 948,-475 954,-475 960,-481 960,-487 960,-487 960,-818 960,-818 960,-824 954,-830 948,-830 948,-830 822,-830 822,-830 816,-830 810,-824 810,-818 810,-818 810,-487 810,-487 810,-481 816,-475 822,-475"/>
<text text-anchor="start" x="869.5" y="-817.2" font-family="Arial Bold" font-size="11.00">Offer</text>
<polyline fill="none" stroke="black" points="810,-810 960,-810 "/>
<text text-anchor="start" x="817" y="-796.5" font-family="Arial" font-size="10.00">accepted_date </text>
<text text-anchor="start" x="884" y="-796.5" font-family="Arial Italic" font-size="10.00" fill="#999999">datetime</text>
<text text-anchor="start" x="817" y="-783.5" font-family="Arial" font-size="10.00">assignment_id </text>
<text text-anchor="start" x="884" y="-783.5" font-family="Arial Italic" font-size="10.00" fill="#999999">integer (8) ∗ FK</text>
<text text-anchor="start" x="817" y="-770.5" font-family="Arial" font-size="10.00">contract_override_pdf </text>
<text text-anchor="start" x="914" y="-770.5" font-family="Arial Italic" font-size="10.00" fill="#999999">string</text>
<text text-anchor="start" x="817" y="-757.5" font-family="Arial" font-size="10.00">contract_template </text>
<text text-anchor="start" x="899" y="-757.5" font-family="Arial Italic" font-size="10.00" fill="#999999">string</text>
<text text-anchor="start" x="817" y="-744.5" font-family="Arial" font-size="10.00">email </text>
<text text-anchor="start" x="844" y="-744.5" font-family="Arial Italic" font-size="10.00" fill="#999999">string</text>
<text text-anchor="start" x="817" y="-731.5" font-family="Arial" font-size="10.00">emailed_date </text>
<text text-anchor="start" x="878" y="-731.5" font-family="Arial Italic" font-size="10.00" fill="#999999">datetime</text>
<text text-anchor="start" x="817" y="-718.5" font-family="Arial" font-size="10.00">first_name </text>
<text text-anchor="start" x="866" y="-718.5" font-family="Arial Italic" font-size="10.00" fill="#999999">string</text>
<text text-anchor="start" x="817" y="-705.5" font-family="Arial" font-size="10.00">first_time_ta </text>
<text text-anchor="start" x="875" y="-705.5" font-family="Arial Italic" font-size="10.00" fill="#999999">boolean</text>
<text text-anchor="start" x="817" y="-692.5" font-family="Arial" font-size="10.00">hours </text>
<text text-anchor="start" x="845" y="-692.5" font-family="Arial Italic" font-size="10.00" fill="#999999">float</text>
<text text-anchor="start" x="817" y="-679.5" font-family="Arial" font-size="10.00">installments </text>
<text text-anchor="start" x="873" y="-679.5" font-family="Arial Italic" font-size="10.00" fill="#999999">integer</text>
<text text-anchor="start" x="817" y="-666.5" font-family="Arial" font-size="10.00">instructor_contact_desc </text>
<text text-anchor="start" x="925" y="-666.5" font-family="Arial Italic" font-size="10.00" fill="#999999">string</text>
<text text-anchor="start" x="817" y="-653.5" font-family="Arial" font-size="10.00">last_name </text>
<text text-anchor="start" x="866" y="-653.5" font-family="Arial Italic" font-size="10.00" fill="#999999">string</text>
<text text-anchor="start" x="817" y="-640.5" font-family="Arial" font-size="10.00">nag_count </text>
<text text-anchor="start" x="866" y="-640.5" font-family="Arial Italic" font-size="10.00" fill="#999999">integer</text>
<text text-anchor="start" x="817" y="-627.5" font-family="Arial" font-size="10.00">pay_period_desc </text>
<text text-anchor="start" x="894" y="-627.5" font-family="Arial Italic" font-size="10.00" fill="#999999">string</text>
<text text-anchor="start" x="817" y="-614.5" font-family="Arial" font-size="10.00">position_code </text>
<text text-anchor="start" x="881" y="-614.5" font-family="Arial Italic" font-size="10.00" fill="#999999">string</text>
<text text-anchor="start" x="817" y="-601.5" font-family="Arial" font-size="10.00">position_end_date </text>
<text text-anchor="start" x="899" y="-601.5" font-family="Arial Italic" font-size="10.00" fill="#999999">datetime</text>
<text text-anchor="start" x="817" y="-588.5" font-family="Arial" font-size="10.00">position_start_date </text>
<text text-anchor="start" x="903" y="-588.5" font-family="Arial Italic" font-size="10.00" fill="#999999">datetime</text>
<text text-anchor="start" x="817" y="-575.5" font-family="Arial" font-size="10.00">position_title </text>
<text text-anchor="start" x="875" y="-575.5" font-family="Arial Italic" font-size="10.00" fill="#999999">string</text>
<text text-anchor="start" x="817" y="-562.5" font-family="Arial" font-size="10.00">rejected_date </text>
<text text-anchor="start" x="879" y="-562.5" font-family="Arial Italic" font-size="10.00" fill="#999999">datetime</text>
<text text-anchor="start" x="817" y="-549.5" font-family="Arial" font-size="10.00">signature </text>
<text text-anchor="start" x="860" y="-549.5" font-family="Arial Italic" font-size="10.00" fill="#999999">string</text>
<text text-anchor="start" x="817" y="-536.5" font-family="Arial" font-size="10.00">status </text>
<text text-anchor="start" x="848" y="-536.5" font-family="Arial Italic" font-size="10.00" fill="#999999">integer ∗</text>
<text text-anchor="start" x="817" y="-523.5" font-family="Arial" font-size="10.00">ta_coordinator_email </text>
<text text-anchor="start" x="911" y="-523.5" font-family="Arial Italic" font-size="10.00" fill="#999999">string</text>
<text text-anchor="start" x="817" y="-510.5" font-family="Arial" font-size="10.00">ta_coordinator_name </text>
<text text-anchor="start" x="911" y="-510.5" font-family="Arial Italic" font-size="10.00" fill="#999999">string</text>
<text text-anchor="start" x="817" y="-497.5" font-family="Arial" font-size="10.00">url_token </text>
<text text-anchor="start" x="860" y="-497.5" font-family="Arial Italic" font-size="10.00" fill="#999999">string</text>
<text text-anchor="start" x="817" y="-484.5" font-family="Arial" font-size="10.00">withdrawn_date </text>
<text text-anchor="start" x="889" y="-484.5" font-family="Arial Italic" font-size="10.00" fill="#999999">datetime</text>
</g>
<!-- m_Assignment&#45;&gt;m_Offer -->
<g id="edge19" class="edge">
<title>m_Assignment&#45;&gt;m_Offer</title>
<path fill="none" stroke="black" d="M758.06,-531.4C763.46,-536.5 768.83,-541.58 774,-546.5 783.45,-555.48 793.32,-564.93 803.11,-574.32"/>
<polygon fill="black" stroke="black" points="801.2,-576.85 809.87,-580.81 805.56,-572.3 801.2,-576.85"/>
</g>
<!-- m_WageChunk -->
<g id="node19" class="node">
<title>m_WageChunk</title>
<path fill="none" stroke="black" d="M822,-199C822,-199 948,-199 948,-199 954,-199 960,-205 960,-211 960,-211 960,-282 960,-282 960,-288 954,-294 948,-294 948,-294 822,-294 822,-294 816,-294 810,-288 810,-282 810,-282 810,-211 810,-211 810,-205 816,-199 822,-199"/>
<text text-anchor="start" x="851" y="-281.2" font-family="Arial Bold" font-size="11.00">WageChunk</text>
<polyline fill="none" stroke="black" points="810,-274 960,-274 "/>
<text text-anchor="start" x="817" y="-260.5" font-family="Arial" font-size="10.00">assignment_id </text>
<text text-anchor="start" x="884" y="-260.5" font-family="Arial Italic" font-size="10.00" fill="#999999">integer (8) ∗ FK</text>
<text text-anchor="start" x="817" y="-247.5" font-family="Arial" font-size="10.00">end_date </text>
<text text-anchor="start" x="860" y="-247.5" font-family="Arial Italic" font-size="10.00" fill="#999999">datetime</text>
<text text-anchor="start" x="817" y="-234.5" font-family="Arial" font-size="10.00">hours </text>
<text text-anchor="start" x="845" y="-234.5" font-family="Arial Italic" font-size="10.00" fill="#999999">float</text>
<text text-anchor="start" x="817" y="-221.5" font-family="Arial" font-size="10.00">rate </text>
<text text-anchor="start" x="837" y="-221.5" font-family="Arial Italic" font-size="10.00" fill="#999999">float</text>
<text text-anchor="start" x="817" y="-208.5" font-family="Arial" font-size="10.00">start_date </text>
<text text-anchor="start" x="864" y="-208.5" font-family="Arial Italic" font-size="10.00" fill="#999999">datetime</text>
</g>
<!-- m_Assignment&#45;&gt;m_WageChunk -->
<g id="edge20" class="edge">
<title>m_Assignment&#45;&gt;m_WageChunk</title>
<path fill="none" stroke="black" d="M762.02,-409.85C766.31,-404.86 770.36,-399.72 774,-394.5 797.47,-360.85 785.73,-342.58 810,-309.5 812.07,-306.68 814.29,-303.91 816.62,-301.19"/>
<polygon fill="black" stroke="black" points="819.31,-302.91 823.02,-294.12 814.64,-298.68 819.31,-302.91"/>
</g>
<!-- m_ContractTemplate -->
<g id="node7" class="node">
<title>m_ContractTemplate</title>
<path fill="none" stroke="black" d="M229,-145C229,-145 349,-145 349,-145 355,-145 361,-151 361,-157 361,-157 361,-202 361,-202 361,-208 355,-214 349,-214 349,-214 229,-214 229,-214 223,-214 217,-208 217,-202 217,-202 217,-157 217,-157 217,-151 223,-145 229,-145"/>
<text text-anchor="start" x="240" y="-201.2" font-family="Arial Bold" font-size="11.00">ContractTemplate</text>
<polyline fill="none" stroke="black" points="217,-194 361,-194 "/>
<text text-anchor="start" x="224" y="-180.5" font-family="Arial" font-size="10.00">session_id </text>
<text text-anchor="start" x="274" y="-180.5" font-family="Arial Italic" font-size="10.00" fill="#999999">integer (8) ∗ FK</text>
<text text-anchor="start" x="224" y="-167.5" font-family="Arial" font-size="10.00">template_file </text>
<text text-anchor="start" x="283" y="-167.5" font-family="Arial Italic" font-size="10.00" fill="#999999">string ∗</text>
<text text-anchor="start" x="224" y="-154.5" font-family="Arial" font-size="10.00">template_name </text>
<text text-anchor="start" x="294" y="-154.5" font-family="Arial Italic" font-size="10.00" fill="#999999">string ∗ U</text>
</g>
<!-- m_Position -->
<g id="node12" class="node">
<title>m_Position</title>
<path fill="none" stroke="black" d="M409,-186C409,-186 562,-186 562,-186 568,-186 574,-192 574,-198 574,-198 574,-295 574,-295 574,-301 568,-307 562,-307 562,-307 409,-307 409,-307 403,-307 397,-301 397,-295 397,-295 397,-198 397,-198 397,-192 403,-186 409,-186"/>
<text text-anchor="start" x="461.5" y="-294.2" font-family="Arial Bold" font-size="11.00">Position</text>
<polyline fill="none" stroke="black" points="397,-287 574,-287 "/>
<text text-anchor="start" x="404.5" y="-273.5" font-family="Arial" font-size="10.00">contract_template_id </text>
<text text-anchor="start" x="498.5" y="-273.5" font-family="Arial Italic" font-size="10.00" fill="#999999">integer (8) ∗ FK</text>
<text text-anchor="start" x="404.5" y="-260.5" font-family="Arial" font-size="10.00">end_date </text>
<text text-anchor="start" x="447.5" y="-260.5" font-family="Arial Italic" font-size="10.00" fill="#999999">datetime</text>
<text text-anchor="start" x="404.5" y="-247.5" font-family="Arial" font-size="10.00">hours_per_assignment </text>
<text text-anchor="start" x="506.5" y="-247.5" font-family="Arial Italic" font-size="10.00" fill="#999999">float</text>
<text text-anchor="start" x="404.5" y="-234.5" font-family="Arial" font-size="10.00">position_code </text>
<text text-anchor="start" x="468.5" y="-234.5" font-family="Arial Italic" font-size="10.00" fill="#999999">string ∗ U</text>
<text text-anchor="start" x="404.5" y="-221.5" font-family="Arial" font-size="10.00">position_title </text>
<text text-anchor="start" x="462.5" y="-221.5" font-family="Arial Italic" font-size="10.00" fill="#999999">string</text>
<text text-anchor="start" x="404.5" y="-208.5" font-family="Arial" font-size="10.00">session_id </text>
<text text-anchor="start" x="454.5" y="-208.5" font-family="Arial Italic" font-size="10.00" fill="#999999">integer (8) ∗ FK</text>
<text text-anchor="start" x="404.5" y="-195.5" font-family="Arial" font-size="10.00">start_date </text>
<text text-anchor="start" x="451.5" y="-195.5" font-family="Arial Italic" font-size="10.00" fill="#999999">datetime</text>
</g>
<!-- m_ContractTemplate&#45;&gt;m_Position -->
<g id="edge14" class="edge">
<title>m_ContractTemplate&#45;&gt;m_Position</title>
<path fill="none" stroke="black" d="M361.04,-203.97C369.84,-207 378.95,-210.14 388.05,-213.28"/>
<polygon fill="black" stroke="black" points="387.23,-216.32 396.76,-216.28 389.28,-210.37 387.23,-216.32"/>
</g>
<!-- m_Duty -->
<g id="node9" class="node">
<title>m_Duty</title>
<path fill="none" stroke="black" d="M1008,-343.5C1008,-343.5 1128,-343.5 1128,-343.5 1134,-343.5 1140,-349.5 1140,-355.5 1140,-355.5 1140,-413.5 1140,-413.5 1140,-419.5 1134,-425.5 1128,-425.5 1128,-425.5 1008,-425.5 1008,-425.5 1002,-425.5 996,-419.5 996,-413.5 996,-413.5 996,-355.5 996,-355.5 996,-349.5 1002,-343.5 1008,-343.5"/>
<text text-anchor="start" x="1053.5" y="-412.7" font-family="Arial Bold" font-size="11.00">Duty</text>
<polyline fill="none" stroke="black" points="996,-405.5 1140,-405.5 "/>
<text text-anchor="start" x="1003" y="-392.5" font-family="Arial" font-size="10.00">ddah_id </text>
<text text-anchor="start" x="1040" y="-392.5" font-family="Arial Italic" font-size="10.00" fill="#999999">integer (8) FK</text>
<text text-anchor="start" x="1003" y="-379.5" font-family="Arial" font-size="10.00">description </text>
<text text-anchor="start" x="1054" y="-379.5" font-family="Arial Italic" font-size="10.00" fill="#999999">string</text>
<text text-anchor="start" x="1003" y="-366.5" font-family="Arial" font-size="10.00">hours </text>
<text text-anchor="start" x="1031" y="-366.5" font-family="Arial Italic" font-size="10.00" fill="#999999">float</text>
<text text-anchor="start" x="1003" y="-353.5" font-family="Arial" font-size="10.00">order </text>
<text text-anchor="start" x="1028" y="-353.5" font-family="Arial Italic" font-size="10.00" fill="#999999">integer</text>
</g>
<!-- m_Ddah&#45;&gt;m_Duty -->
<g id="edge5" class="edge">
<title>m_Ddah&#45;&gt;m_Duty</title>
<path fill="none" stroke="black" d="M960.14,-384.5C968.91,-384.5 977.89,-384.5 986.74,-384.5"/>
<polygon fill="black" stroke="black" points="986.89,-387.65 995.89,-384.5 986.89,-381.35 986.89,-387.65"/>
</g>
<!-- m_Instructor -->
<g id="node10" class="node">
<title>m_Instructor</title>
<path fill="none" stroke="black" d="M229,-244.5C229,-244.5 349,-244.5 349,-244.5 355,-244.5 361,-250.5 361,-256.5 361,-256.5 361,-314.5 361,-314.5 361,-320.5 355,-326.5 349,-326.5 349,-326.5 229,-326.5 229,-326.5 223,-326.5 217,-320.5 217,-314.5 217,-314.5 217,-256.5 217,-256.5 217,-250.5 223,-244.5 229,-244.5"/>
<text text-anchor="start" x="261" y="-313.7" font-family="Arial Bold" font-size="11.00">Instructor</text>
<polyline fill="none" stroke="black" points="217,-306.5 361,-306.5 "/>
<text text-anchor="start" x="224" y="-293.5" font-family="Arial" font-size="10.00">email </text>
<text text-anchor="start" x="251" y="-293.5" font-family="Arial Italic" font-size="10.00" fill="#999999">string</text>
<text text-anchor="start" x="224" y="-280.5" font-family="Arial" font-size="10.00">first_name </text>
<text text-anchor="start" x="273" y="-280.5" font-family="Arial Italic" font-size="10.00" fill="#999999">string ∗</text>
<text text-anchor="start" x="224" y="-267.5" font-family="Arial" font-size="10.00">last_name </text>
<text text-anchor="start" x="273" y="-267.5" font-family="Arial Italic" font-size="10.00" fill="#999999">string ∗</text>
<text text-anchor="start" x="224" y="-254.5" font-family="Arial" font-size="10.00">utorid </text>
<text text-anchor="start" x="252" y="-254.5" font-family="Arial Italic" font-size="10.00" fill="#999999">string ∗ U</text>
</g>
<!-- m_Instructor&#45;&gt;m_Position -->
<g id="edge8" class="edge">
<title>m_Instructor&#45;&gt;m_Position</title>
<path fill="none" stroke="black" d="M370.12,-269.43C375.89,-268.28 381.74,-267.11 387.59,-265.93"/>
<polygon fill="black" stroke="black" points="369.25,-266.4 361.04,-271.25 370.49,-272.57 369.25,-266.4"/>
<polygon fill="black" stroke="black" points="388.56,-268.95 396.76,-264.09 387.32,-262.77 388.56,-268.95"/>
</g>
<!-- m_Position&#45;&gt;m_Assignment -->
<g id="edge9" class="edge">
<title>m_Position&#45;&gt;m_Assignment</title>
<path fill="none" stroke="black" d="M560.75,-307.09C565.46,-312.1 569.93,-317.25 574,-322.5 595.93,-350.77 588.62,-365.81 610,-394.5 612.02,-397.21 614.14,-399.91 616.35,-402.58"/>
<polygon fill="black" stroke="black" points="614.1,-404.79 622.35,-409.58 618.88,-400.69 614.1,-404.79"/>
</g>
<!-- m_PositionDataForAd -->
<g id="node13" class="node">
<title>m_PositionDataForAd</title>
<path fill="none" stroke="black" d="M632,-113C632,-113 752,-113 752,-113 758,-113 764,-119 764,-125 764,-125 764,-170 764,-170 764,-176 758,-182 752,-182 752,-182 632,-182 632,-182 626,-182 620,-176 620,-170 620,-170 620,-125 620,-125 620,-119 626,-113 632,-113"/>
<text text-anchor="start" x="639.5" y="-169.2" font-family="Arial Bold" font-size="11.00">PositionDataForAd</text>
<polyline fill="none" stroke="black" points="620,-162 764,-162 "/>
<text text-anchor="start" x="627" y="-148.5" font-family="Arial" font-size="10.00">duties </text>
<text text-anchor="start" x="657" y="-148.5" font-family="Arial Italic" font-size="10.00" fill="#999999">text</text>
<text text-anchor="start" x="627" y="-135.5" font-family="Arial" font-size="10.00">position_id </text>
<text text-anchor="start" x="677" y="-135.5" font-family="Arial Italic" font-size="10.00" fill="#999999">integer (8) ∗ FK</text>
<text text-anchor="start" x="627" y="-122.5" font-family="Arial" font-size="10.00">qualifications </text>
<text text-anchor="start" x="688" y="-122.5" font-family="Arial Italic" font-size="10.00" fill="#999999">text</text>
</g>
<!-- m_Position&#45;&gt;m_PositionDataForAd -->
<g id="edge12" class="edge">
<title>m_Position&#45;&gt;m_PositionDataForAd</title>
<path fill="none" stroke="black" d="M574.12,-204.08C589.4,-196.68 605.13,-189.07 619.9,-181.92"/>
</g>
<!-- m_PositionDataForMatching -->
<g id="node14" class="node">
<title>m_PositionDataForMatching</title>
<path fill="none" stroke="black" d="M622,-0.5C622,-0.5 762,-0.5 762,-0.5 768,-0.5 774,-6.5 774,-12.5 774,-12.5 774,-70.5 774,-70.5 774,-76.5 768,-82.5 762,-82.5 762,-82.5 622,-82.5 622,-82.5 616,-82.5 610,-76.5 610,-70.5 610,-70.5 610,-12.5 610,-12.5 610,-6.5 616,-0.5 622,-0.5"/>
<text text-anchor="start" x="625" y="-69.7" font-family="Arial Bold" font-size="11.00">PositionDataForMatching</text>
<polyline fill="none" stroke="black" points="610,-62.5 774,-62.5 "/>
<text text-anchor="start" x="617" y="-49.5" font-family="Arial" font-size="10.00">current_enrollment </text>
<text text-anchor="start" x="701" y="-49.5" font-family="Arial Italic" font-size="10.00" fill="#999999">integer</text>
<text text-anchor="start" x="617" y="-36.5" font-family="Arial" font-size="10.00">current_waitlisted </text>
<text text-anchor="start" x="697" y="-36.5" font-family="Arial Italic" font-size="10.00" fill="#999999">integer</text>
<text text-anchor="start" x="617" y="-23.5" font-family="Arial" font-size="10.00">desired_num_assignments </text>
<text text-anchor="start" x="737" y="-23.5" font-family="Arial Italic" font-size="10.00" fill="#999999">integer</text>
<text text-anchor="start" x="617" y="-10.5" font-family="Arial" font-size="10.00">position_id </text>
<text text-anchor="start" x="667" y="-10.5" font-family="Arial Italic" font-size="10.00" fill="#999999">integer (8) ∗ FK</text>
</g>
<!-- m_Position&#45;&gt;m_PositionDataForMatching -->
<g id="edge13" class="edge">
<title>m_Position&#45;&gt;m_PositionDataForMatching</title>
<path fill="none" stroke="black" d="M530.56,-185.91C552.73,-157.46 581.02,-124.06 610,-97.5 615.55,-92.42 621.58,-87.43 627.77,-82.65"/>
</g>
<!-- m_Position&#45;&gt;m_PositionPreference -->
<g id="edge10" class="edge">
<title>m_Position&#45;&gt;m_PositionPreference</title>
<path fill="none" stroke="black" d="M574.12,-288.92C586.45,-294.89 599.07,-301 611.24,-306.89"/>
<polygon fill="black" stroke="black" points="610.12,-309.84 619.59,-310.93 612.86,-304.17 610.12,-309.84"/>
</g>
<!-- m_ReportingTag -->
<g id="node16" class="node">
<title>m_ReportingTag</title>
<path fill="none" stroke="black" d="M631.5,-212C631.5,-212 752.5,-212 752.5,-212 758.5,-212 764.5,-218 764.5,-224 764.5,-224 764.5,-269 764.5,-269 764.5,-275 758.5,-281 752.5,-281 752.5,-281 631.5,-281 631.5,-281 625.5,-281 619.5,-275 619.5,-269 619.5,-269 619.5,-224 619.5,-224 619.5,-218 625.5,-212 631.5,-212"/>
<text text-anchor="start" x="654" y="-268.2" font-family="Arial Bold" font-size="11.00">ReportingTag</text>
<polyline fill="none" stroke="black" points="619.5,-261 764.5,-261 "/>
<text text-anchor="start" x="627" y="-247.5" font-family="Arial" font-size="10.00">name </text>
<text text-anchor="start" x="655" y="-247.5" font-family="Arial Italic" font-size="10.00" fill="#999999">string</text>
<text text-anchor="start" x="627" y="-234.5" font-family="Arial" font-size="10.00">position_id </text>
<text text-anchor="start" x="677" y="-234.5" font-family="Arial Italic" font-size="10.00" fill="#999999">integer (8) FK</text>
<text text-anchor="start" x="627" y="-221.5" font-family="Arial" font-size="10.00">wage_chunk_id </text>
<text text-anchor="start" x="698" y="-221.5" font-family="Arial Italic" font-size="10.00" fill="#999999">integer (8) FK</text>
</g>
<!-- m_Position&#45;&gt;m_ReportingTag -->
<g id="edge7" class="edge">
<title>m_Position&#45;&gt;m_ReportingTag</title>
<path fill="none" stroke="black" d="M583.34,-246.5C592.32,-246.5 601.36,-246.5 610.18,-246.5"/>
<polygon fill="black" stroke="black" points="583.12,-243.35 574.12,-246.5 583.12,-249.65 583.12,-243.35"/>
<polygon fill="black" stroke="black" points="610.28,-249.65 619.28,-246.5 610.28,-243.35 610.28,-249.65"/>
</g>
<!-- m_ReportingTag&#45;&gt;m_WageChunk -->
<g id="edge6" class="edge">
<title>m_ReportingTag&#45;&gt;m_WageChunk</title>
<path fill="none" stroke="black" d="M773.72,-246.5C782.58,-246.5 791.61,-246.5 800.5,-246.5"/>
<polygon fill="black" stroke="black" points="773.66,-243.35 764.66,-246.5 773.66,-249.65 773.66,-243.35"/>
<polygon fill="black" stroke="black" points="800.7,-249.65 809.7,-246.5 800.7,-243.35 800.7,-249.65"/>
</g>
<!-- m_Session -->
<g id="node17" class="node">
<title>m_Session</title>
<path fill="none" stroke="black" d="M30.5,-228C30.5,-228 150.5,-228 150.5,-228 156.5,-228 162.5,-234 162.5,-240 162.5,-240 162.5,-311 162.5,-311 162.5,-317 156.5,-323 150.5,-323 150.5,-323 30.5,-323 30.5,-323 24.5,-323 18.5,-317 18.5,-311 18.5,-311 18.5,-240 18.5,-240 18.5,-234 24.5,-228 30.5,-228"/>
<text text-anchor="start" x="67" y="-310.2" font-family="Arial Bold" font-size="11.00">Session</text>
<polyline fill="none" stroke="black" points="18.5,-303 162.5,-303 "/>
<text text-anchor="start" x="25.5" y="-289.5" font-family="Arial" font-size="10.00">end_date </text>
<text text-anchor="start" x="68.5" y="-289.5" font-family="Arial Italic" font-size="10.00" fill="#999999">datetime</text>
<text text-anchor="start" x="25.5" y="-276.5" font-family="Arial" font-size="10.00">name </text>
<text text-anchor="start" x="53.5" y="-276.5" font-family="Arial Italic" font-size="10.00" fill="#999999">string ∗ U</text>
<text text-anchor="start" x="25.5" y="-263.5" font-family="Arial" font-size="10.00">rate1 </text>
<text text-anchor="start" x="50.5" y="-263.5" font-family="Arial Italic" font-size="10.00" fill="#999999">float</text>
<text text-anchor="start" x="25.5" y="-250.5" font-family="Arial" font-size="10.00">rate2 </text>
<text text-anchor="start" x="50.5" y="-250.5" font-family="Arial Italic" font-size="10.00" fill="#999999">float</text>
<text text-anchor="start" x="25.5" y="-237.5" font-family="Arial" font-size="10.00">start_date </text>
<text text-anchor="start" x="72.5" y="-237.5" font-family="Arial Italic" font-size="10.00" fill="#999999">datetime</text>
</g>
<!-- m_Session&#45;&gt;m_Application -->
<g id="edge1" class="edge">
<title>m_Session&#45;&gt;m_Application</title>
<path fill="none" stroke="black" d="M290,-371.5C327.41,-374.17 368.97,-374.52 404.04,-374.07"/>
<polygon fill="black" stroke="black" points="404.33,-377.21 413.28,-373.93 404.23,-370.91 404.33,-377.21"/>
</g>
<!-- m_Session&#45;&gt;m_ContractTemplate -->
<g id="edge3" class="edge">
<title>m_Session&#45;&gt;m_ContractTemplate</title>
<path fill="none" stroke="black" d="M162.72,-240.71C177.73,-233.37 193.66,-225.59 208.94,-218.13"/>
<polygon fill="black" stroke="black" points="210.65,-220.8 217.35,-214.01 207.88,-215.14 210.65,-220.8"/>
</g>
<!-- m_Session&#45;&gt;m_Position -->
<g id="edge2" class="edge">
<title>m_Session&#45;&gt;m_Position</title>
<path fill="none" stroke="black" d="M156.9,-323.08C193.47,-345.52 241.04,-368.15 288,-371.5"/>
<path fill="none" stroke="black" d="M290,-371.5C315.02,-373.29 361.98,-343.53 403.48,-312.6"/>
<polygon fill="black" stroke="black" points="405.6,-314.96 410.9,-307.03 401.81,-309.92 405.6,-314.96"/>
</g>
<!-- m_User -->
<g id="node18" class="node">
<title>m_User</title>
<path fill="none" stroke="black" d="M30.5,-353C30.5,-353 150.5,-353 150.5,-353 156.5,-353 162.5,-359 162.5,-365 162.5,-365 162.5,-410 162.5,-410 162.5,-416 156.5,-422 150.5,-422 150.5,-422 30.5,-422 30.5,-422 24.5,-422 18.5,-416 18.5,-410 18.5,-410 18.5,-365 18.5,-365 18.5,-359 24.5,-353 30.5,-353"/>
<text text-anchor="start" x="76" y="-409.2" font-family="Arial Bold" font-size="11.00">User</text>
<polyline fill="none" stroke="black" points="18.5,-402 162.5,-402 "/>
<text text-anchor="start" x="25.5" y="-388.5" font-family="Arial" font-size="10.00">last_seen </text>
<text text-anchor="start" x="71.5" y="-388.5" font-family="Arial Italic" font-size="10.00" fill="#999999">datetime</text>
<text text-anchor="start" x="25.5" y="-375.5" font-family="Arial" font-size="10.00">roles_mask </text>
<text text-anchor="start" x="79.5" y="-375.5" font-family="Arial Italic" font-size="10.00" fill="#999999">integer</text>
<text text-anchor="start" x="25.5" y="-362.5" font-family="Arial" font-size="10.00">utorid </text>
<text text-anchor="start" x="53.5" y="-362.5" font-family="Arial Italic" font-size="10.00" fill="#999999">string ∗ U</text>
</g>
</g>
</svg>
