<?xml version="1.0" encoding="UTF-8" standalone="no"?>
<!DOCTYPE svg PUBLIC "-//W3C//DTD SVG 1.1//EN"
 "http://www.w3.org/Graphics/SVG/1.1/DTD/svg11.dtd">
<!-- Generated by graphviz version 2.44.0 ()
 -->
<!-- Title: Tapp Pages: 1 -->
<svg width="1198pt" height="859pt"
 viewBox="0.00 0.00 1197.60 859.10" xmlns="http://www.w3.org/2000/svg" xmlns:xlink="http://www.w3.org/1999/xlink">
<g id="graph0" class="graph" transform="scale(1 1) rotate(0) translate(28.8 830.3)">
<title>Tapp</title>
<polygon fill="white" stroke="transparent" points="-28.8,28.8 -28.8,-830.3 1168.8,-830.3 1168.8,28.8 -28.8,28.8"/>
<text text-anchor="middle" x="570" y="-787.1" font-family="Arial Bold" font-size="13.00">ER Diagram</text>
<!-- m_ActiveRecord::InternalMetadata -->
<g id="node1" class="node">
<title>m_ActiveRecord::InternalMetadata</title>
<path fill="none" stroke="black" d="M14.5,-94C14.5,-94 166.5,-94 166.5,-94 172.5,-94 178.5,-100 178.5,-106 178.5,-106 178.5,-125 178.5,-125 178.5,-131 172.5,-137 166.5,-137 166.5,-137 14.5,-137 14.5,-137 8.5,-137 2.5,-131 2.5,-125 2.5,-125 2.5,-106 2.5,-106 2.5,-100 8.5,-94 14.5,-94"/>
<text text-anchor="start" x="7.5" y="-124.2" font-family="Arial Bold" font-size="11.00">ActiveRecord::InternalMetadata</text>
<polyline fill="none" stroke="black" points="2.5,-117 178.5,-117 "/>
<text text-anchor="start" x="25.5" y="-103.5" font-family="Arial" font-size="10.00">value </text>
<text text-anchor="start" x="52.5" y="-103.5" font-family="Arial Italic" font-size="10.00" fill="#999999">string</text>
</g>
<!-- m_ActiveRecord::SchemaMigration -->
<g id="node2" class="node">
<title>m_ActiveRecord::SchemaMigration</title>
<path fill="none" stroke="black" d="M12,-167.5C12,-167.5 169,-167.5 169,-167.5 175,-167.5 181,-173.5 181,-179.5 181,-179.5 181,-191.5 181,-191.5 181,-197.5 175,-203.5 169,-203.5 169,-203.5 12,-203.5 12,-203.5 6,-203.5 0,-197.5 0,-191.5 0,-191.5 0,-179.5 0,-179.5 0,-173.5 6,-167.5 12,-167.5"/>
<text text-anchor="start" x="5.5" y="-182.7" font-family="Arial Bold" font-size="11.00">ActiveRecord::SchemaMigration</text>
</g>
<!-- m_Applicant -->
<g id="node3" class="node">
<title>m_Applicant</title>
<path fill="none" stroke="black" d="M229,-497.5C229,-497.5 349,-497.5 349,-497.5 355,-497.5 361,-503.5 361,-509.5 361,-509.5 361,-593.5 361,-593.5 361,-599.5 355,-605.5 349,-605.5 349,-605.5 229,-605.5 229,-605.5 223,-605.5 217,-599.5 217,-593.5 217,-593.5 217,-509.5 217,-509.5 217,-503.5 223,-497.5 229,-497.5"/>
<text text-anchor="start" x="261.5" y="-592.7" font-family="Arial Bold" font-size="11.00">Applicant</text>
<polyline fill="none" stroke="black" points="217,-585.5 361,-585.5 "/>
<text text-anchor="start" x="224" y="-572.5" font-family="Arial" font-size="10.00">email </text>
<text text-anchor="start" x="251" y="-572.5" font-family="Arial Italic" font-size="10.00" fill="#999999">string</text>
<text text-anchor="start" x="224" y="-559.5" font-family="Arial" font-size="10.00">first_name </text>
<text text-anchor="start" x="273" y="-559.5" font-family="Arial Italic" font-size="10.00" fill="#999999">string</text>
<text text-anchor="start" x="224" y="-546.5" font-family="Arial" font-size="10.00">last_name </text>
<text text-anchor="start" x="273" y="-546.5" font-family="Arial Italic" font-size="10.00" fill="#999999">string</text>
<text text-anchor="start" x="224" y="-533.5" font-family="Arial" font-size="10.00">phone </text>
<text text-anchor="start" x="254" y="-533.5" font-family="Arial Italic" font-size="10.00" fill="#999999">string</text>
<text text-anchor="start" x="224" y="-520.5" font-family="Arial" font-size="10.00">student_number </text>
<text text-anchor="start" x="297" y="-520.5" font-family="Arial Italic" font-size="10.00" fill="#999999">string</text>
<text text-anchor="start" x="224" y="-507.5" font-family="Arial" font-size="10.00">utorid </text>
<text text-anchor="start" x="252" y="-507.5" font-family="Arial Italic" font-size="10.00" fill="#999999">string ∗ U</text>
</g>
<!-- m_ApplicantDataForMatching -->
<g id="node4" class="node">
<title>m_ApplicantDataForMatching</title>
<path fill="none" stroke="black" d="M628.5,-608.5C628.5,-608.5 755.5,-608.5 755.5,-608.5 761.5,-608.5 767.5,-614.5 767.5,-620.5 767.5,-620.5 767.5,-704.5 767.5,-704.5 767.5,-710.5 761.5,-716.5 755.5,-716.5 755.5,-716.5 628.5,-716.5 628.5,-716.5 622.5,-716.5 616.5,-710.5 616.5,-704.5 616.5,-704.5 616.5,-620.5 616.5,-620.5 616.5,-614.5 622.5,-608.5 628.5,-608.5"/>
<text text-anchor="start" x="622" y="-703.7" font-family="Arial Bold" font-size="11.00">ApplicantDataForMatching</text>
<polyline fill="none" stroke="black" points="616.5,-696.5 767.5,-696.5 "/>
<text text-anchor="start" x="626" y="-683.5" font-family="Arial" font-size="10.00">annotation </text>
<text text-anchor="start" x="675" y="-683.5" font-family="Arial Italic" font-size="10.00" fill="#999999">string</text>
<text text-anchor="start" x="626" y="-670.5" font-family="Arial" font-size="10.00">applicant_id </text>
<text text-anchor="start" x="681" y="-670.5" font-family="Arial Italic" font-size="10.00" fill="#999999">integer (8) ∗ FK</text>
<text text-anchor="start" x="626" y="-657.5" font-family="Arial" font-size="10.00">department </text>
<text text-anchor="start" x="678" y="-657.5" font-family="Arial Italic" font-size="10.00" fill="#999999">string</text>
<text text-anchor="start" x="626" y="-644.5" font-family="Arial" font-size="10.00">previous_uoft_experience </text>
<text text-anchor="start" x="741" y="-644.5" font-family="Arial Italic" font-size="10.00" fill="#999999">text</text>
<text text-anchor="start" x="626" y="-631.5" font-family="Arial" font-size="10.00">program </text>
<text text-anchor="start" x="665" y="-631.5" font-family="Arial Italic" font-size="10.00" fill="#999999">string</text>
<text text-anchor="start" x="626" y="-618.5" font-family="Arial" font-size="10.00">yip </text>
<text text-anchor="start" x="642" y="-618.5" font-family="Arial Italic" font-size="10.00" fill="#999999">integer</text>
</g>
<!-- m_Applicant&#45;&gt;m_ApplicantDataForMatching -->
<g id="edge15" class="edge">
<title>m_Applicant&#45;&gt;m_ApplicantDataForMatching</title>
<path fill="none" stroke="black" d="M486.5,-552.5C536.08,-557.09 585.41,-582.85 623.2,-608.29"/>
</g>
<!-- m_Application -->
<g id="node5" class="node">
<title>m_Application</title>
<path fill="none" stroke="black" d="M425.5,-407.5C425.5,-407.5 545.5,-407.5 545.5,-407.5 551.5,-407.5 557.5,-413.5 557.5,-419.5 557.5,-419.5 557.5,-477.5 557.5,-477.5 557.5,-483.5 551.5,-489.5 545.5,-489.5 545.5,-489.5 425.5,-489.5 425.5,-489.5 419.5,-489.5 413.5,-483.5 413.5,-477.5 413.5,-477.5 413.5,-419.5 413.5,-419.5 413.5,-413.5 419.5,-407.5 425.5,-407.5"/>
<text text-anchor="start" x="453" y="-476.7" font-family="Arial Bold" font-size="11.00">Application</text>
<polyline fill="none" stroke="black" points="413.5,-469.5 557.5,-469.5 "/>
<text text-anchor="start" x="420.5" y="-456.5" font-family="Arial" font-size="10.00">applicant_id </text>
<text text-anchor="start" x="475.5" y="-456.5" font-family="Arial Italic" font-size="10.00" fill="#999999">integer (8) ∗ FK</text>
<text text-anchor="start" x="420.5" y="-443.5" font-family="Arial" font-size="10.00">comments </text>
<text text-anchor="start" x="469.5" y="-443.5" font-family="Arial Italic" font-size="10.00" fill="#999999">text</text>
<text text-anchor="start" x="420.5" y="-430.5" font-family="Arial" font-size="10.00">posting_id </text>
<text text-anchor="start" x="468.5" y="-430.5" font-family="Arial Italic" font-size="10.00" fill="#999999">integer (8) FK</text>
<text text-anchor="start" x="420.5" y="-417.5" font-family="Arial" font-size="10.00">session_id </text>
<text text-anchor="start" x="470.5" y="-417.5" font-family="Arial Italic" font-size="10.00" fill="#999999">integer (8) ∗ FK</text>
</g>
<!-- m_Applicant&#45;&gt;m_Application -->
<g id="edge18" class="edge">
<title>m_Applicant&#45;&gt;m_Application</title>
<path fill="none" stroke="black" d="M361.04,-513.88C375.42,-506.26 390.62,-498.21 405.26,-490.46"/>
<polygon fill="black" stroke="black" points="406.84,-493.19 413.32,-486.19 403.89,-487.62 406.84,-493.19"/>
</g>
<!-- m_Assignment -->
<g id="node6" class="node">
<title>m_Assignment</title>
<path fill="none" stroke="black" d="M632,-457C632,-457 752,-457 752,-457 758,-457 764,-463 764,-469 764,-469 764,-566 764,-566 764,-572 758,-578 752,-578 752,-578 632,-578 632,-578 626,-578 620,-572 620,-566 620,-566 620,-469 620,-469 620,-463 626,-457 632,-457"/>
<text text-anchor="start" x="658" y="-565.2" font-family="Arial Bold" font-size="11.00">Assignment</text>
<polyline fill="none" stroke="black" points="620,-558 764,-558 "/>
<text text-anchor="start" x="627" y="-544.5" font-family="Arial" font-size="10.00">active_offer_id </text>
<text text-anchor="start" x="694" y="-544.5" font-family="Arial Italic" font-size="10.00" fill="#999999">integer (8) FK</text>
<text text-anchor="start" x="627" y="-531.5" font-family="Arial" font-size="10.00">applicant_id </text>
<text text-anchor="start" x="682" y="-531.5" font-family="Arial Italic" font-size="10.00" fill="#999999">integer (8) ∗ FK</text>
<text text-anchor="start" x="627" y="-518.5" font-family="Arial" font-size="10.00">contract_override_pdf </text>
<text text-anchor="start" x="724" y="-518.5" font-family="Arial Italic" font-size="10.00" fill="#999999">string</text>
<text text-anchor="start" x="627" y="-505.5" font-family="Arial" font-size="10.00">end_date </text>
<text text-anchor="start" x="670" y="-505.5" font-family="Arial Italic" font-size="10.00" fill="#999999">datetime</text>
<text text-anchor="start" x="627" y="-492.5" font-family="Arial" font-size="10.00">note </text>
<text text-anchor="start" x="649" y="-492.5" font-family="Arial Italic" font-size="10.00" fill="#999999">text</text>
<text text-anchor="start" x="627" y="-479.5" font-family="Arial" font-size="10.00">position_id </text>
<text text-anchor="start" x="677" y="-479.5" font-family="Arial Italic" font-size="10.00" fill="#999999">integer (8) ∗ FK</text>
<text text-anchor="start" x="627" y="-466.5" font-family="Arial" font-size="10.00">start_date </text>
<text text-anchor="start" x="674" y="-466.5" font-family="Arial Italic" font-size="10.00" fill="#999999">datetime</text>
</g>
<!-- m_Applicant&#45;&gt;m_Assignment -->
<g id="edge17" class="edge">
<title>m_Applicant&#45;&gt;m_Assignment</title>
<path fill="none" stroke="black" d="M361.28,-548.9C398.14,-548.3 443.82,-548.73 484.5,-552.5"/>
<path fill="none" stroke="black" d="M486.5,-552.5C527.84,-556.33 573.41,-549.62 611.02,-541.08"/>
<polygon fill="black" stroke="black" points="611.86,-544.11 619.9,-538.99 610.42,-537.98 611.86,-544.11"/>
</g>
<!-- m_Application&#45;&gt;m_ApplicantDataForMatching -->
<g id="edge16" class="edge">
<title>m_Application&#45;&gt;m_ApplicantDataForMatching</title>
<path fill="none" stroke="black" d="M535.42,-489.52C548.76,-501.94 562.64,-516.12 574,-530.5 593.99,-555.81 589.42,-568.67 610,-593.5 612.19,-596.14 614.49,-598.77 616.88,-601.36"/>
<polygon fill="black" stroke="black" points="614.86,-603.81 623.35,-608.15 619.42,-599.46 614.86,-603.81"/>
</g>
<!-- m_PositionPreference -->
<g id="node14" class="node">
<title>m_PositionPreference</title>
<path fill="none" stroke="black" d="M631,-358C631,-358 753,-358 753,-358 759,-358 765,-364 765,-370 765,-370 765,-415 765,-415 765,-421 759,-427 753,-427 753,-427 631,-427 631,-427 625,-427 619,-421 619,-415 619,-415 619,-370 619,-370 619,-364 625,-358 631,-358"/>
<text text-anchor="start" x="639.5" y="-414.2" font-family="Arial Bold" font-size="11.00">PositionPreference</text>
<polyline fill="none" stroke="black" points="619,-407 765,-407 "/>
<text text-anchor="start" x="626" y="-393.5" font-family="Arial" font-size="10.00">application_id </text>
<text text-anchor="start" x="689" y="-393.5" font-family="Arial Italic" font-size="10.00" fill="#999999">integer (8) ∗ FK</text>
<text text-anchor="start" x="626" y="-380.5" font-family="Arial" font-size="10.00">position_id </text>
<text text-anchor="start" x="676" y="-380.5" font-family="Arial Italic" font-size="10.00" fill="#999999">integer (8) ∗ FK</text>
<text text-anchor="start" x="626" y="-367.5" font-family="Arial" font-size="10.00">preference_level </text>
<text text-anchor="start" x="701" y="-367.5" font-family="Arial Italic" font-size="10.00" fill="#999999">integer</text>
</g>
<!-- m_Application&#45;&gt;m_PositionPreference -->
<g id="edge21" class="edge">
<title>m_Application&#45;&gt;m_PositionPreference</title>
<path fill="none" stroke="black" d="M557.74,-428.99C574.62,-424.37 592.75,-419.4 610.03,-414.67"/>
<polygon fill="black" stroke="black" points="611.13,-417.64 618.98,-412.22 609.47,-411.56 611.13,-417.64"/>
</g>
<!-- m_Ddah -->
<g id="node8" class="node">
<title>m_Ddah</title>
<path fill="none" stroke="black" d="M822,-258C822,-258 948,-258 948,-258 954,-258 960,-264 960,-270 960,-270 960,-367 960,-367 960,-373 954,-379 948,-379 948,-379 822,-379 822,-379 816,-379 810,-373 810,-367 810,-367 810,-270 810,-270 810,-264 816,-258 822,-258"/>
<text text-anchor="start" x="869" y="-366.2" font-family="Arial Bold" font-size="11.00">Ddah</text>
<polyline fill="none" stroke="black" points="810,-359 960,-359 "/>
<text text-anchor="start" x="817" y="-345.5" font-family="Arial" font-size="10.00">accepted_date </text>
<text text-anchor="start" x="884" y="-345.5" font-family="Arial Italic" font-size="10.00" fill="#999999">datetime</text>
<text text-anchor="start" x="817" y="-332.5" font-family="Arial" font-size="10.00">approved_date </text>
<text text-anchor="start" x="884" y="-332.5" font-family="Arial Italic" font-size="10.00" fill="#999999">datetime</text>
<text text-anchor="start" x="817" y="-319.5" font-family="Arial" font-size="10.00">assignment_id </text>
<text text-anchor="start" x="884" y="-319.5" font-family="Arial Italic" font-size="10.00" fill="#999999">integer (8) ∗ FK</text>
<text text-anchor="start" x="817" y="-306.5" font-family="Arial" font-size="10.00">emailed_date </text>
<text text-anchor="start" x="878" y="-306.5" font-family="Arial Italic" font-size="10.00" fill="#999999">datetime</text>
<text text-anchor="start" x="817" y="-293.5" font-family="Arial" font-size="10.00">revised_date </text>
<text text-anchor="start" x="876" y="-293.5" font-family="Arial Italic" font-size="10.00" fill="#999999">datetime</text>
<text text-anchor="start" x="817" y="-280.5" font-family="Arial" font-size="10.00">signature </text>
<text text-anchor="start" x="860" y="-280.5" font-family="Arial Italic" font-size="10.00" fill="#999999">string</text>
<text text-anchor="start" x="817" y="-267.5" font-family="Arial" font-size="10.00">url_token </text>
<text text-anchor="start" x="860" y="-267.5" font-family="Arial Italic" font-size="10.00" fill="#999999">string</text>
</g>
<!-- m_Assignment&#45;&gt;m_Ddah -->
<g id="edge5" class="edge">
<title>m_Assignment&#45;&gt;m_Ddah</title>
<path fill="none" stroke="black" d="M760.67,-456.61C765.28,-451.93 769.77,-447.2 774,-442.5 791.86,-422.69 792.66,-414.76 810,-394.5 814.31,-389.46 818.87,-384.34 823.53,-379.25"/>
</g>
<!-- m_Offer -->
<g id="node11" class="node">
<title>m_Offer</title>
<path fill="none" stroke="black" d="M822,-409C822,-409 948,-409 948,-409 954,-409 960,-415 960,-421 960,-421 960,-752 960,-752 960,-758 954,-764 948,-764 948,-764 822,-764 822,-764 816,-764 810,-758 810,-752 810,-752 810,-421 810,-421 810,-415 816,-409 822,-409"/>
<text text-anchor="start" x="869.5" y="-751.2" font-family="Arial Bold" font-size="11.00">Offer</text>
<polyline fill="none" stroke="black" points="810,-744 960,-744 "/>
<text text-anchor="start" x="817" y="-730.5" font-family="Arial" font-size="10.00">accepted_date </text>
<text text-anchor="start" x="884" y="-730.5" font-family="Arial Italic" font-size="10.00" fill="#999999">datetime</text>
<text text-anchor="start" x="817" y="-717.5" font-family="Arial" font-size="10.00">assignment_id </text>
<text text-anchor="start" x="884" y="-717.5" font-family="Arial Italic" font-size="10.00" fill="#999999">integer (8) ∗ FK</text>
<text text-anchor="start" x="817" y="-704.5" font-family="Arial" font-size="10.00">contract_override_pdf </text>
<text text-anchor="start" x="914" y="-704.5" font-family="Arial Italic" font-size="10.00" fill="#999999">string</text>
<text text-anchor="start" x="817" y="-691.5" font-family="Arial" font-size="10.00">contract_template </text>
<text text-anchor="start" x="899" y="-691.5" font-family="Arial Italic" font-size="10.00" fill="#999999">string</text>
<text text-anchor="start" x="817" y="-678.5" font-family="Arial" font-size="10.00">email </text>
<text text-anchor="start" x="844" y="-678.5" font-family="Arial Italic" font-size="10.00" fill="#999999">string</text>
<text text-anchor="start" x="817" y="-665.5" font-family="Arial" font-size="10.00">emailed_date </text>
<text text-anchor="start" x="878" y="-665.5" font-family="Arial Italic" font-size="10.00" fill="#999999">datetime</text>
<text text-anchor="start" x="817" y="-652.5" font-family="Arial" font-size="10.00">first_name </text>
<text text-anchor="start" x="866" y="-652.5" font-family="Arial Italic" font-size="10.00" fill="#999999">string</text>
<text text-anchor="start" x="817" y="-639.5" font-family="Arial" font-size="10.00">first_time_ta </text>
<text text-anchor="start" x="875" y="-639.5" font-family="Arial Italic" font-size="10.00" fill="#999999">boolean</text>
<text text-anchor="start" x="817" y="-626.5" font-family="Arial" font-size="10.00">hours </text>
<text text-anchor="start" x="845" y="-626.5" font-family="Arial Italic" font-size="10.00" fill="#999999">float</text>
<text text-anchor="start" x="817" y="-613.5" font-family="Arial" font-size="10.00">installments </text>
<text text-anchor="start" x="873" y="-613.5" font-family="Arial Italic" font-size="10.00" fill="#999999">integer</text>
<text text-anchor="start" x="817" y="-600.5" font-family="Arial" font-size="10.00">instructor_contact_desc </text>
<text text-anchor="start" x="925" y="-600.5" font-family="Arial Italic" font-size="10.00" fill="#999999">string</text>
<text text-anchor="start" x="817" y="-587.5" font-family="Arial" font-size="10.00">last_name </text>
<text text-anchor="start" x="866" y="-587.5" font-family="Arial Italic" font-size="10.00" fill="#999999">string</text>
<text text-anchor="start" x="817" y="-574.5" font-family="Arial" font-size="10.00">nag_count </text>
<text text-anchor="start" x="866" y="-574.5" font-family="Arial Italic" font-size="10.00" fill="#999999">integer</text>
<text text-anchor="start" x="817" y="-561.5" font-family="Arial" font-size="10.00">pay_period_desc </text>
<text text-anchor="start" x="894" y="-561.5" font-family="Arial Italic" font-size="10.00" fill="#999999">string</text>
<text text-anchor="start" x="817" y="-548.5" font-family="Arial" font-size="10.00">position_code </text>
<text text-anchor="start" x="881" y="-548.5" font-family="Arial Italic" font-size="10.00" fill="#999999">string</text>
<text text-anchor="start" x="817" y="-535.5" font-family="Arial" font-size="10.00">position_end_date </text>
<text text-anchor="start" x="899" y="-535.5" font-family="Arial Italic" font-size="10.00" fill="#999999">datetime</text>
<text text-anchor="start" x="817" y="-522.5" font-family="Arial" font-size="10.00">position_start_date </text>
<text text-anchor="start" x="903" y="-522.5" font-family="Arial Italic" font-size="10.00" fill="#999999">datetime</text>
<text text-anchor="start" x="817" y="-509.5" font-family="Arial" font-size="10.00">position_title </text>
<text text-anchor="start" x="875" y="-509.5" font-family="Arial Italic" font-size="10.00" fill="#999999">string</text>
<text text-anchor="start" x="817" y="-496.5" font-family="Arial" font-size="10.00">rejected_date </text>
<text text-anchor="start" x="879" y="-496.5" font-family="Arial Italic" font-size="10.00" fill="#999999">datetime</text>
<text text-anchor="start" x="817" y="-483.5" font-family="Arial" font-size="10.00">signature </text>
<text text-anchor="start" x="860" y="-483.5" font-family="Arial Italic" font-size="10.00" fill="#999999">string</text>
<text text-anchor="start" x="817" y="-470.5" font-family="Arial" font-size="10.00">status </text>
<text text-anchor="start" x="848" y="-470.5" font-family="Arial Italic" font-size="10.00" fill="#999999">integer ∗</text>
<text text-anchor="start" x="817" y="-457.5" font-family="Arial" font-size="10.00">ta_coordinator_email </text>
<text text-anchor="start" x="911" y="-457.5" font-family="Arial Italic" font-size="10.00" fill="#999999">string</text>
<text text-anchor="start" x="817" y="-444.5" font-family="Arial" font-size="10.00">ta_coordinator_name </text>
<text text-anchor="start" x="911" y="-444.5" font-family="Arial Italic" font-size="10.00" fill="#999999">string</text>
<text text-anchor="start" x="817" y="-431.5" font-family="Arial" font-size="10.00">url_token </text>
<text text-anchor="start" x="860" y="-431.5" font-family="Arial Italic" font-size="10.00" fill="#999999">string</text>
<text text-anchor="start" x="817" y="-418.5" font-family="Arial" font-size="10.00">withdrawn_date </text>
<text text-anchor="start" x="889" y="-418.5" font-family="Arial Italic" font-size="10.00" fill="#999999">datetime</text>
</g>
<!-- m_Assignment&#45;&gt;m_Offer -->
<g id="edge19" class="edge">
<title>m_Assignment&#45;&gt;m_Offer</title>
<path fill="none" stroke="black" d="M764.12,-543.19C776.27,-547.58 788.99,-552.18 801.41,-556.66"/>
<polygon fill="black" stroke="black" points="800.41,-559.65 809.95,-559.75 802.55,-553.73 800.41,-559.65"/>
</g>
<!-- m_WageChunk -->
<g id="node20" class="node">
<title>m_WageChunk</title>
<path fill="none" stroke="black" d="M822,-133C822,-133 948,-133 948,-133 954,-133 960,-139 960,-145 960,-145 960,-216 960,-216 960,-222 954,-228 948,-228 948,-228 822,-228 822,-228 816,-228 810,-222 810,-216 810,-216 810,-145 810,-145 810,-139 816,-133 822,-133"/>
<text text-anchor="start" x="851" y="-215.2" font-family="Arial Bold" font-size="11.00">WageChunk</text>
<polyline fill="none" stroke="black" points="810,-208 960,-208 "/>
<text text-anchor="start" x="817" y="-194.5" font-family="Arial" font-size="10.00">assignment_id </text>
<text text-anchor="start" x="884" y="-194.5" font-family="Arial Italic" font-size="10.00" fill="#999999">integer (8) ∗ FK</text>
<text text-anchor="start" x="817" y="-181.5" font-family="Arial" font-size="10.00">end_date </text>
<text text-anchor="start" x="860" y="-181.5" font-family="Arial Italic" font-size="10.00" fill="#999999">datetime</text>
<text text-anchor="start" x="817" y="-168.5" font-family="Arial" font-size="10.00">hours </text>
<text text-anchor="start" x="845" y="-168.5" font-family="Arial Italic" font-size="10.00" fill="#999999">float</text>
<text text-anchor="start" x="817" y="-155.5" font-family="Arial" font-size="10.00">rate </text>
<text text-anchor="start" x="837" y="-155.5" font-family="Arial Italic" font-size="10.00" fill="#999999">float</text>
<text text-anchor="start" x="817" y="-142.5" font-family="Arial" font-size="10.00">start_date </text>
<text text-anchor="start" x="864" y="-142.5" font-family="Arial Italic" font-size="10.00" fill="#999999">datetime</text>
</g>
<!-- m_Assignment&#45;&gt;m_WageChunk -->
<g id="edge20" class="edge">
<title>m_Assignment&#45;&gt;m_WageChunk</title>
<path fill="none" stroke="black" d="M764.11,-457.61C767.79,-452.76 771.14,-447.71 774,-442.5 817.2,-363.68 765.17,-321.4 810,-243.5 811.56,-240.79 813.28,-238.15 815.12,-235.58"/>
<polygon fill="black" stroke="black" points="817.95,-237.08 821.03,-228.05 812.99,-233.19 817.95,-237.08"/>
</g>
<!-- m_ContractTemplate -->
<g id="node7" class="node">
<title>m_ContractTemplate</title>
<path fill="none" stroke="black" d="M229,-113C229,-113 349,-113 349,-113 355,-113 361,-119 361,-125 361,-125 361,-170 361,-170 361,-176 355,-182 349,-182 349,-182 229,-182 229,-182 223,-182 217,-176 217,-170 217,-170 217,-125 217,-125 217,-119 223,-113 229,-113"/>
<text text-anchor="start" x="240" y="-169.2" font-family="Arial Bold" font-size="11.00">ContractTemplate</text>
<polyline fill="none" stroke="black" points="217,-162 361,-162 "/>
<text text-anchor="start" x="224" y="-148.5" font-family="Arial" font-size="10.00">session_id </text>
<text text-anchor="start" x="274" y="-148.5" font-family="Arial Italic" font-size="10.00" fill="#999999">integer (8) ∗ FK</text>
<text text-anchor="start" x="224" y="-135.5" font-family="Arial" font-size="10.00">template_file </text>
<text text-anchor="start" x="283" y="-135.5" font-family="Arial Italic" font-size="10.00" fill="#999999">string ∗</text>
<text text-anchor="start" x="224" y="-122.5" font-family="Arial" font-size="10.00">template_name </text>
<text text-anchor="start" x="294" y="-122.5" font-family="Arial Italic" font-size="10.00" fill="#999999">string ∗ U</text>
</g>
<!-- m_Position -->
<g id="node12" class="node">
<title>m_Position</title>
<path fill="none" stroke="black" d="M409,-109C409,-109 562,-109 562,-109 568,-109 574,-115 574,-121 574,-121 574,-244 574,-244 574,-250 568,-256 562,-256 562,-256 409,-256 409,-256 403,-256 397,-250 397,-244 397,-244 397,-121 397,-121 397,-115 403,-109 409,-109"/>
<text text-anchor="start" x="461.5" y="-243.2" font-family="Arial Bold" font-size="11.00">Position</text>
<polyline fill="none" stroke="black" points="397,-236 574,-236 "/>
<text text-anchor="start" x="404.5" y="-222.5" font-family="Arial" font-size="10.00">contract_template_id </text>
<text text-anchor="start" x="498.5" y="-222.5" font-family="Arial Italic" font-size="10.00" fill="#999999">integer (8) ∗ FK</text>
<text text-anchor="start" x="404.5" y="-209.5" font-family="Arial" font-size="10.00">duties </text>
<text text-anchor="start" x="434.5" y="-209.5" font-family="Arial Italic" font-size="10.00" fill="#999999">text</text>
<text text-anchor="start" x="404.5" y="-196.5" font-family="Arial" font-size="10.00">end_date </text>
<text text-anchor="start" x="447.5" y="-196.5" font-family="Arial Italic" font-size="10.00" fill="#999999">datetime</text>
<text text-anchor="start" x="404.5" y="-183.5" font-family="Arial" font-size="10.00">hours_per_assignment </text>
<text text-anchor="start" x="506.5" y="-183.5" font-family="Arial Italic" font-size="10.00" fill="#999999">float</text>
<text text-anchor="start" x="404.5" y="-170.5" font-family="Arial" font-size="10.00">position_code </text>
<text text-anchor="start" x="468.5" y="-170.5" font-family="Arial Italic" font-size="10.00" fill="#999999">string ∗ U</text>
<text text-anchor="start" x="404.5" y="-157.5" font-family="Arial" font-size="10.00">position_title </text>
<text text-anchor="start" x="462.5" y="-157.5" font-family="Arial Italic" font-size="10.00" fill="#999999">string</text>
<text text-anchor="start" x="404.5" y="-144.5" font-family="Arial" font-size="10.00">qualifications </text>
<text text-anchor="start" x="465.5" y="-144.5" font-family="Arial Italic" font-size="10.00" fill="#999999">text</text>
<text text-anchor="start" x="404.5" y="-131.5" font-family="Arial" font-size="10.00">session_id </text>
<text text-anchor="start" x="454.5" y="-131.5" font-family="Arial Italic" font-size="10.00" fill="#999999">integer (8) ∗ FK</text>
<text text-anchor="start" x="404.5" y="-118.5" font-family="Arial" font-size="10.00">start_date </text>
<text text-anchor="start" x="451.5" y="-118.5" font-family="Arial Italic" font-size="10.00" fill="#999999">datetime</text>
</g>
<!-- m_ContractTemplate&#45;&gt;m_Position -->
<g id="edge14" class="edge">
<title>m_ContractTemplate&#45;&gt;m_Position</title>
<path fill="none" stroke="black" d="M361.04,-160.28C369.75,-161.85 378.76,-163.47 387.77,-165.09"/>
<polygon fill="black" stroke="black" points="387.35,-168.22 396.76,-166.71 388.46,-162.02 387.35,-168.22"/>
</g>
<!-- m_Duty -->
<g id="node9" class="node">
<title>m_Duty</title>
<path fill="none" stroke="black" d="M1008,-277.5C1008,-277.5 1128,-277.5 1128,-277.5 1134,-277.5 1140,-283.5 1140,-289.5 1140,-289.5 1140,-347.5 1140,-347.5 1140,-353.5 1134,-359.5 1128,-359.5 1128,-359.5 1008,-359.5 1008,-359.5 1002,-359.5 996,-353.5 996,-347.5 996,-347.5 996,-289.5 996,-289.5 996,-283.5 1002,-277.5 1008,-277.5"/>
<text text-anchor="start" x="1053.5" y="-346.7" font-family="Arial Bold" font-size="11.00">Duty</text>
<polyline fill="none" stroke="black" points="996,-339.5 1140,-339.5 "/>
<text text-anchor="start" x="1003" y="-326.5" font-family="Arial" font-size="10.00">ddah_id </text>
<text text-anchor="start" x="1040" y="-326.5" font-family="Arial Italic" font-size="10.00" fill="#999999">integer (8) FK</text>
<text text-anchor="start" x="1003" y="-313.5" font-family="Arial" font-size="10.00">description </text>
<text text-anchor="start" x="1054" y="-313.5" font-family="Arial Italic" font-size="10.00" fill="#999999">string</text>
<text text-anchor="start" x="1003" y="-300.5" font-family="Arial" font-size="10.00">hours </text>
<text text-anchor="start" x="1031" y="-300.5" font-family="Arial Italic" font-size="10.00" fill="#999999">float</text>
<text text-anchor="start" x="1003" y="-287.5" font-family="Arial" font-size="10.00">order </text>
<text text-anchor="start" x="1028" y="-287.5" font-family="Arial Italic" font-size="10.00" fill="#999999">integer</text>
</g>
<!-- m_Ddah&#45;&gt;m_Duty -->
<g id="edge6" class="edge">
<title>m_Ddah&#45;&gt;m_Duty</title>
<path fill="none" stroke="black" d="M960.14,-318.5C968.91,-318.5 977.89,-318.5 986.74,-318.5"/>
<polygon fill="black" stroke="black" points="986.89,-321.65 995.89,-318.5 986.89,-315.35 986.89,-321.65"/>
</g>
<!-- m_Instructor -->
<g id="node10" class="node">
<title>m_Instructor</title>
<path fill="none" stroke="black" d="M229,-0.5C229,-0.5 349,-0.5 349,-0.5 355,-0.5 361,-6.5 361,-12.5 361,-12.5 361,-70.5 361,-70.5 361,-76.5 355,-82.5 349,-82.5 349,-82.5 229,-82.5 229,-82.5 223,-82.5 217,-76.5 217,-70.5 217,-70.5 217,-12.5 217,-12.5 217,-6.5 223,-0.5 229,-0.5"/>
<text text-anchor="start" x="261" y="-69.7" font-family="Arial Bold" font-size="11.00">Instructor</text>
<polyline fill="none" stroke="black" points="217,-62.5 361,-62.5 "/>
<text text-anchor="start" x="224" y="-49.5" font-family="Arial" font-size="10.00">email </text>
<text text-anchor="start" x="251" y="-49.5" font-family="Arial Italic" font-size="10.00" fill="#999999">string</text>
<text text-anchor="start" x="224" y="-36.5" font-family="Arial" font-size="10.00">first_name </text>
<text text-anchor="start" x="273" y="-36.5" font-family="Arial Italic" font-size="10.00" fill="#999999">string ∗</text>
<text text-anchor="start" x="224" y="-23.5" font-family="Arial" font-size="10.00">last_name </text>
<text text-anchor="start" x="273" y="-23.5" font-family="Arial Italic" font-size="10.00" fill="#999999">string ∗</text>
<text text-anchor="start" x="224" y="-10.5" font-family="Arial" font-size="10.00">utorid </text>
<text text-anchor="start" x="252" y="-10.5" font-family="Arial Italic" font-size="10.00" fill="#999999">string ∗ U</text>
</g>
<!-- m_Instructor&#45;&gt;m_Position -->
<g id="edge9" class="edge">
<title>m_Instructor&#45;&gt;m_Position</title>
<path fill="none" stroke="black" d="M354.26,-88.08C365.56,-96.28 377.54,-104.96 389.48,-113.62"/>
<polygon fill="black" stroke="black" points="355.92,-85.39 346.78,-82.66 352.22,-90.49 355.92,-85.39"/>
<polygon fill="black" stroke="black" points="387.77,-116.26 396.9,-119 391.46,-111.16 387.77,-116.26"/>
</g>
<!-- m_Position&#45;&gt;m_Assignment -->
<g id="edge10" class="edge">
<title>m_Position&#45;&gt;m_Assignment</title>
<path fill="none" stroke="black" d="M512.71,-256.09C534.11,-310.53 567.69,-384.91 610,-442.5 611.76,-444.89 613.6,-447.27 615.51,-449.63"/>
<polygon fill="black" stroke="black" points="613.21,-451.79 621.43,-456.63 618.02,-447.72 613.21,-451.79"/>
</g>
<!-- m_PositionDataForMatching -->
<g id="node13" class="node">
<title>m_PositionDataForMatching</title>
<path fill="none" stroke="black" d="M622,-33.5C622,-33.5 762,-33.5 762,-33.5 768,-33.5 774,-39.5 774,-45.5 774,-45.5 774,-103.5 774,-103.5 774,-109.5 768,-115.5 762,-115.5 762,-115.5 622,-115.5 622,-115.5 616,-115.5 610,-109.5 610,-103.5 610,-103.5 610,-45.5 610,-45.5 610,-39.5 616,-33.5 622,-33.5"/>
<text text-anchor="start" x="625" y="-102.7" font-family="Arial Bold" font-size="11.00">PositionDataForMatching</text>
<polyline fill="none" stroke="black" points="610,-95.5 774,-95.5 "/>
<text text-anchor="start" x="617" y="-82.5" font-family="Arial" font-size="10.00">current_enrollment </text>
<text text-anchor="start" x="701" y="-82.5" font-family="Arial Italic" font-size="10.00" fill="#999999">integer</text>
<text text-anchor="start" x="617" y="-69.5" font-family="Arial" font-size="10.00">current_waitlisted </text>
<text text-anchor="start" x="697" y="-69.5" font-family="Arial Italic" font-size="10.00" fill="#999999">integer</text>
<text text-anchor="start" x="617" y="-56.5" font-family="Arial" font-size="10.00">desired_num_assignments </text>
<text text-anchor="start" x="737" y="-56.5" font-family="Arial Italic" font-size="10.00" fill="#999999">integer</text>
<text text-anchor="start" x="617" y="-43.5" font-family="Arial" font-size="10.00">position_id </text>
<text text-anchor="start" x="667" y="-43.5" font-family="Arial Italic" font-size="10.00" fill="#999999">integer (8) ∗ FK</text>
</g>
<!-- m_Position&#45;&gt;m_PositionDataForMatching -->
<g id="edge13" class="edge">
<title>m_Position&#45;&gt;m_PositionDataForMatching</title>
<path fill="none" stroke="black" d="M574.12,-136.23C587.13,-129.36 600.46,-122.32 613.25,-115.56"/>
</g>
<!-- m_Position&#45;&gt;m_PositionPreference -->
<g id="edge11" class="edge">
<title>m_Position&#45;&gt;m_PositionPreference</title>
<path fill="none" stroke="black" d="M534.66,-256.07C555.71,-285 581.97,-317.25 610,-342.5 613.85,-345.97 617.98,-349.34 622.26,-352.59"/>
<polygon fill="black" stroke="black" points="620.44,-355.16 629.57,-357.92 624.15,-350.07 620.44,-355.16"/>
</g>
<!-- m_PostingPosition -->
<g id="node16" class="node">
<title>m_PostingPosition</title>
<path fill="none" stroke="black" d="M632,-245.5C632,-245.5 752,-245.5 752,-245.5 758,-245.5 764,-251.5 764,-257.5 764,-257.5 764,-315.5 764,-315.5 764,-321.5 758,-327.5 752,-327.5 752,-327.5 632,-327.5 632,-327.5 626,-327.5 620,-321.5 620,-315.5 620,-315.5 620,-257.5 620,-257.5 620,-251.5 626,-245.5 632,-245.5"/>
<text text-anchor="start" x="647.5" y="-314.7" font-family="Arial Bold" font-size="11.00">PostingPosition</text>
<polyline fill="none" stroke="black" points="620,-307.5 764,-307.5 "/>
<text text-anchor="start" x="627" y="-294.5" font-family="Arial" font-size="10.00">hours </text>
<text text-anchor="start" x="655" y="-294.5" font-family="Arial Italic" font-size="10.00" fill="#999999">float</text>
<text text-anchor="start" x="627" y="-281.5" font-family="Arial" font-size="10.00">num_positions </text>
<text text-anchor="start" x="694" y="-281.5" font-family="Arial Italic" font-size="10.00" fill="#999999">integer</text>
<text text-anchor="start" x="627" y="-268.5" font-family="Arial" font-size="10.00">position_id </text>
<text text-anchor="start" x="677" y="-268.5" font-family="Arial Italic" font-size="10.00" fill="#999999">integer (8) ∗ FK</text>
<text text-anchor="start" x="627" y="-255.5" font-family="Arial" font-size="10.00">posting_id </text>
<text text-anchor="start" x="675" y="-255.5" font-family="Arial Italic" font-size="10.00" fill="#999999">integer (8) ∗ FK</text>
</g>
<!-- m_Position&#45;&gt;m_PostingPosition -->
<g id="edge24" class="edge">
<title>m_Position&#45;&gt;m_PostingPosition</title>
<path fill="none" stroke="black" d="M574.12,-227.06C586.66,-233.43 599.49,-239.96 611.86,-246.25"/>
<polygon fill="black" stroke="black" points="610.45,-249.07 619.9,-250.34 613.31,-243.46 610.45,-249.07"/>
</g>
<!-- m_ReportingTag -->
<g id="node17" class="node">
<title>m_ReportingTag</title>
<path fill="none" stroke="black" d="M631.5,-146C631.5,-146 752.5,-146 752.5,-146 758.5,-146 764.5,-152 764.5,-158 764.5,-158 764.5,-203 764.5,-203 764.5,-209 758.5,-215 752.5,-215 752.5,-215 631.5,-215 631.5,-215 625.5,-215 619.5,-209 619.5,-203 619.5,-203 619.5,-158 619.5,-158 619.5,-152 625.5,-146 631.5,-146"/>
<text text-anchor="start" x="654" y="-202.2" font-family="Arial Bold" font-size="11.00">ReportingTag</text>
<polyline fill="none" stroke="black" points="619.5,-195 764.5,-195 "/>
<text text-anchor="start" x="627" y="-181.5" font-family="Arial" font-size="10.00">name </text>
<text text-anchor="start" x="655" y="-181.5" font-family="Arial Italic" font-size="10.00" fill="#999999">string</text>
<text text-anchor="start" x="627" y="-168.5" font-family="Arial" font-size="10.00">position_id </text>
<text text-anchor="start" x="677" y="-168.5" font-family="Arial Italic" font-size="10.00" fill="#999999">integer (8) FK</text>
<text text-anchor="start" x="627" y="-155.5" font-family="Arial" font-size="10.00">wage_chunk_id </text>
<text text-anchor="start" x="698" y="-155.5" font-family="Arial Italic" font-size="10.00" fill="#999999">integer (8) FK</text>
</g>
<!-- m_Position&#45;&gt;m_ReportingTag -->
<g id="edge8" class="edge">
<title>m_Position&#45;&gt;m_ReportingTag</title>
<path fill="none" stroke="black" d="M583.34,-181.55C592.32,-181.47 601.36,-181.38 610.18,-181.29"/>
<polygon fill="black" stroke="black" points="583.09,-178.41 574.12,-181.64 583.15,-184.7 583.09,-178.41"/>
<polygon fill="black" stroke="black" points="610.31,-184.44 619.28,-181.2 610.25,-178.14 610.31,-184.44"/>
</g>
<!-- m_Posting -->
<g id="node15" class="node">
<title>m_Posting</title>
<path fill="none" stroke="black" d="M229,-270.5C229,-270.5 349,-270.5 349,-270.5 355,-270.5 361,-276.5 361,-282.5 361,-282.5 361,-392.5 361,-392.5 361,-398.5 355,-404.5 349,-404.5 349,-404.5 229,-404.5 229,-404.5 223,-404.5 217,-398.5 217,-392.5 217,-392.5 217,-282.5 217,-282.5 217,-276.5 223,-270.5 229,-270.5"/>
<text text-anchor="start" x="266.5" y="-391.7" font-family="Arial Bold" font-size="11.00">Posting</text>
<polyline fill="none" stroke="black" points="217,-384.5 361,-384.5 "/>
<text text-anchor="start" x="224" y="-371.5" font-family="Arial" font-size="10.00">close_date </text>
<text text-anchor="start" x="275" y="-371.5" font-family="Arial Italic" font-size="10.00" fill="#999999">datetime</text>
<text text-anchor="start" x="224" y="-358.5" font-family="Arial" font-size="10.00">custom_questions </text>
<text text-anchor="start" x="307" y="-358.5" font-family="Arial Italic" font-size="10.00" fill="#999999">text</text>
<text text-anchor="start" x="224" y="-345.5" font-family="Arial" font-size="10.00">intro_text </text>
<text text-anchor="start" x="268" y="-345.5" font-family="Arial Italic" font-size="10.00" fill="#999999">text</text>
<text text-anchor="start" x="224" y="-332.5" font-family="Arial" font-size="10.00">name </text>
<text text-anchor="start" x="252" y="-332.5" font-family="Arial Italic" font-size="10.00" fill="#999999">string ∗ U</text>
<text text-anchor="start" x="224" y="-319.5" font-family="Arial" font-size="10.00">open_date </text>
<text text-anchor="start" x="273" y="-319.5" font-family="Arial Italic" font-size="10.00" fill="#999999">datetime</text>
<text text-anchor="start" x="224" y="-306.5" font-family="Arial" font-size="10.00">session_id </text>
<text text-anchor="start" x="274" y="-306.5" font-family="Arial Italic" font-size="10.00" fill="#999999">integer (8) ∗ FK</text>
<text text-anchor="start" x="224" y="-293.5" font-family="Arial" font-size="10.00">status </text>
<text text-anchor="start" x="255" y="-293.5" font-family="Arial Italic" font-size="10.00" fill="#999999">integer</text>
<text text-anchor="start" x="224" y="-280.5" font-family="Arial" font-size="10.00">url_token </text>
<text text-anchor="start" x="267" y="-280.5" font-family="Arial Italic" font-size="10.00" fill="#999999">string</text>
</g>
<!-- m_Posting&#45;&gt;m_Application -->
<g id="edge22" class="edge">
<title>m_Posting&#45;&gt;m_Application</title>
<path fill="none" stroke="black" d="M361.04,-378.04C375.42,-386.25 390.62,-394.92 405.26,-403.28"/>
<polygon fill="black" stroke="black" points="403.94,-406.15 413.32,-407.88 407.07,-400.68 403.94,-406.15"/>
</g>
<!-- m_Posting&#45;&gt;m_PostingPosition -->
<g id="edge23" class="edge">
<title>m_Posting&#45;&gt;m_PostingPosition</title>
<path fill="none" stroke="black" d="M361.23,-328.44C431.16,-319.55 537.66,-306 610.59,-296.73"/>
<polygon fill="black" stroke="black" points="611.23,-299.82 619.76,-295.56 610.43,-293.57 611.23,-299.82"/>
</g>
<!-- m_ReportingTag&#45;&gt;m_WageChunk -->
<g id="edge7" class="edge">
<title>m_ReportingTag&#45;&gt;m_WageChunk</title>
<path fill="none" stroke="black" d="M773.72,-180.5C782.58,-180.5 791.61,-180.5 800.5,-180.5"/>
<polygon fill="black" stroke="black" points="773.66,-177.35 764.66,-180.5 773.66,-183.65 773.66,-177.35"/>
<polygon fill="black" stroke="black" points="800.7,-183.65 809.7,-180.5 800.7,-177.35 800.7,-183.65"/>
</g>
<!-- m_Session -->
<g id="node18" class="node">
<title>m_Session</title>
<path fill="none" stroke="black" d="M30.5,-234C30.5,-234 150.5,-234 150.5,-234 156.5,-234 162.5,-240 162.5,-246 162.5,-246 162.5,-317 162.5,-317 162.5,-323 156.5,-329 150.5,-329 150.5,-329 30.5,-329 30.5,-329 24.5,-329 18.5,-323 18.5,-317 18.5,-317 18.5,-246 18.5,-246 18.5,-240 24.5,-234 30.5,-234"/>
<text text-anchor="start" x="67" y="-316.2" font-family="Arial Bold" font-size="11.00">Session</text>
<polyline fill="none" stroke="black" points="18.5,-309 162.5,-309 "/>
<text text-anchor="start" x="25.5" y="-295.5" font-family="Arial" font-size="10.00">end_date </text>
<text text-anchor="start" x="68.5" y="-295.5" font-family="Arial Italic" font-size="10.00" fill="#999999">datetime</text>
<text text-anchor="start" x="25.5" y="-282.5" font-family="Arial" font-size="10.00">name </text>
<text text-anchor="start" x="53.5" y="-282.5" font-family="Arial Italic" font-size="10.00" fill="#999999">string ∗ U</text>
<text text-anchor="start" x="25.5" y="-269.5" font-family="Arial" font-size="10.00">rate1 </text>
<text text-anchor="start" x="50.5" y="-269.5" font-family="Arial Italic" font-size="10.00" fill="#999999">float</text>
<text text-anchor="start" x="25.5" y="-256.5" font-family="Arial" font-size="10.00">rate2 </text>
<text text-anchor="start" x="50.5" y="-256.5" font-family="Arial Italic" font-size="10.00" fill="#999999">float</text>
<text text-anchor="start" x="25.5" y="-243.5" font-family="Arial" font-size="10.00">start_date </text>
<text text-anchor="start" x="72.5" y="-243.5" font-family="Arial Italic" font-size="10.00" fill="#999999">datetime</text>
</g>
<!-- m_Session&#45;&gt;m_Application -->
<g id="edge1" class="edge">
<title>m_Session&#45;&gt;m_Application</title>
<path fill="none" stroke="black" d="M162.86,-326.43C169.41,-332.07 175.6,-338.12 181,-344.5 204.89,-372.72 186.81,-398.15 217,-419.5 271.03,-457.72 347.18,-462.52 404.42,-459.18"/>
<polygon fill="black" stroke="black" points="404.67,-462.32 413.44,-458.58 404.25,-456.04 404.67,-462.32"/>
</g>
<!-- m_Session&#45;&gt;m_ContractTemplate -->
<g id="edge4" class="edge">
<title>m_Session&#45;&gt;m_ContractTemplate</title>
<path fill="none" stroke="black" d="M161.33,-233.88C183.73,-218.6 208.29,-201.86 229.77,-187.21"/>
<polygon fill="black" stroke="black" points="231.57,-189.8 237.23,-182.12 228.02,-184.59 231.57,-189.8"/>
</g>
<!-- m_Session&#45;&gt;m_Position -->
<g id="edge2" class="edge">
<title>m_Session&#45;&gt;m_Position</title>
<path fill="none" stroke="black" d="M162.67,-263.57C225.67,-247.7 318.17,-224.4 387.85,-206.85"/>
<polygon fill="black" stroke="black" points="388.71,-209.88 396.66,-204.63 387.17,-203.77 388.71,-209.88"/>
</g>
<!-- m_Session&#45;&gt;m_Posting -->
<g id="edge3" class="edge">
<title>m_Session&#45;&gt;m_Posting</title>
<path fill="none" stroke="black" d="M162.72,-301.8C177.41,-305.98 192.97,-310.42 207.95,-314.69"/>
<polygon fill="black" stroke="black" points="207.18,-317.74 216.69,-317.18 208.9,-311.68 207.18,-317.74"/>
</g>
<!-- m_User -->
<g id="node19" class="node">
<title>m_User</title>
<path fill="none" stroke="black" d="M30.5,-359C30.5,-359 150.5,-359 150.5,-359 156.5,-359 162.5,-365 162.5,-371 162.5,-371 162.5,-416 162.5,-416 162.5,-422 156.5,-428 150.5,-428 150.5,-428 30.5,-428 30.5,-428 24.5,-428 18.5,-422 18.5,-416 18.5,-416 18.5,-371 18.5,-371 18.5,-365 24.5,-359 30.5,-359"/>
<text text-anchor="start" x="76" y="-415.2" font-family="Arial Bold" font-size="11.00">User</text>
<polyline fill="none" stroke="black" points="18.5,-408 162.5,-408 "/>
<text text-anchor="start" x="25.5" y="-394.5" font-family="Arial" font-size="10.00">last_seen </text>
<text text-anchor="start" x="71.5" y="-394.5" font-family="Arial Italic" font-size="10.00" fill="#999999">datetime</text>
<text text-anchor="start" x="25.5" y="-381.5" font-family="Arial" font-size="10.00">roles_mask </text>
<text text-anchor="start" x="79.5" y="-381.5" font-family="Arial Italic" font-size="10.00" fill="#999999">integer</text>
<text text-anchor="start" x="25.5" y="-368.5" font-family="Arial" font-size="10.00">utorid </text>
<text text-anchor="start" x="53.5" y="-368.5" font-family="Arial Italic" font-size="10.00" fill="#999999">string ∗ U</text>
</g>
</g>
</svg>
