<?xml version="1.0" encoding="UTF-8" standalone="no"?>
<!DOCTYPE svg PUBLIC "-//W3C//DTD SVG 1.1//EN"
 "http://www.w3.org/Graphics/SVG/1.1/DTD/svg11.dtd">
<!-- Generated by graphviz version 2.44.0 ()
 -->
<!-- Title: Tapp Pages: 1 -->
<svg width="1203pt" height="999pt"
 viewBox="0.00 0.00 1202.60 999.14" xmlns="http://www.w3.org/2000/svg" xmlns:xlink="http://www.w3.org/1999/xlink">
<g id="graph0" class="graph" transform="scale(1 1) rotate(0) translate(28.8 970.34)">
<title>Tapp</title>
<polygon fill="white" stroke="transparent" points="-28.8,28.8 -28.8,-970.34 1173.8,-970.34 1173.8,28.8 -28.8,28.8"/>
<text text-anchor="middle" x="572.5" y="-927.14" font-family="Arial Bold" font-size="13.00">ER Diagram</text>
<!-- m_ActiveRecord::InternalMetadata -->
<g id="node1" class="node">
<title>m_ActiveRecord::InternalMetadata</title>
<path fill="none" stroke="black" d="M14.5,-0.5C14.5,-0.5 166.5,-0.5 166.5,-0.5 172.5,-0.5 178.5,-6.5 178.5,-12.5 178.5,-12.5 178.5,-31.5 178.5,-31.5 178.5,-37.5 172.5,-43.5 166.5,-43.5 166.5,-43.5 14.5,-43.5 14.5,-43.5 8.5,-43.5 2.5,-37.5 2.5,-31.5 2.5,-31.5 2.5,-12.5 2.5,-12.5 2.5,-6.5 8.5,-0.5 14.5,-0.5"/>
<text text-anchor="start" x="7.5" y="-30.7" font-family="Arial Bold" font-size="11.00">ActiveRecord::InternalMetadata</text>
<polyline fill="none" stroke="black" points="2.5,-23.5 178.5,-23.5 "/>
<text text-anchor="start" x="25.5" y="-10" font-family="Arial" font-size="10.00">value </text>
<text text-anchor="start" x="52.5" y="-10" font-family="Arial Italic" font-size="10.00" fill="#999999">string</text>
</g>
<!-- m_ActiveRecord::SchemaMigration -->
<g id="node2" class="node">
<title>m_ActiveRecord::SchemaMigration</title>
<path fill="none" stroke="black" d="M12,-74C12,-74 169,-74 169,-74 175,-74 181,-80 181,-86 181,-86 181,-98 181,-98 181,-104 175,-110 169,-110 169,-110 12,-110 12,-110 6,-110 0,-104 0,-98 0,-98 0,-86 0,-86 0,-80 6,-74 12,-74"/>
<text text-anchor="start" x="5.5" y="-89.2" font-family="Arial Bold" font-size="11.00">ActiveRecord::SchemaMigration</text>
</g>
<!-- m_ActiveStorage::Attachment -->
<g id="node3" class="node">
<title>m_ActiveStorage::Attachment</title>
<path fill="none" stroke="black" d="M444,-196C444,-196 573,-196 573,-196 579,-196 585,-202 585,-208 585,-208 585,-266 585,-266 585,-272 579,-278 573,-278 573,-278 444,-278 444,-278 438,-278 432,-272 432,-266 432,-266 432,-208 432,-208 432,-202 438,-196 444,-196"/>
<text text-anchor="start" x="437.5" y="-265.2" font-family="Arial Bold" font-size="11.00">ActiveStorage::Attachment</text>
<polyline fill="none" stroke="black" points="432,-258 585,-258 "/>
<text text-anchor="start" x="443.5" y="-245" font-family="Arial" font-size="10.00">blob_id </text>
<text text-anchor="start" x="477.5" y="-245" font-family="Arial Italic" font-size="10.00" fill="#999999">integer (8) ∗ FK</text>
<text text-anchor="start" x="443.5" y="-232" font-family="Arial" font-size="10.00">name </text>
<text text-anchor="start" x="471.5" y="-232" font-family="Arial Italic" font-size="10.00" fill="#999999">string ∗</text>
<text text-anchor="start" x="443.5" y="-219" font-family="Arial" font-size="10.00">record_id </text>
<text text-anchor="start" x="486.5" y="-219" font-family="Arial Italic" font-size="10.00" fill="#999999">integer (8) ∗ FK</text>
<text text-anchor="start" x="443.5" y="-206" font-family="Arial" font-size="10.00">record_type </text>
<text text-anchor="start" x="498.5" y="-206" font-family="Arial Italic" font-size="10.00" fill="#999999">string ∗</text>
</g>
<!-- m_ActiveStorage::Blob -->
<g id="node4" class="node">
<title>m_ActiveStorage::Blob</title>
<path fill="none" stroke="black" d="M30.5,-140.5C30.5,-140.5 150.5,-140.5 150.5,-140.5 156.5,-140.5 162.5,-146.5 162.5,-152.5 162.5,-152.5 162.5,-249.5 162.5,-249.5 162.5,-255.5 156.5,-261.5 150.5,-261.5 150.5,-261.5 30.5,-261.5 30.5,-261.5 24.5,-261.5 18.5,-255.5 18.5,-249.5 18.5,-249.5 18.5,-152.5 18.5,-152.5 18.5,-146.5 24.5,-140.5 30.5,-140.5"/>
<text text-anchor="start" x="35" y="-248.7" font-family="Arial Bold" font-size="11.00">ActiveStorage::Blob</text>
<polyline fill="none" stroke="black" points="18.5,-241.5 162.5,-241.5 "/>
<text text-anchor="start" x="25.5" y="-228" font-family="Arial" font-size="10.00">byte_size </text>
<text text-anchor="start" x="71.5" y="-228" font-family="Arial Italic" font-size="10.00" fill="#999999">integer (8) ∗</text>
<text text-anchor="start" x="25.5" y="-215" font-family="Arial" font-size="10.00">checksum </text>
<text text-anchor="start" x="74.5" y="-215" font-family="Arial Italic" font-size="10.00" fill="#999999">string ∗</text>
<text text-anchor="start" x="25.5" y="-202" font-family="Arial" font-size="10.00">content_type </text>
<text text-anchor="start" x="85.5" y="-202" font-family="Arial Italic" font-size="10.00" fill="#999999">string</text>
<text text-anchor="start" x="25.5" y="-189" font-family="Arial" font-size="10.00">filename </text>
<text text-anchor="start" x="65.5" y="-189" font-family="Arial Italic" font-size="10.00" fill="#999999">string ∗</text>
<text text-anchor="start" x="25.5" y="-176" font-family="Arial" font-size="10.00">key </text>
<text text-anchor="start" x="44.5" y="-176" font-family="Arial Italic" font-size="10.00" fill="#999999">string ∗</text>
<text text-anchor="start" x="25.5" y="-163" font-family="Arial" font-size="10.00">metadata </text>
<text text-anchor="start" x="69.5" y="-163" font-family="Arial Italic" font-size="10.00" fill="#999999">text</text>
<text text-anchor="start" x="25.5" y="-150" font-family="Arial" font-size="10.00">service_name </text>
<text text-anchor="start" x="89.5" y="-150" font-family="Arial Italic" font-size="10.00" fill="#999999">string ∗</text>
</g>
<!-- m_ActiveStorage::Blob&#45;&gt;m_ActiveStorage::Attachment -->
<g id="edge23" class="edge">
<title>m_ActiveStorage::Blob&#45;&gt;m_ActiveStorage::Attachment</title>
<path fill="none" stroke="black" d="M162.78,-229.96C180.23,-235.77 199.05,-241.01 217,-244 289.16,-256.02 372.77,-252.18 431.71,-246.59"/>
</g>
<!-- m_ActiveStorage::Blob&#45;&gt;m_ActiveStorage::Blob -->
<g id="edge25" class="edge">
<title>m_ActiveStorage::Blob&#45;&gt;m_ActiveStorage::Blob</title>
<path fill="none" stroke="black" stroke-dasharray="1,5" d="M51.37,-261.57C53.26,-278.25 66.3,-291 90.5,-291 114.7,-291 127.74,-278.25 129.63,-261.57"/>
</g>
<!-- m_ActiveStorage::VariantRecord -->
<g id="node5" class="node">
<title>m_ActiveStorage::VariantRecord</title>
<path fill="none" stroke="black" d="M229,-173C229,-173 372,-173 372,-173 378,-173 384,-179 384,-185 384,-185 384,-217 384,-217 384,-223 378,-229 372,-229 372,-229 229,-229 229,-229 223,-229 217,-223 217,-217 217,-217 217,-185 217,-185 217,-179 223,-173 229,-173"/>
<text text-anchor="start" x="222.5" y="-216.2" font-family="Arial Bold" font-size="11.00">ActiveStorage::VariantRecord</text>
<polyline fill="none" stroke="black" points="217,-209 384,-209 "/>
<text text-anchor="start" x="235.5" y="-196" font-family="Arial" font-size="10.00">blob_id </text>
<text text-anchor="start" x="269.5" y="-196" font-family="Arial Italic" font-size="10.00" fill="#999999">integer (8) ∗ FK</text>
<text text-anchor="start" x="235.5" y="-183" font-family="Arial" font-size="10.00">variation_digest </text>
<text text-anchor="start" x="307.5" y="-183" font-family="Arial Italic" font-size="10.00" fill="#999999">string ∗</text>
</g>
<!-- m_ActiveStorage::Blob&#45;&gt;m_ActiveStorage::VariantRecord -->
<g id="edge22" class="edge">
<title>m_ActiveStorage::Blob&#45;&gt;m_ActiveStorage::VariantRecord</title>
<path fill="none" stroke="black" d="M162.5,-201C177.02,-201 192.5,-201 207.63,-201"/>
<polygon fill="black" stroke="black" points="208,-204.15 217,-201 208,-197.85 208,-204.15"/>
</g>
<!-- m_ActiveStorage::VariantRecord&#45;&gt;m_ActiveStorage::Attachment -->
<g id="edge24" class="edge">
<title>m_ActiveStorage::VariantRecord&#45;&gt;m_ActiveStorage::Attachment</title>
<path fill="none" stroke="black" d="M384.1,-215.44C399.88,-218.19 416.33,-221.07 431.88,-223.79"/>
</g>
<!-- m_Applicant -->
<g id="node6" class="node">
<title>m_Applicant</title>
<path fill="none" stroke="black" d="M240.5,-542C240.5,-542 360.5,-542 360.5,-542 366.5,-542 372.5,-548 372.5,-554 372.5,-554 372.5,-638 372.5,-638 372.5,-644 366.5,-650 360.5,-650 360.5,-650 240.5,-650 240.5,-650 234.5,-650 228.5,-644 228.5,-638 228.5,-638 228.5,-554 228.5,-554 228.5,-548 234.5,-542 240.5,-542"/>
<text text-anchor="start" x="273" y="-637.2" font-family="Arial Bold" font-size="11.00">Applicant</text>
<polyline fill="none" stroke="black" points="228.5,-630 372.5,-630 "/>
<text text-anchor="start" x="235.5" y="-617" font-family="Arial" font-size="10.00">email </text>
<text text-anchor="start" x="262.5" y="-617" font-family="Arial Italic" font-size="10.00" fill="#999999">string</text>
<text text-anchor="start" x="235.5" y="-604" font-family="Arial" font-size="10.00">first_name </text>
<text text-anchor="start" x="284.5" y="-604" font-family="Arial Italic" font-size="10.00" fill="#999999">string</text>
<text text-anchor="start" x="235.5" y="-591" font-family="Arial" font-size="10.00">last_name </text>
<text text-anchor="start" x="284.5" y="-591" font-family="Arial Italic" font-size="10.00" fill="#999999">string</text>
<text text-anchor="start" x="235.5" y="-578" font-family="Arial" font-size="10.00">phone </text>
<text text-anchor="start" x="265.5" y="-578" font-family="Arial Italic" font-size="10.00" fill="#999999">string</text>
<text text-anchor="start" x="235.5" y="-565" font-family="Arial" font-size="10.00">student_number </text>
<text text-anchor="start" x="308.5" y="-565" font-family="Arial Italic" font-size="10.00" fill="#999999">string</text>
<text text-anchor="start" x="235.5" y="-552" font-family="Arial" font-size="10.00">utorid </text>
<text text-anchor="start" x="263.5" y="-552" font-family="Arial Italic" font-size="10.00" fill="#999999">string ∗ U</text>
</g>
<!-- m_Application -->
<g id="node7" class="node">
<title>m_Application</title>
<path fill="none" stroke="black" d="M445,-404C445,-404 572,-404 572,-404 578,-404 584,-410 584,-416 584,-416 584,-578 584,-578 584,-584 578,-590 572,-590 572,-590 445,-590 445,-590 439,-590 433,-584 433,-578 433,-578 433,-416 433,-416 433,-410 439,-404 445,-404"/>
<text text-anchor="start" x="476" y="-577.2" font-family="Arial Bold" font-size="11.00">Application</text>
<polyline fill="none" stroke="black" points="433,-570 584,-570 "/>
<text text-anchor="start" x="440.5" y="-557" font-family="Arial" font-size="10.00">annotation </text>
<text text-anchor="start" x="489.5" y="-557" font-family="Arial Italic" font-size="10.00" fill="#999999">string</text>
<text text-anchor="start" x="440.5" y="-544" font-family="Arial" font-size="10.00">applicant_id </text>
<text text-anchor="start" x="495.5" y="-544" font-family="Arial Italic" font-size="10.00" fill="#999999">integer (8) ∗ FK</text>
<text text-anchor="start" x="440.5" y="-531" font-family="Arial" font-size="10.00">comments </text>
<text text-anchor="start" x="489.5" y="-531" font-family="Arial Italic" font-size="10.00" fill="#999999">text</text>
<text text-anchor="start" x="440.5" y="-518" font-family="Arial" font-size="10.00">custom_question_answers </text>
<text text-anchor="start" x="560.5" y="-518" font-family="Arial Italic" font-size="10.00" fill="#999999">text</text>
<text text-anchor="start" x="440.5" y="-505" font-family="Arial" font-size="10.00">department </text>
<text text-anchor="start" x="492.5" y="-505" font-family="Arial Italic" font-size="10.00" fill="#999999">string</text>
<text text-anchor="start" x="440.5" y="-492" font-family="Arial" font-size="10.00">gpa </text>
<text text-anchor="start" x="459.5" y="-492" font-family="Arial Italic" font-size="10.00" fill="#999999">float</text>
<text text-anchor="start" x="440.5" y="-479" font-family="Arial" font-size="10.00">posting_id </text>
<text text-anchor="start" x="488.5" y="-479" font-family="Arial Italic" font-size="10.00" fill="#999999">integer (8) FK</text>
<text text-anchor="start" x="440.5" y="-466" font-family="Arial" font-size="10.00">previous_uoft_experience </text>
<text text-anchor="start" x="555.5" y="-466" font-family="Arial Italic" font-size="10.00" fill="#999999">text</text>
<text text-anchor="start" x="440.5" y="-453" font-family="Arial" font-size="10.00">program </text>
<text text-anchor="start" x="479.5" y="-453" font-family="Arial Italic" font-size="10.00" fill="#999999">string</text>
<text text-anchor="start" x="440.5" y="-440" font-family="Arial" font-size="10.00">session_id </text>
<text text-anchor="start" x="490.5" y="-440" font-family="Arial Italic" font-size="10.00" fill="#999999">integer (8) ∗ FK</text>
<text text-anchor="start" x="440.5" y="-427" font-family="Arial" font-size="10.00">status </text>
<text text-anchor="start" x="471.5" y="-427" font-family="Arial Italic" font-size="10.00" fill="#999999">integer</text>
<text text-anchor="start" x="440.5" y="-414" font-family="Arial" font-size="10.00">yip </text>
<text text-anchor="start" x="456.5" y="-414" font-family="Arial Italic" font-size="10.00" fill="#999999">integer</text>
</g>
<!-- m_Applicant&#45;&gt;m_Application -->
<g id="edge15" class="edge">
<title>m_Applicant&#45;&gt;m_Application</title>
<path fill="none" stroke="black" d="M372.68,-561.79C389.37,-553.77 407.3,-545.16 424.46,-536.91"/>
<polygon fill="black" stroke="black" points="426.06,-539.63 432.81,-532.9 423.33,-533.95 426.06,-539.63"/>
</g>
<!-- m_Assignment -->
<g id="node8" class="node">
<title>m_Assignment</title>
<path fill="none" stroke="black" d="M646,-574.5C646,-574.5 766,-574.5 766,-574.5 772,-574.5 778,-580.5 778,-586.5 778,-586.5 778,-683.5 778,-683.5 778,-689.5 772,-695.5 766,-695.5 766,-695.5 646,-695.5 646,-695.5 640,-695.5 634,-689.5 634,-683.5 634,-683.5 634,-586.5 634,-586.5 634,-580.5 640,-574.5 646,-574.5"/>
<text text-anchor="start" x="672" y="-682.7" font-family="Arial Bold" font-size="11.00">Assignment</text>
<polyline fill="none" stroke="black" points="634,-675.5 778,-675.5 "/>
<text text-anchor="start" x="641" y="-662" font-family="Arial" font-size="10.00">active_offer_id </text>
<text text-anchor="start" x="708" y="-662" font-family="Arial Italic" font-size="10.00" fill="#999999">integer (8) FK</text>
<text text-anchor="start" x="641" y="-649" font-family="Arial" font-size="10.00">applicant_id </text>
<text text-anchor="start" x="696" y="-649" font-family="Arial Italic" font-size="10.00" fill="#999999">integer (8) ∗ FK</text>
<text text-anchor="start" x="641" y="-636" font-family="Arial" font-size="10.00">contract_override_pdf </text>
<text text-anchor="start" x="738" y="-636" font-family="Arial Italic" font-size="10.00" fill="#999999">string</text>
<text text-anchor="start" x="641" y="-623" font-family="Arial" font-size="10.00">end_date </text>
<text text-anchor="start" x="684" y="-623" font-family="Arial Italic" font-size="10.00" fill="#999999">datetime</text>
<text text-anchor="start" x="641" y="-610" font-family="Arial" font-size="10.00">note </text>
<text text-anchor="start" x="663" y="-610" font-family="Arial Italic" font-size="10.00" fill="#999999">text</text>
<text text-anchor="start" x="641" y="-597" font-family="Arial" font-size="10.00">position_id </text>
<text text-anchor="start" x="691" y="-597" font-family="Arial Italic" font-size="10.00" fill="#999999">integer (8) ∗ FK</text>
<text text-anchor="start" x="641" y="-584" font-family="Arial" font-size="10.00">start_date </text>
<text text-anchor="start" x="688" y="-584" font-family="Arial Italic" font-size="10.00" fill="#999999">datetime</text>
</g>
<!-- m_Applicant&#45;&gt;m_Assignment -->
<g id="edge14" class="edge">
<title>m_Applicant&#45;&gt;m_Assignment</title>
<path fill="none" stroke="black" d="M372.71,-602.88C443.22,-609.7 551.02,-620.12 624.58,-627.23"/>
<polygon fill="black" stroke="black" points="624.56,-630.39 633.83,-628.12 625.17,-624.12 624.56,-630.39"/>
</g>
<!-- m_PositionPreference -->
<g id="node15" class="node">
<title>m_PositionPreference</title>
<path fill="none" stroke="black" d="M645,-468.5C645,-468.5 767,-468.5 767,-468.5 773,-468.5 779,-474.5 779,-480.5 779,-480.5 779,-525.5 779,-525.5 779,-531.5 773,-537.5 767,-537.5 767,-537.5 645,-537.5 645,-537.5 639,-537.5 633,-531.5 633,-525.5 633,-525.5 633,-480.5 633,-480.5 633,-474.5 639,-468.5 645,-468.5"/>
<text text-anchor="start" x="653.5" y="-524.7" font-family="Arial Bold" font-size="11.00">PositionPreference</text>
<polyline fill="none" stroke="black" points="633,-517.5 779,-517.5 "/>
<text text-anchor="start" x="640" y="-504" font-family="Arial" font-size="10.00">application_id </text>
<text text-anchor="start" x="703" y="-504" font-family="Arial Italic" font-size="10.00" fill="#999999">integer (8) ∗ FK</text>
<text text-anchor="start" x="640" y="-491" font-family="Arial" font-size="10.00">position_id </text>
<text text-anchor="start" x="690" y="-491" font-family="Arial Italic" font-size="10.00" fill="#999999">integer (8) ∗ FK</text>
<text text-anchor="start" x="640" y="-478" font-family="Arial" font-size="10.00">preference_level </text>
<text text-anchor="start" x="715" y="-478" font-family="Arial Italic" font-size="10.00" fill="#999999">integer</text>
</g>
<!-- m_Application&#45;&gt;m_PositionPreference -->
<g id="edge18" class="edge">
<title>m_Application&#45;&gt;m_PositionPreference</title>
<path fill="none" stroke="black" d="M584.25,-499.29C597.21,-499.69 610.74,-500.11 623.87,-500.51"/>
<polygon fill="black" stroke="black" points="623.78,-503.66 632.87,-500.79 623.97,-497.36 623.78,-503.66"/>
</g>
<!-- m_Ddah -->
<g id="node10" class="node">
<title>m_Ddah</title>
<path fill="none" stroke="black" d="M827,-574.5C827,-574.5 953,-574.5 953,-574.5 959,-574.5 965,-580.5 965,-586.5 965,-586.5 965,-683.5 965,-683.5 965,-689.5 959,-695.5 953,-695.5 953,-695.5 827,-695.5 827,-695.5 821,-695.5 815,-689.5 815,-683.5 815,-683.5 815,-586.5 815,-586.5 815,-580.5 821,-574.5 827,-574.5"/>
<text text-anchor="start" x="874" y="-682.7" font-family="Arial Bold" font-size="11.00">Ddah</text>
<polyline fill="none" stroke="black" points="815,-675.5 965,-675.5 "/>
<text text-anchor="start" x="822" y="-662" font-family="Arial" font-size="10.00">accepted_date </text>
<text text-anchor="start" x="889" y="-662" font-family="Arial Italic" font-size="10.00" fill="#999999">datetime</text>
<text text-anchor="start" x="822" y="-649" font-family="Arial" font-size="10.00">approved_date </text>
<text text-anchor="start" x="889" y="-649" font-family="Arial Italic" font-size="10.00" fill="#999999">datetime</text>
<text text-anchor="start" x="822" y="-636" font-family="Arial" font-size="10.00">assignment_id </text>
<text text-anchor="start" x="889" y="-636" font-family="Arial Italic" font-size="10.00" fill="#999999">integer (8) ∗ FK</text>
<text text-anchor="start" x="822" y="-623" font-family="Arial" font-size="10.00">emailed_date </text>
<text text-anchor="start" x="883" y="-623" font-family="Arial Italic" font-size="10.00" fill="#999999">datetime</text>
<text text-anchor="start" x="822" y="-610" font-family="Arial" font-size="10.00">revised_date </text>
<text text-anchor="start" x="881" y="-610" font-family="Arial Italic" font-size="10.00" fill="#999999">datetime</text>
<text text-anchor="start" x="822" y="-597" font-family="Arial" font-size="10.00">signature </text>
<text text-anchor="start" x="865" y="-597" font-family="Arial Italic" font-size="10.00" fill="#999999">string</text>
<text text-anchor="start" x="822" y="-584" font-family="Arial" font-size="10.00">url_token </text>
<text text-anchor="start" x="865" y="-584" font-family="Arial Italic" font-size="10.00" fill="#999999">string</text>
</g>
<!-- m_Assignment&#45;&gt;m_Ddah -->
<g id="edge5" class="edge">
<title>m_Assignment&#45;&gt;m_Ddah</title>
<path fill="none" stroke="black" d="M778.15,-635C790.21,-635 802.76,-635 814.9,-635"/>
</g>
<!-- m_Offer -->
<g id="node13" class="node">
<title>m_Offer</title>
<path fill="none" stroke="black" d="M827,-189.5C827,-189.5 953,-189.5 953,-189.5 959,-189.5 965,-195.5 965,-201.5 965,-201.5 965,-532.5 965,-532.5 965,-538.5 959,-544.5 953,-544.5 953,-544.5 827,-544.5 827,-544.5 821,-544.5 815,-538.5 815,-532.5 815,-532.5 815,-201.5 815,-201.5 815,-195.5 821,-189.5 827,-189.5"/>
<text text-anchor="start" x="874.5" y="-531.7" font-family="Arial Bold" font-size="11.00">Offer</text>
<polyline fill="none" stroke="black" points="815,-524.5 965,-524.5 "/>
<text text-anchor="start" x="822" y="-511" font-family="Arial" font-size="10.00">accepted_date </text>
<text text-anchor="start" x="889" y="-511" font-family="Arial Italic" font-size="10.00" fill="#999999">datetime</text>
<text text-anchor="start" x="822" y="-498" font-family="Arial" font-size="10.00">assignment_id </text>
<text text-anchor="start" x="889" y="-498" font-family="Arial Italic" font-size="10.00" fill="#999999">integer (8) ∗ FK</text>
<text text-anchor="start" x="822" y="-485" font-family="Arial" font-size="10.00">contract_override_pdf </text>
<text text-anchor="start" x="919" y="-485" font-family="Arial Italic" font-size="10.00" fill="#999999">string</text>
<text text-anchor="start" x="822" y="-472" font-family="Arial" font-size="10.00">contract_template </text>
<text text-anchor="start" x="904" y="-472" font-family="Arial Italic" font-size="10.00" fill="#999999">string</text>
<text text-anchor="start" x="822" y="-459" font-family="Arial" font-size="10.00">email </text>
<text text-anchor="start" x="849" y="-459" font-family="Arial Italic" font-size="10.00" fill="#999999">string</text>
<text text-anchor="start" x="822" y="-446" font-family="Arial" font-size="10.00">emailed_date </text>
<text text-anchor="start" x="883" y="-446" font-family="Arial Italic" font-size="10.00" fill="#999999">datetime</text>
<text text-anchor="start" x="822" y="-433" font-family="Arial" font-size="10.00">first_name </text>
<text text-anchor="start" x="871" y="-433" font-family="Arial Italic" font-size="10.00" fill="#999999">string</text>
<text text-anchor="start" x="822" y="-420" font-family="Arial" font-size="10.00">first_time_ta </text>
<text text-anchor="start" x="880" y="-420" font-family="Arial Italic" font-size="10.00" fill="#999999">boolean</text>
<text text-anchor="start" x="822" y="-407" font-family="Arial" font-size="10.00">hours </text>
<text text-anchor="start" x="850" y="-407" font-family="Arial Italic" font-size="10.00" fill="#999999">float</text>
<text text-anchor="start" x="822" y="-394" font-family="Arial" font-size="10.00">installments </text>
<text text-anchor="start" x="878" y="-394" font-family="Arial Italic" font-size="10.00" fill="#999999">integer</text>
<text text-anchor="start" x="822" y="-381" font-family="Arial" font-size="10.00">instructor_contact_desc </text>
<text text-anchor="start" x="930" y="-381" font-family="Arial Italic" font-size="10.00" fill="#999999">string</text>
<text text-anchor="start" x="822" y="-368" font-family="Arial" font-size="10.00">last_name </text>
<text text-anchor="start" x="871" y="-368" font-family="Arial Italic" font-size="10.00" fill="#999999">string</text>
<text text-anchor="start" x="822" y="-355" font-family="Arial" font-size="10.00">nag_count </text>
<text text-anchor="start" x="871" y="-355" font-family="Arial Italic" font-size="10.00" fill="#999999">integer</text>
<text text-anchor="start" x="822" y="-342" font-family="Arial" font-size="10.00">pay_period_desc </text>
<text text-anchor="start" x="899" y="-342" font-family="Arial Italic" font-size="10.00" fill="#999999">string</text>
<text text-anchor="start" x="822" y="-329" font-family="Arial" font-size="10.00">position_code </text>
<text text-anchor="start" x="886" y="-329" font-family="Arial Italic" font-size="10.00" fill="#999999">string</text>
<text text-anchor="start" x="822" y="-316" font-family="Arial" font-size="10.00">position_end_date </text>
<text text-anchor="start" x="904" y="-316" font-family="Arial Italic" font-size="10.00" fill="#999999">datetime</text>
<text text-anchor="start" x="822" y="-303" font-family="Arial" font-size="10.00">position_start_date </text>
<text text-anchor="start" x="908" y="-303" font-family="Arial Italic" font-size="10.00" fill="#999999">datetime</text>
<text text-anchor="start" x="822" y="-290" font-family="Arial" font-size="10.00">position_title </text>
<text text-anchor="start" x="880" y="-290" font-family="Arial Italic" font-size="10.00" fill="#999999">string</text>
<text text-anchor="start" x="822" y="-277" font-family="Arial" font-size="10.00">rejected_date </text>
<text text-anchor="start" x="884" y="-277" font-family="Arial Italic" font-size="10.00" fill="#999999">datetime</text>
<text text-anchor="start" x="822" y="-264" font-family="Arial" font-size="10.00">signature </text>
<text text-anchor="start" x="865" y="-264" font-family="Arial Italic" font-size="10.00" fill="#999999">string</text>
<text text-anchor="start" x="822" y="-251" font-family="Arial" font-size="10.00">status </text>
<text text-anchor="start" x="853" y="-251" font-family="Arial Italic" font-size="10.00" fill="#999999">integer ∗</text>
<text text-anchor="start" x="822" y="-238" font-family="Arial" font-size="10.00">ta_coordinator_email </text>
<text text-anchor="start" x="916" y="-238" font-family="Arial Italic" font-size="10.00" fill="#999999">string</text>
<text text-anchor="start" x="822" y="-225" font-family="Arial" font-size="10.00">ta_coordinator_name </text>
<text text-anchor="start" x="916" y="-225" font-family="Arial Italic" font-size="10.00" fill="#999999">string</text>
<text text-anchor="start" x="822" y="-212" font-family="Arial" font-size="10.00">url_token </text>
<text text-anchor="start" x="865" y="-212" font-family="Arial Italic" font-size="10.00" fill="#999999">string</text>
<text text-anchor="start" x="822" y="-199" font-family="Arial" font-size="10.00">withdrawn_date </text>
<text text-anchor="start" x="894" y="-199" font-family="Arial Italic" font-size="10.00" fill="#999999">datetime</text>
</g>
<!-- m_Assignment&#45;&gt;m_Offer -->
<g id="edge16" class="edge">
<title>m_Assignment&#45;&gt;m_Offer</title>
<path fill="none" stroke="black" d="M761.74,-574.36C767.76,-566.98 773.64,-559.42 779,-552 789.53,-537.42 799.99,-521.79 810.03,-506.01"/>
<polygon fill="black" stroke="black" points="812.78,-507.55 814.92,-498.25 807.45,-504.18 812.78,-507.55"/>
</g>
<!-- m_WageChunk -->
<g id="node21" class="node">
<title>m_WageChunk</title>
<path fill="none" stroke="black" d="M827,-725.5C827,-725.5 953,-725.5 953,-725.5 959,-725.5 965,-731.5 965,-737.5 965,-737.5 965,-808.5 965,-808.5 965,-814.5 959,-820.5 953,-820.5 953,-820.5 827,-820.5 827,-820.5 821,-820.5 815,-814.5 815,-808.5 815,-808.5 815,-737.5 815,-737.5 815,-731.5 821,-725.5 827,-725.5"/>
<text text-anchor="start" x="856" y="-807.7" font-family="Arial Bold" font-size="11.00">WageChunk</text>
<polyline fill="none" stroke="black" points="815,-800.5 965,-800.5 "/>
<text text-anchor="start" x="822" y="-787" font-family="Arial" font-size="10.00">assignment_id </text>
<text text-anchor="start" x="889" y="-787" font-family="Arial Italic" font-size="10.00" fill="#999999">integer (8) ∗ FK</text>
<text text-anchor="start" x="822" y="-774" font-family="Arial" font-size="10.00">end_date </text>
<text text-anchor="start" x="865" y="-774" font-family="Arial Italic" font-size="10.00" fill="#999999">datetime</text>
<text text-anchor="start" x="822" y="-761" font-family="Arial" font-size="10.00">hours </text>
<text text-anchor="start" x="850" y="-761" font-family="Arial Italic" font-size="10.00" fill="#999999">float</text>
<text text-anchor="start" x="822" y="-748" font-family="Arial" font-size="10.00">rate </text>
<text text-anchor="start" x="842" y="-748" font-family="Arial Italic" font-size="10.00" fill="#999999">float</text>
<text text-anchor="start" x="822" y="-735" font-family="Arial" font-size="10.00">start_date </text>
<text text-anchor="start" x="869" y="-735" font-family="Arial Italic" font-size="10.00" fill="#999999">datetime</text>
</g>
<!-- m_Assignment&#45;&gt;m_WageChunk -->
<g id="edge17" class="edge">
<title>m_Assignment&#45;&gt;m_WageChunk</title>
<path fill="none" stroke="black" d="M778.15,-688.95C791.52,-699.09 805.5,-709.69 818.84,-719.81"/>
<polygon fill="black" stroke="black" points="817.11,-722.44 826.19,-725.37 820.92,-717.42 817.11,-722.44"/>
</g>
<!-- m_ContractTemplate -->
<g id="node9" class="node">
<title>m_ContractTemplate</title>
<path fill="none" stroke="black" d="M240.5,-792.5C240.5,-792.5 360.5,-792.5 360.5,-792.5 366.5,-792.5 372.5,-798.5 372.5,-804.5 372.5,-804.5 372.5,-849.5 372.5,-849.5 372.5,-855.5 366.5,-861.5 360.5,-861.5 360.5,-861.5 240.5,-861.5 240.5,-861.5 234.5,-861.5 228.5,-855.5 228.5,-849.5 228.5,-849.5 228.5,-804.5 228.5,-804.5 228.5,-798.5 234.5,-792.5 240.5,-792.5"/>
<text text-anchor="start" x="251.5" y="-848.7" font-family="Arial Bold" font-size="11.00">ContractTemplate</text>
<polyline fill="none" stroke="black" points="228.5,-841.5 372.5,-841.5 "/>
<text text-anchor="start" x="235.5" y="-828" font-family="Arial" font-size="10.00">session_id </text>
<text text-anchor="start" x="285.5" y="-828" font-family="Arial Italic" font-size="10.00" fill="#999999">integer (8) ∗ FK</text>
<text text-anchor="start" x="235.5" y="-815" font-family="Arial" font-size="10.00">template_file </text>
<text text-anchor="start" x="294.5" y="-815" font-family="Arial Italic" font-size="10.00" fill="#999999">string ∗</text>
<text text-anchor="start" x="235.5" y="-802" font-family="Arial" font-size="10.00">template_name </text>
<text text-anchor="start" x="305.5" y="-802" font-family="Arial Italic" font-size="10.00" fill="#999999">string ∗ U</text>
</g>
<!-- m_Position -->
<g id="node14" class="node">
<title>m_Position</title>
<path fill="none" stroke="black" d="M432,-680C432,-680 585,-680 585,-680 591,-680 597,-686 597,-692 597,-692 597,-854 597,-854 597,-860 591,-866 585,-866 585,-866 432,-866 432,-866 426,-866 420,-860 420,-854 420,-854 420,-692 420,-692 420,-686 426,-680 432,-680"/>
<text text-anchor="start" x="484.5" y="-853.2" font-family="Arial Bold" font-size="11.00">Position</text>
<polyline fill="none" stroke="black" points="420,-846 597,-846 "/>
<text text-anchor="start" x="427.5" y="-833" font-family="Arial" font-size="10.00">contract_template_id </text>
<text text-anchor="start" x="521.5" y="-833" font-family="Arial Italic" font-size="10.00" fill="#999999">integer (8) ∗ FK</text>
<text text-anchor="start" x="427.5" y="-820" font-family="Arial" font-size="10.00">current_enrollment </text>
<text text-anchor="start" x="511.5" y="-820" font-family="Arial Italic" font-size="10.00" fill="#999999">integer</text>
<text text-anchor="start" x="427.5" y="-807" font-family="Arial" font-size="10.00">current_waitlisted </text>
<text text-anchor="start" x="507.5" y="-807" font-family="Arial Italic" font-size="10.00" fill="#999999">integer</text>
<text text-anchor="start" x="427.5" y="-794" font-family="Arial" font-size="10.00">desired_num_assignments </text>
<text text-anchor="start" x="547.5" y="-794" font-family="Arial Italic" font-size="10.00" fill="#999999">integer</text>
<text text-anchor="start" x="427.5" y="-781" font-family="Arial" font-size="10.00">duties </text>
<text text-anchor="start" x="457.5" y="-781" font-family="Arial Italic" font-size="10.00" fill="#999999">text</text>
<text text-anchor="start" x="427.5" y="-768" font-family="Arial" font-size="10.00">end_date </text>
<text text-anchor="start" x="470.5" y="-768" font-family="Arial Italic" font-size="10.00" fill="#999999">datetime</text>
<text text-anchor="start" x="427.5" y="-755" font-family="Arial" font-size="10.00">hours_per_assignment </text>
<text text-anchor="start" x="529.5" y="-755" font-family="Arial Italic" font-size="10.00" fill="#999999">float</text>
<text text-anchor="start" x="427.5" y="-742" font-family="Arial" font-size="10.00">position_code </text>
<text text-anchor="start" x="491.5" y="-742" font-family="Arial Italic" font-size="10.00" fill="#999999">string ∗ U</text>
<text text-anchor="start" x="427.5" y="-729" font-family="Arial" font-size="10.00">position_title </text>
<text text-anchor="start" x="485.5" y="-729" font-family="Arial Italic" font-size="10.00" fill="#999999">string</text>
<text text-anchor="start" x="427.5" y="-716" font-family="Arial" font-size="10.00">qualifications </text>
<text text-anchor="start" x="488.5" y="-716" font-family="Arial Italic" font-size="10.00" fill="#999999">text</text>
<text text-anchor="start" x="427.5" y="-703" font-family="Arial" font-size="10.00">session_id </text>
<text text-anchor="start" x="477.5" y="-703" font-family="Arial Italic" font-size="10.00" fill="#999999">integer (8) ∗ FK</text>
<text text-anchor="start" x="427.5" y="-690" font-family="Arial" font-size="10.00">start_date </text>
<text text-anchor="start" x="474.5" y="-690" font-family="Arial Italic" font-size="10.00" fill="#999999">datetime</text>
</g>
<!-- m_ContractTemplate&#45;&gt;m_Position -->
<g id="edge13" class="edge">
<title>m_ContractTemplate&#45;&gt;m_Position</title>
<path fill="none" stroke="black" d="M372.68,-808.34C385.06,-805.1 398.12,-801.67 411.04,-798.29"/>
<polygon fill="black" stroke="black" points="412.04,-801.28 419.95,-795.95 410.45,-795.18 412.04,-801.28"/>
</g>
<!-- m_Duty -->
<g id="node11" class="node">
<title>m_Duty</title>
<path fill="none" stroke="black" d="M1013,-594C1013,-594 1133,-594 1133,-594 1139,-594 1145,-600 1145,-606 1145,-606 1145,-664 1145,-664 1145,-670 1139,-676 1133,-676 1133,-676 1013,-676 1013,-676 1007,-676 1001,-670 1001,-664 1001,-664 1001,-606 1001,-606 1001,-600 1007,-594 1013,-594"/>
<text text-anchor="start" x="1058.5" y="-663.2" font-family="Arial Bold" font-size="11.00">Duty</text>
<polyline fill="none" stroke="black" points="1001,-656 1145,-656 "/>
<text text-anchor="start" x="1008" y="-643" font-family="Arial" font-size="10.00">ddah_id </text>
<text text-anchor="start" x="1045" y="-643" font-family="Arial Italic" font-size="10.00" fill="#999999">integer (8) FK</text>
<text text-anchor="start" x="1008" y="-630" font-family="Arial" font-size="10.00">description </text>
<text text-anchor="start" x="1059" y="-630" font-family="Arial Italic" font-size="10.00" fill="#999999">string</text>
<text text-anchor="start" x="1008" y="-617" font-family="Arial" font-size="10.00">hours </text>
<text text-anchor="start" x="1036" y="-617" font-family="Arial Italic" font-size="10.00" fill="#999999">float</text>
<text text-anchor="start" x="1008" y="-604" font-family="Arial" font-size="10.00">order </text>
<text text-anchor="start" x="1033" y="-604" font-family="Arial Italic" font-size="10.00" fill="#999999">integer</text>
</g>
<!-- m_Ddah&#45;&gt;m_Duty -->
<g id="edge6" class="edge">
<title>m_Ddah&#45;&gt;m_Duty</title>
<path fill="none" stroke="black" d="M965.14,-635C973.91,-635 982.89,-635 991.74,-635"/>
<polygon fill="black" stroke="black" points="991.89,-638.15 1000.89,-635 991.89,-631.85 991.89,-638.15"/>
</g>
<!-- m_Instructor -->
<g id="node12" class="node">
<title>m_Instructor</title>
<path fill="none" stroke="black" d="M240.5,-680C240.5,-680 360.5,-680 360.5,-680 366.5,-680 372.5,-686 372.5,-692 372.5,-692 372.5,-750 372.5,-750 372.5,-756 366.5,-762 360.5,-762 360.5,-762 240.5,-762 240.5,-762 234.5,-762 228.5,-756 228.5,-750 228.5,-750 228.5,-692 228.5,-692 228.5,-686 234.5,-680 240.5,-680"/>
<text text-anchor="start" x="272.5" y="-749.2" font-family="Arial Bold" font-size="11.00">Instructor</text>
<polyline fill="none" stroke="black" points="228.5,-742 372.5,-742 "/>
<text text-anchor="start" x="235.5" y="-729" font-family="Arial" font-size="10.00">email </text>
<text text-anchor="start" x="262.5" y="-729" font-family="Arial Italic" font-size="10.00" fill="#999999">string</text>
<text text-anchor="start" x="235.5" y="-716" font-family="Arial" font-size="10.00">first_name </text>
<text text-anchor="start" x="284.5" y="-716" font-family="Arial Italic" font-size="10.00" fill="#999999">string ∗</text>
<text text-anchor="start" x="235.5" y="-703" font-family="Arial" font-size="10.00">last_name </text>
<text text-anchor="start" x="284.5" y="-703" font-family="Arial Italic" font-size="10.00" fill="#999999">string ∗</text>
<text text-anchor="start" x="235.5" y="-690" font-family="Arial" font-size="10.00">utorid </text>
<text text-anchor="start" x="263.5" y="-690" font-family="Arial Italic" font-size="10.00" fill="#999999">string ∗ U</text>
</g>
<!-- m_Instructor&#45;&gt;m_Position -->
<g id="edge9" class="edge">
<title>m_Instructor&#45;&gt;m_Position</title>
<path fill="none" stroke="black" d="M381.72,-741.25C391.31,-743.67 401.19,-746.16 410.99,-748.64"/>
<polygon fill="black" stroke="black" points="382.18,-738.12 372.68,-738.97 380.64,-744.23 382.18,-738.12"/>
<polygon fill="black" stroke="black" points="410.45,-751.75 419.95,-750.9 412,-745.64 410.45,-751.75"/>
</g>
<!-- m_Position&#45;&gt;m_Assignment -->
<g id="edge10" class="edge">
<title>m_Position&#45;&gt;m_Assignment</title>
<path fill="none" stroke="black" d="M597.24,-711.06C606.93,-704.22 616.76,-697.29 626.33,-690.53"/>
<polygon fill="black" stroke="black" points="628.41,-692.92 633.94,-685.16 624.77,-687.78 628.41,-692.92"/>
</g>
<!-- m_Position&#45;&gt;m_PositionPreference -->
<g id="edge11" class="edge">
<title>m_Position&#45;&gt;m_PositionPreference</title>
<path fill="none" stroke="black" d="M553.1,-679.9C574.11,-640.31 601.59,-595.07 633,-559 637.61,-553.71 642.78,-548.57 648.17,-543.7"/>
<polygon fill="black" stroke="black" points="650.38,-545.95 655.11,-537.67 646.25,-541.2 650.38,-545.95"/>
</g>
<!-- m_PostingPosition -->
<g id="node17" class="node">
<title>m_PostingPosition</title>
<path fill="none" stroke="black" d="M646,-318C646,-318 766,-318 766,-318 772,-318 778,-324 778,-330 778,-330 778,-388 778,-388 778,-394 772,-400 766,-400 766,-400 646,-400 646,-400 640,-400 634,-394 634,-388 634,-388 634,-330 634,-330 634,-324 640,-318 646,-318"/>
<text text-anchor="start" x="661.5" y="-387.2" font-family="Arial Bold" font-size="11.00">PostingPosition</text>
<polyline fill="none" stroke="black" points="634,-380 778,-380 "/>
<text text-anchor="start" x="641" y="-367" font-family="Arial" font-size="10.00">hours </text>
<text text-anchor="start" x="669" y="-367" font-family="Arial Italic" font-size="10.00" fill="#999999">float</text>
<text text-anchor="start" x="641" y="-354" font-family="Arial" font-size="10.00">num_positions </text>
<text text-anchor="start" x="708" y="-354" font-family="Arial Italic" font-size="10.00" fill="#999999">integer</text>
<text text-anchor="start" x="641" y="-341" font-family="Arial" font-size="10.00">position_id </text>
<text text-anchor="start" x="691" y="-341" font-family="Arial Italic" font-size="10.00" fill="#999999">integer (8) ∗ FK</text>
<text text-anchor="start" x="641" y="-328" font-family="Arial" font-size="10.00">posting_id </text>
<text text-anchor="start" x="689" y="-328" font-family="Arial Italic" font-size="10.00" fill="#999999">integer (8) ∗ FK</text>
</g>
<!-- m_Position&#45;&gt;m_PostingPosition -->
<g id="edge21" class="edge">
<title>m_Position&#45;&gt;m_PostingPosition</title>
<path fill="none" stroke="black" d="M563.24,-679.81C575.53,-655.95 587.71,-629.96 597,-605 621.22,-539.94 603.24,-515.72 633,-453 640.58,-437.03 651.19,-421.18 661.95,-407.17"/>
<polygon fill="black" stroke="black" points="664.48,-409.04 667.57,-400.02 659.53,-405.15 664.48,-409.04"/>
</g>
<!-- m_ReportingTag -->
<g id="node18" class="node">
<title>m_ReportingTag</title>
<path fill="none" stroke="black" d="M645.5,-738.5C645.5,-738.5 766.5,-738.5 766.5,-738.5 772.5,-738.5 778.5,-744.5 778.5,-750.5 778.5,-750.5 778.5,-795.5 778.5,-795.5 778.5,-801.5 772.5,-807.5 766.5,-807.5 766.5,-807.5 645.5,-807.5 645.5,-807.5 639.5,-807.5 633.5,-801.5 633.5,-795.5 633.5,-795.5 633.5,-750.5 633.5,-750.5 633.5,-744.5 639.5,-738.5 645.5,-738.5"/>
<text text-anchor="start" x="668" y="-794.7" font-family="Arial Bold" font-size="11.00">ReportingTag</text>
<polyline fill="none" stroke="black" points="633.5,-787.5 778.5,-787.5 "/>
<text text-anchor="start" x="641" y="-774" font-family="Arial" font-size="10.00">name </text>
<text text-anchor="start" x="669" y="-774" font-family="Arial Italic" font-size="10.00" fill="#999999">string</text>
<text text-anchor="start" x="641" y="-761" font-family="Arial" font-size="10.00">position_id </text>
<text text-anchor="start" x="691" y="-761" font-family="Arial Italic" font-size="10.00" fill="#999999">integer (8) FK</text>
<text text-anchor="start" x="641" y="-748" font-family="Arial" font-size="10.00">wage_chunk_id </text>
<text text-anchor="start" x="712" y="-748" font-family="Arial Italic" font-size="10.00" fill="#999999">integer (8) FK</text>
</g>
<!-- m_Position&#45;&gt;m_ReportingTag -->
<g id="edge8" class="edge">
<title>m_Position&#45;&gt;m_ReportingTag</title>
<path fill="none" stroke="black" d="M606.33,-773C612.3,-773 618.28,-773 624.17,-773"/>
<polygon fill="black" stroke="black" points="606.24,-769.85 597.24,-773 606.24,-776.15 606.24,-769.85"/>
<polygon fill="black" stroke="black" points="624.35,-776.15 633.35,-773 624.35,-769.85 624.35,-776.15"/>
</g>
<!-- m_Posting -->
<g id="node16" class="node">
<title>m_Posting</title>
<path fill="none" stroke="black" d="M240.5,-319C240.5,-319 360.5,-319 360.5,-319 366.5,-319 372.5,-325 372.5,-331 372.5,-331 372.5,-441 372.5,-441 372.5,-447 366.5,-453 360.5,-453 360.5,-453 240.5,-453 240.5,-453 234.5,-453 228.5,-447 228.5,-441 228.5,-441 228.5,-331 228.5,-331 228.5,-325 234.5,-319 240.5,-319"/>
<text text-anchor="start" x="278" y="-440.2" font-family="Arial Bold" font-size="11.00">Posting</text>
<polyline fill="none" stroke="black" points="228.5,-433 372.5,-433 "/>
<text text-anchor="start" x="235.5" y="-420" font-family="Arial" font-size="10.00">availability </text>
<text text-anchor="start" x="284.5" y="-420" font-family="Arial Italic" font-size="10.00" fill="#999999">integer</text>
<text text-anchor="start" x="235.5" y="-407" font-family="Arial" font-size="10.00">close_date </text>
<text text-anchor="start" x="286.5" y="-407" font-family="Arial Italic" font-size="10.00" fill="#999999">datetime</text>
<text text-anchor="start" x="235.5" y="-394" font-family="Arial" font-size="10.00">custom_questions </text>
<text text-anchor="start" x="318.5" y="-394" font-family="Arial Italic" font-size="10.00" fill="#999999">text</text>
<text text-anchor="start" x="235.5" y="-381" font-family="Arial" font-size="10.00">intro_text </text>
<text text-anchor="start" x="279.5" y="-381" font-family="Arial Italic" font-size="10.00" fill="#999999">text</text>
<text text-anchor="start" x="235.5" y="-368" font-family="Arial" font-size="10.00">name </text>
<text text-anchor="start" x="263.5" y="-368" font-family="Arial Italic" font-size="10.00" fill="#999999">string ∗ U</text>
<text text-anchor="start" x="235.5" y="-355" font-family="Arial" font-size="10.00">open_date </text>
<text text-anchor="start" x="284.5" y="-355" font-family="Arial Italic" font-size="10.00" fill="#999999">datetime</text>
<text text-anchor="start" x="235.5" y="-342" font-family="Arial" font-size="10.00">session_id </text>
<text text-anchor="start" x="285.5" y="-342" font-family="Arial Italic" font-size="10.00" fill="#999999">integer (8) ∗ FK</text>
<text text-anchor="start" x="235.5" y="-329" font-family="Arial" font-size="10.00">url_token </text>
<text text-anchor="start" x="278.5" y="-329" font-family="Arial Italic" font-size="10.00" fill="#999999">string</text>
</g>
<!-- m_Posting&#45;&gt;m_Application -->
<g id="edge19" class="edge">
<title>m_Posting&#45;&gt;m_Application</title>
<path fill="none" stroke="black" d="M372.68,-424.36C389.37,-433.35 407.3,-443.01 424.46,-452.25"/>
<polygon fill="black" stroke="black" points="423.39,-455.26 432.81,-456.75 426.38,-449.71 423.39,-455.26"/>
</g>
<!-- m_Posting&#45;&gt;m_PostingPosition -->
<g id="edge20" class="edge">
<title>m_Posting&#45;&gt;m_PostingPosition</title>
<path fill="none" stroke="black" d="M372.71,-381.24C443.22,-376.52 551.02,-369.3 624.58,-364.38"/>
<polygon fill="black" stroke="black" points="625.06,-367.51 633.83,-363.76 624.64,-361.22 625.06,-367.51"/>
</g>
<!-- m_ReportingTag&#45;&gt;m_WageChunk -->
<g id="edge7" class="edge">
<title>m_ReportingTag&#45;&gt;m_WageChunk</title>
<path fill="none" stroke="black" d="M787.9,-773C793.75,-773 799.66,-773 805.53,-773"/>
<polygon fill="black" stroke="black" points="787.67,-769.85 778.67,-773 787.67,-776.15 787.67,-769.85"/>
<polygon fill="black" stroke="black" points="805.7,-776.15 814.7,-773 805.7,-769.85 805.7,-776.15"/>
</g>
<!-- m_Session -->
<g id="node19" class="node">
<title>m_Session</title>
<path fill="none" stroke="black" d="M30.5,-614.5C30.5,-614.5 150.5,-614.5 150.5,-614.5 156.5,-614.5 162.5,-620.5 162.5,-626.5 162.5,-626.5 162.5,-697.5 162.5,-697.5 162.5,-703.5 156.5,-709.5 150.5,-709.5 150.5,-709.5 30.5,-709.5 30.5,-709.5 24.5,-709.5 18.5,-703.5 18.5,-697.5 18.5,-697.5 18.5,-626.5 18.5,-626.5 18.5,-620.5 24.5,-614.5 30.5,-614.5"/>
<text text-anchor="start" x="67" y="-696.7" font-family="Arial Bold" font-size="11.00">Session</text>
<polyline fill="none" stroke="black" points="18.5,-689.5 162.5,-689.5 "/>
<text text-anchor="start" x="25.5" y="-676" font-family="Arial" font-size="10.00">end_date </text>
<text text-anchor="start" x="68.5" y="-676" font-family="Arial Italic" font-size="10.00" fill="#999999">datetime</text>
<text text-anchor="start" x="25.5" y="-663" font-family="Arial" font-size="10.00">name </text>
<text text-anchor="start" x="53.5" y="-663" font-family="Arial Italic" font-size="10.00" fill="#999999">string ∗ U</text>
<text text-anchor="start" x="25.5" y="-650" font-family="Arial" font-size="10.00">rate1 </text>
<text text-anchor="start" x="50.5" y="-650" font-family="Arial Italic" font-size="10.00" fill="#999999">float</text>
<text text-anchor="start" x="25.5" y="-637" font-family="Arial" font-size="10.00">rate2 </text>
<text text-anchor="start" x="50.5" y="-637" font-family="Arial Italic" font-size="10.00" fill="#999999">float</text>
<text text-anchor="start" x="25.5" y="-624" font-family="Arial" font-size="10.00">start_date </text>
<text text-anchor="start" x="72.5" y="-624" font-family="Arial Italic" font-size="10.00" fill="#999999">datetime</text>
</g>
<!-- m_Session&#45;&gt;m_Application -->
<g id="edge1" class="edge">
<title>m_Session&#45;&gt;m_Application</title>
<path fill="none" stroke="black" d="M122.21,-614.28C144.58,-583.84 177.76,-546.56 217,-527 281.2,-495 363.17,-489.21 423.66,-490.43"/>
<polygon fill="black" stroke="black" points="423.72,-493.58 432.8,-490.67 423.89,-487.28 423.72,-493.58"/>
</g>
<!-- m_Session&#45;&gt;m_ContractTemplate -->
<g id="edge4" class="edge">
<title>m_Session&#45;&gt;m_ContractTemplate</title>
<path fill="none" stroke="black" d="M162.78,-708.59C169.19,-713.83 175.38,-719.33 181,-725 200.8,-744.95 196.53,-757.74 217,-777 220.58,-780.37 224.43,-783.63 228.43,-786.75"/>
<polygon fill="black" stroke="black" points="226.68,-789.38 235.78,-792.22 230.45,-784.32 226.68,-789.38"/>
</g>
<!-- m_Session&#45;&gt;m_Position -->
<g id="edge2" class="edge">
<title>m_Session&#45;&gt;m_Position</title>
<path fill="none" stroke="black" d="M162.62,-704.23C169.55,-710.51 175.89,-717.45 181,-725 219.91,-782.49 162.55,-833.94 217,-877 275.22,-923.04 314.28,-902.45 384,-877 393.57,-873.51 402.92,-868.91 411.9,-863.59"/>
<polygon fill="black" stroke="black" points="413.73,-866.17 419.71,-858.74 410.4,-860.81 413.73,-866.17"/>
</g>
<!-- m_Session&#45;&gt;m_Posting -->
<g id="edge3" class="edge">
<title>m_Session&#45;&gt;m_Posting</title>
<path fill="none" stroke="black" d="M120.49,-614.47C144.76,-575.79 181.1,-520.38 217,-475 220.95,-470 225.13,-464.94 229.41,-459.91"/>
<polygon fill="black" stroke="black" points="231.82,-461.93 235.31,-453.06 227.05,-457.82 231.82,-461.93"/>
</g>
<!-- m_User -->
<g id="node20" class="node">
<title>m_User</title>
<path fill="none" stroke="black" d="M30.5,-739.5C30.5,-739.5 150.5,-739.5 150.5,-739.5 156.5,-739.5 162.5,-745.5 162.5,-751.5 162.5,-751.5 162.5,-796.5 162.5,-796.5 162.5,-802.5 156.5,-808.5 150.5,-808.5 150.5,-808.5 30.5,-808.5 30.5,-808.5 24.5,-808.5 18.5,-802.5 18.5,-796.5 18.5,-796.5 18.5,-751.5 18.5,-751.5 18.5,-745.5 24.5,-739.5 30.5,-739.5"/>
<text text-anchor="start" x="76" y="-795.7" font-family="Arial Bold" font-size="11.00">User</text>
<polyline fill="none" stroke="black" points="18.5,-788.5 162.5,-788.5 "/>
<text text-anchor="start" x="25.5" y="-775" font-family="Arial" font-size="10.00">last_seen </text>
<text text-anchor="start" x="71.5" y="-775" font-family="Arial Italic" font-size="10.00" fill="#999999">datetime</text>
<text text-anchor="start" x="25.5" y="-762" font-family="Arial" font-size="10.00">roles_mask </text>
<text text-anchor="start" x="79.5" y="-762" font-family="Arial Italic" font-size="10.00" fill="#999999">integer</text>
<text text-anchor="start" x="25.5" y="-749" font-family="Arial" font-size="10.00">utorid </text>
<text text-anchor="start" x="53.5" y="-749" font-family="Arial Italic" font-size="10.00" fill="#999999">string ∗ U</text>
</g>
</g>
</svg>
