<?xml version="1.0" encoding="UTF-8" standalone="no"?>
<!DOCTYPE svg PUBLIC "-//W3C//DTD SVG 1.1//EN"
 "http://www.w3.org/Graphics/SVG/1.1/DTD/svg11.dtd">
<!-- Generated by graphviz version 2.44.0 ()
 -->
<!-- Title: Tapp Pages: 1 -->
<svg width="1198pt" height="977pt"
 viewBox="0.00 0.00 1197.60 977.10" xmlns="http://www.w3.org/2000/svg" xmlns:xlink="http://www.w3.org/1999/xlink">
<g id="graph0" class="graph" transform="scale(1 1) rotate(0) translate(28.8 948.3)">
<title>Tapp</title>
<polygon fill="white" stroke="transparent" points="-28.8,28.8 -28.8,-948.3 1168.8,-948.3 1168.8,28.8 -28.8,28.8"/>
<text text-anchor="middle" x="570" y="-905.1" font-family="Arial Bold" font-size="13.00">ER Diagram</text>
<!-- m_ActiveRecord::InternalMetadata -->
<g id="node1" class="node">
<title>m_ActiveRecord::InternalMetadata</title>
<path fill="none" stroke="black" d="M14.5,-140C14.5,-140 166.5,-140 166.5,-140 172.5,-140 178.5,-146 178.5,-152 178.5,-152 178.5,-171 178.5,-171 178.5,-177 172.5,-183 166.5,-183 166.5,-183 14.5,-183 14.5,-183 8.5,-183 2.5,-177 2.5,-171 2.5,-171 2.5,-152 2.5,-152 2.5,-146 8.5,-140 14.5,-140"/>
<text text-anchor="start" x="7.5" y="-170.2" font-family="Arial Bold" font-size="11.00">ActiveRecord::InternalMetadata</text>
<polyline fill="none" stroke="black" points="2.5,-163 178.5,-163 "/>
<text text-anchor="start" x="25.5" y="-149.5" font-family="Arial" font-size="10.00">value </text>
<text text-anchor="start" x="52.5" y="-149.5" font-family="Arial Italic" font-size="10.00" fill="#999999">string</text>
</g>
<!-- m_ActiveRecord::SchemaMigration -->
<g id="node2" class="node">
<title>m_ActiveRecord::SchemaMigration</title>
<path fill="none" stroke="black" d="M12,-213.5C12,-213.5 169,-213.5 169,-213.5 175,-213.5 181,-219.5 181,-225.5 181,-225.5 181,-237.5 181,-237.5 181,-243.5 175,-249.5 169,-249.5 169,-249.5 12,-249.5 12,-249.5 6,-249.5 0,-243.5 0,-237.5 0,-237.5 0,-225.5 0,-225.5 0,-219.5 6,-213.5 12,-213.5"/>
<text text-anchor="start" x="5.5" y="-228.7" font-family="Arial Bold" font-size="11.00">ActiveRecord::SchemaMigration</text>
</g>
<!-- m_Applicant -->
<g id="node3" class="node">
<title>m_Applicant</title>
<path fill="none" stroke="black" d="M229,-540.5C229,-540.5 349,-540.5 349,-540.5 355,-540.5 361,-546.5 361,-552.5 361,-552.5 361,-636.5 361,-636.5 361,-642.5 355,-648.5 349,-648.5 349,-648.5 229,-648.5 229,-648.5 223,-648.5 217,-642.5 217,-636.5 217,-636.5 217,-552.5 217,-552.5 217,-546.5 223,-540.5 229,-540.5"/>
<text text-anchor="start" x="261.5" y="-635.7" font-family="Arial Bold" font-size="11.00">Applicant</text>
<polyline fill="none" stroke="black" points="217,-628.5 361,-628.5 "/>
<text text-anchor="start" x="224" y="-615.5" font-family="Arial" font-size="10.00">email </text>
<text text-anchor="start" x="251" y="-615.5" font-family="Arial Italic" font-size="10.00" fill="#999999">string</text>
<text text-anchor="start" x="224" y="-602.5" font-family="Arial" font-size="10.00">first_name </text>
<text text-anchor="start" x="273" y="-602.5" font-family="Arial Italic" font-size="10.00" fill="#999999">string</text>
<text text-anchor="start" x="224" y="-589.5" font-family="Arial" font-size="10.00">last_name </text>
<text text-anchor="start" x="273" y="-589.5" font-family="Arial Italic" font-size="10.00" fill="#999999">string</text>
<text text-anchor="start" x="224" y="-576.5" font-family="Arial" font-size="10.00">phone </text>
<text text-anchor="start" x="254" y="-576.5" font-family="Arial Italic" font-size="10.00" fill="#999999">string</text>
<text text-anchor="start" x="224" y="-563.5" font-family="Arial" font-size="10.00">student_number </text>
<text text-anchor="start" x="297" y="-563.5" font-family="Arial Italic" font-size="10.00" fill="#999999">string</text>
<text text-anchor="start" x="224" y="-550.5" font-family="Arial" font-size="10.00">utorid </text>
<text text-anchor="start" x="252" y="-550.5" font-family="Arial Italic" font-size="10.00" fill="#999999">string ∗ U</text>
</g>
<!-- m_ApplicantDataForMatching -->
<g id="node4" class="node">
<title>m_ApplicantDataForMatching</title>
<path fill="none" stroke="black" d="M628.5,-613.5C628.5,-613.5 755.5,-613.5 755.5,-613.5 761.5,-613.5 767.5,-619.5 767.5,-625.5 767.5,-625.5 767.5,-709.5 767.5,-709.5 767.5,-715.5 761.5,-721.5 755.5,-721.5 755.5,-721.5 628.5,-721.5 628.5,-721.5 622.5,-721.5 616.5,-715.5 616.5,-709.5 616.5,-709.5 616.5,-625.5 616.5,-625.5 616.5,-619.5 622.5,-613.5 628.5,-613.5"/>
<text text-anchor="start" x="622" y="-708.7" font-family="Arial Bold" font-size="11.00">ApplicantDataForMatching</text>
<polyline fill="none" stroke="black" points="616.5,-701.5 767.5,-701.5 "/>
<text text-anchor="start" x="626" y="-688.5" font-family="Arial" font-size="10.00">annotation </text>
<text text-anchor="start" x="675" y="-688.5" font-family="Arial Italic" font-size="10.00" fill="#999999">string</text>
<text text-anchor="start" x="626" y="-675.5" font-family="Arial" font-size="10.00">applicant_id </text>
<text text-anchor="start" x="681" y="-675.5" font-family="Arial Italic" font-size="10.00" fill="#999999">integer (8) ∗ FK</text>
<text text-anchor="start" x="626" y="-662.5" font-family="Arial" font-size="10.00">department </text>
<text text-anchor="start" x="678" y="-662.5" font-family="Arial Italic" font-size="10.00" fill="#999999">string</text>
<text text-anchor="start" x="626" y="-649.5" font-family="Arial" font-size="10.00">previous_uoft_experience </text>
<text text-anchor="start" x="741" y="-649.5" font-family="Arial Italic" font-size="10.00" fill="#999999">text</text>
<text text-anchor="start" x="626" y="-636.5" font-family="Arial" font-size="10.00">program </text>
<text text-anchor="start" x="665" y="-636.5" font-family="Arial Italic" font-size="10.00" fill="#999999">string</text>
<text text-anchor="start" x="626" y="-623.5" font-family="Arial" font-size="10.00">yip </text>
<text text-anchor="start" x="642" y="-623.5" font-family="Arial Italic" font-size="10.00" fill="#999999">integer</text>
</g>
<!-- m_Applicant&#45;&gt;m_ApplicantDataForMatching -->
<g id="edge3" class="edge">
<title>m_Applicant&#45;&gt;m_ApplicantDataForMatching</title>
<path fill="none" stroke="black" d="M486.5,-630.5C529.98,-630.74 577.83,-638.95 616.31,-647.58"/>
</g>
<!-- m_Application -->
<g id="node5" class="node">
<title>m_Application</title>
<path fill="none" stroke="black" d="M425.5,-389C425.5,-389 545.5,-389 545.5,-389 551.5,-389 557.5,-395 557.5,-401 557.5,-401 557.5,-446 557.5,-446 557.5,-452 551.5,-458 545.5,-458 545.5,-458 425.5,-458 425.5,-458 419.5,-458 413.5,-452 413.5,-446 413.5,-446 413.5,-401 413.5,-401 413.5,-395 419.5,-389 425.5,-389"/>
<text text-anchor="start" x="453" y="-445.2" font-family="Arial Bold" font-size="11.00">Application</text>
<polyline fill="none" stroke="black" points="413.5,-438 557.5,-438 "/>
<text text-anchor="start" x="420.5" y="-424.5" font-family="Arial" font-size="10.00">applicant_id </text>
<text text-anchor="start" x="475.5" y="-424.5" font-family="Arial Italic" font-size="10.00" fill="#999999">integer (8) ∗ FK</text>
<text text-anchor="start" x="420.5" y="-411.5" font-family="Arial" font-size="10.00">comments </text>
<text text-anchor="start" x="469.5" y="-411.5" font-family="Arial Italic" font-size="10.00" fill="#999999">text</text>
<text text-anchor="start" x="420.5" y="-398.5" font-family="Arial" font-size="10.00">session_id </text>
<text text-anchor="start" x="470.5" y="-398.5" font-family="Arial Italic" font-size="10.00" fill="#999999">integer (8) ∗ FK</text>
</g>
<!-- m_Applicant&#45;&gt;m_Application -->
<g id="edge2" class="edge">
<title>m_Applicant&#45;&gt;m_Application</title>
<path fill="none" stroke="black" d="M351.54,-540.39C379.64,-515.69 412.35,-486.93 438.3,-464.12"/>
<polygon fill="black" stroke="black" points="440.4,-466.46 445.08,-458.16 436.24,-461.73 440.4,-466.46"/>
</g>
<!-- m_Assignment -->
<g id="node6" class="node">
<title>m_Assignment</title>
<path fill="none" stroke="black" d="M632,-462C632,-462 752,-462 752,-462 758,-462 764,-468 764,-474 764,-474 764,-571 764,-571 764,-577 758,-583 752,-583 752,-583 632,-583 632,-583 626,-583 620,-577 620,-571 620,-571 620,-474 620,-474 620,-468 626,-462 632,-462"/>
<text text-anchor="start" x="658" y="-570.2" font-family="Arial Bold" font-size="11.00">Assignment</text>
<polyline fill="none" stroke="black" points="620,-563 764,-563 "/>
<text text-anchor="start" x="627" y="-549.5" font-family="Arial" font-size="10.00">active_offer_id </text>
<text text-anchor="start" x="694" y="-549.5" font-family="Arial Italic" font-size="10.00" fill="#999999">integer (8) FK</text>
<text text-anchor="start" x="627" y="-536.5" font-family="Arial" font-size="10.00">applicant_id </text>
<text text-anchor="start" x="682" y="-536.5" font-family="Arial Italic" font-size="10.00" fill="#999999">integer (8) ∗ FK</text>
<text text-anchor="start" x="627" y="-523.5" font-family="Arial" font-size="10.00">contract_override_pdf </text>
<text text-anchor="start" x="724" y="-523.5" font-family="Arial Italic" font-size="10.00" fill="#999999">string</text>
<text text-anchor="start" x="627" y="-510.5" font-family="Arial" font-size="10.00">end_date </text>
<text text-anchor="start" x="670" y="-510.5" font-family="Arial Italic" font-size="10.00" fill="#999999">datetime</text>
<text text-anchor="start" x="627" y="-497.5" font-family="Arial" font-size="10.00">note </text>
<text text-anchor="start" x="649" y="-497.5" font-family="Arial Italic" font-size="10.00" fill="#999999">text</text>
<text text-anchor="start" x="627" y="-484.5" font-family="Arial" font-size="10.00">position_id </text>
<text text-anchor="start" x="677" y="-484.5" font-family="Arial Italic" font-size="10.00" fill="#999999">integer (8) ∗ FK</text>
<text text-anchor="start" x="627" y="-471.5" font-family="Arial" font-size="10.00">start_date </text>
<text text-anchor="start" x="674" y="-471.5" font-family="Arial Italic" font-size="10.00" fill="#999999">datetime</text>
</g>
<!-- m_Applicant&#45;&gt;m_Assignment -->
<g id="edge1" class="edge">
<title>m_Applicant&#45;&gt;m_Assignment</title>
<path fill="none" stroke="black" d="M361.01,-613.89C397.6,-622.28 443.12,-630.27 484.5,-630.5"/>
<path fill="none" stroke="black" d="M486.5,-630.5C531.48,-630.75 576.26,-610.09 612.39,-586.79"/>
<polygon fill="black" stroke="black" points="614.2,-589.37 619.97,-581.78 610.72,-584.11 614.2,-589.37"/>
</g>
<!-- m_Application&#45;&gt;m_ApplicantDataForMatching -->
<g id="edge4" class="edge">
<title>m_Application&#45;&gt;m_ApplicantDataForMatching</title>
<path fill="none" stroke="black" d="M507.37,-458.28C530.24,-495.03 569.13,-553.73 610,-598.5 612.59,-601.34 615.3,-604.17 618.08,-606.98"/>
<polygon fill="black" stroke="black" points="616.08,-609.43 624.7,-613.49 620.49,-604.94 616.08,-609.43"/>
</g>
<!-- m_Position -->
<g id="node12" class="node">
<title>m_Position</title>
<path fill="none" stroke="black" d="M409,-238C409,-238 562,-238 562,-238 568,-238 574,-244 574,-250 574,-250 574,-347 574,-347 574,-353 568,-359 562,-359 562,-359 409,-359 409,-359 403,-359 397,-353 397,-347 397,-347 397,-250 397,-250 397,-244 403,-238 409,-238"/>
<text text-anchor="start" x="461.5" y="-346.2" font-family="Arial Bold" font-size="11.00">Position</text>
<polyline fill="none" stroke="black" points="397,-339 574,-339 "/>
<text text-anchor="start" x="404.5" y="-325.5" font-family="Arial" font-size="10.00">contract_template_id </text>
<text text-anchor="start" x="498.5" y="-325.5" font-family="Arial Italic" font-size="10.00" fill="#999999">integer (8) ∗ FK</text>
<text text-anchor="start" x="404.5" y="-312.5" font-family="Arial" font-size="10.00">end_date </text>
<text text-anchor="start" x="447.5" y="-312.5" font-family="Arial Italic" font-size="10.00" fill="#999999">datetime</text>
<text text-anchor="start" x="404.5" y="-299.5" font-family="Arial" font-size="10.00">hours_per_assignment </text>
<text text-anchor="start" x="506.5" y="-299.5" font-family="Arial Italic" font-size="10.00" fill="#999999">float</text>
<text text-anchor="start" x="404.5" y="-286.5" font-family="Arial" font-size="10.00">position_code </text>
<text text-anchor="start" x="468.5" y="-286.5" font-family="Arial Italic" font-size="10.00" fill="#999999">string ∗ U</text>
<text text-anchor="start" x="404.5" y="-273.5" font-family="Arial" font-size="10.00">position_title </text>
<text text-anchor="start" x="462.5" y="-273.5" font-family="Arial Italic" font-size="10.00" fill="#999999">string</text>
<text text-anchor="start" x="404.5" y="-260.5" font-family="Arial" font-size="10.00">session_id </text>
<text text-anchor="start" x="454.5" y="-260.5" font-family="Arial Italic" font-size="10.00" fill="#999999">integer (8) ∗ FK</text>
<text text-anchor="start" x="404.5" y="-247.5" font-family="Arial" font-size="10.00">start_date </text>
<text text-anchor="start" x="451.5" y="-247.5" font-family="Arial Italic" font-size="10.00" fill="#999999">datetime</text>
</g>
<!-- m_PositionPreference -->
<g id="node15" class="node">
<title>m_PositionPreference</title>
<path fill="none" stroke="black" d="M631,-363C631,-363 753,-363 753,-363 759,-363 765,-369 765,-375 765,-375 765,-420 765,-420 765,-426 759,-432 753,-432 753,-432 631,-432 631,-432 625,-432 619,-426 619,-420 619,-420 619,-375 619,-375 619,-369 625,-363 631,-363"/>
<text text-anchor="start" x="639.5" y="-419.2" font-family="Arial Bold" font-size="11.00">PositionPreference</text>
<polyline fill="none" stroke="black" points="619,-412 765,-412 "/>
<text text-anchor="start" x="626" y="-398.5" font-family="Arial" font-size="10.00">application_id </text>
<text text-anchor="start" x="689" y="-398.5" font-family="Arial Italic" font-size="10.00" fill="#999999">integer (8) ∗ FK</text>
<text text-anchor="start" x="626" y="-385.5" font-family="Arial" font-size="10.00">position_id </text>
<text text-anchor="start" x="676" y="-385.5" font-family="Arial Italic" font-size="10.00" fill="#999999">integer (8) ∗ FK</text>
<text text-anchor="start" x="626" y="-372.5" font-family="Arial" font-size="10.00">preference_level </text>
<text text-anchor="start" x="701" y="-372.5" font-family="Arial Italic" font-size="10.00" fill="#999999">integer</text>
</g>
<!-- m_Application&#45;&gt;m_PositionPreference -->
<g id="edge5" class="edge">
<title>m_Application&#45;&gt;m_PositionPreference</title>
<path fill="none" stroke="black" d="M557.74,-414.44C574.62,-412.3 592.75,-409.99 610.03,-407.79"/>
<polygon fill="black" stroke="black" points="610.45,-410.92 618.98,-406.66 609.65,-404.67 610.45,-410.92"/>
</g>
<!-- m_Ddah -->
<g id="node8" class="node">
<title>m_Ddah</title>
<path fill="none" stroke="black" d="M822,-376C822,-376 948,-376 948,-376 954,-376 960,-382 960,-388 960,-388 960,-485 960,-485 960,-491 954,-497 948,-497 948,-497 822,-497 822,-497 816,-497 810,-491 810,-485 810,-485 810,-388 810,-388 810,-382 816,-376 822,-376"/>
<text text-anchor="start" x="869" y="-484.2" font-family="Arial Bold" font-size="11.00">Ddah</text>
<polyline fill="none" stroke="black" points="810,-477 960,-477 "/>
<text text-anchor="start" x="817" y="-463.5" font-family="Arial" font-size="10.00">accepted_date </text>
<text text-anchor="start" x="884" y="-463.5" font-family="Arial Italic" font-size="10.00" fill="#999999">datetime</text>
<text text-anchor="start" x="817" y="-450.5" font-family="Arial" font-size="10.00">approved_date </text>
<text text-anchor="start" x="884" y="-450.5" font-family="Arial Italic" font-size="10.00" fill="#999999">datetime</text>
<text text-anchor="start" x="817" y="-437.5" font-family="Arial" font-size="10.00">assignment_id </text>
<text text-anchor="start" x="884" y="-437.5" font-family="Arial Italic" font-size="10.00" fill="#999999">integer (8) ∗ FK</text>
<text text-anchor="start" x="817" y="-424.5" font-family="Arial" font-size="10.00">emailed_date </text>
<text text-anchor="start" x="878" y="-424.5" font-family="Arial Italic" font-size="10.00" fill="#999999">datetime</text>
<text text-anchor="start" x="817" y="-411.5" font-family="Arial" font-size="10.00">revised_date </text>
<text text-anchor="start" x="876" y="-411.5" font-family="Arial Italic" font-size="10.00" fill="#999999">datetime</text>
<text text-anchor="start" x="817" y="-398.5" font-family="Arial" font-size="10.00">signature </text>
<text text-anchor="start" x="860" y="-398.5" font-family="Arial Italic" font-size="10.00" fill="#999999">string</text>
<text text-anchor="start" x="817" y="-385.5" font-family="Arial" font-size="10.00">url_token </text>
<text text-anchor="start" x="860" y="-385.5" font-family="Arial Italic" font-size="10.00" fill="#999999">string</text>
</g>
<!-- m_Assignment&#45;&gt;m_Ddah -->
<g id="edge10" class="edge">
<title>m_Assignment&#45;&gt;m_Ddah</title>
<path fill="none" stroke="black" d="M764.12,-490.48C779.08,-483.74 794.89,-476.62 809.95,-469.84"/>
</g>
<!-- m_Offer -->
<g id="node11" class="node">
<title>m_Offer</title>
<path fill="none" stroke="black" d="M822,-527C822,-527 948,-527 948,-527 954,-527 960,-533 960,-539 960,-539 960,-870 960,-870 960,-876 954,-882 948,-882 948,-882 822,-882 822,-882 816,-882 810,-876 810,-870 810,-870 810,-539 810,-539 810,-533 816,-527 822,-527"/>
<text text-anchor="start" x="869.5" y="-869.2" font-family="Arial Bold" font-size="11.00">Offer</text>
<polyline fill="none" stroke="black" points="810,-862 960,-862 "/>
<text text-anchor="start" x="817" y="-848.5" font-family="Arial" font-size="10.00">accepted_date </text>
<text text-anchor="start" x="884" y="-848.5" font-family="Arial Italic" font-size="10.00" fill="#999999">datetime</text>
<text text-anchor="start" x="817" y="-835.5" font-family="Arial" font-size="10.00">assignment_id </text>
<text text-anchor="start" x="884" y="-835.5" font-family="Arial Italic" font-size="10.00" fill="#999999">integer (8) ∗ FK</text>
<text text-anchor="start" x="817" y="-822.5" font-family="Arial" font-size="10.00">contract_override_pdf </text>
<text text-anchor="start" x="914" y="-822.5" font-family="Arial Italic" font-size="10.00" fill="#999999">string</text>
<text text-anchor="start" x="817" y="-809.5" font-family="Arial" font-size="10.00">contract_template </text>
<text text-anchor="start" x="899" y="-809.5" font-family="Arial Italic" font-size="10.00" fill="#999999">string</text>
<text text-anchor="start" x="817" y="-796.5" font-family="Arial" font-size="10.00">email </text>
<text text-anchor="start" x="844" y="-796.5" font-family="Arial Italic" font-size="10.00" fill="#999999">string</text>
<text text-anchor="start" x="817" y="-783.5" font-family="Arial" font-size="10.00">emailed_date </text>
<text text-anchor="start" x="878" y="-783.5" font-family="Arial Italic" font-size="10.00" fill="#999999">datetime</text>
<text text-anchor="start" x="817" y="-770.5" font-family="Arial" font-size="10.00">first_name </text>
<text text-anchor="start" x="866" y="-770.5" font-family="Arial Italic" font-size="10.00" fill="#999999">string</text>
<text text-anchor="start" x="817" y="-757.5" font-family="Arial" font-size="10.00">first_time_ta </text>
<text text-anchor="start" x="875" y="-757.5" font-family="Arial Italic" font-size="10.00" fill="#999999">boolean</text>
<text text-anchor="start" x="817" y="-744.5" font-family="Arial" font-size="10.00">hours </text>
<text text-anchor="start" x="845" y="-744.5" font-family="Arial Italic" font-size="10.00" fill="#999999">float</text>
<text text-anchor="start" x="817" y="-731.5" font-family="Arial" font-size="10.00">installments </text>
<text text-anchor="start" x="873" y="-731.5" font-family="Arial Italic" font-size="10.00" fill="#999999">integer</text>
<text text-anchor="start" x="817" y="-718.5" font-family="Arial" font-size="10.00">instructor_contact_desc </text>
<text text-anchor="start" x="925" y="-718.5" font-family="Arial Italic" font-size="10.00" fill="#999999">string</text>
<text text-anchor="start" x="817" y="-705.5" font-family="Arial" font-size="10.00">last_name </text>
<text text-anchor="start" x="866" y="-705.5" font-family="Arial Italic" font-size="10.00" fill="#999999">string</text>
<text text-anchor="start" x="817" y="-692.5" font-family="Arial" font-size="10.00">nag_count </text>
<text text-anchor="start" x="866" y="-692.5" font-family="Arial Italic" font-size="10.00" fill="#999999">integer</text>
<text text-anchor="start" x="817" y="-679.5" font-family="Arial" font-size="10.00">pay_period_desc </text>
<text text-anchor="start" x="894" y="-679.5" font-family="Arial Italic" font-size="10.00" fill="#999999">string</text>
<text text-anchor="start" x="817" y="-666.5" font-family="Arial" font-size="10.00">position_code </text>
<text text-anchor="start" x="881" y="-666.5" font-family="Arial Italic" font-size="10.00" fill="#999999">string</text>
<text text-anchor="start" x="817" y="-653.5" font-family="Arial" font-size="10.00">position_end_date </text>
<text text-anchor="start" x="899" y="-653.5" font-family="Arial Italic" font-size="10.00" fill="#999999">datetime</text>
<text text-anchor="start" x="817" y="-640.5" font-family="Arial" font-size="10.00">position_start_date </text>
<text text-anchor="start" x="903" y="-640.5" font-family="Arial Italic" font-size="10.00" fill="#999999">datetime</text>
<text text-anchor="start" x="817" y="-627.5" font-family="Arial" font-size="10.00">position_title </text>
<text text-anchor="start" x="875" y="-627.5" font-family="Arial Italic" font-size="10.00" fill="#999999">string</text>
<text text-anchor="start" x="817" y="-614.5" font-family="Arial" font-size="10.00">rejected_date </text>
<text text-anchor="start" x="879" y="-614.5" font-family="Arial Italic" font-size="10.00" fill="#999999">datetime</text>
<text text-anchor="start" x="817" y="-601.5" font-family="Arial" font-size="10.00">signature </text>
<text text-anchor="start" x="860" y="-601.5" font-family="Arial Italic" font-size="10.00" fill="#999999">string</text>
<text text-anchor="start" x="817" y="-588.5" font-family="Arial" font-size="10.00">status </text>
<text text-anchor="start" x="848" y="-588.5" font-family="Arial Italic" font-size="10.00" fill="#999999">integer ∗</text>
<text text-anchor="start" x="817" y="-575.5" font-family="Arial" font-size="10.00">ta_coordinator_email </text>
<text text-anchor="start" x="911" y="-575.5" font-family="Arial Italic" font-size="10.00" fill="#999999">string</text>
<text text-anchor="start" x="817" y="-562.5" font-family="Arial" font-size="10.00">ta_coordinator_name </text>
<text text-anchor="start" x="911" y="-562.5" font-family="Arial Italic" font-size="10.00" fill="#999999">string</text>
<text text-anchor="start" x="817" y="-549.5" font-family="Arial" font-size="10.00">url_token </text>
<text text-anchor="start" x="860" y="-549.5" font-family="Arial Italic" font-size="10.00" fill="#999999">string</text>
<text text-anchor="start" x="817" y="-536.5" font-family="Arial" font-size="10.00">withdrawn_date </text>
<text text-anchor="start" x="889" y="-536.5" font-family="Arial Italic" font-size="10.00" fill="#999999">datetime</text>
</g>
<!-- m_Assignment&#45;&gt;m_Offer -->
<g id="edge8" class="edge">
<title>m_Assignment&#45;&gt;m_Offer</title>
<path fill="none" stroke="black" d="M758.06,-583.4C763.46,-588.5 768.83,-593.58 774,-598.5 783.45,-607.48 793.32,-616.93 803.11,-626.32"/>
<polygon fill="black" stroke="black" points="801.2,-628.85 809.87,-632.81 805.56,-624.3 801.2,-628.85"/>
</g>
<!-- m_WageChunk -->
<g id="node19" class="node">
<title>m_WageChunk</title>
<path fill="none" stroke="black" d="M822,-251C822,-251 948,-251 948,-251 954,-251 960,-257 960,-263 960,-263 960,-334 960,-334 960,-340 954,-346 948,-346 948,-346 822,-346 822,-346 816,-346 810,-340 810,-334 810,-334 810,-263 810,-263 810,-257 816,-251 822,-251"/>
<text text-anchor="start" x="851" y="-333.2" font-family="Arial Bold" font-size="11.00">WageChunk</text>
<polyline fill="none" stroke="black" points="810,-326 960,-326 "/>
<text text-anchor="start" x="817" y="-312.5" font-family="Arial" font-size="10.00">assignment_id </text>
<text text-anchor="start" x="884" y="-312.5" font-family="Arial Italic" font-size="10.00" fill="#999999">integer (8) ∗ FK</text>
<text text-anchor="start" x="817" y="-299.5" font-family="Arial" font-size="10.00">end_date </text>
<text text-anchor="start" x="860" y="-299.5" font-family="Arial Italic" font-size="10.00" fill="#999999">datetime</text>
<text text-anchor="start" x="817" y="-286.5" font-family="Arial" font-size="10.00">hours </text>
<text text-anchor="start" x="845" y="-286.5" font-family="Arial Italic" font-size="10.00" fill="#999999">float</text>
<text text-anchor="start" x="817" y="-273.5" font-family="Arial" font-size="10.00">rate </text>
<text text-anchor="start" x="837" y="-273.5" font-family="Arial Italic" font-size="10.00" fill="#999999">float</text>
<text text-anchor="start" x="817" y="-260.5" font-family="Arial" font-size="10.00">start_date </text>
<text text-anchor="start" x="864" y="-260.5" font-family="Arial Italic" font-size="10.00" fill="#999999">datetime</text>
</g>
<!-- m_Assignment&#45;&gt;m_WageChunk -->
<g id="edge9" class="edge">
<title>m_Assignment&#45;&gt;m_WageChunk</title>
<path fill="none" stroke="black" d="M762.02,-461.85C766.31,-456.86 770.36,-451.72 774,-446.5 797.47,-412.85 785.73,-394.58 810,-361.5 812.07,-358.68 814.29,-355.91 816.62,-353.19"/>
<polygon fill="black" stroke="black" points="819.31,-354.91 823.02,-346.12 814.64,-350.68 819.31,-354.91"/>
</g>
<!-- m_ContractTemplate -->
<g id="node7" class="node">
<title>m_ContractTemplate</title>
<path fill="none" stroke="black" d="M229,-197C229,-197 349,-197 349,-197 355,-197 361,-203 361,-209 361,-209 361,-254 361,-254 361,-260 355,-266 349,-266 349,-266 229,-266 229,-266 223,-266 217,-260 217,-254 217,-254 217,-209 217,-209 217,-203 223,-197 229,-197"/>
<text text-anchor="start" x="240" y="-253.2" font-family="Arial Bold" font-size="11.00">ContractTemplate</text>
<polyline fill="none" stroke="black" points="217,-246 361,-246 "/>
<text text-anchor="start" x="224" y="-232.5" font-family="Arial" font-size="10.00">session_id </text>
<text text-anchor="start" x="274" y="-232.5" font-family="Arial Italic" font-size="10.00" fill="#999999">integer (8) ∗ FK</text>
<text text-anchor="start" x="224" y="-219.5" font-family="Arial" font-size="10.00">template_file </text>
<text text-anchor="start" x="283" y="-219.5" font-family="Arial Italic" font-size="10.00" fill="#999999">string ∗</text>
<text text-anchor="start" x="224" y="-206.5" font-family="Arial" font-size="10.00">template_name </text>
<text text-anchor="start" x="294" y="-206.5" font-family="Arial Italic" font-size="10.00" fill="#999999">string ∗ U</text>
</g>
<!-- m_ContractTemplate&#45;&gt;m_Position -->
<g id="edge20" class="edge">
<title>m_ContractTemplate&#45;&gt;m_Position</title>
<path fill="none" stroke="black" d="M361.04,-255.97C369.84,-259 378.95,-262.14 388.05,-265.28"/>
<polygon fill="black" stroke="black" points="387.23,-268.32 396.76,-268.28 389.28,-262.37 387.23,-268.32"/>
</g>
<!-- m_Duty -->
<g id="node9" class="node">
<title>m_Duty</title>
<path fill="none" stroke="black" d="M1008,-395.5C1008,-395.5 1128,-395.5 1128,-395.5 1134,-395.5 1140,-401.5 1140,-407.5 1140,-407.5 1140,-465.5 1140,-465.5 1140,-471.5 1134,-477.5 1128,-477.5 1128,-477.5 1008,-477.5 1008,-477.5 1002,-477.5 996,-471.5 996,-465.5 996,-465.5 996,-407.5 996,-407.5 996,-401.5 1002,-395.5 1008,-395.5"/>
<text text-anchor="start" x="1053.5" y="-464.7" font-family="Arial Bold" font-size="11.00">Duty</text>
<polyline fill="none" stroke="black" points="996,-457.5 1140,-457.5 "/>
<text text-anchor="start" x="1003" y="-444.5" font-family="Arial" font-size="10.00">ddah_id </text>
<text text-anchor="start" x="1040" y="-444.5" font-family="Arial Italic" font-size="10.00" fill="#999999">integer (8) FK</text>
<text text-anchor="start" x="1003" y="-431.5" font-family="Arial" font-size="10.00">description </text>
<text text-anchor="start" x="1054" y="-431.5" font-family="Arial Italic" font-size="10.00" fill="#999999">string</text>
<text text-anchor="start" x="1003" y="-418.5" font-family="Arial" font-size="10.00">hours </text>
<text text-anchor="start" x="1031" y="-418.5" font-family="Arial Italic" font-size="10.00" fill="#999999">float</text>
<text text-anchor="start" x="1003" y="-405.5" font-family="Arial" font-size="10.00">order </text>
<text text-anchor="start" x="1028" y="-405.5" font-family="Arial Italic" font-size="10.00" fill="#999999">integer</text>
</g>
<!-- m_Ddah&#45;&gt;m_Duty -->
<g id="edge13" class="edge">
<title>m_Ddah&#45;&gt;m_Duty</title>
<path fill="none" stroke="black" d="M960.14,-436.5C968.91,-436.5 977.89,-436.5 986.74,-436.5"/>
<polygon fill="black" stroke="black" points="986.89,-439.65 995.89,-436.5 986.89,-433.35 986.89,-439.65"/>
</g>
<!-- m_Instructor -->
<g id="node10" class="node">
<title>m_Instructor</title>
<path fill="none" stroke="black" d="M229,-296.5C229,-296.5 349,-296.5 349,-296.5 355,-296.5 361,-302.5 361,-308.5 361,-308.5 361,-366.5 361,-366.5 361,-372.5 355,-378.5 349,-378.5 349,-378.5 229,-378.5 229,-378.5 223,-378.5 217,-372.5 217,-366.5 217,-366.5 217,-308.5 217,-308.5 217,-302.5 223,-296.5 229,-296.5"/>
<text text-anchor="start" x="261" y="-365.7" font-family="Arial Bold" font-size="11.00">Instructor</text>
<polyline fill="none" stroke="black" points="217,-358.5 361,-358.5 "/>
<text text-anchor="start" x="224" y="-345.5" font-family="Arial" font-size="10.00">email </text>
<text text-anchor="start" x="251" y="-345.5" font-family="Arial Italic" font-size="10.00" fill="#999999">string</text>
<text text-anchor="start" x="224" y="-332.5" font-family="Arial" font-size="10.00">first_name </text>
<text text-anchor="start" x="273" y="-332.5" font-family="Arial Italic" font-size="10.00" fill="#999999">string ∗</text>
<text text-anchor="start" x="224" y="-319.5" font-family="Arial" font-size="10.00">last_name </text>
<text text-anchor="start" x="273" y="-319.5" font-family="Arial Italic" font-size="10.00" fill="#999999">string ∗</text>
<text text-anchor="start" x="224" y="-306.5" font-family="Arial" font-size="10.00">utorid </text>
<text text-anchor="start" x="252" y="-306.5" font-family="Arial Italic" font-size="10.00" fill="#999999">string ∗ U</text>
</g>
<!-- m_Instructor&#45;&gt;m_Position -->
<g id="edge14" class="edge">
<title>m_Instructor&#45;&gt;m_Position</title>
<path fill="none" stroke="black" d="M370.12,-321.43C375.89,-320.28 381.74,-319.11 387.59,-317.93"/>
<polygon fill="black" stroke="black" points="369.25,-318.4 361.04,-323.25 370.49,-324.57 369.25,-318.4"/>
<polygon fill="black" stroke="black" points="388.56,-320.95 396.76,-316.09 387.32,-314.77 388.56,-320.95"/>
</g>
<!-- m_Position&#45;&gt;m_Assignment -->
<g id="edge11" class="edge">
<title>m_Position&#45;&gt;m_Assignment</title>
<path fill="none" stroke="black" d="M560.75,-359.09C565.46,-364.1 569.93,-369.25 574,-374.5 595.93,-402.77 588.62,-417.81 610,-446.5 612.02,-449.21 614.14,-451.91 616.35,-454.58"/>
<polygon fill="black" stroke="black" points="614.1,-456.79 622.35,-461.58 618.88,-452.69 614.1,-456.79"/>
</g>
<!-- m_PositionDataForAd -->
<g id="node13" class="node">
<title>m_PositionDataForAd</title>
<path fill="none" stroke="black" d="M628.5,-113C628.5,-113 755.5,-113 755.5,-113 761.5,-113 767.5,-119 767.5,-125 767.5,-125 767.5,-222 767.5,-222 767.5,-228 761.5,-234 755.5,-234 755.5,-234 628.5,-234 628.5,-234 622.5,-234 616.5,-228 616.5,-222 616.5,-222 616.5,-125 616.5,-125 616.5,-119 622.5,-113 628.5,-113"/>
<text text-anchor="start" x="639.5" y="-221.2" font-family="Arial Bold" font-size="11.00">PositionDataForAd</text>
<polyline fill="none" stroke="black" points="616.5,-214 767.5,-214 "/>
<text text-anchor="start" x="624" y="-200.5" font-family="Arial" font-size="10.00">ad_close_date </text>
<text text-anchor="start" x="691" y="-200.5" font-family="Arial Italic" font-size="10.00" fill="#999999">datetime</text>
<text text-anchor="start" x="624" y="-187.5" font-family="Arial" font-size="10.00">ad_hours_per_assignment </text>
<text text-anchor="start" x="742" y="-187.5" font-family="Arial Italic" font-size="10.00" fill="#999999">float</text>
<text text-anchor="start" x="624" y="-174.5" font-family="Arial" font-size="10.00">ad_num_assignments </text>
<text text-anchor="start" x="723" y="-174.5" font-family="Arial Italic" font-size="10.00" fill="#999999">integer</text>
<text text-anchor="start" x="624" y="-161.5" font-family="Arial" font-size="10.00">ad_open_date </text>
<text text-anchor="start" x="688" y="-161.5" font-family="Arial Italic" font-size="10.00" fill="#999999">datetime</text>
<text text-anchor="start" x="624" y="-148.5" font-family="Arial" font-size="10.00">duties </text>
<text text-anchor="start" x="654" y="-148.5" font-family="Arial Italic" font-size="10.00" fill="#999999">text</text>
<text text-anchor="start" x="624" y="-135.5" font-family="Arial" font-size="10.00">position_id </text>
<text text-anchor="start" x="674" y="-135.5" font-family="Arial Italic" font-size="10.00" fill="#999999">integer (8) ∗ FK</text>
<text text-anchor="start" x="624" y="-122.5" font-family="Arial" font-size="10.00">qualifications </text>
<text text-anchor="start" x="685" y="-122.5" font-family="Arial Italic" font-size="10.00" fill="#999999">text</text>
</g>
<!-- m_Position&#45;&gt;m_PositionDataForAd -->
<g id="edge17" class="edge">
<title>m_Position&#45;&gt;m_PositionDataForAd</title>
<path fill="none" stroke="black" d="M574.12,-244.94C588.21,-236.33 602.68,-227.48 616.43,-219.08"/>
</g>
<!-- m_PositionDataForMatching -->
<g id="node14" class="node">
<title>m_PositionDataForMatching</title>
<path fill="none" stroke="black" d="M622,-0.5C622,-0.5 762,-0.5 762,-0.5 768,-0.5 774,-6.5 774,-12.5 774,-12.5 774,-70.5 774,-70.5 774,-76.5 768,-82.5 762,-82.5 762,-82.5 622,-82.5 622,-82.5 616,-82.5 610,-76.5 610,-70.5 610,-70.5 610,-12.5 610,-12.5 610,-6.5 616,-0.5 622,-0.5"/>
<text text-anchor="start" x="625" y="-69.7" font-family="Arial Bold" font-size="11.00">PositionDataForMatching</text>
<polyline fill="none" stroke="black" points="610,-62.5 774,-62.5 "/>
<text text-anchor="start" x="617" y="-49.5" font-family="Arial" font-size="10.00">current_enrollment </text>
<text text-anchor="start" x="701" y="-49.5" font-family="Arial Italic" font-size="10.00" fill="#999999">integer</text>
<text text-anchor="start" x="617" y="-36.5" font-family="Arial" font-size="10.00">current_waitlisted </text>
<text text-anchor="start" x="697" y="-36.5" font-family="Arial Italic" font-size="10.00" fill="#999999">integer</text>
<text text-anchor="start" x="617" y="-23.5" font-family="Arial" font-size="10.00">desired_num_assignments </text>
<text text-anchor="start" x="737" y="-23.5" font-family="Arial Italic" font-size="10.00" fill="#999999">integer</text>
<text text-anchor="start" x="617" y="-10.5" font-family="Arial" font-size="10.00">position_id </text>
<text text-anchor="start" x="667" y="-10.5" font-family="Arial Italic" font-size="10.00" fill="#999999">integer (8) ∗ FK</text>
</g>
<!-- m_Position&#45;&gt;m_PositionDataForMatching -->
<g id="edge18" class="edge">
<title>m_Position&#45;&gt;m_PositionDataForMatching</title>
<path fill="none" stroke="black" d="M515.3,-237.73C537.33,-195.33 570.56,-139.12 610,-97.5 614.94,-92.29 620.44,-87.28 626.18,-82.55"/>
</g>
<!-- m_Position&#45;&gt;m_PositionPreference -->
<g id="edge16" class="edge">
<title>m_Position&#45;&gt;m_PositionPreference</title>
<path fill="none" stroke="black" d="M574.12,-340.92C586.45,-346.89 599.07,-353 611.24,-358.89"/>
<polygon fill="black" stroke="black" points="610.12,-361.84 619.59,-362.93 612.86,-356.17 610.12,-361.84"/>
</g>
<!-- m_ReportingTag -->
<g id="node16" class="node">
<title>m_ReportingTag</title>
<path fill="none" stroke="black" d="M631.5,-264C631.5,-264 752.5,-264 752.5,-264 758.5,-264 764.5,-270 764.5,-276 764.5,-276 764.5,-321 764.5,-321 764.5,-327 758.5,-333 752.5,-333 752.5,-333 631.5,-333 631.5,-333 625.5,-333 619.5,-327 619.5,-321 619.5,-321 619.5,-276 619.5,-276 619.5,-270 625.5,-264 631.5,-264"/>
<text text-anchor="start" x="654" y="-320.2" font-family="Arial Bold" font-size="11.00">ReportingTag</text>
<polyline fill="none" stroke="black" points="619.5,-313 764.5,-313 "/>
<text text-anchor="start" x="627" y="-299.5" font-family="Arial" font-size="10.00">name </text>
<text text-anchor="start" x="655" y="-299.5" font-family="Arial Italic" font-size="10.00" fill="#999999">string</text>
<text text-anchor="start" x="627" y="-286.5" font-family="Arial" font-size="10.00">position_id </text>
<text text-anchor="start" x="677" y="-286.5" font-family="Arial Italic" font-size="10.00" fill="#999999">integer (8) FK</text>
<text text-anchor="start" x="627" y="-273.5" font-family="Arial" font-size="10.00">wage_chunk_id </text>
<text text-anchor="start" x="698" y="-273.5" font-family="Arial Italic" font-size="10.00" fill="#999999">integer (8) FK</text>
</g>
<!-- m_Position&#45;&gt;m_ReportingTag -->
<g id="edge15" class="edge">
<title>m_Position&#45;&gt;m_ReportingTag</title>
<path fill="none" stroke="black" d="M583.34,-298.5C592.32,-298.5 601.36,-298.5 610.18,-298.5"/>
<polygon fill="black" stroke="black" points="583.12,-295.35 574.12,-298.5 583.12,-301.65 583.12,-295.35"/>
<polygon fill="black" stroke="black" points="610.28,-301.65 619.28,-298.5 610.28,-295.35 610.28,-301.65"/>
</g>
<!-- m_ReportingTag&#45;&gt;m_WageChunk -->
<g id="edge21" class="edge">
<title>m_ReportingTag&#45;&gt;m_WageChunk</title>
<path fill="none" stroke="black" d="M773.72,-298.5C782.58,-298.5 791.61,-298.5 800.5,-298.5"/>
<polygon fill="black" stroke="black" points="773.66,-295.35 764.66,-298.5 773.66,-301.65 773.66,-295.35"/>
<polygon fill="black" stroke="black" points="800.7,-301.65 809.7,-298.5 800.7,-295.35 800.7,-301.65"/>
</g>
<!-- m_Session -->
<g id="node17" class="node">
<title>m_Session</title>
<path fill="none" stroke="black" d="M30.5,-280C30.5,-280 150.5,-280 150.5,-280 156.5,-280 162.5,-286 162.5,-292 162.5,-292 162.5,-363 162.5,-363 162.5,-369 156.5,-375 150.5,-375 150.5,-375 30.5,-375 30.5,-375 24.5,-375 18.5,-369 18.5,-363 18.5,-363 18.5,-292 18.5,-292 18.5,-286 24.5,-280 30.5,-280"/>
<text text-anchor="start" x="67" y="-362.2" font-family="Arial Bold" font-size="11.00">Session</text>
<polyline fill="none" stroke="black" points="18.5,-355 162.5,-355 "/>
<text text-anchor="start" x="25.5" y="-341.5" font-family="Arial" font-size="10.00">end_date </text>
<text text-anchor="start" x="68.5" y="-341.5" font-family="Arial Italic" font-size="10.00" fill="#999999">datetime</text>
<text text-anchor="start" x="25.5" y="-328.5" font-family="Arial" font-size="10.00">name </text>
<text text-anchor="start" x="53.5" y="-328.5" font-family="Arial Italic" font-size="10.00" fill="#999999">string ∗ U</text>
<text text-anchor="start" x="25.5" y="-315.5" font-family="Arial" font-size="10.00">rate1 </text>
<text text-anchor="start" x="50.5" y="-315.5" font-family="Arial Italic" font-size="10.00" fill="#999999">float</text>
<text text-anchor="start" x="25.5" y="-302.5" font-family="Arial" font-size="10.00">rate2 </text>
<text text-anchor="start" x="50.5" y="-302.5" font-family="Arial Italic" font-size="10.00" fill="#999999">float</text>
<text text-anchor="start" x="25.5" y="-289.5" font-family="Arial" font-size="10.00">start_date </text>
<text text-anchor="start" x="72.5" y="-289.5" font-family="Arial Italic" font-size="10.00" fill="#999999">datetime</text>
</g>
<!-- m_Session&#45;&gt;m_Application -->
<g id="edge7" class="edge">
<title>m_Session&#45;&gt;m_Application</title>
<path fill="none" stroke="black" d="M290,-423.5C327.41,-426.17 368.97,-426.52 404.04,-426.07"/>
<polygon fill="black" stroke="black" points="404.33,-429.21 413.28,-425.93 404.23,-422.91 404.33,-429.21"/>
</g>
<!-- m_Session&#45;&gt;m_ContractTemplate -->
<g id="edge12" class="edge">
<title>m_Session&#45;&gt;m_ContractTemplate</title>
<path fill="none" stroke="black" d="M162.72,-292.71C177.73,-285.37 193.66,-277.59 208.94,-270.13"/>
<polygon fill="black" stroke="black" points="210.65,-272.8 217.35,-266.01 207.88,-267.14 210.65,-272.8"/>
</g>
<!-- m_Session&#45;&gt;m_Position -->
<g id="edge19" class="edge">
<title>m_Session&#45;&gt;m_Position</title>
<path fill="none" stroke="black" d="M156.9,-375.08C193.47,-397.52 241.04,-420.15 288,-423.5"/>
<path fill="none" stroke="black" d="M290,-423.5C315.02,-425.29 361.98,-395.53 403.48,-364.6"/>
<polygon fill="black" stroke="black" points="405.6,-366.96 410.9,-359.03 401.81,-361.92 405.6,-366.96"/>
</g>
<!-- m_User -->
<g id="node18" class="node">
<title>m_User</title>
<path fill="none" stroke="black" d="M30.5,-405C30.5,-405 150.5,-405 150.5,-405 156.5,-405 162.5,-411 162.5,-417 162.5,-417 162.5,-462 162.5,-462 162.5,-468 156.5,-474 150.5,-474 150.5,-474 30.5,-474 30.5,-474 24.5,-474 18.5,-468 18.5,-462 18.5,-462 18.5,-417 18.5,-417 18.5,-411 24.5,-405 30.5,-405"/>
<text text-anchor="start" x="76" y="-461.2" font-family="Arial Bold" font-size="11.00">User</text>
<polyline fill="none" stroke="black" points="18.5,-454 162.5,-454 "/>
<text text-anchor="start" x="25.5" y="-440.5" font-family="Arial" font-size="10.00">last_seen </text>
<text text-anchor="start" x="71.5" y="-440.5" font-family="Arial Italic" font-size="10.00" fill="#999999">datetime</text>
<text text-anchor="start" x="25.5" y="-427.5" font-family="Arial" font-size="10.00">roles_mask </text>
<text text-anchor="start" x="79.5" y="-427.5" font-family="Arial Italic" font-size="10.00" fill="#999999">integer</text>
<text text-anchor="start" x="25.5" y="-414.5" font-family="Arial" font-size="10.00">utorid </text>
<text text-anchor="start" x="53.5" y="-414.5" font-family="Arial Italic" font-size="10.00" fill="#999999">string ∗ U</text>
</g>
</g>
</svg>
